M48
; DRILL file {KiCad 9.0.5} date 2025-10-15T10:32:26-0400
; FORMAT={-:-/ absolute / metric / decimal}
; #@! TF.CreationDate,2025-10-15T10:32:26-04:00
; #@! TF.GenerationSoftware,Kicad,Pcbnew,9.0.5
; #@! TF.FileFunction,Plated,1,4,PTH
FMAT,2
METRIC
; #@! TA.AperFunction,Plated,PTH,ViaDrill
T1C0.300
; #@! TA.AperFunction,Plated,PTH,ViaDrill
T2C0.600
; #@! TA.AperFunction,Plated,PTH,ComponentDrill
T3C0.800
; #@! TA.AperFunction,Plated,PTH,ComponentDrill
T4C0.889
; #@! TA.AperFunction,Plated,PTH,ComponentDrill
T5C0.900
; #@! TA.AperFunction,Plated,PTH,ComponentDrill
T6C1.000
; #@! TA.AperFunction,Plated,PTH,ComponentDrill
T7C1.397
; #@! TA.AperFunction,Plated,PTH,ViaDrill
T8C3.600
; #@! TA.AperFunction,Plated,PTH,ComponentDrill
T9C6.100
%
G90
G05
T1
X127.0Y-73.114
X144.0Y-97.0
X145.0Y-101.0
X149.0Y-78.0
X154.0Y-99.0
X167.0Y-97.0
X173.249Y-24.249
X175.0Y-77.0
X179.0Y-108.0
X180.0Y-97.0
T2
X136.0Y-43.0
T3
X133.5Y-27.41
X141.0Y-27.41
X143.68Y-73.114
X146.728Y-73.114
X149.776Y-73.114
X152.824Y-73.114
X155.872Y-73.114
X158.92Y-73.114
X161.968Y-73.114
X165.016Y-73.114
T4
X85.84Y-97.46
X85.84Y-100.0
X85.84Y-102.54
X93.46Y-110.16
X96.0Y-110.16
X98.54Y-110.16
X219.84Y-97.46
X219.84Y-100.0
X219.84Y-102.54
X227.46Y-110.16
X230.0Y-110.16
X232.54Y-110.16
T5
X92.825Y-87.3
X92.825Y-92.38
X99.175Y-87.3
X99.175Y-92.38
X226.825Y-87.3
X226.825Y-92.38
X233.175Y-87.3
X233.175Y-92.38
T6
X143.95Y-89.366
X143.95Y-109.686
X146.49Y-89.366
X146.49Y-109.686
X149.03Y-89.366
X149.03Y-109.686
X151.57Y-89.366
X151.57Y-109.686
X154.11Y-89.366
X154.11Y-109.686
X156.65Y-89.366
X156.65Y-109.686
X157.375Y-24.249
X157.375Y-26.79
X159.19Y-89.366
X159.19Y-109.686
X159.915Y-24.249
X159.915Y-26.79
X161.73Y-89.366
X161.73Y-109.686
X162.455Y-24.249
X162.455Y-26.79
X164.27Y-89.366
X164.27Y-109.686
X164.995Y-24.249
X164.995Y-26.79
X166.81Y-89.366
X166.81Y-109.686
X169.35Y-89.366
X169.35Y-109.686
X171.89Y-89.366
X171.89Y-109.686
X174.43Y-89.366
X176.97Y-89.366
X179.51Y-89.366
X182.05Y-89.366
T7
X88.38Y-93.332
X88.38Y-106.667
X103.62Y-93.332
X103.62Y-106.667
X222.38Y-93.332
X222.38Y-106.667
X237.62Y-93.332
X237.62Y-106.667
T8
X113.0Y-72.0
X113.0Y-149.0
X213.0Y-72.0
X213.0Y-149.0
T9
X148.0Y-134.0
X177.97Y-134.0
T6
X132.8Y-124.5G85X134.2Y-124.5
G05
X132.9Y-129.2G85X134.3Y-129.2
G05
M30
