M48
; DRILL file {KiCad 9.0.5} date 2025-10-24T12:49:45-0400
; FORMAT={-:-/ absolute / metric / decimal}
; #@! TF.CreationDate,2025-10-24T12:49:45-04:00
; #@! TF.GenerationSoftware,Kicad,Pcbnew,9.0.5
; #@! TF.FileFunction,Plated,1,4,PTH
FMAT,2
METRIC
; #@! TA.AperFunction,Plated,PTH,ComponentDrill
T1C0.200
; #@! TA.AperFunction,Plated,PTH,ViaDrill
T2C0.300
; #@! TA.AperFunction,Plated,PTH,ComponentDrill
T3C0.400
; #@! TA.AperFunction,Plated,PTH,ComponentDrill
T4C0.600
; #@! TA.AperFunction,Plated,PTH,ComponentDrill
T5C0.750
; #@! TA.AperFunction,Plated,PTH,ViaDrill
T6C0.800
; #@! TA.AperFunction,Plated,PTH,ComponentDrill
T7C0.800
; #@! TA.AperFunction,Plated,PTH,ComponentDrill
T8C0.889
; #@! TA.AperFunction,Plated,PTH,ComponentDrill
T9C0.900
; #@! TA.AperFunction,Plated,PTH,ComponentDrill
T10C1.000
; #@! TA.AperFunction,Plated,PTH,ComponentDrill
T11C1.397
%
G90
G05
T1
X164.1Y-94.4
X164.1Y-95.8
X164.8Y-93.7
X164.8Y-95.1
X164.8Y-96.5
X165.525Y-94.4
X165.525Y-95.8
X166.2Y-93.7
X166.2Y-95.1
X166.2Y-96.5
X166.9Y-94.4
X166.9Y-95.8
T2
X105.2Y-151.6
X106.2Y-152.8
X107.4Y-151.6
X107.8Y-147.8
X108.6Y-152.8
X108.8Y-146.8
X110.0Y-151.6
X111.0Y-148.4
X111.8Y-136.8
X112.8Y-143.4
X114.8Y-139.0
X118.2Y-138.6
X125.2Y-148.0
X126.6Y-149.2
X127.8Y-148.0
X128.4Y-104.0
X129.0Y-149.2
X130.0Y-148.0
X133.8Y-89.0
X135.2Y-78.6
X140.4Y-141.2
X140.6Y-84.4
X141.6Y-86.4
X142.0Y-100.6
X145.0Y-96.0
X145.0Y-97.0
X151.0Y-114.2
X153.2Y-105.0
X153.956Y-139.8
X154.2Y-82.4
X155.2Y-139.8
X155.6Y-83.2
X155.8Y-134.8
X156.334Y-137.8
X156.593Y-88.0
X157.0Y-141.2
X157.578Y-137.8
X157.6Y-113.4
X158.2Y-97.0
X158.6Y-91.4
X158.823Y-137.8
X159.0Y-100.996
X159.0Y-116.8
X160.0Y-101.6
X160.067Y-137.8
X160.2Y-95.4
X160.4Y-135.8
X160.8Y-144.2
X161.2Y-125.4
X161.311Y-137.8
X162.556Y-137.8
X162.6Y-93.8
X162.6Y-139.2
X163.0Y-127.2
X163.0Y-133.0
X163.4Y-117.6
X163.4Y-123.0
X163.4Y-128.8
X163.8Y-137.8
X163.844Y-139.2
X164.2Y-88.8
X164.2Y-118.8
X164.6Y-128.2
X165.0Y-80.4
X165.134Y-137.8
X165.178Y-139.2
X165.2Y-134.8
X165.8Y-87.0
X165.8Y-98.155
X165.8Y-99.6
X166.378Y-137.8
X167.623Y-137.8
X167.8Y-80.4
X168.4Y-87.6
X168.4Y-142.0
X168.867Y-137.8
X169.0Y-114.6
X169.4Y-97.6
X169.4Y-120.88
X170.0Y-80.4
X170.111Y-137.8
X170.4Y-134.0
X170.6Y-121.0
X171.0Y-82.6
X171.0Y-92.8
X171.0Y-95.8
X171.0Y-126.6
X171.2Y-142.0
X171.356Y-137.8
X171.4Y-121.0
X171.556Y-140.4
X172.2Y-74.4
X172.6Y-121.0
X172.6Y-137.8
X172.8Y-140.4
X173.0Y-79.2
X173.8Y-61.2
X173.8Y-121.0
X174.2Y-148.8
X175.4Y-121.2
X176.8Y-84.6
X176.8Y-121.0
X177.0Y-80.6
X177.0Y-85.8
X177.2Y-83.4
X178.6Y-148.8
X179.0Y-119.8
X180.8Y-146.6
X181.4Y-34.8
X181.42Y-30.58
X182.8Y-148.6
X183.2Y-88.4
X183.2Y-91.4
X184.4Y-92.2
X184.6Y-36.4
X185.2Y-27.2
X185.2Y-146.4
X186.2Y-108.0
X187.8Y-85.2
X188.0Y-89.4
X188.2Y-78.6
X188.4Y-92.6
X189.6Y-93.4
X197.2Y-150.0
X198.2Y-148.8
X199.4Y-150.0
X200.6Y-148.8
X201.4Y-142.2
X202.0Y-150.0
X203.0Y-103.2
X205.2Y-105.6
X207.6Y-103.2
X209.8Y-105.4
X210.2Y-95.4
X213.4Y-105.4
X216.4Y-148.0
X217.8Y-149.2
X219.0Y-148.0
X220.2Y-149.2
X221.2Y-148.0
T3
X115.725Y-148.075
X115.725Y-149.425
X116.575Y-148.075
X116.575Y-149.425
X117.425Y-148.075
X117.425Y-149.425
X118.275Y-148.075
X118.275Y-149.425
X119.125Y-148.075
X119.125Y-149.425
X119.975Y-148.075
X119.975Y-149.425
X120.825Y-148.075
X120.825Y-149.425
X121.675Y-148.075
X121.675Y-149.425
X206.325Y-148.075
X206.325Y-149.425
X207.175Y-148.075
X207.175Y-149.425
X208.025Y-148.075
X208.025Y-149.425
X208.875Y-148.075
X208.875Y-149.425
X209.725Y-148.075
X209.725Y-149.425
X210.575Y-148.075
X210.575Y-149.425
X211.425Y-148.075
X211.425Y-149.425
X212.275Y-148.075
X212.275Y-149.425
T5
X163.0Y-150.65
X165.0Y-150.65
T6
X115.4Y-101.8
X115.4Y-108.933
X115.4Y-116.067
X115.4Y-123.2
X119.6Y-105.6
X119.8Y-112.2
X120.0Y-120.2
X212.4Y-116.4
X212.4Y-123.533
X212.4Y-130.667
X212.4Y-137.8
X216.6Y-120.2
X216.8Y-126.8
X217.0Y-134.8
T7
X143.68Y-73.114
X146.728Y-73.114
X149.776Y-73.114
X152.824Y-73.114
X155.872Y-73.114
X157.5Y-21.0
X157.5Y-28.5
X158.92Y-73.114
X161.968Y-73.114
X165.016Y-73.114
X172.4Y-21.0
X172.4Y-28.5
T8
X85.84Y-97.46
X85.84Y-100.0
X85.84Y-102.54
X93.46Y-110.16
X96.0Y-110.16
X98.54Y-110.16
X221.44Y-97.46
X221.44Y-100.0
X221.44Y-102.54
X229.06Y-110.16
X231.6Y-110.16
X234.14Y-110.16
T9
X92.825Y-87.3
X92.825Y-92.38
X99.175Y-87.3
X99.175Y-92.38
X228.425Y-87.3
X228.425Y-92.38
X234.775Y-87.3
X234.775Y-92.38
T10
X139.5Y-21.6
X139.5Y-24.14
X142.04Y-21.6
X142.04Y-24.14
X144.58Y-21.6
X144.58Y-24.14
X147.12Y-21.6
X147.12Y-24.14
X178.88Y-21.6
X178.88Y-24.14
X181.42Y-21.6
X181.42Y-24.14
X183.96Y-21.6
X183.96Y-24.14
X186.5Y-21.6
X186.5Y-24.14
X189.8Y-127.6
X189.8Y-130.14
X196.0Y-111.6
X203.6Y-111.6
T11
X88.38Y-93.332
X88.38Y-106.667
X103.62Y-93.332
X103.62Y-106.667
X223.98Y-93.332
X223.98Y-106.667
X239.22Y-93.332
X239.22Y-106.667
T4
X114.375Y-148.305G85X114.375Y-149.805
G05
X114.375Y-152.035G85X114.375Y-152.835
G05
X123.025Y-148.305G85X123.025Y-149.805
G05
X123.025Y-152.035G85X123.025Y-152.835
G05
X204.975Y-148.305G85X204.975Y-149.805
G05
X204.975Y-152.035G85X204.975Y-152.835
G05
X213.625Y-148.305G85X213.625Y-149.805
G05
X213.625Y-152.035G85X213.625Y-152.835
G05
T10
X94.1Y-128.1G85X94.1Y-126.7
G05
X98.8Y-128.0G85X98.8Y-126.6
G05
M30
