%TF.GenerationSoftware,KiCad,Pcbnew,9.0.5*%
%TF.CreationDate,2025-10-15T10:32:26-04:00*%
%TF.ProjectId,TEST_project,54455354-5f70-4726-9f6a-6563742e6b69,rev?*%
%TF.SameCoordinates,Original*%
%TF.FileFunction,Drillmap*%
%TF.FilePolarity,Positive*%
%FSLAX45Y45*%
G04 Gerber Fmt 4.5, Leading zero omitted, Abs format (unit mm)*
G04 Created by KiCad (PCBNEW 9.0.5) date 2025-10-15 10:32:26*
%MOMM*%
%LPD*%
G01*
G04 APERTURE LIST*
%ADD10C,0.038100*%
%ADD11C,0.200000*%
%ADD12C,0.260000*%
G04 APERTURE END LIST*
D10*
X13100000Y-2600000D02*
X13800000Y-1900000D01*
X25100000Y-13400000D02*
X25100000Y-10000000D01*
X9600000Y-15700000D02*
X7500000Y-13400000D01*
X13100000Y-5000000D02*
X13100000Y-2600000D01*
X13800000Y-1900000D02*
X18800000Y-1900000D01*
X16300000Y-15700000D02*
X9600000Y-15700000D01*
X19500000Y-5000000D02*
X25100000Y-8570000D01*
X25100000Y-8570000D02*
X25100000Y-10000000D01*
X7500000Y-10000000D02*
X7500000Y-8570000D01*
X7500000Y-8570000D02*
X13100000Y-5000000D01*
X18800000Y-1900000D02*
X19500000Y-2600000D01*
X23000000Y-15700000D02*
X16300000Y-15700000D01*
X23000000Y-15700000D02*
X25100000Y-13400000D01*
X7500000Y-13400000D02*
X7500000Y-10000000D01*
X19500000Y-2600000D02*
X19500000Y-5000000D01*
D11*
D12*
X13520000Y-3420000D02*
X13780000Y-3680000D01*
X13780000Y-3420000D02*
X13520000Y-3680000D01*
X13520000Y-6420000D02*
X13780000Y-6680000D01*
X13780000Y-6420000D02*
X13520000Y-6680000D01*
X18820000Y-3420000D02*
X19080000Y-3680000D01*
X19080000Y-3420000D02*
X18820000Y-3680000D01*
X18820000Y-6420000D02*
X19080000Y-6680000D01*
X19080000Y-6420000D02*
X18820000Y-6680000D01*
D11*
X7758872Y-16013389D02*
X7758872Y-15813389D01*
X7758872Y-15813389D02*
X7806491Y-15813389D01*
X7806491Y-15813389D02*
X7835062Y-15822913D01*
X7835062Y-15822913D02*
X7854110Y-15841960D01*
X7854110Y-15841960D02*
X7863634Y-15861008D01*
X7863634Y-15861008D02*
X7873157Y-15899103D01*
X7873157Y-15899103D02*
X7873157Y-15927674D01*
X7873157Y-15927674D02*
X7863634Y-15965770D01*
X7863634Y-15965770D02*
X7854110Y-15984817D01*
X7854110Y-15984817D02*
X7835062Y-16003865D01*
X7835062Y-16003865D02*
X7806491Y-16013389D01*
X7806491Y-16013389D02*
X7758872Y-16013389D01*
X7958872Y-16013389D02*
X7958872Y-15880055D01*
X7958872Y-15918151D02*
X7968396Y-15899103D01*
X7968396Y-15899103D02*
X7977919Y-15889579D01*
X7977919Y-15889579D02*
X7996967Y-15880055D01*
X7996967Y-15880055D02*
X8016015Y-15880055D01*
X8082681Y-16013389D02*
X8082681Y-15880055D01*
X8082681Y-15813389D02*
X8073157Y-15822913D01*
X8073157Y-15822913D02*
X8082681Y-15832436D01*
X8082681Y-15832436D02*
X8092205Y-15822913D01*
X8092205Y-15822913D02*
X8082681Y-15813389D01*
X8082681Y-15813389D02*
X8082681Y-15832436D01*
X8206491Y-16013389D02*
X8187443Y-16003865D01*
X8187443Y-16003865D02*
X8177919Y-15984817D01*
X8177919Y-15984817D02*
X8177919Y-15813389D01*
X8311253Y-16013389D02*
X8292205Y-16003865D01*
X8292205Y-16003865D02*
X8282681Y-15984817D01*
X8282681Y-15984817D02*
X8282681Y-15813389D01*
X8539824Y-16013389D02*
X8539824Y-15813389D01*
X8539824Y-15813389D02*
X8606491Y-15956246D01*
X8606491Y-15956246D02*
X8673158Y-15813389D01*
X8673158Y-15813389D02*
X8673158Y-16013389D01*
X8854110Y-16013389D02*
X8854110Y-15908627D01*
X8854110Y-15908627D02*
X8844586Y-15889579D01*
X8844586Y-15889579D02*
X8825539Y-15880055D01*
X8825539Y-15880055D02*
X8787443Y-15880055D01*
X8787443Y-15880055D02*
X8768396Y-15889579D01*
X8854110Y-16003865D02*
X8835062Y-16013389D01*
X8835062Y-16013389D02*
X8787443Y-16013389D01*
X8787443Y-16013389D02*
X8768396Y-16003865D01*
X8768396Y-16003865D02*
X8758872Y-15984817D01*
X8758872Y-15984817D02*
X8758872Y-15965770D01*
X8758872Y-15965770D02*
X8768396Y-15946722D01*
X8768396Y-15946722D02*
X8787443Y-15937198D01*
X8787443Y-15937198D02*
X8835062Y-15937198D01*
X8835062Y-15937198D02*
X8854110Y-15927674D01*
X8949348Y-15880055D02*
X8949348Y-16080055D01*
X8949348Y-15889579D02*
X8968396Y-15880055D01*
X8968396Y-15880055D02*
X9006491Y-15880055D01*
X9006491Y-15880055D02*
X9025539Y-15889579D01*
X9025539Y-15889579D02*
X9035062Y-15899103D01*
X9035062Y-15899103D02*
X9044586Y-15918151D01*
X9044586Y-15918151D02*
X9044586Y-15975293D01*
X9044586Y-15975293D02*
X9035062Y-15994341D01*
X9035062Y-15994341D02*
X9025539Y-16003865D01*
X9025539Y-16003865D02*
X9006491Y-16013389D01*
X9006491Y-16013389D02*
X8968396Y-16013389D01*
X8968396Y-16013389D02*
X8949348Y-16003865D01*
X9130300Y-15994341D02*
X9139824Y-16003865D01*
X9139824Y-16003865D02*
X9130300Y-16013389D01*
X9130300Y-16013389D02*
X9120777Y-16003865D01*
X9120777Y-16003865D02*
X9130300Y-15994341D01*
X9130300Y-15994341D02*
X9130300Y-16013389D01*
X9130300Y-15889579D02*
X9139824Y-15899103D01*
X9139824Y-15899103D02*
X9130300Y-15908627D01*
X9130300Y-15908627D02*
X9120777Y-15899103D01*
X9120777Y-15899103D02*
X9130300Y-15889579D01*
X9130300Y-15889579D02*
X9130300Y-15908627D01*
X7298095Y-16241905D02*
X7498095Y-16441905D01*
X7498095Y-16241905D02*
X7298095Y-16441905D01*
X7749348Y-16252436D02*
X7758872Y-16242913D01*
X7758872Y-16242913D02*
X7777919Y-16233389D01*
X7777919Y-16233389D02*
X7825538Y-16233389D01*
X7825538Y-16233389D02*
X7844586Y-16242913D01*
X7844586Y-16242913D02*
X7854110Y-16252436D01*
X7854110Y-16252436D02*
X7863634Y-16271484D01*
X7863634Y-16271484D02*
X7863634Y-16290532D01*
X7863634Y-16290532D02*
X7854110Y-16319103D01*
X7854110Y-16319103D02*
X7739824Y-16433389D01*
X7739824Y-16433389D02*
X7863634Y-16433389D01*
X7949348Y-16414341D02*
X7958872Y-16423865D01*
X7958872Y-16423865D02*
X7949348Y-16433389D01*
X7949348Y-16433389D02*
X7939824Y-16423865D01*
X7939824Y-16423865D02*
X7949348Y-16414341D01*
X7949348Y-16414341D02*
X7949348Y-16433389D01*
X8130300Y-16233389D02*
X8092205Y-16233389D01*
X8092205Y-16233389D02*
X8073157Y-16242913D01*
X8073157Y-16242913D02*
X8063634Y-16252436D01*
X8063634Y-16252436D02*
X8044586Y-16281008D01*
X8044586Y-16281008D02*
X8035062Y-16319103D01*
X8035062Y-16319103D02*
X8035062Y-16395293D01*
X8035062Y-16395293D02*
X8044586Y-16414341D01*
X8044586Y-16414341D02*
X8054110Y-16423865D01*
X8054110Y-16423865D02*
X8073157Y-16433389D01*
X8073157Y-16433389D02*
X8111253Y-16433389D01*
X8111253Y-16433389D02*
X8130300Y-16423865D01*
X8130300Y-16423865D02*
X8139824Y-16414341D01*
X8139824Y-16414341D02*
X8149348Y-16395293D01*
X8149348Y-16395293D02*
X8149348Y-16347674D01*
X8149348Y-16347674D02*
X8139824Y-16328627D01*
X8139824Y-16328627D02*
X8130300Y-16319103D01*
X8130300Y-16319103D02*
X8111253Y-16309579D01*
X8111253Y-16309579D02*
X8073157Y-16309579D01*
X8073157Y-16309579D02*
X8054110Y-16319103D01*
X8054110Y-16319103D02*
X8044586Y-16328627D01*
X8044586Y-16328627D02*
X8035062Y-16347674D01*
X8273157Y-16233389D02*
X8292205Y-16233389D01*
X8292205Y-16233389D02*
X8311253Y-16242913D01*
X8311253Y-16242913D02*
X8320777Y-16252436D01*
X8320777Y-16252436D02*
X8330300Y-16271484D01*
X8330300Y-16271484D02*
X8339824Y-16309579D01*
X8339824Y-16309579D02*
X8339824Y-16357198D01*
X8339824Y-16357198D02*
X8330300Y-16395293D01*
X8330300Y-16395293D02*
X8320777Y-16414341D01*
X8320777Y-16414341D02*
X8311253Y-16423865D01*
X8311253Y-16423865D02*
X8292205Y-16433389D01*
X8292205Y-16433389D02*
X8273157Y-16433389D01*
X8273157Y-16433389D02*
X8254110Y-16423865D01*
X8254110Y-16423865D02*
X8244586Y-16414341D01*
X8244586Y-16414341D02*
X8235062Y-16395293D01*
X8235062Y-16395293D02*
X8225538Y-16357198D01*
X8225538Y-16357198D02*
X8225538Y-16309579D01*
X8225538Y-16309579D02*
X8235062Y-16271484D01*
X8235062Y-16271484D02*
X8244586Y-16252436D01*
X8244586Y-16252436D02*
X8254110Y-16242913D01*
X8254110Y-16242913D02*
X8273157Y-16233389D01*
X8463634Y-16233389D02*
X8482681Y-16233389D01*
X8482681Y-16233389D02*
X8501729Y-16242913D01*
X8501729Y-16242913D02*
X8511253Y-16252436D01*
X8511253Y-16252436D02*
X8520777Y-16271484D01*
X8520777Y-16271484D02*
X8530300Y-16309579D01*
X8530300Y-16309579D02*
X8530300Y-16357198D01*
X8530300Y-16357198D02*
X8520777Y-16395293D01*
X8520777Y-16395293D02*
X8511253Y-16414341D01*
X8511253Y-16414341D02*
X8501729Y-16423865D01*
X8501729Y-16423865D02*
X8482681Y-16433389D01*
X8482681Y-16433389D02*
X8463634Y-16433389D01*
X8463634Y-16433389D02*
X8444586Y-16423865D01*
X8444586Y-16423865D02*
X8435062Y-16414341D01*
X8435062Y-16414341D02*
X8425539Y-16395293D01*
X8425539Y-16395293D02*
X8416015Y-16357198D01*
X8416015Y-16357198D02*
X8416015Y-16309579D01*
X8416015Y-16309579D02*
X8425539Y-16271484D01*
X8425539Y-16271484D02*
X8435062Y-16252436D01*
X8435062Y-16252436D02*
X8444586Y-16242913D01*
X8444586Y-16242913D02*
X8463634Y-16233389D01*
X8616015Y-16433389D02*
X8616015Y-16300055D01*
X8616015Y-16319103D02*
X8625539Y-16309579D01*
X8625539Y-16309579D02*
X8644586Y-16300055D01*
X8644586Y-16300055D02*
X8673158Y-16300055D01*
X8673158Y-16300055D02*
X8692205Y-16309579D01*
X8692205Y-16309579D02*
X8701729Y-16328627D01*
X8701729Y-16328627D02*
X8701729Y-16433389D01*
X8701729Y-16328627D02*
X8711253Y-16309579D01*
X8711253Y-16309579D02*
X8730300Y-16300055D01*
X8730300Y-16300055D02*
X8758872Y-16300055D01*
X8758872Y-16300055D02*
X8777920Y-16309579D01*
X8777920Y-16309579D02*
X8787443Y-16328627D01*
X8787443Y-16328627D02*
X8787443Y-16433389D01*
X8882681Y-16433389D02*
X8882681Y-16300055D01*
X8882681Y-16319103D02*
X8892205Y-16309579D01*
X8892205Y-16309579D02*
X8911253Y-16300055D01*
X8911253Y-16300055D02*
X8939824Y-16300055D01*
X8939824Y-16300055D02*
X8958872Y-16309579D01*
X8958872Y-16309579D02*
X8968396Y-16328627D01*
X8968396Y-16328627D02*
X8968396Y-16433389D01*
X8968396Y-16328627D02*
X8977920Y-16309579D01*
X8977920Y-16309579D02*
X8996967Y-16300055D01*
X8996967Y-16300055D02*
X9025539Y-16300055D01*
X9025539Y-16300055D02*
X9044586Y-16309579D01*
X9044586Y-16309579D02*
X9054110Y-16328627D01*
X9054110Y-16328627D02*
X9054110Y-16433389D01*
X9444586Y-16223865D02*
X9273158Y-16481008D01*
X9701729Y-16233389D02*
X9720777Y-16233389D01*
X9720777Y-16233389D02*
X9739824Y-16242913D01*
X9739824Y-16242913D02*
X9749348Y-16252436D01*
X9749348Y-16252436D02*
X9758872Y-16271484D01*
X9758872Y-16271484D02*
X9768396Y-16309579D01*
X9768396Y-16309579D02*
X9768396Y-16357198D01*
X9768396Y-16357198D02*
X9758872Y-16395293D01*
X9758872Y-16395293D02*
X9749348Y-16414341D01*
X9749348Y-16414341D02*
X9739824Y-16423865D01*
X9739824Y-16423865D02*
X9720777Y-16433389D01*
X9720777Y-16433389D02*
X9701729Y-16433389D01*
X9701729Y-16433389D02*
X9682682Y-16423865D01*
X9682682Y-16423865D02*
X9673158Y-16414341D01*
X9673158Y-16414341D02*
X9663634Y-16395293D01*
X9663634Y-16395293D02*
X9654110Y-16357198D01*
X9654110Y-16357198D02*
X9654110Y-16309579D01*
X9654110Y-16309579D02*
X9663634Y-16271484D01*
X9663634Y-16271484D02*
X9673158Y-16252436D01*
X9673158Y-16252436D02*
X9682682Y-16242913D01*
X9682682Y-16242913D02*
X9701729Y-16233389D01*
X9854110Y-16414341D02*
X9863634Y-16423865D01*
X9863634Y-16423865D02*
X9854110Y-16433389D01*
X9854110Y-16433389D02*
X9844586Y-16423865D01*
X9844586Y-16423865D02*
X9854110Y-16414341D01*
X9854110Y-16414341D02*
X9854110Y-16433389D01*
X10054110Y-16433389D02*
X9939824Y-16433389D01*
X9996967Y-16433389D02*
X9996967Y-16233389D01*
X9996967Y-16233389D02*
X9977920Y-16261960D01*
X9977920Y-16261960D02*
X9958872Y-16281008D01*
X9958872Y-16281008D02*
X9939824Y-16290532D01*
X10177920Y-16233389D02*
X10196967Y-16233389D01*
X10196967Y-16233389D02*
X10216015Y-16242913D01*
X10216015Y-16242913D02*
X10225539Y-16252436D01*
X10225539Y-16252436D02*
X10235063Y-16271484D01*
X10235063Y-16271484D02*
X10244586Y-16309579D01*
X10244586Y-16309579D02*
X10244586Y-16357198D01*
X10244586Y-16357198D02*
X10235063Y-16395293D01*
X10235063Y-16395293D02*
X10225539Y-16414341D01*
X10225539Y-16414341D02*
X10216015Y-16423865D01*
X10216015Y-16423865D02*
X10196967Y-16433389D01*
X10196967Y-16433389D02*
X10177920Y-16433389D01*
X10177920Y-16433389D02*
X10158872Y-16423865D01*
X10158872Y-16423865D02*
X10149348Y-16414341D01*
X10149348Y-16414341D02*
X10139824Y-16395293D01*
X10139824Y-16395293D02*
X10130301Y-16357198D01*
X10130301Y-16357198D02*
X10130301Y-16309579D01*
X10130301Y-16309579D02*
X10139824Y-16271484D01*
X10139824Y-16271484D02*
X10149348Y-16252436D01*
X10149348Y-16252436D02*
X10158872Y-16242913D01*
X10158872Y-16242913D02*
X10177920Y-16233389D01*
X10320777Y-16252436D02*
X10330301Y-16242913D01*
X10330301Y-16242913D02*
X10349348Y-16233389D01*
X10349348Y-16233389D02*
X10396967Y-16233389D01*
X10396967Y-16233389D02*
X10416015Y-16242913D01*
X10416015Y-16242913D02*
X10425539Y-16252436D01*
X10425539Y-16252436D02*
X10435063Y-16271484D01*
X10435063Y-16271484D02*
X10435063Y-16290532D01*
X10435063Y-16290532D02*
X10425539Y-16319103D01*
X10425539Y-16319103D02*
X10311253Y-16433389D01*
X10311253Y-16433389D02*
X10435063Y-16433389D01*
X10606491Y-16300055D02*
X10606491Y-16433389D01*
X10558872Y-16223865D02*
X10511253Y-16366722D01*
X10511253Y-16366722D02*
X10635063Y-16366722D01*
X10701729Y-16233389D02*
X10701729Y-16271484D01*
X10777920Y-16233389D02*
X10777920Y-16271484D01*
X11073158Y-16509579D02*
X11063634Y-16500055D01*
X11063634Y-16500055D02*
X11044586Y-16471484D01*
X11044586Y-16471484D02*
X11035063Y-16452436D01*
X11035063Y-16452436D02*
X11025539Y-16423865D01*
X11025539Y-16423865D02*
X11016015Y-16376246D01*
X11016015Y-16376246D02*
X11016015Y-16338151D01*
X11016015Y-16338151D02*
X11025539Y-16290532D01*
X11025539Y-16290532D02*
X11035063Y-16261960D01*
X11035063Y-16261960D02*
X11044586Y-16242913D01*
X11044586Y-16242913D02*
X11063634Y-16214341D01*
X11063634Y-16214341D02*
X11073158Y-16204817D01*
X11235063Y-16300055D02*
X11235063Y-16433389D01*
X11187443Y-16223865D02*
X11139825Y-16366722D01*
X11139825Y-16366722D02*
X11263634Y-16366722D01*
X11492205Y-16433389D02*
X11492205Y-16233389D01*
X11577920Y-16433389D02*
X11577920Y-16328627D01*
X11577920Y-16328627D02*
X11568396Y-16309579D01*
X11568396Y-16309579D02*
X11549348Y-16300055D01*
X11549348Y-16300055D02*
X11520777Y-16300055D01*
X11520777Y-16300055D02*
X11501729Y-16309579D01*
X11501729Y-16309579D02*
X11492205Y-16319103D01*
X11701729Y-16433389D02*
X11682682Y-16423865D01*
X11682682Y-16423865D02*
X11673158Y-16414341D01*
X11673158Y-16414341D02*
X11663634Y-16395293D01*
X11663634Y-16395293D02*
X11663634Y-16338151D01*
X11663634Y-16338151D02*
X11673158Y-16319103D01*
X11673158Y-16319103D02*
X11682682Y-16309579D01*
X11682682Y-16309579D02*
X11701729Y-16300055D01*
X11701729Y-16300055D02*
X11730301Y-16300055D01*
X11730301Y-16300055D02*
X11749348Y-16309579D01*
X11749348Y-16309579D02*
X11758872Y-16319103D01*
X11758872Y-16319103D02*
X11768396Y-16338151D01*
X11768396Y-16338151D02*
X11768396Y-16395293D01*
X11768396Y-16395293D02*
X11758872Y-16414341D01*
X11758872Y-16414341D02*
X11749348Y-16423865D01*
X11749348Y-16423865D02*
X11730301Y-16433389D01*
X11730301Y-16433389D02*
X11701729Y-16433389D01*
X11882682Y-16433389D02*
X11863634Y-16423865D01*
X11863634Y-16423865D02*
X11854110Y-16404817D01*
X11854110Y-16404817D02*
X11854110Y-16233389D01*
X12035063Y-16423865D02*
X12016015Y-16433389D01*
X12016015Y-16433389D02*
X11977920Y-16433389D01*
X11977920Y-16433389D02*
X11958872Y-16423865D01*
X11958872Y-16423865D02*
X11949348Y-16404817D01*
X11949348Y-16404817D02*
X11949348Y-16328627D01*
X11949348Y-16328627D02*
X11958872Y-16309579D01*
X11958872Y-16309579D02*
X11977920Y-16300055D01*
X11977920Y-16300055D02*
X12016015Y-16300055D01*
X12016015Y-16300055D02*
X12035063Y-16309579D01*
X12035063Y-16309579D02*
X12044586Y-16328627D01*
X12044586Y-16328627D02*
X12044586Y-16347674D01*
X12044586Y-16347674D02*
X11949348Y-16366722D01*
X12120777Y-16423865D02*
X12139825Y-16433389D01*
X12139825Y-16433389D02*
X12177920Y-16433389D01*
X12177920Y-16433389D02*
X12196967Y-16423865D01*
X12196967Y-16423865D02*
X12206491Y-16404817D01*
X12206491Y-16404817D02*
X12206491Y-16395293D01*
X12206491Y-16395293D02*
X12196967Y-16376246D01*
X12196967Y-16376246D02*
X12177920Y-16366722D01*
X12177920Y-16366722D02*
X12149348Y-16366722D01*
X12149348Y-16366722D02*
X12130301Y-16357198D01*
X12130301Y-16357198D02*
X12120777Y-16338151D01*
X12120777Y-16338151D02*
X12120777Y-16328627D01*
X12120777Y-16328627D02*
X12130301Y-16309579D01*
X12130301Y-16309579D02*
X12149348Y-16300055D01*
X12149348Y-16300055D02*
X12177920Y-16300055D01*
X12177920Y-16300055D02*
X12196967Y-16309579D01*
X12273158Y-16509579D02*
X12282682Y-16500055D01*
X12282682Y-16500055D02*
X12301729Y-16471484D01*
X12301729Y-16471484D02*
X12311253Y-16452436D01*
X12311253Y-16452436D02*
X12320777Y-16423865D01*
X12320777Y-16423865D02*
X12330301Y-16376246D01*
X12330301Y-16376246D02*
X12330301Y-16338151D01*
X12330301Y-16338151D02*
X12320777Y-16290532D01*
X12320777Y-16290532D02*
X12311253Y-16261960D01*
X12311253Y-16261960D02*
X12301729Y-16242913D01*
X12301729Y-16242913D02*
X12282682Y-16214341D01*
X12282682Y-16214341D02*
X12273158Y-16204817D01*
X12635063Y-16509579D02*
X12625539Y-16500055D01*
X12625539Y-16500055D02*
X12606491Y-16471484D01*
X12606491Y-16471484D02*
X12596967Y-16452436D01*
X12596967Y-16452436D02*
X12587444Y-16423865D01*
X12587444Y-16423865D02*
X12577920Y-16376246D01*
X12577920Y-16376246D02*
X12577920Y-16338151D01*
X12577920Y-16338151D02*
X12587444Y-16290532D01*
X12587444Y-16290532D02*
X12596967Y-16261960D01*
X12596967Y-16261960D02*
X12606491Y-16242913D01*
X12606491Y-16242913D02*
X12625539Y-16214341D01*
X12625539Y-16214341D02*
X12635063Y-16204817D01*
X12711253Y-16300055D02*
X12711253Y-16433389D01*
X12711253Y-16319103D02*
X12720777Y-16309579D01*
X12720777Y-16309579D02*
X12739825Y-16300055D01*
X12739825Y-16300055D02*
X12768396Y-16300055D01*
X12768396Y-16300055D02*
X12787444Y-16309579D01*
X12787444Y-16309579D02*
X12796967Y-16328627D01*
X12796967Y-16328627D02*
X12796967Y-16433389D01*
X12920777Y-16433389D02*
X12901729Y-16423865D01*
X12901729Y-16423865D02*
X12892206Y-16414341D01*
X12892206Y-16414341D02*
X12882682Y-16395293D01*
X12882682Y-16395293D02*
X12882682Y-16338151D01*
X12882682Y-16338151D02*
X12892206Y-16319103D01*
X12892206Y-16319103D02*
X12901729Y-16309579D01*
X12901729Y-16309579D02*
X12920777Y-16300055D01*
X12920777Y-16300055D02*
X12949348Y-16300055D01*
X12949348Y-16300055D02*
X12968396Y-16309579D01*
X12968396Y-16309579D02*
X12977920Y-16319103D01*
X12977920Y-16319103D02*
X12987444Y-16338151D01*
X12987444Y-16338151D02*
X12987444Y-16395293D01*
X12987444Y-16395293D02*
X12977920Y-16414341D01*
X12977920Y-16414341D02*
X12968396Y-16423865D01*
X12968396Y-16423865D02*
X12949348Y-16433389D01*
X12949348Y-16433389D02*
X12920777Y-16433389D01*
X13044587Y-16300055D02*
X13120777Y-16300055D01*
X13073158Y-16233389D02*
X13073158Y-16404817D01*
X13073158Y-16404817D02*
X13082682Y-16423865D01*
X13082682Y-16423865D02*
X13101729Y-16433389D01*
X13101729Y-16433389D02*
X13120777Y-16433389D01*
X13339825Y-16300055D02*
X13339825Y-16500055D01*
X13339825Y-16309579D02*
X13358872Y-16300055D01*
X13358872Y-16300055D02*
X13396968Y-16300055D01*
X13396968Y-16300055D02*
X13416015Y-16309579D01*
X13416015Y-16309579D02*
X13425539Y-16319103D01*
X13425539Y-16319103D02*
X13435063Y-16338151D01*
X13435063Y-16338151D02*
X13435063Y-16395293D01*
X13435063Y-16395293D02*
X13425539Y-16414341D01*
X13425539Y-16414341D02*
X13416015Y-16423865D01*
X13416015Y-16423865D02*
X13396968Y-16433389D01*
X13396968Y-16433389D02*
X13358872Y-16433389D01*
X13358872Y-16433389D02*
X13339825Y-16423865D01*
X13549348Y-16433389D02*
X13530301Y-16423865D01*
X13530301Y-16423865D02*
X13520777Y-16404817D01*
X13520777Y-16404817D02*
X13520777Y-16233389D01*
X13711253Y-16433389D02*
X13711253Y-16328627D01*
X13711253Y-16328627D02*
X13701729Y-16309579D01*
X13701729Y-16309579D02*
X13682682Y-16300055D01*
X13682682Y-16300055D02*
X13644587Y-16300055D01*
X13644587Y-16300055D02*
X13625539Y-16309579D01*
X13711253Y-16423865D02*
X13692206Y-16433389D01*
X13692206Y-16433389D02*
X13644587Y-16433389D01*
X13644587Y-16433389D02*
X13625539Y-16423865D01*
X13625539Y-16423865D02*
X13616015Y-16404817D01*
X13616015Y-16404817D02*
X13616015Y-16385770D01*
X13616015Y-16385770D02*
X13625539Y-16366722D01*
X13625539Y-16366722D02*
X13644587Y-16357198D01*
X13644587Y-16357198D02*
X13692206Y-16357198D01*
X13692206Y-16357198D02*
X13711253Y-16347674D01*
X13777920Y-16300055D02*
X13854110Y-16300055D01*
X13806491Y-16233389D02*
X13806491Y-16404817D01*
X13806491Y-16404817D02*
X13816015Y-16423865D01*
X13816015Y-16423865D02*
X13835063Y-16433389D01*
X13835063Y-16433389D02*
X13854110Y-16433389D01*
X13996968Y-16423865D02*
X13977920Y-16433389D01*
X13977920Y-16433389D02*
X13939825Y-16433389D01*
X13939825Y-16433389D02*
X13920777Y-16423865D01*
X13920777Y-16423865D02*
X13911253Y-16404817D01*
X13911253Y-16404817D02*
X13911253Y-16328627D01*
X13911253Y-16328627D02*
X13920777Y-16309579D01*
X13920777Y-16309579D02*
X13939825Y-16300055D01*
X13939825Y-16300055D02*
X13977920Y-16300055D01*
X13977920Y-16300055D02*
X13996968Y-16309579D01*
X13996968Y-16309579D02*
X14006491Y-16328627D01*
X14006491Y-16328627D02*
X14006491Y-16347674D01*
X14006491Y-16347674D02*
X13911253Y-16366722D01*
X14177920Y-16433389D02*
X14177920Y-16233389D01*
X14177920Y-16423865D02*
X14158872Y-16433389D01*
X14158872Y-16433389D02*
X14120777Y-16433389D01*
X14120777Y-16433389D02*
X14101729Y-16423865D01*
X14101729Y-16423865D02*
X14092206Y-16414341D01*
X14092206Y-16414341D02*
X14082682Y-16395293D01*
X14082682Y-16395293D02*
X14082682Y-16338151D01*
X14082682Y-16338151D02*
X14092206Y-16319103D01*
X14092206Y-16319103D02*
X14101729Y-16309579D01*
X14101729Y-16309579D02*
X14120777Y-16300055D01*
X14120777Y-16300055D02*
X14158872Y-16300055D01*
X14158872Y-16300055D02*
X14177920Y-16309579D01*
X14254110Y-16509579D02*
X14263634Y-16500055D01*
X14263634Y-16500055D02*
X14282682Y-16471484D01*
X14282682Y-16471484D02*
X14292206Y-16452436D01*
X14292206Y-16452436D02*
X14301729Y-16423865D01*
X14301729Y-16423865D02*
X14311253Y-16376246D01*
X14311253Y-16376246D02*
X14311253Y-16338151D01*
X14311253Y-16338151D02*
X14301729Y-16290532D01*
X14301729Y-16290532D02*
X14292206Y-16261960D01*
X14292206Y-16261960D02*
X14282682Y-16242913D01*
X14282682Y-16242913D02*
X14263634Y-16214341D01*
X14263634Y-16214341D02*
X14254110Y-16204817D01*
M02*
