G04 #@! TF.GenerationSoftware,KiCad,Pcbnew,9.0.5*
G04 #@! TF.CreationDate,2025-10-24T12:50:00-04:00*
G04 #@! TF.ProjectId,TEST_project,54455354-5f70-4726-9f6a-6563742e6b69,rev?*
G04 #@! TF.SameCoordinates,Original*
G04 #@! TF.FileFunction,Copper,L2,Inr*
G04 #@! TF.FilePolarity,Positive*
%FSLAX46Y46*%
G04 Gerber Fmt 4.6, Leading zero omitted, Abs format (unit mm)*
G04 Created by KiCad (PCBNEW 9.0.5) date 2025-10-24 12:50:00*
%MOMM*%
%LPD*%
G01*
G04 APERTURE LIST*
G04 Aperture macros list*
%AMRoundRect*
0 Rectangle with rounded corners*
0 $1 Rounding radius*
0 $2 $3 $4 $5 $6 $7 $8 $9 X,Y pos of 4 corners*
0 Add a 4 corners polygon primitive as box body*
4,1,4,$2,$3,$4,$5,$6,$7,$8,$9,$2,$3,0*
0 Add four circle primitives for the rounded corners*
1,1,$1+$1,$2,$3*
1,1,$1+$1,$4,$5*
1,1,$1+$1,$6,$7*
1,1,$1+$1,$8,$9*
0 Add four rect primitives between the rounded corners*
20,1,$1+$1,$2,$3,$4,$5,0*
20,1,$1+$1,$4,$5,$6,$7,0*
20,1,$1+$1,$6,$7,$8,$9,0*
20,1,$1+$1,$8,$9,$2,$3,0*%
G04 Aperture macros list end*
G04 #@! TA.AperFunction,ComponentPad*
%ADD10R,2.000000X2.000000*%
G04 #@! TD*
G04 #@! TA.AperFunction,ComponentPad*
%ADD11C,2.000000*%
G04 #@! TD*
G04 #@! TA.AperFunction,ComponentPad*
%ADD12C,1.600000*%
G04 #@! TD*
G04 #@! TA.AperFunction,ComponentPad*
%ADD13C,2.550000*%
G04 #@! TD*
G04 #@! TA.AperFunction,ComponentPad*
%ADD14R,1.700000X1.700000*%
G04 #@! TD*
G04 #@! TA.AperFunction,ComponentPad*
%ADD15C,1.700000*%
G04 #@! TD*
G04 #@! TA.AperFunction,ComponentPad*
%ADD16C,0.700000*%
G04 #@! TD*
G04 #@! TA.AperFunction,ComponentPad*
%ADD17O,0.900000X2.400000*%
G04 #@! TD*
G04 #@! TA.AperFunction,ComponentPad*
%ADD18O,0.900000X1.700000*%
G04 #@! TD*
G04 #@! TA.AperFunction,ComponentPad*
%ADD19C,1.778000*%
G04 #@! TD*
G04 #@! TA.AperFunction,ComponentPad*
%ADD20C,2.286000*%
G04 #@! TD*
G04 #@! TA.AperFunction,ComponentPad*
%ADD21R,1.500000X2.600000*%
G04 #@! TD*
G04 #@! TA.AperFunction,ComponentPad*
%ADD22RoundRect,0.250000X-0.350000X-0.625000X0.350000X-0.625000X0.350000X0.625000X-0.350000X0.625000X0*%
G04 #@! TD*
G04 #@! TA.AperFunction,ComponentPad*
%ADD23O,1.200000X1.750000*%
G04 #@! TD*
G04 #@! TA.AperFunction,HeatsinkPad*
%ADD24C,0.600000*%
G04 #@! TD*
G04 #@! TA.AperFunction,ViaPad*
%ADD25C,2.000000*%
G04 #@! TD*
G04 #@! TA.AperFunction,ViaPad*
%ADD26C,0.600000*%
G04 #@! TD*
G04 APERTURE END LIST*
D10*
X196000000Y-111600000D03*
D11*
X203600000Y-111600000D03*
D12*
X172400000Y-21000000D03*
X172400000Y-28500000D03*
D13*
X143680000Y-73114000D03*
X146728000Y-73114000D03*
X149776000Y-73114000D03*
X152824000Y-73114000D03*
X155872000Y-73114000D03*
X158920000Y-73114000D03*
X161968000Y-73114000D03*
X165016000Y-73114000D03*
D14*
X178880000Y-24140000D03*
D15*
X178880000Y-21600000D03*
X181420000Y-24140000D03*
X181420000Y-21600000D03*
X183960000Y-24140000D03*
X183960000Y-21600000D03*
X186500000Y-24140000D03*
X186500000Y-21600000D03*
D14*
X139500000Y-24140000D03*
D15*
X139500000Y-21600000D03*
X142040000Y-24140000D03*
X142040000Y-21600000D03*
X144580000Y-24140000D03*
X144580000Y-21600000D03*
X147120000Y-24140000D03*
X147120000Y-21600000D03*
D16*
X115725000Y-148075000D03*
X116575000Y-148075000D03*
X117425000Y-148075000D03*
X118275000Y-148075000D03*
X119125000Y-148075000D03*
X119975000Y-148075000D03*
X120825000Y-148075000D03*
X121675000Y-148075000D03*
X121675000Y-149425000D03*
X120825000Y-149425000D03*
X119975000Y-149425000D03*
X119125000Y-149425000D03*
X118275000Y-149425000D03*
X117425000Y-149425000D03*
X116575000Y-149425000D03*
X115725000Y-149425000D03*
D17*
X114375000Y-149055000D03*
D18*
X114375000Y-152435000D03*
D17*
X123025000Y-149055000D03*
D18*
X123025000Y-152435000D03*
D19*
X228425000Y-87300000D03*
X234775000Y-87300000D03*
X228425000Y-92380000D03*
X234775000Y-92380000D03*
X229060000Y-110160000D03*
X231600000Y-110160000D03*
X234140000Y-110160000D03*
D20*
X223980000Y-93332500D03*
X223980000Y-106667500D03*
X239220000Y-106667500D03*
X239220000Y-93332500D03*
D19*
X221440000Y-97460000D03*
X221440000Y-100000000D03*
X221440000Y-102540000D03*
D14*
X189800000Y-130140000D03*
D15*
X189800000Y-127600000D03*
D21*
X94100000Y-127400000D03*
X98800000Y-127300000D03*
D19*
X92825000Y-87300000D03*
X99175000Y-87300000D03*
X92825000Y-92380000D03*
X99175000Y-92380000D03*
X93460000Y-110160000D03*
X96000000Y-110160000D03*
X98540000Y-110160000D03*
D20*
X88380000Y-93332500D03*
X88380000Y-106667500D03*
X103620000Y-106667500D03*
X103620000Y-93332500D03*
D19*
X85840000Y-97460000D03*
X85840000Y-100000000D03*
X85840000Y-102540000D03*
D22*
X163000000Y-150650000D03*
D23*
X165000000Y-150650000D03*
D16*
X206325000Y-148075000D03*
X207175000Y-148075000D03*
X208025000Y-148075000D03*
X208875000Y-148075000D03*
X209725000Y-148075000D03*
X210575000Y-148075000D03*
X211425000Y-148075000D03*
X212275000Y-148075000D03*
X212275000Y-149425000D03*
X211425000Y-149425000D03*
X210575000Y-149425000D03*
X209725000Y-149425000D03*
X208875000Y-149425000D03*
X208025000Y-149425000D03*
X207175000Y-149425000D03*
X206325000Y-149425000D03*
D17*
X204975000Y-149055000D03*
D18*
X204975000Y-152435000D03*
D17*
X213625000Y-149055000D03*
D18*
X213625000Y-152435000D03*
D24*
X166900000Y-95800000D03*
X166900000Y-94400000D03*
X166200000Y-96500000D03*
X166200000Y-95100000D03*
X166200000Y-93700000D03*
X165525000Y-95800000D03*
X165525000Y-94400000D03*
X164800000Y-96500000D03*
X164800000Y-95100000D03*
X164800000Y-93700000D03*
X164100000Y-95800000D03*
X164100000Y-94400000D03*
D12*
X157500000Y-21000000D03*
X157500000Y-28500000D03*
D25*
X212400000Y-130666667D03*
X216800000Y-126800000D03*
X216600000Y-120200000D03*
X212400000Y-137800000D03*
X217000000Y-134800000D03*
X212400000Y-116400000D03*
X212400000Y-123533333D03*
X119600000Y-105600000D03*
X119800000Y-112200000D03*
X120000000Y-120200000D03*
X115400000Y-123200000D03*
X115400000Y-116066667D03*
X115400000Y-108933333D03*
X115400000Y-101800000D03*
D26*
X155200000Y-139800000D03*
X161311394Y-137800000D03*
X168867092Y-137800000D03*
X170111394Y-137800000D03*
X165178486Y-139200000D03*
X172800000Y-140400000D03*
X171355697Y-137800000D03*
X157578486Y-137800000D03*
X171555697Y-140400000D03*
X158822789Y-137800000D03*
X167622789Y-137800000D03*
X162600000Y-139200000D03*
X162555697Y-137800000D03*
X163800000Y-137800000D03*
X172600000Y-137800000D03*
X165134183Y-137800000D03*
X156334183Y-137800000D03*
X163844303Y-139200000D03*
X160067092Y-137800000D03*
X153955697Y-139800000D03*
X166378486Y-137800000D03*
X112800000Y-143400000D03*
X155800000Y-134800000D03*
X163000000Y-133000000D03*
X111800000Y-136800000D03*
X205200000Y-105600000D03*
X127800000Y-148000000D03*
X108600000Y-152800000D03*
X110000000Y-151600000D03*
X126600000Y-149200000D03*
X180800000Y-146600000D03*
X203000000Y-103200000D03*
X219000000Y-148000000D03*
X202000000Y-150000000D03*
X106200000Y-152800000D03*
X111000000Y-148400000D03*
X217800000Y-149200000D03*
X213400000Y-105400000D03*
X130000000Y-148000000D03*
X163400000Y-128800000D03*
X207600000Y-103200000D03*
X168400000Y-87600000D03*
X198200000Y-148800000D03*
X199400000Y-150000000D03*
X164600000Y-128200000D03*
X105200000Y-151600000D03*
X182800000Y-148600000D03*
X157600000Y-113400000D03*
X174200000Y-148800000D03*
X125200000Y-148000000D03*
X185200000Y-146400000D03*
X216400000Y-148000000D03*
X107400000Y-151600000D03*
X177200000Y-83400000D03*
X209800000Y-105400000D03*
X210200000Y-95400000D03*
X178600000Y-148800000D03*
X129000000Y-149200000D03*
X197200000Y-150000000D03*
X221200000Y-148000000D03*
X200600000Y-148800000D03*
X220200000Y-149200000D03*
X153200000Y-105000000D03*
X158600000Y-91400000D03*
X171000000Y-92800000D03*
X165800000Y-87000000D03*
X140600000Y-84400000D03*
X171000000Y-95800000D03*
X177000000Y-85800000D03*
X183200000Y-88400000D03*
X183200000Y-91400000D03*
X164200000Y-88800000D03*
X156593000Y-88000000D03*
X188000000Y-89400000D03*
X169400000Y-97600000D03*
X173800000Y-61200000D03*
X172600000Y-121000000D03*
X170400000Y-134000000D03*
X165800000Y-98154555D03*
X165800000Y-99600000D03*
X173000000Y-79200000D03*
X171000000Y-126600000D03*
X160400000Y-135800000D03*
X140400000Y-141200000D03*
X142000000Y-100600000D03*
X145000000Y-97000000D03*
X118200000Y-138600000D03*
X145000000Y-96000000D03*
X114800000Y-139000000D03*
X128400000Y-104000000D03*
X108800000Y-146800000D03*
X179000000Y-119800000D03*
X176800000Y-121000000D03*
X165200000Y-134800000D03*
X107800000Y-147800000D03*
X169400000Y-120879769D03*
X201400000Y-142200000D03*
X160200000Y-95400000D03*
X133800000Y-89000000D03*
X167800000Y-80400000D03*
X165000000Y-80400000D03*
X155600000Y-83200000D03*
X141600000Y-86400000D03*
X170000000Y-80400000D03*
X187800000Y-85200000D03*
X176800000Y-84600000D03*
X160000000Y-101600000D03*
X171400000Y-121000000D03*
X170600000Y-121000000D03*
X159000000Y-100996000D03*
X171200000Y-142000000D03*
X168400000Y-142000000D03*
X160800000Y-144200000D03*
X157000000Y-141200000D03*
X151000000Y-114200000D03*
X159000000Y-116800000D03*
X188200000Y-78600000D03*
X177000000Y-80600000D03*
X135200000Y-78600000D03*
X154200000Y-82400000D03*
X172200000Y-74400000D03*
X162600000Y-93800000D03*
X158200000Y-97000000D03*
X171000000Y-82600000D03*
X189600000Y-93400000D03*
X164200000Y-118800000D03*
X163000000Y-127200000D03*
X161200000Y-125400000D03*
X163400000Y-117600000D03*
X169000000Y-114600000D03*
X181400000Y-34800000D03*
X181420000Y-30580000D03*
X163400000Y-123000000D03*
X188400000Y-92600000D03*
X175400000Y-121200000D03*
X185200000Y-27200000D03*
X184600000Y-36400000D03*
X184400000Y-92200000D03*
X186200000Y-108000000D03*
X173800000Y-121000000D03*
M02*
