%TF.GenerationSoftware,KiCad,Pcbnew,9.0.5*%
%TF.CreationDate,2025-10-15T10:32:26-04:00*%
%TF.ProjectId,TEST_project,54455354-5f70-4726-9f6a-6563742e6b69,rev?*%
%TF.SameCoordinates,Original*%
%TF.FileFunction,Drillmap*%
%TF.FilePolarity,Positive*%
%FSLAX45Y45*%
G04 Gerber Fmt 4.5, Leading zero omitted, Abs format (unit mm)*
G04 Created by KiCad (PCBNEW 9.0.5) date 2025-10-15 10:32:26*
%MOMM*%
%LPD*%
G01*
G04 APERTURE LIST*
%ADD10C,0.038100*%
%ADD11C,0.200000*%
%ADD12C,0.100000*%
%ADD13C,0.139700*%
%ADD14C,0.360000*%
%ADD15C,0.610000*%
G04 APERTURE END LIST*
D10*
X13100000Y-2600000D02*
X13800000Y-1900000D01*
X25100000Y-13400000D02*
X25100000Y-10000000D01*
X9600000Y-15700000D02*
X7500000Y-13400000D01*
X13100000Y-5000000D02*
X13100000Y-2600000D01*
X13800000Y-1900000D02*
X18800000Y-1900000D01*
X16300000Y-15700000D02*
X9600000Y-15700000D01*
X19500000Y-5000000D02*
X25100000Y-8570000D01*
X25100000Y-8570000D02*
X25100000Y-10000000D01*
X7500000Y-10000000D02*
X7500000Y-8570000D01*
X7500000Y-8570000D02*
X13100000Y-5000000D01*
X18800000Y-1900000D02*
X19500000Y-2600000D01*
X23000000Y-15700000D02*
X16300000Y-15700000D01*
X23000000Y-15700000D02*
X25100000Y-13400000D01*
X7500000Y-13400000D02*
X7500000Y-10000000D01*
X19500000Y-2600000D02*
X19500000Y-5000000D01*
D11*
D12*
X12685000Y-7296400D02*
X12715000Y-7326400D01*
X12715000Y-7296400D02*
X12685000Y-7326400D01*
X14385000Y-9685000D02*
X14415000Y-9715000D01*
X14415000Y-9685000D02*
X14385000Y-9715000D01*
X14485000Y-10085000D02*
X14515000Y-10115000D01*
X14515000Y-10085000D02*
X14485000Y-10115000D01*
X14885000Y-7785000D02*
X14915000Y-7815000D01*
X14915000Y-7785000D02*
X14885000Y-7815000D01*
X15385000Y-9885000D02*
X15415000Y-9915000D01*
X15415000Y-9885000D02*
X15385000Y-9915000D01*
X16685000Y-9685000D02*
X16715000Y-9715000D01*
X16715000Y-9685000D02*
X16685000Y-9715000D01*
X17309950Y-2409950D02*
X17339950Y-2439950D01*
X17339950Y-2409950D02*
X17309950Y-2439950D01*
X17485000Y-7685000D02*
X17515000Y-7715000D01*
X17515000Y-7685000D02*
X17485000Y-7715000D01*
X17885000Y-10785000D02*
X17915000Y-10815000D01*
X17915000Y-10785000D02*
X17885000Y-10815000D01*
X17985000Y-9685000D02*
X18015000Y-9715000D01*
X18015000Y-9685000D02*
X17985000Y-9715000D01*
X13630000Y-4300000D02*
G75*
G02*
X13570000Y-4300000I-30000J0D01*
G01*
X13570000Y-4300000D02*
G75*
G02*
X13630000Y-4300000I30000J0D01*
G01*
X13350000Y-2701050D02*
X13350000Y-2781050D01*
X13310000Y-2741050D02*
X13390000Y-2741050D01*
X14100000Y-2701050D02*
X14100000Y-2781050D01*
X14060000Y-2741050D02*
X14140000Y-2741050D01*
X14368000Y-7271400D02*
X14368000Y-7351400D01*
X14328000Y-7311400D02*
X14408000Y-7311400D01*
X14672800Y-7271400D02*
X14672800Y-7351400D01*
X14632800Y-7311400D02*
X14712800Y-7311400D01*
X14977600Y-7271400D02*
X14977600Y-7351400D01*
X14937600Y-7311400D02*
X15017600Y-7311400D01*
X15282400Y-7271400D02*
X15282400Y-7351400D01*
X15242400Y-7311400D02*
X15322400Y-7311400D01*
X15587200Y-7271400D02*
X15587200Y-7351400D01*
X15547200Y-7311400D02*
X15627200Y-7311400D01*
X15892000Y-7271400D02*
X15892000Y-7351400D01*
X15852000Y-7311400D02*
X15932000Y-7311400D01*
X16196800Y-7271400D02*
X16196800Y-7351400D01*
X16156800Y-7311400D02*
X16236800Y-7311400D01*
X16501600Y-7271400D02*
X16501600Y-7351400D01*
X16461600Y-7311400D02*
X16541600Y-7311400D01*
X8615431Y-9777431D02*
X8615431Y-9714569D01*
X8552569Y-9714569D01*
X8552569Y-9777431D01*
X8615431Y-9777431D01*
X8615431Y-10031431D02*
X8615431Y-9968569D01*
X8552569Y-9968569D01*
X8552569Y-10031431D01*
X8615431Y-10031431D01*
X8615431Y-10285431D02*
X8615431Y-10222569D01*
X8552569Y-10222569D01*
X8552569Y-10285431D01*
X8615431Y-10285431D01*
X9377431Y-11047431D02*
X9377431Y-10984569D01*
X9314569Y-10984569D01*
X9314569Y-11047431D01*
X9377431Y-11047431D01*
X9631431Y-11047431D02*
X9631431Y-10984569D01*
X9568569Y-10984569D01*
X9568569Y-11047431D01*
X9631431Y-11047431D01*
X9885431Y-11047431D02*
X9885431Y-10984569D01*
X9822569Y-10984569D01*
X9822569Y-11047431D01*
X9885431Y-11047431D01*
X22015431Y-9777431D02*
X22015431Y-9714569D01*
X21952569Y-9714569D01*
X21952569Y-9777431D01*
X22015431Y-9777431D01*
X22015431Y-10031431D02*
X22015431Y-9968569D01*
X21952569Y-9968569D01*
X21952569Y-10031431D01*
X22015431Y-10031431D01*
X22015431Y-10285431D02*
X22015431Y-10222569D01*
X21952569Y-10222569D01*
X21952569Y-10285431D01*
X22015431Y-10285431D01*
X22777431Y-11047431D02*
X22777431Y-10984569D01*
X22714569Y-10984569D01*
X22714569Y-11047431D01*
X22777431Y-11047431D01*
X23031431Y-11047431D02*
X23031431Y-10984569D01*
X22968569Y-10984569D01*
X22968569Y-11047431D01*
X23031431Y-11047431D01*
X23285431Y-11047431D02*
X23285431Y-10984569D01*
X23222569Y-10984569D01*
X23222569Y-11047431D01*
X23285431Y-11047431D01*
X9282500Y-8775000D02*
X9327500Y-8730000D01*
X9282500Y-8685000D01*
X9237500Y-8730000D01*
X9282500Y-8775000D01*
X9282500Y-9283000D02*
X9327500Y-9238000D01*
X9282500Y-9193000D01*
X9237500Y-9238000D01*
X9282500Y-9283000D01*
X9917500Y-8775000D02*
X9962500Y-8730000D01*
X9917500Y-8685000D01*
X9872500Y-8730000D01*
X9917500Y-8775000D01*
X9917500Y-9283000D02*
X9962500Y-9238000D01*
X9917500Y-9193000D01*
X9872500Y-9238000D01*
X9917500Y-9283000D01*
X22682500Y-8775000D02*
X22727500Y-8730000D01*
X22682500Y-8685000D01*
X22637500Y-8730000D01*
X22682500Y-8775000D01*
X22682500Y-9283000D02*
X22727500Y-9238000D01*
X22682500Y-9193000D01*
X22637500Y-9238000D01*
X22682500Y-9283000D01*
X23317500Y-8775000D02*
X23362500Y-8730000D01*
X23317500Y-8685000D01*
X23272500Y-8730000D01*
X23317500Y-8775000D01*
X23317500Y-9283000D02*
X23362500Y-9238000D01*
X23317500Y-9193000D01*
X23272500Y-9238000D01*
X23317500Y-9283000D01*
X13300000Y-12400000D02*
X13400000Y-12500000D01*
X13400000Y-12400000D02*
X13300000Y-12500000D01*
X13400000Y-12450000D02*
G75*
G02*
X13300000Y-12450000I-50000J0D01*
G01*
X13300000Y-12450000D02*
G75*
G02*
X13400000Y-12450000I50000J0D01*
G01*
X13280000Y-12500000D02*
X13420000Y-12500000D01*
X13420000Y-12400000D02*
G75*
G02*
X13420000Y-12500000I0J-50000D01*
G01*
X13420000Y-12400000D02*
X13280000Y-12400000D01*
X13280000Y-12400000D02*
G75*
G03*
X13280000Y-12500000I0J-50000D01*
G01*
X13310000Y-12870000D02*
X13410000Y-12970000D01*
X13410000Y-12870000D02*
X13310000Y-12970000D01*
X13410000Y-12920000D02*
G75*
G02*
X13310000Y-12920000I-50000J0D01*
G01*
X13310000Y-12920000D02*
G75*
G02*
X13410000Y-12920000I50000J0D01*
G01*
X13290000Y-12970000D02*
X13430000Y-12970000D01*
X13430000Y-12870000D02*
G75*
G02*
X13430000Y-12970000I0J-50000D01*
G01*
X13430000Y-12870000D02*
X13290000Y-12870000D01*
X13290000Y-12870000D02*
G75*
G03*
X13290000Y-12970000I0J-50000D01*
G01*
X14345000Y-8886622D02*
X14445000Y-8986622D01*
X14445000Y-8886622D02*
X14345000Y-8986622D01*
X14445000Y-8936622D02*
G75*
G02*
X14345000Y-8936622I-50000J0D01*
G01*
X14345000Y-8936622D02*
G75*
G02*
X14445000Y-8936622I50000J0D01*
G01*
X14345000Y-10918622D02*
X14445000Y-11018622D01*
X14445000Y-10918622D02*
X14345000Y-11018622D01*
X14445000Y-10968622D02*
G75*
G02*
X14345000Y-10968622I-50000J0D01*
G01*
X14345000Y-10968622D02*
G75*
G02*
X14445000Y-10968622I50000J0D01*
G01*
X14599000Y-8886622D02*
X14699000Y-8986622D01*
X14699000Y-8886622D02*
X14599000Y-8986622D01*
X14699000Y-8936622D02*
G75*
G02*
X14599000Y-8936622I-50000J0D01*
G01*
X14599000Y-8936622D02*
G75*
G02*
X14699000Y-8936622I50000J0D01*
G01*
X14599000Y-10918622D02*
X14699000Y-11018622D01*
X14699000Y-10918622D02*
X14599000Y-11018622D01*
X14699000Y-10968622D02*
G75*
G02*
X14599000Y-10968622I-50000J0D01*
G01*
X14599000Y-10968622D02*
G75*
G02*
X14699000Y-10968622I50000J0D01*
G01*
X14853000Y-8886622D02*
X14953000Y-8986622D01*
X14953000Y-8886622D02*
X14853000Y-8986622D01*
X14953000Y-8936622D02*
G75*
G02*
X14853000Y-8936622I-50000J0D01*
G01*
X14853000Y-8936622D02*
G75*
G02*
X14953000Y-8936622I50000J0D01*
G01*
X14853000Y-10918622D02*
X14953000Y-11018622D01*
X14953000Y-10918622D02*
X14853000Y-11018622D01*
X14953000Y-10968622D02*
G75*
G02*
X14853000Y-10968622I-50000J0D01*
G01*
X14853000Y-10968622D02*
G75*
G02*
X14953000Y-10968622I50000J0D01*
G01*
X15107000Y-8886622D02*
X15207000Y-8986622D01*
X15207000Y-8886622D02*
X15107000Y-8986622D01*
X15207000Y-8936622D02*
G75*
G02*
X15107000Y-8936622I-50000J0D01*
G01*
X15107000Y-8936622D02*
G75*
G02*
X15207000Y-8936622I50000J0D01*
G01*
X15107000Y-10918622D02*
X15207000Y-11018622D01*
X15207000Y-10918622D02*
X15107000Y-11018622D01*
X15207000Y-10968622D02*
G75*
G02*
X15107000Y-10968622I-50000J0D01*
G01*
X15107000Y-10968622D02*
G75*
G02*
X15207000Y-10968622I50000J0D01*
G01*
X15361000Y-8886622D02*
X15461000Y-8986622D01*
X15461000Y-8886622D02*
X15361000Y-8986622D01*
X15461000Y-8936622D02*
G75*
G02*
X15361000Y-8936622I-50000J0D01*
G01*
X15361000Y-8936622D02*
G75*
G02*
X15461000Y-8936622I50000J0D01*
G01*
X15361000Y-10918622D02*
X15461000Y-11018622D01*
X15461000Y-10918622D02*
X15361000Y-11018622D01*
X15461000Y-10968622D02*
G75*
G02*
X15361000Y-10968622I-50000J0D01*
G01*
X15361000Y-10968622D02*
G75*
G02*
X15461000Y-10968622I50000J0D01*
G01*
X15615000Y-8886622D02*
X15715000Y-8986622D01*
X15715000Y-8886622D02*
X15615000Y-8986622D01*
X15715000Y-8936622D02*
G75*
G02*
X15615000Y-8936622I-50000J0D01*
G01*
X15615000Y-8936622D02*
G75*
G02*
X15715000Y-8936622I50000J0D01*
G01*
X15615000Y-10918622D02*
X15715000Y-11018622D01*
X15715000Y-10918622D02*
X15615000Y-11018622D01*
X15715000Y-10968622D02*
G75*
G02*
X15615000Y-10968622I-50000J0D01*
G01*
X15615000Y-10968622D02*
G75*
G02*
X15715000Y-10968622I50000J0D01*
G01*
X15687500Y-2374950D02*
X15787500Y-2474950D01*
X15787500Y-2374950D02*
X15687500Y-2474950D01*
X15787500Y-2424950D02*
G75*
G02*
X15687500Y-2424950I-50000J0D01*
G01*
X15687500Y-2424950D02*
G75*
G02*
X15787500Y-2424950I50000J0D01*
G01*
X15687500Y-2628950D02*
X15787500Y-2728950D01*
X15787500Y-2628950D02*
X15687500Y-2728950D01*
X15787500Y-2678950D02*
G75*
G02*
X15687500Y-2678950I-50000J0D01*
G01*
X15687500Y-2678950D02*
G75*
G02*
X15787500Y-2678950I50000J0D01*
G01*
X15869000Y-8886622D02*
X15969000Y-8986622D01*
X15969000Y-8886622D02*
X15869000Y-8986622D01*
X15969000Y-8936622D02*
G75*
G02*
X15869000Y-8936622I-50000J0D01*
G01*
X15869000Y-8936622D02*
G75*
G02*
X15969000Y-8936622I50000J0D01*
G01*
X15869000Y-10918622D02*
X15969000Y-11018622D01*
X15969000Y-10918622D02*
X15869000Y-11018622D01*
X15969000Y-10968622D02*
G75*
G02*
X15869000Y-10968622I-50000J0D01*
G01*
X15869000Y-10968622D02*
G75*
G02*
X15969000Y-10968622I50000J0D01*
G01*
X15941500Y-2374950D02*
X16041500Y-2474950D01*
X16041500Y-2374950D02*
X15941500Y-2474950D01*
X16041500Y-2424950D02*
G75*
G02*
X15941500Y-2424950I-50000J0D01*
G01*
X15941500Y-2424950D02*
G75*
G02*
X16041500Y-2424950I50000J0D01*
G01*
X15941500Y-2628950D02*
X16041500Y-2728950D01*
X16041500Y-2628950D02*
X15941500Y-2728950D01*
X16041500Y-2678950D02*
G75*
G02*
X15941500Y-2678950I-50000J0D01*
G01*
X15941500Y-2678950D02*
G75*
G02*
X16041500Y-2678950I50000J0D01*
G01*
X16123000Y-8886622D02*
X16223000Y-8986622D01*
X16223000Y-8886622D02*
X16123000Y-8986622D01*
X16223000Y-8936622D02*
G75*
G02*
X16123000Y-8936622I-50000J0D01*
G01*
X16123000Y-8936622D02*
G75*
G02*
X16223000Y-8936622I50000J0D01*
G01*
X16123000Y-10918622D02*
X16223000Y-11018622D01*
X16223000Y-10918622D02*
X16123000Y-11018622D01*
X16223000Y-10968622D02*
G75*
G02*
X16123000Y-10968622I-50000J0D01*
G01*
X16123000Y-10968622D02*
G75*
G02*
X16223000Y-10968622I50000J0D01*
G01*
X16195500Y-2374950D02*
X16295500Y-2474950D01*
X16295500Y-2374950D02*
X16195500Y-2474950D01*
X16295500Y-2424950D02*
G75*
G02*
X16195500Y-2424950I-50000J0D01*
G01*
X16195500Y-2424950D02*
G75*
G02*
X16295500Y-2424950I50000J0D01*
G01*
X16195500Y-2628950D02*
X16295500Y-2728950D01*
X16295500Y-2628950D02*
X16195500Y-2728950D01*
X16295500Y-2678950D02*
G75*
G02*
X16195500Y-2678950I-50000J0D01*
G01*
X16195500Y-2678950D02*
G75*
G02*
X16295500Y-2678950I50000J0D01*
G01*
X16377000Y-8886622D02*
X16477000Y-8986622D01*
X16477000Y-8886622D02*
X16377000Y-8986622D01*
X16477000Y-8936622D02*
G75*
G02*
X16377000Y-8936622I-50000J0D01*
G01*
X16377000Y-8936622D02*
G75*
G02*
X16477000Y-8936622I50000J0D01*
G01*
X16377000Y-10918622D02*
X16477000Y-11018622D01*
X16477000Y-10918622D02*
X16377000Y-11018622D01*
X16477000Y-10968622D02*
G75*
G02*
X16377000Y-10968622I-50000J0D01*
G01*
X16377000Y-10968622D02*
G75*
G02*
X16477000Y-10968622I50000J0D01*
G01*
X16449500Y-2374950D02*
X16549500Y-2474950D01*
X16549500Y-2374950D02*
X16449500Y-2474950D01*
X16549500Y-2424950D02*
G75*
G02*
X16449500Y-2424950I-50000J0D01*
G01*
X16449500Y-2424950D02*
G75*
G02*
X16549500Y-2424950I50000J0D01*
G01*
X16449500Y-2628950D02*
X16549500Y-2728950D01*
X16549500Y-2628950D02*
X16449500Y-2728950D01*
X16549500Y-2678950D02*
G75*
G02*
X16449500Y-2678950I-50000J0D01*
G01*
X16449500Y-2678950D02*
G75*
G02*
X16549500Y-2678950I50000J0D01*
G01*
X16631000Y-8886622D02*
X16731000Y-8986622D01*
X16731000Y-8886622D02*
X16631000Y-8986622D01*
X16731000Y-8936622D02*
G75*
G02*
X16631000Y-8936622I-50000J0D01*
G01*
X16631000Y-8936622D02*
G75*
G02*
X16731000Y-8936622I50000J0D01*
G01*
X16631000Y-10918622D02*
X16731000Y-11018622D01*
X16731000Y-10918622D02*
X16631000Y-11018622D01*
X16731000Y-10968622D02*
G75*
G02*
X16631000Y-10968622I-50000J0D01*
G01*
X16631000Y-10968622D02*
G75*
G02*
X16731000Y-10968622I50000J0D01*
G01*
X16885000Y-8886622D02*
X16985000Y-8986622D01*
X16985000Y-8886622D02*
X16885000Y-8986622D01*
X16985000Y-8936622D02*
G75*
G02*
X16885000Y-8936622I-50000J0D01*
G01*
X16885000Y-8936622D02*
G75*
G02*
X16985000Y-8936622I50000J0D01*
G01*
X16885000Y-10918622D02*
X16985000Y-11018622D01*
X16985000Y-10918622D02*
X16885000Y-11018622D01*
X16985000Y-10968622D02*
G75*
G02*
X16885000Y-10968622I-50000J0D01*
G01*
X16885000Y-10968622D02*
G75*
G02*
X16985000Y-10968622I50000J0D01*
G01*
X17139000Y-8886622D02*
X17239000Y-8986622D01*
X17239000Y-8886622D02*
X17139000Y-8986622D01*
X17239000Y-8936622D02*
G75*
G02*
X17139000Y-8936622I-50000J0D01*
G01*
X17139000Y-8936622D02*
G75*
G02*
X17239000Y-8936622I50000J0D01*
G01*
X17139000Y-10918622D02*
X17239000Y-11018622D01*
X17239000Y-10918622D02*
X17139000Y-11018622D01*
X17239000Y-10968622D02*
G75*
G02*
X17139000Y-10968622I-50000J0D01*
G01*
X17139000Y-10968622D02*
G75*
G02*
X17239000Y-10968622I50000J0D01*
G01*
X17393000Y-8886622D02*
X17493000Y-8986622D01*
X17493000Y-8886622D02*
X17393000Y-8986622D01*
X17493000Y-8936622D02*
G75*
G02*
X17393000Y-8936622I-50000J0D01*
G01*
X17393000Y-8936622D02*
G75*
G02*
X17493000Y-8936622I50000J0D01*
G01*
X17647000Y-8886622D02*
X17747000Y-8986622D01*
X17747000Y-8886622D02*
X17647000Y-8986622D01*
X17747000Y-8936622D02*
G75*
G02*
X17647000Y-8936622I-50000J0D01*
G01*
X17647000Y-8936622D02*
G75*
G02*
X17747000Y-8936622I50000J0D01*
G01*
X17901000Y-8886622D02*
X18001000Y-8986622D01*
X18001000Y-8886622D02*
X17901000Y-8986622D01*
X18001000Y-8936622D02*
G75*
G02*
X17901000Y-8936622I-50000J0D01*
G01*
X17901000Y-8936622D02*
G75*
G02*
X18001000Y-8936622I50000J0D01*
G01*
X18155000Y-8886622D02*
X18255000Y-8986622D01*
X18255000Y-8886622D02*
X18155000Y-8986622D01*
X18255000Y-8936622D02*
G75*
G02*
X18155000Y-8936622I-50000J0D01*
G01*
X18155000Y-8936622D02*
G75*
G02*
X18255000Y-8936622I50000J0D01*
G01*
D13*
X8768150Y-9263400D02*
X8907850Y-9403100D01*
X8907850Y-9263400D02*
X8768150Y-9403100D01*
X8838000Y-9263400D02*
X8838000Y-9403100D01*
X8768150Y-9333250D02*
X8907850Y-9333250D01*
X8768150Y-10596900D02*
X8907850Y-10736600D01*
X8907850Y-10596900D02*
X8768150Y-10736600D01*
X8838000Y-10596900D02*
X8838000Y-10736600D01*
X8768150Y-10666750D02*
X8907850Y-10666750D01*
X10292150Y-9263400D02*
X10431850Y-9403100D01*
X10431850Y-9263400D02*
X10292150Y-9403100D01*
X10362000Y-9263400D02*
X10362000Y-9403100D01*
X10292150Y-9333250D02*
X10431850Y-9333250D01*
X10292150Y-10596900D02*
X10431850Y-10736600D01*
X10431850Y-10596900D02*
X10292150Y-10736600D01*
X10362000Y-10596900D02*
X10362000Y-10736600D01*
X10292150Y-10666750D02*
X10431850Y-10666750D01*
X22168150Y-9263400D02*
X22307850Y-9403100D01*
X22307850Y-9263400D02*
X22168150Y-9403100D01*
X22238000Y-9263400D02*
X22238000Y-9403100D01*
X22168150Y-9333250D02*
X22307850Y-9333250D01*
X22168150Y-10596900D02*
X22307850Y-10736600D01*
X22307850Y-10596900D02*
X22168150Y-10736600D01*
X22238000Y-10596900D02*
X22238000Y-10736600D01*
X22168150Y-10666750D02*
X22307850Y-10666750D01*
X23692150Y-9263400D02*
X23831850Y-9403100D01*
X23831850Y-9263400D02*
X23692150Y-9403100D01*
X23762000Y-9263400D02*
X23762000Y-9403100D01*
X23692150Y-9333250D02*
X23831850Y-9333250D01*
X23692150Y-10596900D02*
X23831850Y-10736600D01*
X23831850Y-10596900D02*
X23692150Y-10736600D01*
X23762000Y-10596900D02*
X23762000Y-10736600D01*
X23692150Y-10666750D02*
X23831850Y-10666750D01*
D14*
X11120000Y-7020000D02*
X11480000Y-7380000D01*
X11480000Y-7020000D02*
X11120000Y-7380000D01*
X11427280Y-7327280D02*
X11427280Y-7072720D01*
X11172720Y-7072720D01*
X11172720Y-7327280D01*
X11427280Y-7327280D01*
X11120000Y-14720000D02*
X11480000Y-15080000D01*
X11480000Y-14720000D02*
X11120000Y-15080000D01*
X11427280Y-15027280D02*
X11427280Y-14772720D01*
X11172720Y-14772720D01*
X11172720Y-15027280D01*
X11427280Y-15027280D01*
X21120000Y-7020000D02*
X21480000Y-7380000D01*
X21480000Y-7020000D02*
X21120000Y-7380000D01*
X21427280Y-7327280D02*
X21427280Y-7072720D01*
X21172720Y-7072720D01*
X21172720Y-7327280D01*
X21427280Y-7327280D01*
X21120000Y-14720000D02*
X21480000Y-15080000D01*
X21480000Y-14720000D02*
X21120000Y-15080000D01*
X21427280Y-15027280D02*
X21427280Y-14772720D01*
X21172720Y-14772720D01*
X21172720Y-15027280D01*
X21427280Y-15027280D01*
D15*
X14495000Y-13095000D02*
X15105000Y-13705000D01*
X15105000Y-13095000D02*
X14495000Y-13705000D01*
X14800000Y-13705000D02*
X15105000Y-13400000D01*
X14800000Y-13095000D01*
X14495000Y-13400000D01*
X14800000Y-13705000D01*
X17492000Y-13095000D02*
X18102000Y-13705000D01*
X18102000Y-13095000D02*
X17492000Y-13705000D01*
X17797000Y-13705000D02*
X18102000Y-13400000D01*
X17797000Y-13095000D01*
X17492000Y-13400000D01*
X17797000Y-13705000D01*
D11*
X7758872Y-16013389D02*
X7758872Y-15813389D01*
X7758872Y-15813389D02*
X7806491Y-15813389D01*
X7806491Y-15813389D02*
X7835062Y-15822913D01*
X7835062Y-15822913D02*
X7854110Y-15841960D01*
X7854110Y-15841960D02*
X7863634Y-15861008D01*
X7863634Y-15861008D02*
X7873157Y-15899103D01*
X7873157Y-15899103D02*
X7873157Y-15927674D01*
X7873157Y-15927674D02*
X7863634Y-15965770D01*
X7863634Y-15965770D02*
X7854110Y-15984817D01*
X7854110Y-15984817D02*
X7835062Y-16003865D01*
X7835062Y-16003865D02*
X7806491Y-16013389D01*
X7806491Y-16013389D02*
X7758872Y-16013389D01*
X7958872Y-16013389D02*
X7958872Y-15880055D01*
X7958872Y-15918151D02*
X7968396Y-15899103D01*
X7968396Y-15899103D02*
X7977919Y-15889579D01*
X7977919Y-15889579D02*
X7996967Y-15880055D01*
X7996967Y-15880055D02*
X8016015Y-15880055D01*
X8082681Y-16013389D02*
X8082681Y-15880055D01*
X8082681Y-15813389D02*
X8073157Y-15822913D01*
X8073157Y-15822913D02*
X8082681Y-15832436D01*
X8082681Y-15832436D02*
X8092205Y-15822913D01*
X8092205Y-15822913D02*
X8082681Y-15813389D01*
X8082681Y-15813389D02*
X8082681Y-15832436D01*
X8206491Y-16013389D02*
X8187443Y-16003865D01*
X8187443Y-16003865D02*
X8177919Y-15984817D01*
X8177919Y-15984817D02*
X8177919Y-15813389D01*
X8311253Y-16013389D02*
X8292205Y-16003865D01*
X8292205Y-16003865D02*
X8282681Y-15984817D01*
X8282681Y-15984817D02*
X8282681Y-15813389D01*
X8539824Y-16013389D02*
X8539824Y-15813389D01*
X8539824Y-15813389D02*
X8606491Y-15956246D01*
X8606491Y-15956246D02*
X8673158Y-15813389D01*
X8673158Y-15813389D02*
X8673158Y-16013389D01*
X8854110Y-16013389D02*
X8854110Y-15908627D01*
X8854110Y-15908627D02*
X8844586Y-15889579D01*
X8844586Y-15889579D02*
X8825539Y-15880055D01*
X8825539Y-15880055D02*
X8787443Y-15880055D01*
X8787443Y-15880055D02*
X8768396Y-15889579D01*
X8854110Y-16003865D02*
X8835062Y-16013389D01*
X8835062Y-16013389D02*
X8787443Y-16013389D01*
X8787443Y-16013389D02*
X8768396Y-16003865D01*
X8768396Y-16003865D02*
X8758872Y-15984817D01*
X8758872Y-15984817D02*
X8758872Y-15965770D01*
X8758872Y-15965770D02*
X8768396Y-15946722D01*
X8768396Y-15946722D02*
X8787443Y-15937198D01*
X8787443Y-15937198D02*
X8835062Y-15937198D01*
X8835062Y-15937198D02*
X8854110Y-15927674D01*
X8949348Y-15880055D02*
X8949348Y-16080055D01*
X8949348Y-15889579D02*
X8968396Y-15880055D01*
X8968396Y-15880055D02*
X9006491Y-15880055D01*
X9006491Y-15880055D02*
X9025539Y-15889579D01*
X9025539Y-15889579D02*
X9035062Y-15899103D01*
X9035062Y-15899103D02*
X9044586Y-15918151D01*
X9044586Y-15918151D02*
X9044586Y-15975293D01*
X9044586Y-15975293D02*
X9035062Y-15994341D01*
X9035062Y-15994341D02*
X9025539Y-16003865D01*
X9025539Y-16003865D02*
X9006491Y-16013389D01*
X9006491Y-16013389D02*
X8968396Y-16013389D01*
X8968396Y-16013389D02*
X8949348Y-16003865D01*
X9130300Y-15994341D02*
X9139824Y-16003865D01*
X9139824Y-16003865D02*
X9130300Y-16013389D01*
X9130300Y-16013389D02*
X9120777Y-16003865D01*
X9120777Y-16003865D02*
X9130300Y-15994341D01*
X9130300Y-15994341D02*
X9130300Y-16013389D01*
X9130300Y-15889579D02*
X9139824Y-15899103D01*
X9139824Y-15899103D02*
X9130300Y-15908627D01*
X9130300Y-15908627D02*
X9120777Y-15899103D01*
X9120777Y-15899103D02*
X9130300Y-15889579D01*
X9130300Y-15889579D02*
X9130300Y-15908627D01*
D12*
X7468095Y-16326905D02*
X7498095Y-16356905D01*
X7498095Y-16326905D02*
X7468095Y-16356905D01*
D11*
X7796967Y-16233389D02*
X7816015Y-16233389D01*
X7816015Y-16233389D02*
X7835062Y-16242913D01*
X7835062Y-16242913D02*
X7844586Y-16252436D01*
X7844586Y-16252436D02*
X7854110Y-16271484D01*
X7854110Y-16271484D02*
X7863634Y-16309579D01*
X7863634Y-16309579D02*
X7863634Y-16357198D01*
X7863634Y-16357198D02*
X7854110Y-16395293D01*
X7854110Y-16395293D02*
X7844586Y-16414341D01*
X7844586Y-16414341D02*
X7835062Y-16423865D01*
X7835062Y-16423865D02*
X7816015Y-16433389D01*
X7816015Y-16433389D02*
X7796967Y-16433389D01*
X7796967Y-16433389D02*
X7777919Y-16423865D01*
X7777919Y-16423865D02*
X7768396Y-16414341D01*
X7768396Y-16414341D02*
X7758872Y-16395293D01*
X7758872Y-16395293D02*
X7749348Y-16357198D01*
X7749348Y-16357198D02*
X7749348Y-16309579D01*
X7749348Y-16309579D02*
X7758872Y-16271484D01*
X7758872Y-16271484D02*
X7768396Y-16252436D01*
X7768396Y-16252436D02*
X7777919Y-16242913D01*
X7777919Y-16242913D02*
X7796967Y-16233389D01*
X7949348Y-16414341D02*
X7958872Y-16423865D01*
X7958872Y-16423865D02*
X7949348Y-16433389D01*
X7949348Y-16433389D02*
X7939824Y-16423865D01*
X7939824Y-16423865D02*
X7949348Y-16414341D01*
X7949348Y-16414341D02*
X7949348Y-16433389D01*
X8025538Y-16233389D02*
X8149348Y-16233389D01*
X8149348Y-16233389D02*
X8082681Y-16309579D01*
X8082681Y-16309579D02*
X8111253Y-16309579D01*
X8111253Y-16309579D02*
X8130300Y-16319103D01*
X8130300Y-16319103D02*
X8139824Y-16328627D01*
X8139824Y-16328627D02*
X8149348Y-16347674D01*
X8149348Y-16347674D02*
X8149348Y-16395293D01*
X8149348Y-16395293D02*
X8139824Y-16414341D01*
X8139824Y-16414341D02*
X8130300Y-16423865D01*
X8130300Y-16423865D02*
X8111253Y-16433389D01*
X8111253Y-16433389D02*
X8054110Y-16433389D01*
X8054110Y-16433389D02*
X8035062Y-16423865D01*
X8035062Y-16423865D02*
X8025538Y-16414341D01*
X8273157Y-16233389D02*
X8292205Y-16233389D01*
X8292205Y-16233389D02*
X8311253Y-16242913D01*
X8311253Y-16242913D02*
X8320777Y-16252436D01*
X8320777Y-16252436D02*
X8330300Y-16271484D01*
X8330300Y-16271484D02*
X8339824Y-16309579D01*
X8339824Y-16309579D02*
X8339824Y-16357198D01*
X8339824Y-16357198D02*
X8330300Y-16395293D01*
X8330300Y-16395293D02*
X8320777Y-16414341D01*
X8320777Y-16414341D02*
X8311253Y-16423865D01*
X8311253Y-16423865D02*
X8292205Y-16433389D01*
X8292205Y-16433389D02*
X8273157Y-16433389D01*
X8273157Y-16433389D02*
X8254110Y-16423865D01*
X8254110Y-16423865D02*
X8244586Y-16414341D01*
X8244586Y-16414341D02*
X8235062Y-16395293D01*
X8235062Y-16395293D02*
X8225538Y-16357198D01*
X8225538Y-16357198D02*
X8225538Y-16309579D01*
X8225538Y-16309579D02*
X8235062Y-16271484D01*
X8235062Y-16271484D02*
X8244586Y-16252436D01*
X8244586Y-16252436D02*
X8254110Y-16242913D01*
X8254110Y-16242913D02*
X8273157Y-16233389D01*
X8463634Y-16233389D02*
X8482681Y-16233389D01*
X8482681Y-16233389D02*
X8501729Y-16242913D01*
X8501729Y-16242913D02*
X8511253Y-16252436D01*
X8511253Y-16252436D02*
X8520777Y-16271484D01*
X8520777Y-16271484D02*
X8530300Y-16309579D01*
X8530300Y-16309579D02*
X8530300Y-16357198D01*
X8530300Y-16357198D02*
X8520777Y-16395293D01*
X8520777Y-16395293D02*
X8511253Y-16414341D01*
X8511253Y-16414341D02*
X8501729Y-16423865D01*
X8501729Y-16423865D02*
X8482681Y-16433389D01*
X8482681Y-16433389D02*
X8463634Y-16433389D01*
X8463634Y-16433389D02*
X8444586Y-16423865D01*
X8444586Y-16423865D02*
X8435062Y-16414341D01*
X8435062Y-16414341D02*
X8425539Y-16395293D01*
X8425539Y-16395293D02*
X8416015Y-16357198D01*
X8416015Y-16357198D02*
X8416015Y-16309579D01*
X8416015Y-16309579D02*
X8425539Y-16271484D01*
X8425539Y-16271484D02*
X8435062Y-16252436D01*
X8435062Y-16252436D02*
X8444586Y-16242913D01*
X8444586Y-16242913D02*
X8463634Y-16233389D01*
X8616015Y-16433389D02*
X8616015Y-16300055D01*
X8616015Y-16319103D02*
X8625539Y-16309579D01*
X8625539Y-16309579D02*
X8644586Y-16300055D01*
X8644586Y-16300055D02*
X8673158Y-16300055D01*
X8673158Y-16300055D02*
X8692205Y-16309579D01*
X8692205Y-16309579D02*
X8701729Y-16328627D01*
X8701729Y-16328627D02*
X8701729Y-16433389D01*
X8701729Y-16328627D02*
X8711253Y-16309579D01*
X8711253Y-16309579D02*
X8730300Y-16300055D01*
X8730300Y-16300055D02*
X8758872Y-16300055D01*
X8758872Y-16300055D02*
X8777920Y-16309579D01*
X8777920Y-16309579D02*
X8787443Y-16328627D01*
X8787443Y-16328627D02*
X8787443Y-16433389D01*
X8882681Y-16433389D02*
X8882681Y-16300055D01*
X8882681Y-16319103D02*
X8892205Y-16309579D01*
X8892205Y-16309579D02*
X8911253Y-16300055D01*
X8911253Y-16300055D02*
X8939824Y-16300055D01*
X8939824Y-16300055D02*
X8958872Y-16309579D01*
X8958872Y-16309579D02*
X8968396Y-16328627D01*
X8968396Y-16328627D02*
X8968396Y-16433389D01*
X8968396Y-16328627D02*
X8977920Y-16309579D01*
X8977920Y-16309579D02*
X8996967Y-16300055D01*
X8996967Y-16300055D02*
X9025539Y-16300055D01*
X9025539Y-16300055D02*
X9044586Y-16309579D01*
X9044586Y-16309579D02*
X9054110Y-16328627D01*
X9054110Y-16328627D02*
X9054110Y-16433389D01*
X9444586Y-16223865D02*
X9273158Y-16481008D01*
X9701729Y-16233389D02*
X9720777Y-16233389D01*
X9720777Y-16233389D02*
X9739824Y-16242913D01*
X9739824Y-16242913D02*
X9749348Y-16252436D01*
X9749348Y-16252436D02*
X9758872Y-16271484D01*
X9758872Y-16271484D02*
X9768396Y-16309579D01*
X9768396Y-16309579D02*
X9768396Y-16357198D01*
X9768396Y-16357198D02*
X9758872Y-16395293D01*
X9758872Y-16395293D02*
X9749348Y-16414341D01*
X9749348Y-16414341D02*
X9739824Y-16423865D01*
X9739824Y-16423865D02*
X9720777Y-16433389D01*
X9720777Y-16433389D02*
X9701729Y-16433389D01*
X9701729Y-16433389D02*
X9682682Y-16423865D01*
X9682682Y-16423865D02*
X9673158Y-16414341D01*
X9673158Y-16414341D02*
X9663634Y-16395293D01*
X9663634Y-16395293D02*
X9654110Y-16357198D01*
X9654110Y-16357198D02*
X9654110Y-16309579D01*
X9654110Y-16309579D02*
X9663634Y-16271484D01*
X9663634Y-16271484D02*
X9673158Y-16252436D01*
X9673158Y-16252436D02*
X9682682Y-16242913D01*
X9682682Y-16242913D02*
X9701729Y-16233389D01*
X9854110Y-16414341D02*
X9863634Y-16423865D01*
X9863634Y-16423865D02*
X9854110Y-16433389D01*
X9854110Y-16433389D02*
X9844586Y-16423865D01*
X9844586Y-16423865D02*
X9854110Y-16414341D01*
X9854110Y-16414341D02*
X9854110Y-16433389D01*
X9987443Y-16233389D02*
X10006491Y-16233389D01*
X10006491Y-16233389D02*
X10025539Y-16242913D01*
X10025539Y-16242913D02*
X10035063Y-16252436D01*
X10035063Y-16252436D02*
X10044586Y-16271484D01*
X10044586Y-16271484D02*
X10054110Y-16309579D01*
X10054110Y-16309579D02*
X10054110Y-16357198D01*
X10054110Y-16357198D02*
X10044586Y-16395293D01*
X10044586Y-16395293D02*
X10035063Y-16414341D01*
X10035063Y-16414341D02*
X10025539Y-16423865D01*
X10025539Y-16423865D02*
X10006491Y-16433389D01*
X10006491Y-16433389D02*
X9987443Y-16433389D01*
X9987443Y-16433389D02*
X9968396Y-16423865D01*
X9968396Y-16423865D02*
X9958872Y-16414341D01*
X9958872Y-16414341D02*
X9949348Y-16395293D01*
X9949348Y-16395293D02*
X9939824Y-16357198D01*
X9939824Y-16357198D02*
X9939824Y-16309579D01*
X9939824Y-16309579D02*
X9949348Y-16271484D01*
X9949348Y-16271484D02*
X9958872Y-16252436D01*
X9958872Y-16252436D02*
X9968396Y-16242913D01*
X9968396Y-16242913D02*
X9987443Y-16233389D01*
X10244586Y-16433389D02*
X10130301Y-16433389D01*
X10187443Y-16433389D02*
X10187443Y-16233389D01*
X10187443Y-16233389D02*
X10168396Y-16261960D01*
X10168396Y-16261960D02*
X10149348Y-16281008D01*
X10149348Y-16281008D02*
X10130301Y-16290532D01*
X10435063Y-16433389D02*
X10320777Y-16433389D01*
X10377920Y-16433389D02*
X10377920Y-16233389D01*
X10377920Y-16233389D02*
X10358872Y-16261960D01*
X10358872Y-16261960D02*
X10339824Y-16281008D01*
X10339824Y-16281008D02*
X10320777Y-16290532D01*
X10549348Y-16319103D02*
X10530301Y-16309579D01*
X10530301Y-16309579D02*
X10520777Y-16300055D01*
X10520777Y-16300055D02*
X10511253Y-16281008D01*
X10511253Y-16281008D02*
X10511253Y-16271484D01*
X10511253Y-16271484D02*
X10520777Y-16252436D01*
X10520777Y-16252436D02*
X10530301Y-16242913D01*
X10530301Y-16242913D02*
X10549348Y-16233389D01*
X10549348Y-16233389D02*
X10587444Y-16233389D01*
X10587444Y-16233389D02*
X10606491Y-16242913D01*
X10606491Y-16242913D02*
X10616015Y-16252436D01*
X10616015Y-16252436D02*
X10625539Y-16271484D01*
X10625539Y-16271484D02*
X10625539Y-16281008D01*
X10625539Y-16281008D02*
X10616015Y-16300055D01*
X10616015Y-16300055D02*
X10606491Y-16309579D01*
X10606491Y-16309579D02*
X10587444Y-16319103D01*
X10587444Y-16319103D02*
X10549348Y-16319103D01*
X10549348Y-16319103D02*
X10530301Y-16328627D01*
X10530301Y-16328627D02*
X10520777Y-16338151D01*
X10520777Y-16338151D02*
X10511253Y-16357198D01*
X10511253Y-16357198D02*
X10511253Y-16395293D01*
X10511253Y-16395293D02*
X10520777Y-16414341D01*
X10520777Y-16414341D02*
X10530301Y-16423865D01*
X10530301Y-16423865D02*
X10549348Y-16433389D01*
X10549348Y-16433389D02*
X10587444Y-16433389D01*
X10587444Y-16433389D02*
X10606491Y-16423865D01*
X10606491Y-16423865D02*
X10616015Y-16414341D01*
X10616015Y-16414341D02*
X10625539Y-16395293D01*
X10625539Y-16395293D02*
X10625539Y-16357198D01*
X10625539Y-16357198D02*
X10616015Y-16338151D01*
X10616015Y-16338151D02*
X10606491Y-16328627D01*
X10606491Y-16328627D02*
X10587444Y-16319103D01*
X10701729Y-16233389D02*
X10701729Y-16271484D01*
X10777920Y-16233389D02*
X10777920Y-16271484D01*
X11073158Y-16509579D02*
X11063634Y-16500055D01*
X11063634Y-16500055D02*
X11044586Y-16471484D01*
X11044586Y-16471484D02*
X11035063Y-16452436D01*
X11035063Y-16452436D02*
X11025539Y-16423865D01*
X11025539Y-16423865D02*
X11016015Y-16376246D01*
X11016015Y-16376246D02*
X11016015Y-16338151D01*
X11016015Y-16338151D02*
X11025539Y-16290532D01*
X11025539Y-16290532D02*
X11035063Y-16261960D01*
X11035063Y-16261960D02*
X11044586Y-16242913D01*
X11044586Y-16242913D02*
X11063634Y-16214341D01*
X11063634Y-16214341D02*
X11073158Y-16204817D01*
X11254110Y-16433389D02*
X11139825Y-16433389D01*
X11196967Y-16433389D02*
X11196967Y-16233389D01*
X11196967Y-16233389D02*
X11177920Y-16261960D01*
X11177920Y-16261960D02*
X11158872Y-16281008D01*
X11158872Y-16281008D02*
X11139825Y-16290532D01*
X11377920Y-16233389D02*
X11396967Y-16233389D01*
X11396967Y-16233389D02*
X11416015Y-16242913D01*
X11416015Y-16242913D02*
X11425539Y-16252436D01*
X11425539Y-16252436D02*
X11435063Y-16271484D01*
X11435063Y-16271484D02*
X11444586Y-16309579D01*
X11444586Y-16309579D02*
X11444586Y-16357198D01*
X11444586Y-16357198D02*
X11435063Y-16395293D01*
X11435063Y-16395293D02*
X11425539Y-16414341D01*
X11425539Y-16414341D02*
X11416015Y-16423865D01*
X11416015Y-16423865D02*
X11396967Y-16433389D01*
X11396967Y-16433389D02*
X11377920Y-16433389D01*
X11377920Y-16433389D02*
X11358872Y-16423865D01*
X11358872Y-16423865D02*
X11349348Y-16414341D01*
X11349348Y-16414341D02*
X11339824Y-16395293D01*
X11339824Y-16395293D02*
X11330301Y-16357198D01*
X11330301Y-16357198D02*
X11330301Y-16309579D01*
X11330301Y-16309579D02*
X11339824Y-16271484D01*
X11339824Y-16271484D02*
X11349348Y-16252436D01*
X11349348Y-16252436D02*
X11358872Y-16242913D01*
X11358872Y-16242913D02*
X11377920Y-16233389D01*
X11682682Y-16433389D02*
X11682682Y-16233389D01*
X11768396Y-16433389D02*
X11768396Y-16328627D01*
X11768396Y-16328627D02*
X11758872Y-16309579D01*
X11758872Y-16309579D02*
X11739825Y-16300055D01*
X11739825Y-16300055D02*
X11711253Y-16300055D01*
X11711253Y-16300055D02*
X11692205Y-16309579D01*
X11692205Y-16309579D02*
X11682682Y-16319103D01*
X11892205Y-16433389D02*
X11873158Y-16423865D01*
X11873158Y-16423865D02*
X11863634Y-16414341D01*
X11863634Y-16414341D02*
X11854110Y-16395293D01*
X11854110Y-16395293D02*
X11854110Y-16338151D01*
X11854110Y-16338151D02*
X11863634Y-16319103D01*
X11863634Y-16319103D02*
X11873158Y-16309579D01*
X11873158Y-16309579D02*
X11892205Y-16300055D01*
X11892205Y-16300055D02*
X11920777Y-16300055D01*
X11920777Y-16300055D02*
X11939825Y-16309579D01*
X11939825Y-16309579D02*
X11949348Y-16319103D01*
X11949348Y-16319103D02*
X11958872Y-16338151D01*
X11958872Y-16338151D02*
X11958872Y-16395293D01*
X11958872Y-16395293D02*
X11949348Y-16414341D01*
X11949348Y-16414341D02*
X11939825Y-16423865D01*
X11939825Y-16423865D02*
X11920777Y-16433389D01*
X11920777Y-16433389D02*
X11892205Y-16433389D01*
X12073158Y-16433389D02*
X12054110Y-16423865D01*
X12054110Y-16423865D02*
X12044586Y-16404817D01*
X12044586Y-16404817D02*
X12044586Y-16233389D01*
X12225539Y-16423865D02*
X12206491Y-16433389D01*
X12206491Y-16433389D02*
X12168396Y-16433389D01*
X12168396Y-16433389D02*
X12149348Y-16423865D01*
X12149348Y-16423865D02*
X12139825Y-16404817D01*
X12139825Y-16404817D02*
X12139825Y-16328627D01*
X12139825Y-16328627D02*
X12149348Y-16309579D01*
X12149348Y-16309579D02*
X12168396Y-16300055D01*
X12168396Y-16300055D02*
X12206491Y-16300055D01*
X12206491Y-16300055D02*
X12225539Y-16309579D01*
X12225539Y-16309579D02*
X12235063Y-16328627D01*
X12235063Y-16328627D02*
X12235063Y-16347674D01*
X12235063Y-16347674D02*
X12139825Y-16366722D01*
X12311253Y-16423865D02*
X12330301Y-16433389D01*
X12330301Y-16433389D02*
X12368396Y-16433389D01*
X12368396Y-16433389D02*
X12387444Y-16423865D01*
X12387444Y-16423865D02*
X12396967Y-16404817D01*
X12396967Y-16404817D02*
X12396967Y-16395293D01*
X12396967Y-16395293D02*
X12387444Y-16376246D01*
X12387444Y-16376246D02*
X12368396Y-16366722D01*
X12368396Y-16366722D02*
X12339825Y-16366722D01*
X12339825Y-16366722D02*
X12320777Y-16357198D01*
X12320777Y-16357198D02*
X12311253Y-16338151D01*
X12311253Y-16338151D02*
X12311253Y-16328627D01*
X12311253Y-16328627D02*
X12320777Y-16309579D01*
X12320777Y-16309579D02*
X12339825Y-16300055D01*
X12339825Y-16300055D02*
X12368396Y-16300055D01*
X12368396Y-16300055D02*
X12387444Y-16309579D01*
X12463634Y-16509579D02*
X12473158Y-16500055D01*
X12473158Y-16500055D02*
X12492206Y-16471484D01*
X12492206Y-16471484D02*
X12501729Y-16452436D01*
X12501729Y-16452436D02*
X12511253Y-16423865D01*
X12511253Y-16423865D02*
X12520777Y-16376246D01*
X12520777Y-16376246D02*
X12520777Y-16338151D01*
X12520777Y-16338151D02*
X12511253Y-16290532D01*
X12511253Y-16290532D02*
X12501729Y-16261960D01*
X12501729Y-16261960D02*
X12492206Y-16242913D01*
X12492206Y-16242913D02*
X12473158Y-16214341D01*
X12473158Y-16214341D02*
X12463634Y-16204817D01*
D12*
X7498095Y-16605905D02*
G75*
G02*
X7438095Y-16605905I-30000J0D01*
G01*
X7438095Y-16605905D02*
G75*
G02*
X7498095Y-16605905I30000J0D01*
G01*
D11*
X7796967Y-16497389D02*
X7816015Y-16497389D01*
X7816015Y-16497389D02*
X7835062Y-16506913D01*
X7835062Y-16506913D02*
X7844586Y-16516436D01*
X7844586Y-16516436D02*
X7854110Y-16535484D01*
X7854110Y-16535484D02*
X7863634Y-16573579D01*
X7863634Y-16573579D02*
X7863634Y-16621198D01*
X7863634Y-16621198D02*
X7854110Y-16659293D01*
X7854110Y-16659293D02*
X7844586Y-16678341D01*
X7844586Y-16678341D02*
X7835062Y-16687865D01*
X7835062Y-16687865D02*
X7816015Y-16697389D01*
X7816015Y-16697389D02*
X7796967Y-16697389D01*
X7796967Y-16697389D02*
X7777919Y-16687865D01*
X7777919Y-16687865D02*
X7768396Y-16678341D01*
X7768396Y-16678341D02*
X7758872Y-16659293D01*
X7758872Y-16659293D02*
X7749348Y-16621198D01*
X7749348Y-16621198D02*
X7749348Y-16573579D01*
X7749348Y-16573579D02*
X7758872Y-16535484D01*
X7758872Y-16535484D02*
X7768396Y-16516436D01*
X7768396Y-16516436D02*
X7777919Y-16506913D01*
X7777919Y-16506913D02*
X7796967Y-16497389D01*
X7949348Y-16678341D02*
X7958872Y-16687865D01*
X7958872Y-16687865D02*
X7949348Y-16697389D01*
X7949348Y-16697389D02*
X7939824Y-16687865D01*
X7939824Y-16687865D02*
X7949348Y-16678341D01*
X7949348Y-16678341D02*
X7949348Y-16697389D01*
X8130300Y-16497389D02*
X8092205Y-16497389D01*
X8092205Y-16497389D02*
X8073157Y-16506913D01*
X8073157Y-16506913D02*
X8063634Y-16516436D01*
X8063634Y-16516436D02*
X8044586Y-16545008D01*
X8044586Y-16545008D02*
X8035062Y-16583103D01*
X8035062Y-16583103D02*
X8035062Y-16659293D01*
X8035062Y-16659293D02*
X8044586Y-16678341D01*
X8044586Y-16678341D02*
X8054110Y-16687865D01*
X8054110Y-16687865D02*
X8073157Y-16697389D01*
X8073157Y-16697389D02*
X8111253Y-16697389D01*
X8111253Y-16697389D02*
X8130300Y-16687865D01*
X8130300Y-16687865D02*
X8139824Y-16678341D01*
X8139824Y-16678341D02*
X8149348Y-16659293D01*
X8149348Y-16659293D02*
X8149348Y-16611674D01*
X8149348Y-16611674D02*
X8139824Y-16592627D01*
X8139824Y-16592627D02*
X8130300Y-16583103D01*
X8130300Y-16583103D02*
X8111253Y-16573579D01*
X8111253Y-16573579D02*
X8073157Y-16573579D01*
X8073157Y-16573579D02*
X8054110Y-16583103D01*
X8054110Y-16583103D02*
X8044586Y-16592627D01*
X8044586Y-16592627D02*
X8035062Y-16611674D01*
X8273157Y-16497389D02*
X8292205Y-16497389D01*
X8292205Y-16497389D02*
X8311253Y-16506913D01*
X8311253Y-16506913D02*
X8320777Y-16516436D01*
X8320777Y-16516436D02*
X8330300Y-16535484D01*
X8330300Y-16535484D02*
X8339824Y-16573579D01*
X8339824Y-16573579D02*
X8339824Y-16621198D01*
X8339824Y-16621198D02*
X8330300Y-16659293D01*
X8330300Y-16659293D02*
X8320777Y-16678341D01*
X8320777Y-16678341D02*
X8311253Y-16687865D01*
X8311253Y-16687865D02*
X8292205Y-16697389D01*
X8292205Y-16697389D02*
X8273157Y-16697389D01*
X8273157Y-16697389D02*
X8254110Y-16687865D01*
X8254110Y-16687865D02*
X8244586Y-16678341D01*
X8244586Y-16678341D02*
X8235062Y-16659293D01*
X8235062Y-16659293D02*
X8225538Y-16621198D01*
X8225538Y-16621198D02*
X8225538Y-16573579D01*
X8225538Y-16573579D02*
X8235062Y-16535484D01*
X8235062Y-16535484D02*
X8244586Y-16516436D01*
X8244586Y-16516436D02*
X8254110Y-16506913D01*
X8254110Y-16506913D02*
X8273157Y-16497389D01*
X8463634Y-16497389D02*
X8482681Y-16497389D01*
X8482681Y-16497389D02*
X8501729Y-16506913D01*
X8501729Y-16506913D02*
X8511253Y-16516436D01*
X8511253Y-16516436D02*
X8520777Y-16535484D01*
X8520777Y-16535484D02*
X8530300Y-16573579D01*
X8530300Y-16573579D02*
X8530300Y-16621198D01*
X8530300Y-16621198D02*
X8520777Y-16659293D01*
X8520777Y-16659293D02*
X8511253Y-16678341D01*
X8511253Y-16678341D02*
X8501729Y-16687865D01*
X8501729Y-16687865D02*
X8482681Y-16697389D01*
X8482681Y-16697389D02*
X8463634Y-16697389D01*
X8463634Y-16697389D02*
X8444586Y-16687865D01*
X8444586Y-16687865D02*
X8435062Y-16678341D01*
X8435062Y-16678341D02*
X8425539Y-16659293D01*
X8425539Y-16659293D02*
X8416015Y-16621198D01*
X8416015Y-16621198D02*
X8416015Y-16573579D01*
X8416015Y-16573579D02*
X8425539Y-16535484D01*
X8425539Y-16535484D02*
X8435062Y-16516436D01*
X8435062Y-16516436D02*
X8444586Y-16506913D01*
X8444586Y-16506913D02*
X8463634Y-16497389D01*
X8616015Y-16697389D02*
X8616015Y-16564055D01*
X8616015Y-16583103D02*
X8625539Y-16573579D01*
X8625539Y-16573579D02*
X8644586Y-16564055D01*
X8644586Y-16564055D02*
X8673158Y-16564055D01*
X8673158Y-16564055D02*
X8692205Y-16573579D01*
X8692205Y-16573579D02*
X8701729Y-16592627D01*
X8701729Y-16592627D02*
X8701729Y-16697389D01*
X8701729Y-16592627D02*
X8711253Y-16573579D01*
X8711253Y-16573579D02*
X8730300Y-16564055D01*
X8730300Y-16564055D02*
X8758872Y-16564055D01*
X8758872Y-16564055D02*
X8777920Y-16573579D01*
X8777920Y-16573579D02*
X8787443Y-16592627D01*
X8787443Y-16592627D02*
X8787443Y-16697389D01*
X8882681Y-16697389D02*
X8882681Y-16564055D01*
X8882681Y-16583103D02*
X8892205Y-16573579D01*
X8892205Y-16573579D02*
X8911253Y-16564055D01*
X8911253Y-16564055D02*
X8939824Y-16564055D01*
X8939824Y-16564055D02*
X8958872Y-16573579D01*
X8958872Y-16573579D02*
X8968396Y-16592627D01*
X8968396Y-16592627D02*
X8968396Y-16697389D01*
X8968396Y-16592627D02*
X8977920Y-16573579D01*
X8977920Y-16573579D02*
X8996967Y-16564055D01*
X8996967Y-16564055D02*
X9025539Y-16564055D01*
X9025539Y-16564055D02*
X9044586Y-16573579D01*
X9044586Y-16573579D02*
X9054110Y-16592627D01*
X9054110Y-16592627D02*
X9054110Y-16697389D01*
X9444586Y-16487865D02*
X9273158Y-16745008D01*
X9701729Y-16497389D02*
X9720777Y-16497389D01*
X9720777Y-16497389D02*
X9739824Y-16506913D01*
X9739824Y-16506913D02*
X9749348Y-16516436D01*
X9749348Y-16516436D02*
X9758872Y-16535484D01*
X9758872Y-16535484D02*
X9768396Y-16573579D01*
X9768396Y-16573579D02*
X9768396Y-16621198D01*
X9768396Y-16621198D02*
X9758872Y-16659293D01*
X9758872Y-16659293D02*
X9749348Y-16678341D01*
X9749348Y-16678341D02*
X9739824Y-16687865D01*
X9739824Y-16687865D02*
X9720777Y-16697389D01*
X9720777Y-16697389D02*
X9701729Y-16697389D01*
X9701729Y-16697389D02*
X9682682Y-16687865D01*
X9682682Y-16687865D02*
X9673158Y-16678341D01*
X9673158Y-16678341D02*
X9663634Y-16659293D01*
X9663634Y-16659293D02*
X9654110Y-16621198D01*
X9654110Y-16621198D02*
X9654110Y-16573579D01*
X9654110Y-16573579D02*
X9663634Y-16535484D01*
X9663634Y-16535484D02*
X9673158Y-16516436D01*
X9673158Y-16516436D02*
X9682682Y-16506913D01*
X9682682Y-16506913D02*
X9701729Y-16497389D01*
X9854110Y-16678341D02*
X9863634Y-16687865D01*
X9863634Y-16687865D02*
X9854110Y-16697389D01*
X9854110Y-16697389D02*
X9844586Y-16687865D01*
X9844586Y-16687865D02*
X9854110Y-16678341D01*
X9854110Y-16678341D02*
X9854110Y-16697389D01*
X9987443Y-16497389D02*
X10006491Y-16497389D01*
X10006491Y-16497389D02*
X10025539Y-16506913D01*
X10025539Y-16506913D02*
X10035063Y-16516436D01*
X10035063Y-16516436D02*
X10044586Y-16535484D01*
X10044586Y-16535484D02*
X10054110Y-16573579D01*
X10054110Y-16573579D02*
X10054110Y-16621198D01*
X10054110Y-16621198D02*
X10044586Y-16659293D01*
X10044586Y-16659293D02*
X10035063Y-16678341D01*
X10035063Y-16678341D02*
X10025539Y-16687865D01*
X10025539Y-16687865D02*
X10006491Y-16697389D01*
X10006491Y-16697389D02*
X9987443Y-16697389D01*
X9987443Y-16697389D02*
X9968396Y-16687865D01*
X9968396Y-16687865D02*
X9958872Y-16678341D01*
X9958872Y-16678341D02*
X9949348Y-16659293D01*
X9949348Y-16659293D02*
X9939824Y-16621198D01*
X9939824Y-16621198D02*
X9939824Y-16573579D01*
X9939824Y-16573579D02*
X9949348Y-16535484D01*
X9949348Y-16535484D02*
X9958872Y-16516436D01*
X9958872Y-16516436D02*
X9968396Y-16506913D01*
X9968396Y-16506913D02*
X9987443Y-16497389D01*
X10130301Y-16516436D02*
X10139824Y-16506913D01*
X10139824Y-16506913D02*
X10158872Y-16497389D01*
X10158872Y-16497389D02*
X10206491Y-16497389D01*
X10206491Y-16497389D02*
X10225539Y-16506913D01*
X10225539Y-16506913D02*
X10235063Y-16516436D01*
X10235063Y-16516436D02*
X10244586Y-16535484D01*
X10244586Y-16535484D02*
X10244586Y-16554532D01*
X10244586Y-16554532D02*
X10235063Y-16583103D01*
X10235063Y-16583103D02*
X10120777Y-16697389D01*
X10120777Y-16697389D02*
X10244586Y-16697389D01*
X10311253Y-16497389D02*
X10435063Y-16497389D01*
X10435063Y-16497389D02*
X10368396Y-16573579D01*
X10368396Y-16573579D02*
X10396967Y-16573579D01*
X10396967Y-16573579D02*
X10416015Y-16583103D01*
X10416015Y-16583103D02*
X10425539Y-16592627D01*
X10425539Y-16592627D02*
X10435063Y-16611674D01*
X10435063Y-16611674D02*
X10435063Y-16659293D01*
X10435063Y-16659293D02*
X10425539Y-16678341D01*
X10425539Y-16678341D02*
X10416015Y-16687865D01*
X10416015Y-16687865D02*
X10396967Y-16697389D01*
X10396967Y-16697389D02*
X10339824Y-16697389D01*
X10339824Y-16697389D02*
X10320777Y-16687865D01*
X10320777Y-16687865D02*
X10311253Y-16678341D01*
X10606491Y-16497389D02*
X10568396Y-16497389D01*
X10568396Y-16497389D02*
X10549348Y-16506913D01*
X10549348Y-16506913D02*
X10539824Y-16516436D01*
X10539824Y-16516436D02*
X10520777Y-16545008D01*
X10520777Y-16545008D02*
X10511253Y-16583103D01*
X10511253Y-16583103D02*
X10511253Y-16659293D01*
X10511253Y-16659293D02*
X10520777Y-16678341D01*
X10520777Y-16678341D02*
X10530301Y-16687865D01*
X10530301Y-16687865D02*
X10549348Y-16697389D01*
X10549348Y-16697389D02*
X10587444Y-16697389D01*
X10587444Y-16697389D02*
X10606491Y-16687865D01*
X10606491Y-16687865D02*
X10616015Y-16678341D01*
X10616015Y-16678341D02*
X10625539Y-16659293D01*
X10625539Y-16659293D02*
X10625539Y-16611674D01*
X10625539Y-16611674D02*
X10616015Y-16592627D01*
X10616015Y-16592627D02*
X10606491Y-16583103D01*
X10606491Y-16583103D02*
X10587444Y-16573579D01*
X10587444Y-16573579D02*
X10549348Y-16573579D01*
X10549348Y-16573579D02*
X10530301Y-16583103D01*
X10530301Y-16583103D02*
X10520777Y-16592627D01*
X10520777Y-16592627D02*
X10511253Y-16611674D01*
X10701729Y-16497389D02*
X10701729Y-16535484D01*
X10777920Y-16497389D02*
X10777920Y-16535484D01*
X11073158Y-16773579D02*
X11063634Y-16764055D01*
X11063634Y-16764055D02*
X11044586Y-16735484D01*
X11044586Y-16735484D02*
X11035063Y-16716436D01*
X11035063Y-16716436D02*
X11025539Y-16687865D01*
X11025539Y-16687865D02*
X11016015Y-16640246D01*
X11016015Y-16640246D02*
X11016015Y-16602151D01*
X11016015Y-16602151D02*
X11025539Y-16554532D01*
X11025539Y-16554532D02*
X11035063Y-16525960D01*
X11035063Y-16525960D02*
X11044586Y-16506913D01*
X11044586Y-16506913D02*
X11063634Y-16478341D01*
X11063634Y-16478341D02*
X11073158Y-16468817D01*
X11254110Y-16697389D02*
X11139825Y-16697389D01*
X11196967Y-16697389D02*
X11196967Y-16497389D01*
X11196967Y-16497389D02*
X11177920Y-16525960D01*
X11177920Y-16525960D02*
X11158872Y-16545008D01*
X11158872Y-16545008D02*
X11139825Y-16554532D01*
X11492205Y-16697389D02*
X11492205Y-16497389D01*
X11577920Y-16697389D02*
X11577920Y-16592627D01*
X11577920Y-16592627D02*
X11568396Y-16573579D01*
X11568396Y-16573579D02*
X11549348Y-16564055D01*
X11549348Y-16564055D02*
X11520777Y-16564055D01*
X11520777Y-16564055D02*
X11501729Y-16573579D01*
X11501729Y-16573579D02*
X11492205Y-16583103D01*
X11701729Y-16697389D02*
X11682682Y-16687865D01*
X11682682Y-16687865D02*
X11673158Y-16678341D01*
X11673158Y-16678341D02*
X11663634Y-16659293D01*
X11663634Y-16659293D02*
X11663634Y-16602151D01*
X11663634Y-16602151D02*
X11673158Y-16583103D01*
X11673158Y-16583103D02*
X11682682Y-16573579D01*
X11682682Y-16573579D02*
X11701729Y-16564055D01*
X11701729Y-16564055D02*
X11730301Y-16564055D01*
X11730301Y-16564055D02*
X11749348Y-16573579D01*
X11749348Y-16573579D02*
X11758872Y-16583103D01*
X11758872Y-16583103D02*
X11768396Y-16602151D01*
X11768396Y-16602151D02*
X11768396Y-16659293D01*
X11768396Y-16659293D02*
X11758872Y-16678341D01*
X11758872Y-16678341D02*
X11749348Y-16687865D01*
X11749348Y-16687865D02*
X11730301Y-16697389D01*
X11730301Y-16697389D02*
X11701729Y-16697389D01*
X11882682Y-16697389D02*
X11863634Y-16687865D01*
X11863634Y-16687865D02*
X11854110Y-16668817D01*
X11854110Y-16668817D02*
X11854110Y-16497389D01*
X12035063Y-16687865D02*
X12016015Y-16697389D01*
X12016015Y-16697389D02*
X11977920Y-16697389D01*
X11977920Y-16697389D02*
X11958872Y-16687865D01*
X11958872Y-16687865D02*
X11949348Y-16668817D01*
X11949348Y-16668817D02*
X11949348Y-16592627D01*
X11949348Y-16592627D02*
X11958872Y-16573579D01*
X11958872Y-16573579D02*
X11977920Y-16564055D01*
X11977920Y-16564055D02*
X12016015Y-16564055D01*
X12016015Y-16564055D02*
X12035063Y-16573579D01*
X12035063Y-16573579D02*
X12044586Y-16592627D01*
X12044586Y-16592627D02*
X12044586Y-16611674D01*
X12044586Y-16611674D02*
X11949348Y-16630722D01*
X12111253Y-16773579D02*
X12120777Y-16764055D01*
X12120777Y-16764055D02*
X12139825Y-16735484D01*
X12139825Y-16735484D02*
X12149348Y-16716436D01*
X12149348Y-16716436D02*
X12158872Y-16687865D01*
X12158872Y-16687865D02*
X12168396Y-16640246D01*
X12168396Y-16640246D02*
X12168396Y-16602151D01*
X12168396Y-16602151D02*
X12158872Y-16554532D01*
X12158872Y-16554532D02*
X12149348Y-16525960D01*
X12149348Y-16525960D02*
X12139825Y-16506913D01*
X12139825Y-16506913D02*
X12120777Y-16478341D01*
X12120777Y-16478341D02*
X12111253Y-16468817D01*
D12*
X7458095Y-16829905D02*
X7458095Y-16909905D01*
X7418095Y-16869905D02*
X7498095Y-16869905D01*
D11*
X7796967Y-16761389D02*
X7816015Y-16761389D01*
X7816015Y-16761389D02*
X7835062Y-16770913D01*
X7835062Y-16770913D02*
X7844586Y-16780436D01*
X7844586Y-16780436D02*
X7854110Y-16799484D01*
X7854110Y-16799484D02*
X7863634Y-16837579D01*
X7863634Y-16837579D02*
X7863634Y-16885198D01*
X7863634Y-16885198D02*
X7854110Y-16923294D01*
X7854110Y-16923294D02*
X7844586Y-16942341D01*
X7844586Y-16942341D02*
X7835062Y-16951865D01*
X7835062Y-16951865D02*
X7816015Y-16961389D01*
X7816015Y-16961389D02*
X7796967Y-16961389D01*
X7796967Y-16961389D02*
X7777919Y-16951865D01*
X7777919Y-16951865D02*
X7768396Y-16942341D01*
X7768396Y-16942341D02*
X7758872Y-16923294D01*
X7758872Y-16923294D02*
X7749348Y-16885198D01*
X7749348Y-16885198D02*
X7749348Y-16837579D01*
X7749348Y-16837579D02*
X7758872Y-16799484D01*
X7758872Y-16799484D02*
X7768396Y-16780436D01*
X7768396Y-16780436D02*
X7777919Y-16770913D01*
X7777919Y-16770913D02*
X7796967Y-16761389D01*
X7949348Y-16942341D02*
X7958872Y-16951865D01*
X7958872Y-16951865D02*
X7949348Y-16961389D01*
X7949348Y-16961389D02*
X7939824Y-16951865D01*
X7939824Y-16951865D02*
X7949348Y-16942341D01*
X7949348Y-16942341D02*
X7949348Y-16961389D01*
X8073157Y-16847103D02*
X8054110Y-16837579D01*
X8054110Y-16837579D02*
X8044586Y-16828055D01*
X8044586Y-16828055D02*
X8035062Y-16809008D01*
X8035062Y-16809008D02*
X8035062Y-16799484D01*
X8035062Y-16799484D02*
X8044586Y-16780436D01*
X8044586Y-16780436D02*
X8054110Y-16770913D01*
X8054110Y-16770913D02*
X8073157Y-16761389D01*
X8073157Y-16761389D02*
X8111253Y-16761389D01*
X8111253Y-16761389D02*
X8130300Y-16770913D01*
X8130300Y-16770913D02*
X8139824Y-16780436D01*
X8139824Y-16780436D02*
X8149348Y-16799484D01*
X8149348Y-16799484D02*
X8149348Y-16809008D01*
X8149348Y-16809008D02*
X8139824Y-16828055D01*
X8139824Y-16828055D02*
X8130300Y-16837579D01*
X8130300Y-16837579D02*
X8111253Y-16847103D01*
X8111253Y-16847103D02*
X8073157Y-16847103D01*
X8073157Y-16847103D02*
X8054110Y-16856627D01*
X8054110Y-16856627D02*
X8044586Y-16866151D01*
X8044586Y-16866151D02*
X8035062Y-16885198D01*
X8035062Y-16885198D02*
X8035062Y-16923294D01*
X8035062Y-16923294D02*
X8044586Y-16942341D01*
X8044586Y-16942341D02*
X8054110Y-16951865D01*
X8054110Y-16951865D02*
X8073157Y-16961389D01*
X8073157Y-16961389D02*
X8111253Y-16961389D01*
X8111253Y-16961389D02*
X8130300Y-16951865D01*
X8130300Y-16951865D02*
X8139824Y-16942341D01*
X8139824Y-16942341D02*
X8149348Y-16923294D01*
X8149348Y-16923294D02*
X8149348Y-16885198D01*
X8149348Y-16885198D02*
X8139824Y-16866151D01*
X8139824Y-16866151D02*
X8130300Y-16856627D01*
X8130300Y-16856627D02*
X8111253Y-16847103D01*
X8273157Y-16761389D02*
X8292205Y-16761389D01*
X8292205Y-16761389D02*
X8311253Y-16770913D01*
X8311253Y-16770913D02*
X8320777Y-16780436D01*
X8320777Y-16780436D02*
X8330300Y-16799484D01*
X8330300Y-16799484D02*
X8339824Y-16837579D01*
X8339824Y-16837579D02*
X8339824Y-16885198D01*
X8339824Y-16885198D02*
X8330300Y-16923294D01*
X8330300Y-16923294D02*
X8320777Y-16942341D01*
X8320777Y-16942341D02*
X8311253Y-16951865D01*
X8311253Y-16951865D02*
X8292205Y-16961389D01*
X8292205Y-16961389D02*
X8273157Y-16961389D01*
X8273157Y-16961389D02*
X8254110Y-16951865D01*
X8254110Y-16951865D02*
X8244586Y-16942341D01*
X8244586Y-16942341D02*
X8235062Y-16923294D01*
X8235062Y-16923294D02*
X8225538Y-16885198D01*
X8225538Y-16885198D02*
X8225538Y-16837579D01*
X8225538Y-16837579D02*
X8235062Y-16799484D01*
X8235062Y-16799484D02*
X8244586Y-16780436D01*
X8244586Y-16780436D02*
X8254110Y-16770913D01*
X8254110Y-16770913D02*
X8273157Y-16761389D01*
X8463634Y-16761389D02*
X8482681Y-16761389D01*
X8482681Y-16761389D02*
X8501729Y-16770913D01*
X8501729Y-16770913D02*
X8511253Y-16780436D01*
X8511253Y-16780436D02*
X8520777Y-16799484D01*
X8520777Y-16799484D02*
X8530300Y-16837579D01*
X8530300Y-16837579D02*
X8530300Y-16885198D01*
X8530300Y-16885198D02*
X8520777Y-16923294D01*
X8520777Y-16923294D02*
X8511253Y-16942341D01*
X8511253Y-16942341D02*
X8501729Y-16951865D01*
X8501729Y-16951865D02*
X8482681Y-16961389D01*
X8482681Y-16961389D02*
X8463634Y-16961389D01*
X8463634Y-16961389D02*
X8444586Y-16951865D01*
X8444586Y-16951865D02*
X8435062Y-16942341D01*
X8435062Y-16942341D02*
X8425539Y-16923294D01*
X8425539Y-16923294D02*
X8416015Y-16885198D01*
X8416015Y-16885198D02*
X8416015Y-16837579D01*
X8416015Y-16837579D02*
X8425539Y-16799484D01*
X8425539Y-16799484D02*
X8435062Y-16780436D01*
X8435062Y-16780436D02*
X8444586Y-16770913D01*
X8444586Y-16770913D02*
X8463634Y-16761389D01*
X8616015Y-16961389D02*
X8616015Y-16828055D01*
X8616015Y-16847103D02*
X8625539Y-16837579D01*
X8625539Y-16837579D02*
X8644586Y-16828055D01*
X8644586Y-16828055D02*
X8673158Y-16828055D01*
X8673158Y-16828055D02*
X8692205Y-16837579D01*
X8692205Y-16837579D02*
X8701729Y-16856627D01*
X8701729Y-16856627D02*
X8701729Y-16961389D01*
X8701729Y-16856627D02*
X8711253Y-16837579D01*
X8711253Y-16837579D02*
X8730300Y-16828055D01*
X8730300Y-16828055D02*
X8758872Y-16828055D01*
X8758872Y-16828055D02*
X8777920Y-16837579D01*
X8777920Y-16837579D02*
X8787443Y-16856627D01*
X8787443Y-16856627D02*
X8787443Y-16961389D01*
X8882681Y-16961389D02*
X8882681Y-16828055D01*
X8882681Y-16847103D02*
X8892205Y-16837579D01*
X8892205Y-16837579D02*
X8911253Y-16828055D01*
X8911253Y-16828055D02*
X8939824Y-16828055D01*
X8939824Y-16828055D02*
X8958872Y-16837579D01*
X8958872Y-16837579D02*
X8968396Y-16856627D01*
X8968396Y-16856627D02*
X8968396Y-16961389D01*
X8968396Y-16856627D02*
X8977920Y-16837579D01*
X8977920Y-16837579D02*
X8996967Y-16828055D01*
X8996967Y-16828055D02*
X9025539Y-16828055D01*
X9025539Y-16828055D02*
X9044586Y-16837579D01*
X9044586Y-16837579D02*
X9054110Y-16856627D01*
X9054110Y-16856627D02*
X9054110Y-16961389D01*
X9444586Y-16751865D02*
X9273158Y-17009008D01*
X9701729Y-16761389D02*
X9720777Y-16761389D01*
X9720777Y-16761389D02*
X9739824Y-16770913D01*
X9739824Y-16770913D02*
X9749348Y-16780436D01*
X9749348Y-16780436D02*
X9758872Y-16799484D01*
X9758872Y-16799484D02*
X9768396Y-16837579D01*
X9768396Y-16837579D02*
X9768396Y-16885198D01*
X9768396Y-16885198D02*
X9758872Y-16923294D01*
X9758872Y-16923294D02*
X9749348Y-16942341D01*
X9749348Y-16942341D02*
X9739824Y-16951865D01*
X9739824Y-16951865D02*
X9720777Y-16961389D01*
X9720777Y-16961389D02*
X9701729Y-16961389D01*
X9701729Y-16961389D02*
X9682682Y-16951865D01*
X9682682Y-16951865D02*
X9673158Y-16942341D01*
X9673158Y-16942341D02*
X9663634Y-16923294D01*
X9663634Y-16923294D02*
X9654110Y-16885198D01*
X9654110Y-16885198D02*
X9654110Y-16837579D01*
X9654110Y-16837579D02*
X9663634Y-16799484D01*
X9663634Y-16799484D02*
X9673158Y-16780436D01*
X9673158Y-16780436D02*
X9682682Y-16770913D01*
X9682682Y-16770913D02*
X9701729Y-16761389D01*
X9854110Y-16942341D02*
X9863634Y-16951865D01*
X9863634Y-16951865D02*
X9854110Y-16961389D01*
X9854110Y-16961389D02*
X9844586Y-16951865D01*
X9844586Y-16951865D02*
X9854110Y-16942341D01*
X9854110Y-16942341D02*
X9854110Y-16961389D01*
X9987443Y-16761389D02*
X10006491Y-16761389D01*
X10006491Y-16761389D02*
X10025539Y-16770913D01*
X10025539Y-16770913D02*
X10035063Y-16780436D01*
X10035063Y-16780436D02*
X10044586Y-16799484D01*
X10044586Y-16799484D02*
X10054110Y-16837579D01*
X10054110Y-16837579D02*
X10054110Y-16885198D01*
X10054110Y-16885198D02*
X10044586Y-16923294D01*
X10044586Y-16923294D02*
X10035063Y-16942341D01*
X10035063Y-16942341D02*
X10025539Y-16951865D01*
X10025539Y-16951865D02*
X10006491Y-16961389D01*
X10006491Y-16961389D02*
X9987443Y-16961389D01*
X9987443Y-16961389D02*
X9968396Y-16951865D01*
X9968396Y-16951865D02*
X9958872Y-16942341D01*
X9958872Y-16942341D02*
X9949348Y-16923294D01*
X9949348Y-16923294D02*
X9939824Y-16885198D01*
X9939824Y-16885198D02*
X9939824Y-16837579D01*
X9939824Y-16837579D02*
X9949348Y-16799484D01*
X9949348Y-16799484D02*
X9958872Y-16780436D01*
X9958872Y-16780436D02*
X9968396Y-16770913D01*
X9968396Y-16770913D02*
X9987443Y-16761389D01*
X10120777Y-16761389D02*
X10244586Y-16761389D01*
X10244586Y-16761389D02*
X10177920Y-16837579D01*
X10177920Y-16837579D02*
X10206491Y-16837579D01*
X10206491Y-16837579D02*
X10225539Y-16847103D01*
X10225539Y-16847103D02*
X10235063Y-16856627D01*
X10235063Y-16856627D02*
X10244586Y-16875675D01*
X10244586Y-16875675D02*
X10244586Y-16923294D01*
X10244586Y-16923294D02*
X10235063Y-16942341D01*
X10235063Y-16942341D02*
X10225539Y-16951865D01*
X10225539Y-16951865D02*
X10206491Y-16961389D01*
X10206491Y-16961389D02*
X10149348Y-16961389D01*
X10149348Y-16961389D02*
X10130301Y-16951865D01*
X10130301Y-16951865D02*
X10120777Y-16942341D01*
X10435063Y-16961389D02*
X10320777Y-16961389D01*
X10377920Y-16961389D02*
X10377920Y-16761389D01*
X10377920Y-16761389D02*
X10358872Y-16789960D01*
X10358872Y-16789960D02*
X10339824Y-16809008D01*
X10339824Y-16809008D02*
X10320777Y-16818532D01*
X10616015Y-16761389D02*
X10520777Y-16761389D01*
X10520777Y-16761389D02*
X10511253Y-16856627D01*
X10511253Y-16856627D02*
X10520777Y-16847103D01*
X10520777Y-16847103D02*
X10539824Y-16837579D01*
X10539824Y-16837579D02*
X10587444Y-16837579D01*
X10587444Y-16837579D02*
X10606491Y-16847103D01*
X10606491Y-16847103D02*
X10616015Y-16856627D01*
X10616015Y-16856627D02*
X10625539Y-16875675D01*
X10625539Y-16875675D02*
X10625539Y-16923294D01*
X10625539Y-16923294D02*
X10616015Y-16942341D01*
X10616015Y-16942341D02*
X10606491Y-16951865D01*
X10606491Y-16951865D02*
X10587444Y-16961389D01*
X10587444Y-16961389D02*
X10539824Y-16961389D01*
X10539824Y-16961389D02*
X10520777Y-16951865D01*
X10520777Y-16951865D02*
X10511253Y-16942341D01*
X10701729Y-16761389D02*
X10701729Y-16799484D01*
X10777920Y-16761389D02*
X10777920Y-16799484D01*
X11073158Y-17037579D02*
X11063634Y-17028055D01*
X11063634Y-17028055D02*
X11044586Y-16999484D01*
X11044586Y-16999484D02*
X11035063Y-16980436D01*
X11035063Y-16980436D02*
X11025539Y-16951865D01*
X11025539Y-16951865D02*
X11016015Y-16904246D01*
X11016015Y-16904246D02*
X11016015Y-16866151D01*
X11016015Y-16866151D02*
X11025539Y-16818532D01*
X11025539Y-16818532D02*
X11035063Y-16789960D01*
X11035063Y-16789960D02*
X11044586Y-16770913D01*
X11044586Y-16770913D02*
X11063634Y-16742341D01*
X11063634Y-16742341D02*
X11073158Y-16732817D01*
X11254110Y-16961389D02*
X11139825Y-16961389D01*
X11196967Y-16961389D02*
X11196967Y-16761389D01*
X11196967Y-16761389D02*
X11177920Y-16789960D01*
X11177920Y-16789960D02*
X11158872Y-16809008D01*
X11158872Y-16809008D02*
X11139825Y-16818532D01*
X11377920Y-16761389D02*
X11396967Y-16761389D01*
X11396967Y-16761389D02*
X11416015Y-16770913D01*
X11416015Y-16770913D02*
X11425539Y-16780436D01*
X11425539Y-16780436D02*
X11435063Y-16799484D01*
X11435063Y-16799484D02*
X11444586Y-16837579D01*
X11444586Y-16837579D02*
X11444586Y-16885198D01*
X11444586Y-16885198D02*
X11435063Y-16923294D01*
X11435063Y-16923294D02*
X11425539Y-16942341D01*
X11425539Y-16942341D02*
X11416015Y-16951865D01*
X11416015Y-16951865D02*
X11396967Y-16961389D01*
X11396967Y-16961389D02*
X11377920Y-16961389D01*
X11377920Y-16961389D02*
X11358872Y-16951865D01*
X11358872Y-16951865D02*
X11349348Y-16942341D01*
X11349348Y-16942341D02*
X11339824Y-16923294D01*
X11339824Y-16923294D02*
X11330301Y-16885198D01*
X11330301Y-16885198D02*
X11330301Y-16837579D01*
X11330301Y-16837579D02*
X11339824Y-16799484D01*
X11339824Y-16799484D02*
X11349348Y-16780436D01*
X11349348Y-16780436D02*
X11358872Y-16770913D01*
X11358872Y-16770913D02*
X11377920Y-16761389D01*
X11682682Y-16961389D02*
X11682682Y-16761389D01*
X11768396Y-16961389D02*
X11768396Y-16856627D01*
X11768396Y-16856627D02*
X11758872Y-16837579D01*
X11758872Y-16837579D02*
X11739825Y-16828055D01*
X11739825Y-16828055D02*
X11711253Y-16828055D01*
X11711253Y-16828055D02*
X11692205Y-16837579D01*
X11692205Y-16837579D02*
X11682682Y-16847103D01*
X11892205Y-16961389D02*
X11873158Y-16951865D01*
X11873158Y-16951865D02*
X11863634Y-16942341D01*
X11863634Y-16942341D02*
X11854110Y-16923294D01*
X11854110Y-16923294D02*
X11854110Y-16866151D01*
X11854110Y-16866151D02*
X11863634Y-16847103D01*
X11863634Y-16847103D02*
X11873158Y-16837579D01*
X11873158Y-16837579D02*
X11892205Y-16828055D01*
X11892205Y-16828055D02*
X11920777Y-16828055D01*
X11920777Y-16828055D02*
X11939825Y-16837579D01*
X11939825Y-16837579D02*
X11949348Y-16847103D01*
X11949348Y-16847103D02*
X11958872Y-16866151D01*
X11958872Y-16866151D02*
X11958872Y-16923294D01*
X11958872Y-16923294D02*
X11949348Y-16942341D01*
X11949348Y-16942341D02*
X11939825Y-16951865D01*
X11939825Y-16951865D02*
X11920777Y-16961389D01*
X11920777Y-16961389D02*
X11892205Y-16961389D01*
X12073158Y-16961389D02*
X12054110Y-16951865D01*
X12054110Y-16951865D02*
X12044586Y-16932817D01*
X12044586Y-16932817D02*
X12044586Y-16761389D01*
X12225539Y-16951865D02*
X12206491Y-16961389D01*
X12206491Y-16961389D02*
X12168396Y-16961389D01*
X12168396Y-16961389D02*
X12149348Y-16951865D01*
X12149348Y-16951865D02*
X12139825Y-16932817D01*
X12139825Y-16932817D02*
X12139825Y-16856627D01*
X12139825Y-16856627D02*
X12149348Y-16837579D01*
X12149348Y-16837579D02*
X12168396Y-16828055D01*
X12168396Y-16828055D02*
X12206491Y-16828055D01*
X12206491Y-16828055D02*
X12225539Y-16837579D01*
X12225539Y-16837579D02*
X12235063Y-16856627D01*
X12235063Y-16856627D02*
X12235063Y-16875675D01*
X12235063Y-16875675D02*
X12139825Y-16894722D01*
X12311253Y-16951865D02*
X12330301Y-16961389D01*
X12330301Y-16961389D02*
X12368396Y-16961389D01*
X12368396Y-16961389D02*
X12387444Y-16951865D01*
X12387444Y-16951865D02*
X12396967Y-16932817D01*
X12396967Y-16932817D02*
X12396967Y-16923294D01*
X12396967Y-16923294D02*
X12387444Y-16904246D01*
X12387444Y-16904246D02*
X12368396Y-16894722D01*
X12368396Y-16894722D02*
X12339825Y-16894722D01*
X12339825Y-16894722D02*
X12320777Y-16885198D01*
X12320777Y-16885198D02*
X12311253Y-16866151D01*
X12311253Y-16866151D02*
X12311253Y-16856627D01*
X12311253Y-16856627D02*
X12320777Y-16837579D01*
X12320777Y-16837579D02*
X12339825Y-16828055D01*
X12339825Y-16828055D02*
X12368396Y-16828055D01*
X12368396Y-16828055D02*
X12387444Y-16837579D01*
X12463634Y-17037579D02*
X12473158Y-17028055D01*
X12473158Y-17028055D02*
X12492206Y-16999484D01*
X12492206Y-16999484D02*
X12501729Y-16980436D01*
X12501729Y-16980436D02*
X12511253Y-16951865D01*
X12511253Y-16951865D02*
X12520777Y-16904246D01*
X12520777Y-16904246D02*
X12520777Y-16866151D01*
X12520777Y-16866151D02*
X12511253Y-16818532D01*
X12511253Y-16818532D02*
X12501729Y-16789960D01*
X12501729Y-16789960D02*
X12492206Y-16770913D01*
X12492206Y-16770913D02*
X12473158Y-16742341D01*
X12473158Y-16742341D02*
X12463634Y-16732817D01*
D12*
X7485076Y-17165336D02*
X7485076Y-17102474D01*
X7422214Y-17102474D01*
X7422214Y-17165336D01*
X7485076Y-17165336D01*
D11*
X7796967Y-17025389D02*
X7816015Y-17025389D01*
X7816015Y-17025389D02*
X7835062Y-17034913D01*
X7835062Y-17034913D02*
X7844586Y-17044436D01*
X7844586Y-17044436D02*
X7854110Y-17063484D01*
X7854110Y-17063484D02*
X7863634Y-17101579D01*
X7863634Y-17101579D02*
X7863634Y-17149198D01*
X7863634Y-17149198D02*
X7854110Y-17187294D01*
X7854110Y-17187294D02*
X7844586Y-17206341D01*
X7844586Y-17206341D02*
X7835062Y-17215865D01*
X7835062Y-17215865D02*
X7816015Y-17225389D01*
X7816015Y-17225389D02*
X7796967Y-17225389D01*
X7796967Y-17225389D02*
X7777919Y-17215865D01*
X7777919Y-17215865D02*
X7768396Y-17206341D01*
X7768396Y-17206341D02*
X7758872Y-17187294D01*
X7758872Y-17187294D02*
X7749348Y-17149198D01*
X7749348Y-17149198D02*
X7749348Y-17101579D01*
X7749348Y-17101579D02*
X7758872Y-17063484D01*
X7758872Y-17063484D02*
X7768396Y-17044436D01*
X7768396Y-17044436D02*
X7777919Y-17034913D01*
X7777919Y-17034913D02*
X7796967Y-17025389D01*
X7949348Y-17206341D02*
X7958872Y-17215865D01*
X7958872Y-17215865D02*
X7949348Y-17225389D01*
X7949348Y-17225389D02*
X7939824Y-17215865D01*
X7939824Y-17215865D02*
X7949348Y-17206341D01*
X7949348Y-17206341D02*
X7949348Y-17225389D01*
X8073157Y-17111103D02*
X8054110Y-17101579D01*
X8054110Y-17101579D02*
X8044586Y-17092055D01*
X8044586Y-17092055D02*
X8035062Y-17073008D01*
X8035062Y-17073008D02*
X8035062Y-17063484D01*
X8035062Y-17063484D02*
X8044586Y-17044436D01*
X8044586Y-17044436D02*
X8054110Y-17034913D01*
X8054110Y-17034913D02*
X8073157Y-17025389D01*
X8073157Y-17025389D02*
X8111253Y-17025389D01*
X8111253Y-17025389D02*
X8130300Y-17034913D01*
X8130300Y-17034913D02*
X8139824Y-17044436D01*
X8139824Y-17044436D02*
X8149348Y-17063484D01*
X8149348Y-17063484D02*
X8149348Y-17073008D01*
X8149348Y-17073008D02*
X8139824Y-17092055D01*
X8139824Y-17092055D02*
X8130300Y-17101579D01*
X8130300Y-17101579D02*
X8111253Y-17111103D01*
X8111253Y-17111103D02*
X8073157Y-17111103D01*
X8073157Y-17111103D02*
X8054110Y-17120627D01*
X8054110Y-17120627D02*
X8044586Y-17130151D01*
X8044586Y-17130151D02*
X8035062Y-17149198D01*
X8035062Y-17149198D02*
X8035062Y-17187294D01*
X8035062Y-17187294D02*
X8044586Y-17206341D01*
X8044586Y-17206341D02*
X8054110Y-17215865D01*
X8054110Y-17215865D02*
X8073157Y-17225389D01*
X8073157Y-17225389D02*
X8111253Y-17225389D01*
X8111253Y-17225389D02*
X8130300Y-17215865D01*
X8130300Y-17215865D02*
X8139824Y-17206341D01*
X8139824Y-17206341D02*
X8149348Y-17187294D01*
X8149348Y-17187294D02*
X8149348Y-17149198D01*
X8149348Y-17149198D02*
X8139824Y-17130151D01*
X8139824Y-17130151D02*
X8130300Y-17120627D01*
X8130300Y-17120627D02*
X8111253Y-17111103D01*
X8263634Y-17111103D02*
X8244586Y-17101579D01*
X8244586Y-17101579D02*
X8235062Y-17092055D01*
X8235062Y-17092055D02*
X8225538Y-17073008D01*
X8225538Y-17073008D02*
X8225538Y-17063484D01*
X8225538Y-17063484D02*
X8235062Y-17044436D01*
X8235062Y-17044436D02*
X8244586Y-17034913D01*
X8244586Y-17034913D02*
X8263634Y-17025389D01*
X8263634Y-17025389D02*
X8301729Y-17025389D01*
X8301729Y-17025389D02*
X8320777Y-17034913D01*
X8320777Y-17034913D02*
X8330300Y-17044436D01*
X8330300Y-17044436D02*
X8339824Y-17063484D01*
X8339824Y-17063484D02*
X8339824Y-17073008D01*
X8339824Y-17073008D02*
X8330300Y-17092055D01*
X8330300Y-17092055D02*
X8320777Y-17101579D01*
X8320777Y-17101579D02*
X8301729Y-17111103D01*
X8301729Y-17111103D02*
X8263634Y-17111103D01*
X8263634Y-17111103D02*
X8244586Y-17120627D01*
X8244586Y-17120627D02*
X8235062Y-17130151D01*
X8235062Y-17130151D02*
X8225538Y-17149198D01*
X8225538Y-17149198D02*
X8225538Y-17187294D01*
X8225538Y-17187294D02*
X8235062Y-17206341D01*
X8235062Y-17206341D02*
X8244586Y-17215865D01*
X8244586Y-17215865D02*
X8263634Y-17225389D01*
X8263634Y-17225389D02*
X8301729Y-17225389D01*
X8301729Y-17225389D02*
X8320777Y-17215865D01*
X8320777Y-17215865D02*
X8330300Y-17206341D01*
X8330300Y-17206341D02*
X8339824Y-17187294D01*
X8339824Y-17187294D02*
X8339824Y-17149198D01*
X8339824Y-17149198D02*
X8330300Y-17130151D01*
X8330300Y-17130151D02*
X8320777Y-17120627D01*
X8320777Y-17120627D02*
X8301729Y-17111103D01*
X8435062Y-17225389D02*
X8473158Y-17225389D01*
X8473158Y-17225389D02*
X8492205Y-17215865D01*
X8492205Y-17215865D02*
X8501729Y-17206341D01*
X8501729Y-17206341D02*
X8520777Y-17177770D01*
X8520777Y-17177770D02*
X8530300Y-17139675D01*
X8530300Y-17139675D02*
X8530300Y-17063484D01*
X8530300Y-17063484D02*
X8520777Y-17044436D01*
X8520777Y-17044436D02*
X8511253Y-17034913D01*
X8511253Y-17034913D02*
X8492205Y-17025389D01*
X8492205Y-17025389D02*
X8454110Y-17025389D01*
X8454110Y-17025389D02*
X8435062Y-17034913D01*
X8435062Y-17034913D02*
X8425539Y-17044436D01*
X8425539Y-17044436D02*
X8416015Y-17063484D01*
X8416015Y-17063484D02*
X8416015Y-17111103D01*
X8416015Y-17111103D02*
X8425539Y-17130151D01*
X8425539Y-17130151D02*
X8435062Y-17139675D01*
X8435062Y-17139675D02*
X8454110Y-17149198D01*
X8454110Y-17149198D02*
X8492205Y-17149198D01*
X8492205Y-17149198D02*
X8511253Y-17139675D01*
X8511253Y-17139675D02*
X8520777Y-17130151D01*
X8520777Y-17130151D02*
X8530300Y-17111103D01*
X8616015Y-17225389D02*
X8616015Y-17092055D01*
X8616015Y-17111103D02*
X8625539Y-17101579D01*
X8625539Y-17101579D02*
X8644586Y-17092055D01*
X8644586Y-17092055D02*
X8673158Y-17092055D01*
X8673158Y-17092055D02*
X8692205Y-17101579D01*
X8692205Y-17101579D02*
X8701729Y-17120627D01*
X8701729Y-17120627D02*
X8701729Y-17225389D01*
X8701729Y-17120627D02*
X8711253Y-17101579D01*
X8711253Y-17101579D02*
X8730300Y-17092055D01*
X8730300Y-17092055D02*
X8758872Y-17092055D01*
X8758872Y-17092055D02*
X8777920Y-17101579D01*
X8777920Y-17101579D02*
X8787443Y-17120627D01*
X8787443Y-17120627D02*
X8787443Y-17225389D01*
X8882681Y-17225389D02*
X8882681Y-17092055D01*
X8882681Y-17111103D02*
X8892205Y-17101579D01*
X8892205Y-17101579D02*
X8911253Y-17092055D01*
X8911253Y-17092055D02*
X8939824Y-17092055D01*
X8939824Y-17092055D02*
X8958872Y-17101579D01*
X8958872Y-17101579D02*
X8968396Y-17120627D01*
X8968396Y-17120627D02*
X8968396Y-17225389D01*
X8968396Y-17120627D02*
X8977920Y-17101579D01*
X8977920Y-17101579D02*
X8996967Y-17092055D01*
X8996967Y-17092055D02*
X9025539Y-17092055D01*
X9025539Y-17092055D02*
X9044586Y-17101579D01*
X9044586Y-17101579D02*
X9054110Y-17120627D01*
X9054110Y-17120627D02*
X9054110Y-17225389D01*
X9444586Y-17015865D02*
X9273158Y-17273008D01*
X9701729Y-17025389D02*
X9720777Y-17025389D01*
X9720777Y-17025389D02*
X9739824Y-17034913D01*
X9739824Y-17034913D02*
X9749348Y-17044436D01*
X9749348Y-17044436D02*
X9758872Y-17063484D01*
X9758872Y-17063484D02*
X9768396Y-17101579D01*
X9768396Y-17101579D02*
X9768396Y-17149198D01*
X9768396Y-17149198D02*
X9758872Y-17187294D01*
X9758872Y-17187294D02*
X9749348Y-17206341D01*
X9749348Y-17206341D02*
X9739824Y-17215865D01*
X9739824Y-17215865D02*
X9720777Y-17225389D01*
X9720777Y-17225389D02*
X9701729Y-17225389D01*
X9701729Y-17225389D02*
X9682682Y-17215865D01*
X9682682Y-17215865D02*
X9673158Y-17206341D01*
X9673158Y-17206341D02*
X9663634Y-17187294D01*
X9663634Y-17187294D02*
X9654110Y-17149198D01*
X9654110Y-17149198D02*
X9654110Y-17101579D01*
X9654110Y-17101579D02*
X9663634Y-17063484D01*
X9663634Y-17063484D02*
X9673158Y-17044436D01*
X9673158Y-17044436D02*
X9682682Y-17034913D01*
X9682682Y-17034913D02*
X9701729Y-17025389D01*
X9854110Y-17206341D02*
X9863634Y-17215865D01*
X9863634Y-17215865D02*
X9854110Y-17225389D01*
X9854110Y-17225389D02*
X9844586Y-17215865D01*
X9844586Y-17215865D02*
X9854110Y-17206341D01*
X9854110Y-17206341D02*
X9854110Y-17225389D01*
X9987443Y-17025389D02*
X10006491Y-17025389D01*
X10006491Y-17025389D02*
X10025539Y-17034913D01*
X10025539Y-17034913D02*
X10035063Y-17044436D01*
X10035063Y-17044436D02*
X10044586Y-17063484D01*
X10044586Y-17063484D02*
X10054110Y-17101579D01*
X10054110Y-17101579D02*
X10054110Y-17149198D01*
X10054110Y-17149198D02*
X10044586Y-17187294D01*
X10044586Y-17187294D02*
X10035063Y-17206341D01*
X10035063Y-17206341D02*
X10025539Y-17215865D01*
X10025539Y-17215865D02*
X10006491Y-17225389D01*
X10006491Y-17225389D02*
X9987443Y-17225389D01*
X9987443Y-17225389D02*
X9968396Y-17215865D01*
X9968396Y-17215865D02*
X9958872Y-17206341D01*
X9958872Y-17206341D02*
X9949348Y-17187294D01*
X9949348Y-17187294D02*
X9939824Y-17149198D01*
X9939824Y-17149198D02*
X9939824Y-17101579D01*
X9939824Y-17101579D02*
X9949348Y-17063484D01*
X9949348Y-17063484D02*
X9958872Y-17044436D01*
X9958872Y-17044436D02*
X9968396Y-17034913D01*
X9968396Y-17034913D02*
X9987443Y-17025389D01*
X10120777Y-17025389D02*
X10244586Y-17025389D01*
X10244586Y-17025389D02*
X10177920Y-17101579D01*
X10177920Y-17101579D02*
X10206491Y-17101579D01*
X10206491Y-17101579D02*
X10225539Y-17111103D01*
X10225539Y-17111103D02*
X10235063Y-17120627D01*
X10235063Y-17120627D02*
X10244586Y-17139675D01*
X10244586Y-17139675D02*
X10244586Y-17187294D01*
X10244586Y-17187294D02*
X10235063Y-17206341D01*
X10235063Y-17206341D02*
X10225539Y-17215865D01*
X10225539Y-17215865D02*
X10206491Y-17225389D01*
X10206491Y-17225389D02*
X10149348Y-17225389D01*
X10149348Y-17225389D02*
X10130301Y-17215865D01*
X10130301Y-17215865D02*
X10120777Y-17206341D01*
X10425539Y-17025389D02*
X10330301Y-17025389D01*
X10330301Y-17025389D02*
X10320777Y-17120627D01*
X10320777Y-17120627D02*
X10330301Y-17111103D01*
X10330301Y-17111103D02*
X10349348Y-17101579D01*
X10349348Y-17101579D02*
X10396967Y-17101579D01*
X10396967Y-17101579D02*
X10416015Y-17111103D01*
X10416015Y-17111103D02*
X10425539Y-17120627D01*
X10425539Y-17120627D02*
X10435063Y-17139675D01*
X10435063Y-17139675D02*
X10435063Y-17187294D01*
X10435063Y-17187294D02*
X10425539Y-17206341D01*
X10425539Y-17206341D02*
X10416015Y-17215865D01*
X10416015Y-17215865D02*
X10396967Y-17225389D01*
X10396967Y-17225389D02*
X10349348Y-17225389D01*
X10349348Y-17225389D02*
X10330301Y-17215865D01*
X10330301Y-17215865D02*
X10320777Y-17206341D01*
X10558872Y-17025389D02*
X10577920Y-17025389D01*
X10577920Y-17025389D02*
X10596967Y-17034913D01*
X10596967Y-17034913D02*
X10606491Y-17044436D01*
X10606491Y-17044436D02*
X10616015Y-17063484D01*
X10616015Y-17063484D02*
X10625539Y-17101579D01*
X10625539Y-17101579D02*
X10625539Y-17149198D01*
X10625539Y-17149198D02*
X10616015Y-17187294D01*
X10616015Y-17187294D02*
X10606491Y-17206341D01*
X10606491Y-17206341D02*
X10596967Y-17215865D01*
X10596967Y-17215865D02*
X10577920Y-17225389D01*
X10577920Y-17225389D02*
X10558872Y-17225389D01*
X10558872Y-17225389D02*
X10539824Y-17215865D01*
X10539824Y-17215865D02*
X10530301Y-17206341D01*
X10530301Y-17206341D02*
X10520777Y-17187294D01*
X10520777Y-17187294D02*
X10511253Y-17149198D01*
X10511253Y-17149198D02*
X10511253Y-17101579D01*
X10511253Y-17101579D02*
X10520777Y-17063484D01*
X10520777Y-17063484D02*
X10530301Y-17044436D01*
X10530301Y-17044436D02*
X10539824Y-17034913D01*
X10539824Y-17034913D02*
X10558872Y-17025389D01*
X10701729Y-17025389D02*
X10701729Y-17063484D01*
X10777920Y-17025389D02*
X10777920Y-17063484D01*
X11073158Y-17301579D02*
X11063634Y-17292055D01*
X11063634Y-17292055D02*
X11044586Y-17263484D01*
X11044586Y-17263484D02*
X11035063Y-17244436D01*
X11035063Y-17244436D02*
X11025539Y-17215865D01*
X11025539Y-17215865D02*
X11016015Y-17168246D01*
X11016015Y-17168246D02*
X11016015Y-17130151D01*
X11016015Y-17130151D02*
X11025539Y-17082532D01*
X11025539Y-17082532D02*
X11035063Y-17053960D01*
X11035063Y-17053960D02*
X11044586Y-17034913D01*
X11044586Y-17034913D02*
X11063634Y-17006341D01*
X11063634Y-17006341D02*
X11073158Y-16996817D01*
X11254110Y-17225389D02*
X11139825Y-17225389D01*
X11196967Y-17225389D02*
X11196967Y-17025389D01*
X11196967Y-17025389D02*
X11177920Y-17053960D01*
X11177920Y-17053960D02*
X11158872Y-17073008D01*
X11158872Y-17073008D02*
X11139825Y-17082532D01*
X11330301Y-17044436D02*
X11339824Y-17034913D01*
X11339824Y-17034913D02*
X11358872Y-17025389D01*
X11358872Y-17025389D02*
X11406491Y-17025389D01*
X11406491Y-17025389D02*
X11425539Y-17034913D01*
X11425539Y-17034913D02*
X11435063Y-17044436D01*
X11435063Y-17044436D02*
X11444586Y-17063484D01*
X11444586Y-17063484D02*
X11444586Y-17082532D01*
X11444586Y-17082532D02*
X11435063Y-17111103D01*
X11435063Y-17111103D02*
X11320777Y-17225389D01*
X11320777Y-17225389D02*
X11444586Y-17225389D01*
X11682682Y-17225389D02*
X11682682Y-17025389D01*
X11768396Y-17225389D02*
X11768396Y-17120627D01*
X11768396Y-17120627D02*
X11758872Y-17101579D01*
X11758872Y-17101579D02*
X11739825Y-17092055D01*
X11739825Y-17092055D02*
X11711253Y-17092055D01*
X11711253Y-17092055D02*
X11692205Y-17101579D01*
X11692205Y-17101579D02*
X11682682Y-17111103D01*
X11892205Y-17225389D02*
X11873158Y-17215865D01*
X11873158Y-17215865D02*
X11863634Y-17206341D01*
X11863634Y-17206341D02*
X11854110Y-17187294D01*
X11854110Y-17187294D02*
X11854110Y-17130151D01*
X11854110Y-17130151D02*
X11863634Y-17111103D01*
X11863634Y-17111103D02*
X11873158Y-17101579D01*
X11873158Y-17101579D02*
X11892205Y-17092055D01*
X11892205Y-17092055D02*
X11920777Y-17092055D01*
X11920777Y-17092055D02*
X11939825Y-17101579D01*
X11939825Y-17101579D02*
X11949348Y-17111103D01*
X11949348Y-17111103D02*
X11958872Y-17130151D01*
X11958872Y-17130151D02*
X11958872Y-17187294D01*
X11958872Y-17187294D02*
X11949348Y-17206341D01*
X11949348Y-17206341D02*
X11939825Y-17215865D01*
X11939825Y-17215865D02*
X11920777Y-17225389D01*
X11920777Y-17225389D02*
X11892205Y-17225389D01*
X12073158Y-17225389D02*
X12054110Y-17215865D01*
X12054110Y-17215865D02*
X12044586Y-17196817D01*
X12044586Y-17196817D02*
X12044586Y-17025389D01*
X12225539Y-17215865D02*
X12206491Y-17225389D01*
X12206491Y-17225389D02*
X12168396Y-17225389D01*
X12168396Y-17225389D02*
X12149348Y-17215865D01*
X12149348Y-17215865D02*
X12139825Y-17196817D01*
X12139825Y-17196817D02*
X12139825Y-17120627D01*
X12139825Y-17120627D02*
X12149348Y-17101579D01*
X12149348Y-17101579D02*
X12168396Y-17092055D01*
X12168396Y-17092055D02*
X12206491Y-17092055D01*
X12206491Y-17092055D02*
X12225539Y-17101579D01*
X12225539Y-17101579D02*
X12235063Y-17120627D01*
X12235063Y-17120627D02*
X12235063Y-17139675D01*
X12235063Y-17139675D02*
X12139825Y-17158722D01*
X12311253Y-17215865D02*
X12330301Y-17225389D01*
X12330301Y-17225389D02*
X12368396Y-17225389D01*
X12368396Y-17225389D02*
X12387444Y-17215865D01*
X12387444Y-17215865D02*
X12396967Y-17196817D01*
X12396967Y-17196817D02*
X12396967Y-17187294D01*
X12396967Y-17187294D02*
X12387444Y-17168246D01*
X12387444Y-17168246D02*
X12368396Y-17158722D01*
X12368396Y-17158722D02*
X12339825Y-17158722D01*
X12339825Y-17158722D02*
X12320777Y-17149198D01*
X12320777Y-17149198D02*
X12311253Y-17130151D01*
X12311253Y-17130151D02*
X12311253Y-17120627D01*
X12311253Y-17120627D02*
X12320777Y-17101579D01*
X12320777Y-17101579D02*
X12339825Y-17092055D01*
X12339825Y-17092055D02*
X12368396Y-17092055D01*
X12368396Y-17092055D02*
X12387444Y-17101579D01*
X12463634Y-17301579D02*
X12473158Y-17292055D01*
X12473158Y-17292055D02*
X12492206Y-17263484D01*
X12492206Y-17263484D02*
X12501729Y-17244436D01*
X12501729Y-17244436D02*
X12511253Y-17215865D01*
X12511253Y-17215865D02*
X12520777Y-17168246D01*
X12520777Y-17168246D02*
X12520777Y-17130151D01*
X12520777Y-17130151D02*
X12511253Y-17082532D01*
X12511253Y-17082532D02*
X12501729Y-17053960D01*
X12501729Y-17053960D02*
X12492206Y-17034913D01*
X12492206Y-17034913D02*
X12473158Y-17006341D01*
X12473158Y-17006341D02*
X12463634Y-16996817D01*
D12*
X7453095Y-17442905D02*
X7498095Y-17397905D01*
X7453095Y-17352905D01*
X7408095Y-17397905D01*
X7453095Y-17442905D01*
D11*
X7796967Y-17289389D02*
X7816015Y-17289389D01*
X7816015Y-17289389D02*
X7835062Y-17298913D01*
X7835062Y-17298913D02*
X7844586Y-17308436D01*
X7844586Y-17308436D02*
X7854110Y-17327484D01*
X7854110Y-17327484D02*
X7863634Y-17365579D01*
X7863634Y-17365579D02*
X7863634Y-17413198D01*
X7863634Y-17413198D02*
X7854110Y-17451294D01*
X7854110Y-17451294D02*
X7844586Y-17470341D01*
X7844586Y-17470341D02*
X7835062Y-17479865D01*
X7835062Y-17479865D02*
X7816015Y-17489389D01*
X7816015Y-17489389D02*
X7796967Y-17489389D01*
X7796967Y-17489389D02*
X7777919Y-17479865D01*
X7777919Y-17479865D02*
X7768396Y-17470341D01*
X7768396Y-17470341D02*
X7758872Y-17451294D01*
X7758872Y-17451294D02*
X7749348Y-17413198D01*
X7749348Y-17413198D02*
X7749348Y-17365579D01*
X7749348Y-17365579D02*
X7758872Y-17327484D01*
X7758872Y-17327484D02*
X7768396Y-17308436D01*
X7768396Y-17308436D02*
X7777919Y-17298913D01*
X7777919Y-17298913D02*
X7796967Y-17289389D01*
X7949348Y-17470341D02*
X7958872Y-17479865D01*
X7958872Y-17479865D02*
X7949348Y-17489389D01*
X7949348Y-17489389D02*
X7939824Y-17479865D01*
X7939824Y-17479865D02*
X7949348Y-17470341D01*
X7949348Y-17470341D02*
X7949348Y-17489389D01*
X8054110Y-17489389D02*
X8092205Y-17489389D01*
X8092205Y-17489389D02*
X8111253Y-17479865D01*
X8111253Y-17479865D02*
X8120777Y-17470341D01*
X8120777Y-17470341D02*
X8139824Y-17441770D01*
X8139824Y-17441770D02*
X8149348Y-17403675D01*
X8149348Y-17403675D02*
X8149348Y-17327484D01*
X8149348Y-17327484D02*
X8139824Y-17308436D01*
X8139824Y-17308436D02*
X8130300Y-17298913D01*
X8130300Y-17298913D02*
X8111253Y-17289389D01*
X8111253Y-17289389D02*
X8073157Y-17289389D01*
X8073157Y-17289389D02*
X8054110Y-17298913D01*
X8054110Y-17298913D02*
X8044586Y-17308436D01*
X8044586Y-17308436D02*
X8035062Y-17327484D01*
X8035062Y-17327484D02*
X8035062Y-17375103D01*
X8035062Y-17375103D02*
X8044586Y-17394151D01*
X8044586Y-17394151D02*
X8054110Y-17403675D01*
X8054110Y-17403675D02*
X8073157Y-17413198D01*
X8073157Y-17413198D02*
X8111253Y-17413198D01*
X8111253Y-17413198D02*
X8130300Y-17403675D01*
X8130300Y-17403675D02*
X8139824Y-17394151D01*
X8139824Y-17394151D02*
X8149348Y-17375103D01*
X8273157Y-17289389D02*
X8292205Y-17289389D01*
X8292205Y-17289389D02*
X8311253Y-17298913D01*
X8311253Y-17298913D02*
X8320777Y-17308436D01*
X8320777Y-17308436D02*
X8330300Y-17327484D01*
X8330300Y-17327484D02*
X8339824Y-17365579D01*
X8339824Y-17365579D02*
X8339824Y-17413198D01*
X8339824Y-17413198D02*
X8330300Y-17451294D01*
X8330300Y-17451294D02*
X8320777Y-17470341D01*
X8320777Y-17470341D02*
X8311253Y-17479865D01*
X8311253Y-17479865D02*
X8292205Y-17489389D01*
X8292205Y-17489389D02*
X8273157Y-17489389D01*
X8273157Y-17489389D02*
X8254110Y-17479865D01*
X8254110Y-17479865D02*
X8244586Y-17470341D01*
X8244586Y-17470341D02*
X8235062Y-17451294D01*
X8235062Y-17451294D02*
X8225538Y-17413198D01*
X8225538Y-17413198D02*
X8225538Y-17365579D01*
X8225538Y-17365579D02*
X8235062Y-17327484D01*
X8235062Y-17327484D02*
X8244586Y-17308436D01*
X8244586Y-17308436D02*
X8254110Y-17298913D01*
X8254110Y-17298913D02*
X8273157Y-17289389D01*
X8463634Y-17289389D02*
X8482681Y-17289389D01*
X8482681Y-17289389D02*
X8501729Y-17298913D01*
X8501729Y-17298913D02*
X8511253Y-17308436D01*
X8511253Y-17308436D02*
X8520777Y-17327484D01*
X8520777Y-17327484D02*
X8530300Y-17365579D01*
X8530300Y-17365579D02*
X8530300Y-17413198D01*
X8530300Y-17413198D02*
X8520777Y-17451294D01*
X8520777Y-17451294D02*
X8511253Y-17470341D01*
X8511253Y-17470341D02*
X8501729Y-17479865D01*
X8501729Y-17479865D02*
X8482681Y-17489389D01*
X8482681Y-17489389D02*
X8463634Y-17489389D01*
X8463634Y-17489389D02*
X8444586Y-17479865D01*
X8444586Y-17479865D02*
X8435062Y-17470341D01*
X8435062Y-17470341D02*
X8425539Y-17451294D01*
X8425539Y-17451294D02*
X8416015Y-17413198D01*
X8416015Y-17413198D02*
X8416015Y-17365579D01*
X8416015Y-17365579D02*
X8425539Y-17327484D01*
X8425539Y-17327484D02*
X8435062Y-17308436D01*
X8435062Y-17308436D02*
X8444586Y-17298913D01*
X8444586Y-17298913D02*
X8463634Y-17289389D01*
X8616015Y-17489389D02*
X8616015Y-17356055D01*
X8616015Y-17375103D02*
X8625539Y-17365579D01*
X8625539Y-17365579D02*
X8644586Y-17356055D01*
X8644586Y-17356055D02*
X8673158Y-17356055D01*
X8673158Y-17356055D02*
X8692205Y-17365579D01*
X8692205Y-17365579D02*
X8701729Y-17384627D01*
X8701729Y-17384627D02*
X8701729Y-17489389D01*
X8701729Y-17384627D02*
X8711253Y-17365579D01*
X8711253Y-17365579D02*
X8730300Y-17356055D01*
X8730300Y-17356055D02*
X8758872Y-17356055D01*
X8758872Y-17356055D02*
X8777920Y-17365579D01*
X8777920Y-17365579D02*
X8787443Y-17384627D01*
X8787443Y-17384627D02*
X8787443Y-17489389D01*
X8882681Y-17489389D02*
X8882681Y-17356055D01*
X8882681Y-17375103D02*
X8892205Y-17365579D01*
X8892205Y-17365579D02*
X8911253Y-17356055D01*
X8911253Y-17356055D02*
X8939824Y-17356055D01*
X8939824Y-17356055D02*
X8958872Y-17365579D01*
X8958872Y-17365579D02*
X8968396Y-17384627D01*
X8968396Y-17384627D02*
X8968396Y-17489389D01*
X8968396Y-17384627D02*
X8977920Y-17365579D01*
X8977920Y-17365579D02*
X8996967Y-17356055D01*
X8996967Y-17356055D02*
X9025539Y-17356055D01*
X9025539Y-17356055D02*
X9044586Y-17365579D01*
X9044586Y-17365579D02*
X9054110Y-17384627D01*
X9054110Y-17384627D02*
X9054110Y-17489389D01*
X9444586Y-17279865D02*
X9273158Y-17537008D01*
X9701729Y-17289389D02*
X9720777Y-17289389D01*
X9720777Y-17289389D02*
X9739824Y-17298913D01*
X9739824Y-17298913D02*
X9749348Y-17308436D01*
X9749348Y-17308436D02*
X9758872Y-17327484D01*
X9758872Y-17327484D02*
X9768396Y-17365579D01*
X9768396Y-17365579D02*
X9768396Y-17413198D01*
X9768396Y-17413198D02*
X9758872Y-17451294D01*
X9758872Y-17451294D02*
X9749348Y-17470341D01*
X9749348Y-17470341D02*
X9739824Y-17479865D01*
X9739824Y-17479865D02*
X9720777Y-17489389D01*
X9720777Y-17489389D02*
X9701729Y-17489389D01*
X9701729Y-17489389D02*
X9682682Y-17479865D01*
X9682682Y-17479865D02*
X9673158Y-17470341D01*
X9673158Y-17470341D02*
X9663634Y-17451294D01*
X9663634Y-17451294D02*
X9654110Y-17413198D01*
X9654110Y-17413198D02*
X9654110Y-17365579D01*
X9654110Y-17365579D02*
X9663634Y-17327484D01*
X9663634Y-17327484D02*
X9673158Y-17308436D01*
X9673158Y-17308436D02*
X9682682Y-17298913D01*
X9682682Y-17298913D02*
X9701729Y-17289389D01*
X9854110Y-17470341D02*
X9863634Y-17479865D01*
X9863634Y-17479865D02*
X9854110Y-17489389D01*
X9854110Y-17489389D02*
X9844586Y-17479865D01*
X9844586Y-17479865D02*
X9854110Y-17470341D01*
X9854110Y-17470341D02*
X9854110Y-17489389D01*
X9987443Y-17289389D02*
X10006491Y-17289389D01*
X10006491Y-17289389D02*
X10025539Y-17298913D01*
X10025539Y-17298913D02*
X10035063Y-17308436D01*
X10035063Y-17308436D02*
X10044586Y-17327484D01*
X10044586Y-17327484D02*
X10054110Y-17365579D01*
X10054110Y-17365579D02*
X10054110Y-17413198D01*
X10054110Y-17413198D02*
X10044586Y-17451294D01*
X10044586Y-17451294D02*
X10035063Y-17470341D01*
X10035063Y-17470341D02*
X10025539Y-17479865D01*
X10025539Y-17479865D02*
X10006491Y-17489389D01*
X10006491Y-17489389D02*
X9987443Y-17489389D01*
X9987443Y-17489389D02*
X9968396Y-17479865D01*
X9968396Y-17479865D02*
X9958872Y-17470341D01*
X9958872Y-17470341D02*
X9949348Y-17451294D01*
X9949348Y-17451294D02*
X9939824Y-17413198D01*
X9939824Y-17413198D02*
X9939824Y-17365579D01*
X9939824Y-17365579D02*
X9949348Y-17327484D01*
X9949348Y-17327484D02*
X9958872Y-17308436D01*
X9958872Y-17308436D02*
X9968396Y-17298913D01*
X9968396Y-17298913D02*
X9987443Y-17289389D01*
X10120777Y-17289389D02*
X10244586Y-17289389D01*
X10244586Y-17289389D02*
X10177920Y-17365579D01*
X10177920Y-17365579D02*
X10206491Y-17365579D01*
X10206491Y-17365579D02*
X10225539Y-17375103D01*
X10225539Y-17375103D02*
X10235063Y-17384627D01*
X10235063Y-17384627D02*
X10244586Y-17403675D01*
X10244586Y-17403675D02*
X10244586Y-17451294D01*
X10244586Y-17451294D02*
X10235063Y-17470341D01*
X10235063Y-17470341D02*
X10225539Y-17479865D01*
X10225539Y-17479865D02*
X10206491Y-17489389D01*
X10206491Y-17489389D02*
X10149348Y-17489389D01*
X10149348Y-17489389D02*
X10130301Y-17479865D01*
X10130301Y-17479865D02*
X10120777Y-17470341D01*
X10425539Y-17289389D02*
X10330301Y-17289389D01*
X10330301Y-17289389D02*
X10320777Y-17384627D01*
X10320777Y-17384627D02*
X10330301Y-17375103D01*
X10330301Y-17375103D02*
X10349348Y-17365579D01*
X10349348Y-17365579D02*
X10396967Y-17365579D01*
X10396967Y-17365579D02*
X10416015Y-17375103D01*
X10416015Y-17375103D02*
X10425539Y-17384627D01*
X10425539Y-17384627D02*
X10435063Y-17403675D01*
X10435063Y-17403675D02*
X10435063Y-17451294D01*
X10435063Y-17451294D02*
X10425539Y-17470341D01*
X10425539Y-17470341D02*
X10416015Y-17479865D01*
X10416015Y-17479865D02*
X10396967Y-17489389D01*
X10396967Y-17489389D02*
X10349348Y-17489389D01*
X10349348Y-17489389D02*
X10330301Y-17479865D01*
X10330301Y-17479865D02*
X10320777Y-17470341D01*
X10606491Y-17356055D02*
X10606491Y-17489389D01*
X10558872Y-17279865D02*
X10511253Y-17422722D01*
X10511253Y-17422722D02*
X10635063Y-17422722D01*
X10701729Y-17289389D02*
X10701729Y-17327484D01*
X10777920Y-17289389D02*
X10777920Y-17327484D01*
X11073158Y-17565579D02*
X11063634Y-17556055D01*
X11063634Y-17556055D02*
X11044586Y-17527484D01*
X11044586Y-17527484D02*
X11035063Y-17508436D01*
X11035063Y-17508436D02*
X11025539Y-17479865D01*
X11025539Y-17479865D02*
X11016015Y-17432246D01*
X11016015Y-17432246D02*
X11016015Y-17394151D01*
X11016015Y-17394151D02*
X11025539Y-17346532D01*
X11025539Y-17346532D02*
X11035063Y-17317960D01*
X11035063Y-17317960D02*
X11044586Y-17298913D01*
X11044586Y-17298913D02*
X11063634Y-17270341D01*
X11063634Y-17270341D02*
X11073158Y-17260817D01*
X11177920Y-17375103D02*
X11158872Y-17365579D01*
X11158872Y-17365579D02*
X11149348Y-17356055D01*
X11149348Y-17356055D02*
X11139825Y-17337008D01*
X11139825Y-17337008D02*
X11139825Y-17327484D01*
X11139825Y-17327484D02*
X11149348Y-17308436D01*
X11149348Y-17308436D02*
X11158872Y-17298913D01*
X11158872Y-17298913D02*
X11177920Y-17289389D01*
X11177920Y-17289389D02*
X11216015Y-17289389D01*
X11216015Y-17289389D02*
X11235063Y-17298913D01*
X11235063Y-17298913D02*
X11244586Y-17308436D01*
X11244586Y-17308436D02*
X11254110Y-17327484D01*
X11254110Y-17327484D02*
X11254110Y-17337008D01*
X11254110Y-17337008D02*
X11244586Y-17356055D01*
X11244586Y-17356055D02*
X11235063Y-17365579D01*
X11235063Y-17365579D02*
X11216015Y-17375103D01*
X11216015Y-17375103D02*
X11177920Y-17375103D01*
X11177920Y-17375103D02*
X11158872Y-17384627D01*
X11158872Y-17384627D02*
X11149348Y-17394151D01*
X11149348Y-17394151D02*
X11139825Y-17413198D01*
X11139825Y-17413198D02*
X11139825Y-17451294D01*
X11139825Y-17451294D02*
X11149348Y-17470341D01*
X11149348Y-17470341D02*
X11158872Y-17479865D01*
X11158872Y-17479865D02*
X11177920Y-17489389D01*
X11177920Y-17489389D02*
X11216015Y-17489389D01*
X11216015Y-17489389D02*
X11235063Y-17479865D01*
X11235063Y-17479865D02*
X11244586Y-17470341D01*
X11244586Y-17470341D02*
X11254110Y-17451294D01*
X11254110Y-17451294D02*
X11254110Y-17413198D01*
X11254110Y-17413198D02*
X11244586Y-17394151D01*
X11244586Y-17394151D02*
X11235063Y-17384627D01*
X11235063Y-17384627D02*
X11216015Y-17375103D01*
X11492205Y-17489389D02*
X11492205Y-17289389D01*
X11577920Y-17489389D02*
X11577920Y-17384627D01*
X11577920Y-17384627D02*
X11568396Y-17365579D01*
X11568396Y-17365579D02*
X11549348Y-17356055D01*
X11549348Y-17356055D02*
X11520777Y-17356055D01*
X11520777Y-17356055D02*
X11501729Y-17365579D01*
X11501729Y-17365579D02*
X11492205Y-17375103D01*
X11701729Y-17489389D02*
X11682682Y-17479865D01*
X11682682Y-17479865D02*
X11673158Y-17470341D01*
X11673158Y-17470341D02*
X11663634Y-17451294D01*
X11663634Y-17451294D02*
X11663634Y-17394151D01*
X11663634Y-17394151D02*
X11673158Y-17375103D01*
X11673158Y-17375103D02*
X11682682Y-17365579D01*
X11682682Y-17365579D02*
X11701729Y-17356055D01*
X11701729Y-17356055D02*
X11730301Y-17356055D01*
X11730301Y-17356055D02*
X11749348Y-17365579D01*
X11749348Y-17365579D02*
X11758872Y-17375103D01*
X11758872Y-17375103D02*
X11768396Y-17394151D01*
X11768396Y-17394151D02*
X11768396Y-17451294D01*
X11768396Y-17451294D02*
X11758872Y-17470341D01*
X11758872Y-17470341D02*
X11749348Y-17479865D01*
X11749348Y-17479865D02*
X11730301Y-17489389D01*
X11730301Y-17489389D02*
X11701729Y-17489389D01*
X11882682Y-17489389D02*
X11863634Y-17479865D01*
X11863634Y-17479865D02*
X11854110Y-17460817D01*
X11854110Y-17460817D02*
X11854110Y-17289389D01*
X12035063Y-17479865D02*
X12016015Y-17489389D01*
X12016015Y-17489389D02*
X11977920Y-17489389D01*
X11977920Y-17489389D02*
X11958872Y-17479865D01*
X11958872Y-17479865D02*
X11949348Y-17460817D01*
X11949348Y-17460817D02*
X11949348Y-17384627D01*
X11949348Y-17384627D02*
X11958872Y-17365579D01*
X11958872Y-17365579D02*
X11977920Y-17356055D01*
X11977920Y-17356055D02*
X12016015Y-17356055D01*
X12016015Y-17356055D02*
X12035063Y-17365579D01*
X12035063Y-17365579D02*
X12044586Y-17384627D01*
X12044586Y-17384627D02*
X12044586Y-17403675D01*
X12044586Y-17403675D02*
X11949348Y-17422722D01*
X12120777Y-17479865D02*
X12139825Y-17489389D01*
X12139825Y-17489389D02*
X12177920Y-17489389D01*
X12177920Y-17489389D02*
X12196967Y-17479865D01*
X12196967Y-17479865D02*
X12206491Y-17460817D01*
X12206491Y-17460817D02*
X12206491Y-17451294D01*
X12206491Y-17451294D02*
X12196967Y-17432246D01*
X12196967Y-17432246D02*
X12177920Y-17422722D01*
X12177920Y-17422722D02*
X12149348Y-17422722D01*
X12149348Y-17422722D02*
X12130301Y-17413198D01*
X12130301Y-17413198D02*
X12120777Y-17394151D01*
X12120777Y-17394151D02*
X12120777Y-17384627D01*
X12120777Y-17384627D02*
X12130301Y-17365579D01*
X12130301Y-17365579D02*
X12149348Y-17356055D01*
X12149348Y-17356055D02*
X12177920Y-17356055D01*
X12177920Y-17356055D02*
X12196967Y-17365579D01*
X12273158Y-17565579D02*
X12282682Y-17556055D01*
X12282682Y-17556055D02*
X12301729Y-17527484D01*
X12301729Y-17527484D02*
X12311253Y-17508436D01*
X12311253Y-17508436D02*
X12320777Y-17479865D01*
X12320777Y-17479865D02*
X12330301Y-17432246D01*
X12330301Y-17432246D02*
X12330301Y-17394151D01*
X12330301Y-17394151D02*
X12320777Y-17346532D01*
X12320777Y-17346532D02*
X12311253Y-17317960D01*
X12311253Y-17317960D02*
X12301729Y-17298913D01*
X12301729Y-17298913D02*
X12282682Y-17270341D01*
X12282682Y-17270341D02*
X12273158Y-17260817D01*
D12*
X7398095Y-17611905D02*
X7498095Y-17711905D01*
X7498095Y-17611905D02*
X7398095Y-17711905D01*
X7498095Y-17661905D02*
G75*
G02*
X7398095Y-17661905I-50000J0D01*
G01*
X7398095Y-17661905D02*
G75*
G02*
X7498095Y-17661905I50000J0D01*
G01*
D11*
X7863634Y-17753389D02*
X7749348Y-17753389D01*
X7806491Y-17753389D02*
X7806491Y-17553389D01*
X7806491Y-17553389D02*
X7787443Y-17581960D01*
X7787443Y-17581960D02*
X7768396Y-17601008D01*
X7768396Y-17601008D02*
X7749348Y-17610532D01*
X7949348Y-17734341D02*
X7958872Y-17743865D01*
X7958872Y-17743865D02*
X7949348Y-17753389D01*
X7949348Y-17753389D02*
X7939824Y-17743865D01*
X7939824Y-17743865D02*
X7949348Y-17734341D01*
X7949348Y-17734341D02*
X7949348Y-17753389D01*
X8082681Y-17553389D02*
X8101729Y-17553389D01*
X8101729Y-17553389D02*
X8120777Y-17562913D01*
X8120777Y-17562913D02*
X8130300Y-17572436D01*
X8130300Y-17572436D02*
X8139824Y-17591484D01*
X8139824Y-17591484D02*
X8149348Y-17629579D01*
X8149348Y-17629579D02*
X8149348Y-17677198D01*
X8149348Y-17677198D02*
X8139824Y-17715294D01*
X8139824Y-17715294D02*
X8130300Y-17734341D01*
X8130300Y-17734341D02*
X8120777Y-17743865D01*
X8120777Y-17743865D02*
X8101729Y-17753389D01*
X8101729Y-17753389D02*
X8082681Y-17753389D01*
X8082681Y-17753389D02*
X8063634Y-17743865D01*
X8063634Y-17743865D02*
X8054110Y-17734341D01*
X8054110Y-17734341D02*
X8044586Y-17715294D01*
X8044586Y-17715294D02*
X8035062Y-17677198D01*
X8035062Y-17677198D02*
X8035062Y-17629579D01*
X8035062Y-17629579D02*
X8044586Y-17591484D01*
X8044586Y-17591484D02*
X8054110Y-17572436D01*
X8054110Y-17572436D02*
X8063634Y-17562913D01*
X8063634Y-17562913D02*
X8082681Y-17553389D01*
X8273157Y-17553389D02*
X8292205Y-17553389D01*
X8292205Y-17553389D02*
X8311253Y-17562913D01*
X8311253Y-17562913D02*
X8320777Y-17572436D01*
X8320777Y-17572436D02*
X8330300Y-17591484D01*
X8330300Y-17591484D02*
X8339824Y-17629579D01*
X8339824Y-17629579D02*
X8339824Y-17677198D01*
X8339824Y-17677198D02*
X8330300Y-17715294D01*
X8330300Y-17715294D02*
X8320777Y-17734341D01*
X8320777Y-17734341D02*
X8311253Y-17743865D01*
X8311253Y-17743865D02*
X8292205Y-17753389D01*
X8292205Y-17753389D02*
X8273157Y-17753389D01*
X8273157Y-17753389D02*
X8254110Y-17743865D01*
X8254110Y-17743865D02*
X8244586Y-17734341D01*
X8244586Y-17734341D02*
X8235062Y-17715294D01*
X8235062Y-17715294D02*
X8225538Y-17677198D01*
X8225538Y-17677198D02*
X8225538Y-17629579D01*
X8225538Y-17629579D02*
X8235062Y-17591484D01*
X8235062Y-17591484D02*
X8244586Y-17572436D01*
X8244586Y-17572436D02*
X8254110Y-17562913D01*
X8254110Y-17562913D02*
X8273157Y-17553389D01*
X8463634Y-17553389D02*
X8482681Y-17553389D01*
X8482681Y-17553389D02*
X8501729Y-17562913D01*
X8501729Y-17562913D02*
X8511253Y-17572436D01*
X8511253Y-17572436D02*
X8520777Y-17591484D01*
X8520777Y-17591484D02*
X8530300Y-17629579D01*
X8530300Y-17629579D02*
X8530300Y-17677198D01*
X8530300Y-17677198D02*
X8520777Y-17715294D01*
X8520777Y-17715294D02*
X8511253Y-17734341D01*
X8511253Y-17734341D02*
X8501729Y-17743865D01*
X8501729Y-17743865D02*
X8482681Y-17753389D01*
X8482681Y-17753389D02*
X8463634Y-17753389D01*
X8463634Y-17753389D02*
X8444586Y-17743865D01*
X8444586Y-17743865D02*
X8435062Y-17734341D01*
X8435062Y-17734341D02*
X8425539Y-17715294D01*
X8425539Y-17715294D02*
X8416015Y-17677198D01*
X8416015Y-17677198D02*
X8416015Y-17629579D01*
X8416015Y-17629579D02*
X8425539Y-17591484D01*
X8425539Y-17591484D02*
X8435062Y-17572436D01*
X8435062Y-17572436D02*
X8444586Y-17562913D01*
X8444586Y-17562913D02*
X8463634Y-17553389D01*
X8616015Y-17753389D02*
X8616015Y-17620055D01*
X8616015Y-17639103D02*
X8625539Y-17629579D01*
X8625539Y-17629579D02*
X8644586Y-17620055D01*
X8644586Y-17620055D02*
X8673158Y-17620055D01*
X8673158Y-17620055D02*
X8692205Y-17629579D01*
X8692205Y-17629579D02*
X8701729Y-17648627D01*
X8701729Y-17648627D02*
X8701729Y-17753389D01*
X8701729Y-17648627D02*
X8711253Y-17629579D01*
X8711253Y-17629579D02*
X8730300Y-17620055D01*
X8730300Y-17620055D02*
X8758872Y-17620055D01*
X8758872Y-17620055D02*
X8777920Y-17629579D01*
X8777920Y-17629579D02*
X8787443Y-17648627D01*
X8787443Y-17648627D02*
X8787443Y-17753389D01*
X8882681Y-17753389D02*
X8882681Y-17620055D01*
X8882681Y-17639103D02*
X8892205Y-17629579D01*
X8892205Y-17629579D02*
X8911253Y-17620055D01*
X8911253Y-17620055D02*
X8939824Y-17620055D01*
X8939824Y-17620055D02*
X8958872Y-17629579D01*
X8958872Y-17629579D02*
X8968396Y-17648627D01*
X8968396Y-17648627D02*
X8968396Y-17753389D01*
X8968396Y-17648627D02*
X8977920Y-17629579D01*
X8977920Y-17629579D02*
X8996967Y-17620055D01*
X8996967Y-17620055D02*
X9025539Y-17620055D01*
X9025539Y-17620055D02*
X9044586Y-17629579D01*
X9044586Y-17629579D02*
X9054110Y-17648627D01*
X9054110Y-17648627D02*
X9054110Y-17753389D01*
X9444586Y-17543865D02*
X9273158Y-17801008D01*
X9701729Y-17553389D02*
X9720777Y-17553389D01*
X9720777Y-17553389D02*
X9739824Y-17562913D01*
X9739824Y-17562913D02*
X9749348Y-17572436D01*
X9749348Y-17572436D02*
X9758872Y-17591484D01*
X9758872Y-17591484D02*
X9768396Y-17629579D01*
X9768396Y-17629579D02*
X9768396Y-17677198D01*
X9768396Y-17677198D02*
X9758872Y-17715294D01*
X9758872Y-17715294D02*
X9749348Y-17734341D01*
X9749348Y-17734341D02*
X9739824Y-17743865D01*
X9739824Y-17743865D02*
X9720777Y-17753389D01*
X9720777Y-17753389D02*
X9701729Y-17753389D01*
X9701729Y-17753389D02*
X9682682Y-17743865D01*
X9682682Y-17743865D02*
X9673158Y-17734341D01*
X9673158Y-17734341D02*
X9663634Y-17715294D01*
X9663634Y-17715294D02*
X9654110Y-17677198D01*
X9654110Y-17677198D02*
X9654110Y-17629579D01*
X9654110Y-17629579D02*
X9663634Y-17591484D01*
X9663634Y-17591484D02*
X9673158Y-17572436D01*
X9673158Y-17572436D02*
X9682682Y-17562913D01*
X9682682Y-17562913D02*
X9701729Y-17553389D01*
X9854110Y-17734341D02*
X9863634Y-17743865D01*
X9863634Y-17743865D02*
X9854110Y-17753389D01*
X9854110Y-17753389D02*
X9844586Y-17743865D01*
X9844586Y-17743865D02*
X9854110Y-17734341D01*
X9854110Y-17734341D02*
X9854110Y-17753389D01*
X9987443Y-17553389D02*
X10006491Y-17553389D01*
X10006491Y-17553389D02*
X10025539Y-17562913D01*
X10025539Y-17562913D02*
X10035063Y-17572436D01*
X10035063Y-17572436D02*
X10044586Y-17591484D01*
X10044586Y-17591484D02*
X10054110Y-17629579D01*
X10054110Y-17629579D02*
X10054110Y-17677198D01*
X10054110Y-17677198D02*
X10044586Y-17715294D01*
X10044586Y-17715294D02*
X10035063Y-17734341D01*
X10035063Y-17734341D02*
X10025539Y-17743865D01*
X10025539Y-17743865D02*
X10006491Y-17753389D01*
X10006491Y-17753389D02*
X9987443Y-17753389D01*
X9987443Y-17753389D02*
X9968396Y-17743865D01*
X9968396Y-17743865D02*
X9958872Y-17734341D01*
X9958872Y-17734341D02*
X9949348Y-17715294D01*
X9949348Y-17715294D02*
X9939824Y-17677198D01*
X9939824Y-17677198D02*
X9939824Y-17629579D01*
X9939824Y-17629579D02*
X9949348Y-17591484D01*
X9949348Y-17591484D02*
X9958872Y-17572436D01*
X9958872Y-17572436D02*
X9968396Y-17562913D01*
X9968396Y-17562913D02*
X9987443Y-17553389D01*
X10120777Y-17553389D02*
X10244586Y-17553389D01*
X10244586Y-17553389D02*
X10177920Y-17629579D01*
X10177920Y-17629579D02*
X10206491Y-17629579D01*
X10206491Y-17629579D02*
X10225539Y-17639103D01*
X10225539Y-17639103D02*
X10235063Y-17648627D01*
X10235063Y-17648627D02*
X10244586Y-17667675D01*
X10244586Y-17667675D02*
X10244586Y-17715294D01*
X10244586Y-17715294D02*
X10235063Y-17734341D01*
X10235063Y-17734341D02*
X10225539Y-17743865D01*
X10225539Y-17743865D02*
X10206491Y-17753389D01*
X10206491Y-17753389D02*
X10149348Y-17753389D01*
X10149348Y-17753389D02*
X10130301Y-17743865D01*
X10130301Y-17743865D02*
X10120777Y-17734341D01*
X10339824Y-17753389D02*
X10377920Y-17753389D01*
X10377920Y-17753389D02*
X10396967Y-17743865D01*
X10396967Y-17743865D02*
X10406491Y-17734341D01*
X10406491Y-17734341D02*
X10425539Y-17705770D01*
X10425539Y-17705770D02*
X10435063Y-17667675D01*
X10435063Y-17667675D02*
X10435063Y-17591484D01*
X10435063Y-17591484D02*
X10425539Y-17572436D01*
X10425539Y-17572436D02*
X10416015Y-17562913D01*
X10416015Y-17562913D02*
X10396967Y-17553389D01*
X10396967Y-17553389D02*
X10358872Y-17553389D01*
X10358872Y-17553389D02*
X10339824Y-17562913D01*
X10339824Y-17562913D02*
X10330301Y-17572436D01*
X10330301Y-17572436D02*
X10320777Y-17591484D01*
X10320777Y-17591484D02*
X10320777Y-17639103D01*
X10320777Y-17639103D02*
X10330301Y-17658151D01*
X10330301Y-17658151D02*
X10339824Y-17667675D01*
X10339824Y-17667675D02*
X10358872Y-17677198D01*
X10358872Y-17677198D02*
X10396967Y-17677198D01*
X10396967Y-17677198D02*
X10416015Y-17667675D01*
X10416015Y-17667675D02*
X10425539Y-17658151D01*
X10425539Y-17658151D02*
X10435063Y-17639103D01*
X10606491Y-17620055D02*
X10606491Y-17753389D01*
X10558872Y-17543865D02*
X10511253Y-17686722D01*
X10511253Y-17686722D02*
X10635063Y-17686722D01*
X10701729Y-17553389D02*
X10701729Y-17591484D01*
X10777920Y-17553389D02*
X10777920Y-17591484D01*
X11073158Y-17829579D02*
X11063634Y-17820055D01*
X11063634Y-17820055D02*
X11044586Y-17791484D01*
X11044586Y-17791484D02*
X11035063Y-17772436D01*
X11035063Y-17772436D02*
X11025539Y-17743865D01*
X11025539Y-17743865D02*
X11016015Y-17696246D01*
X11016015Y-17696246D02*
X11016015Y-17658151D01*
X11016015Y-17658151D02*
X11025539Y-17610532D01*
X11025539Y-17610532D02*
X11035063Y-17581960D01*
X11035063Y-17581960D02*
X11044586Y-17562913D01*
X11044586Y-17562913D02*
X11063634Y-17534341D01*
X11063634Y-17534341D02*
X11073158Y-17524817D01*
X11130301Y-17553389D02*
X11254110Y-17553389D01*
X11254110Y-17553389D02*
X11187443Y-17629579D01*
X11187443Y-17629579D02*
X11216015Y-17629579D01*
X11216015Y-17629579D02*
X11235063Y-17639103D01*
X11235063Y-17639103D02*
X11244586Y-17648627D01*
X11244586Y-17648627D02*
X11254110Y-17667675D01*
X11254110Y-17667675D02*
X11254110Y-17715294D01*
X11254110Y-17715294D02*
X11244586Y-17734341D01*
X11244586Y-17734341D02*
X11235063Y-17743865D01*
X11235063Y-17743865D02*
X11216015Y-17753389D01*
X11216015Y-17753389D02*
X11158872Y-17753389D01*
X11158872Y-17753389D02*
X11139825Y-17743865D01*
X11139825Y-17743865D02*
X11130301Y-17734341D01*
X11425539Y-17553389D02*
X11387443Y-17553389D01*
X11387443Y-17553389D02*
X11368396Y-17562913D01*
X11368396Y-17562913D02*
X11358872Y-17572436D01*
X11358872Y-17572436D02*
X11339824Y-17601008D01*
X11339824Y-17601008D02*
X11330301Y-17639103D01*
X11330301Y-17639103D02*
X11330301Y-17715294D01*
X11330301Y-17715294D02*
X11339824Y-17734341D01*
X11339824Y-17734341D02*
X11349348Y-17743865D01*
X11349348Y-17743865D02*
X11368396Y-17753389D01*
X11368396Y-17753389D02*
X11406491Y-17753389D01*
X11406491Y-17753389D02*
X11425539Y-17743865D01*
X11425539Y-17743865D02*
X11435063Y-17734341D01*
X11435063Y-17734341D02*
X11444586Y-17715294D01*
X11444586Y-17715294D02*
X11444586Y-17667675D01*
X11444586Y-17667675D02*
X11435063Y-17648627D01*
X11435063Y-17648627D02*
X11425539Y-17639103D01*
X11425539Y-17639103D02*
X11406491Y-17629579D01*
X11406491Y-17629579D02*
X11368396Y-17629579D01*
X11368396Y-17629579D02*
X11349348Y-17639103D01*
X11349348Y-17639103D02*
X11339824Y-17648627D01*
X11339824Y-17648627D02*
X11330301Y-17667675D01*
X11682682Y-17753389D02*
X11682682Y-17553389D01*
X11768396Y-17753389D02*
X11768396Y-17648627D01*
X11768396Y-17648627D02*
X11758872Y-17629579D01*
X11758872Y-17629579D02*
X11739825Y-17620055D01*
X11739825Y-17620055D02*
X11711253Y-17620055D01*
X11711253Y-17620055D02*
X11692205Y-17629579D01*
X11692205Y-17629579D02*
X11682682Y-17639103D01*
X11892205Y-17753389D02*
X11873158Y-17743865D01*
X11873158Y-17743865D02*
X11863634Y-17734341D01*
X11863634Y-17734341D02*
X11854110Y-17715294D01*
X11854110Y-17715294D02*
X11854110Y-17658151D01*
X11854110Y-17658151D02*
X11863634Y-17639103D01*
X11863634Y-17639103D02*
X11873158Y-17629579D01*
X11873158Y-17629579D02*
X11892205Y-17620055D01*
X11892205Y-17620055D02*
X11920777Y-17620055D01*
X11920777Y-17620055D02*
X11939825Y-17629579D01*
X11939825Y-17629579D02*
X11949348Y-17639103D01*
X11949348Y-17639103D02*
X11958872Y-17658151D01*
X11958872Y-17658151D02*
X11958872Y-17715294D01*
X11958872Y-17715294D02*
X11949348Y-17734341D01*
X11949348Y-17734341D02*
X11939825Y-17743865D01*
X11939825Y-17743865D02*
X11920777Y-17753389D01*
X11920777Y-17753389D02*
X11892205Y-17753389D01*
X12073158Y-17753389D02*
X12054110Y-17743865D01*
X12054110Y-17743865D02*
X12044586Y-17724817D01*
X12044586Y-17724817D02*
X12044586Y-17553389D01*
X12225539Y-17743865D02*
X12206491Y-17753389D01*
X12206491Y-17753389D02*
X12168396Y-17753389D01*
X12168396Y-17753389D02*
X12149348Y-17743865D01*
X12149348Y-17743865D02*
X12139825Y-17724817D01*
X12139825Y-17724817D02*
X12139825Y-17648627D01*
X12139825Y-17648627D02*
X12149348Y-17629579D01*
X12149348Y-17629579D02*
X12168396Y-17620055D01*
X12168396Y-17620055D02*
X12206491Y-17620055D01*
X12206491Y-17620055D02*
X12225539Y-17629579D01*
X12225539Y-17629579D02*
X12235063Y-17648627D01*
X12235063Y-17648627D02*
X12235063Y-17667675D01*
X12235063Y-17667675D02*
X12139825Y-17686722D01*
X12311253Y-17743865D02*
X12330301Y-17753389D01*
X12330301Y-17753389D02*
X12368396Y-17753389D01*
X12368396Y-17753389D02*
X12387444Y-17743865D01*
X12387444Y-17743865D02*
X12396967Y-17724817D01*
X12396967Y-17724817D02*
X12396967Y-17715294D01*
X12396967Y-17715294D02*
X12387444Y-17696246D01*
X12387444Y-17696246D02*
X12368396Y-17686722D01*
X12368396Y-17686722D02*
X12339825Y-17686722D01*
X12339825Y-17686722D02*
X12320777Y-17677198D01*
X12320777Y-17677198D02*
X12311253Y-17658151D01*
X12311253Y-17658151D02*
X12311253Y-17648627D01*
X12311253Y-17648627D02*
X12320777Y-17629579D01*
X12320777Y-17629579D02*
X12339825Y-17620055D01*
X12339825Y-17620055D02*
X12368396Y-17620055D01*
X12368396Y-17620055D02*
X12387444Y-17629579D01*
X12635063Y-17677198D02*
X12787444Y-17677198D01*
X12711253Y-17753389D02*
X12711253Y-17601008D01*
X13025539Y-17572436D02*
X13035063Y-17562913D01*
X13035063Y-17562913D02*
X13054110Y-17553389D01*
X13054110Y-17553389D02*
X13101729Y-17553389D01*
X13101729Y-17553389D02*
X13120777Y-17562913D01*
X13120777Y-17562913D02*
X13130301Y-17572436D01*
X13130301Y-17572436D02*
X13139825Y-17591484D01*
X13139825Y-17591484D02*
X13139825Y-17610532D01*
X13139825Y-17610532D02*
X13130301Y-17639103D01*
X13130301Y-17639103D02*
X13016015Y-17753389D01*
X13016015Y-17753389D02*
X13139825Y-17753389D01*
X13368396Y-17743865D02*
X13387444Y-17753389D01*
X13387444Y-17753389D02*
X13425539Y-17753389D01*
X13425539Y-17753389D02*
X13444587Y-17743865D01*
X13444587Y-17743865D02*
X13454110Y-17724817D01*
X13454110Y-17724817D02*
X13454110Y-17715294D01*
X13454110Y-17715294D02*
X13444587Y-17696246D01*
X13444587Y-17696246D02*
X13425539Y-17686722D01*
X13425539Y-17686722D02*
X13396968Y-17686722D01*
X13396968Y-17686722D02*
X13377920Y-17677198D01*
X13377920Y-17677198D02*
X13368396Y-17658151D01*
X13368396Y-17658151D02*
X13368396Y-17648627D01*
X13368396Y-17648627D02*
X13377920Y-17629579D01*
X13377920Y-17629579D02*
X13396968Y-17620055D01*
X13396968Y-17620055D02*
X13425539Y-17620055D01*
X13425539Y-17620055D02*
X13444587Y-17629579D01*
X13568396Y-17753389D02*
X13549349Y-17743865D01*
X13549349Y-17743865D02*
X13539825Y-17724817D01*
X13539825Y-17724817D02*
X13539825Y-17553389D01*
X13673158Y-17753389D02*
X13654110Y-17743865D01*
X13654110Y-17743865D02*
X13644587Y-17734341D01*
X13644587Y-17734341D02*
X13635063Y-17715294D01*
X13635063Y-17715294D02*
X13635063Y-17658151D01*
X13635063Y-17658151D02*
X13644587Y-17639103D01*
X13644587Y-17639103D02*
X13654110Y-17629579D01*
X13654110Y-17629579D02*
X13673158Y-17620055D01*
X13673158Y-17620055D02*
X13701730Y-17620055D01*
X13701730Y-17620055D02*
X13720777Y-17629579D01*
X13720777Y-17629579D02*
X13730301Y-17639103D01*
X13730301Y-17639103D02*
X13739825Y-17658151D01*
X13739825Y-17658151D02*
X13739825Y-17715294D01*
X13739825Y-17715294D02*
X13730301Y-17734341D01*
X13730301Y-17734341D02*
X13720777Y-17743865D01*
X13720777Y-17743865D02*
X13701730Y-17753389D01*
X13701730Y-17753389D02*
X13673158Y-17753389D01*
X13796968Y-17620055D02*
X13873158Y-17620055D01*
X13825539Y-17553389D02*
X13825539Y-17724817D01*
X13825539Y-17724817D02*
X13835063Y-17743865D01*
X13835063Y-17743865D02*
X13854110Y-17753389D01*
X13854110Y-17753389D02*
X13873158Y-17753389D01*
X13930301Y-17743865D02*
X13949349Y-17753389D01*
X13949349Y-17753389D02*
X13987444Y-17753389D01*
X13987444Y-17753389D02*
X14006491Y-17743865D01*
X14006491Y-17743865D02*
X14016015Y-17724817D01*
X14016015Y-17724817D02*
X14016015Y-17715294D01*
X14016015Y-17715294D02*
X14006491Y-17696246D01*
X14006491Y-17696246D02*
X13987444Y-17686722D01*
X13987444Y-17686722D02*
X13958872Y-17686722D01*
X13958872Y-17686722D02*
X13939825Y-17677198D01*
X13939825Y-17677198D02*
X13930301Y-17658151D01*
X13930301Y-17658151D02*
X13930301Y-17648627D01*
X13930301Y-17648627D02*
X13939825Y-17629579D01*
X13939825Y-17629579D02*
X13958872Y-17620055D01*
X13958872Y-17620055D02*
X13987444Y-17620055D01*
X13987444Y-17620055D02*
X14006491Y-17629579D01*
X14082682Y-17829579D02*
X14092206Y-17820055D01*
X14092206Y-17820055D02*
X14111253Y-17791484D01*
X14111253Y-17791484D02*
X14120777Y-17772436D01*
X14120777Y-17772436D02*
X14130301Y-17743865D01*
X14130301Y-17743865D02*
X14139825Y-17696246D01*
X14139825Y-17696246D02*
X14139825Y-17658151D01*
X14139825Y-17658151D02*
X14130301Y-17610532D01*
X14130301Y-17610532D02*
X14120777Y-17581960D01*
X14120777Y-17581960D02*
X14111253Y-17562913D01*
X14111253Y-17562913D02*
X14092206Y-17534341D01*
X14092206Y-17534341D02*
X14082682Y-17524817D01*
D13*
X7358395Y-17856055D02*
X7498095Y-17995755D01*
X7498095Y-17856055D02*
X7358395Y-17995755D01*
X7428245Y-17856055D02*
X7428245Y-17995755D01*
X7358395Y-17925905D02*
X7498095Y-17925905D01*
D11*
X7863634Y-18017389D02*
X7749348Y-18017389D01*
X7806491Y-18017389D02*
X7806491Y-17817389D01*
X7806491Y-17817389D02*
X7787443Y-17845960D01*
X7787443Y-17845960D02*
X7768396Y-17865008D01*
X7768396Y-17865008D02*
X7749348Y-17874532D01*
X7949348Y-17998341D02*
X7958872Y-18007865D01*
X7958872Y-18007865D02*
X7949348Y-18017389D01*
X7949348Y-18017389D02*
X7939824Y-18007865D01*
X7939824Y-18007865D02*
X7949348Y-17998341D01*
X7949348Y-17998341D02*
X7949348Y-18017389D01*
X8025538Y-17817389D02*
X8149348Y-17817389D01*
X8149348Y-17817389D02*
X8082681Y-17893579D01*
X8082681Y-17893579D02*
X8111253Y-17893579D01*
X8111253Y-17893579D02*
X8130300Y-17903103D01*
X8130300Y-17903103D02*
X8139824Y-17912627D01*
X8139824Y-17912627D02*
X8149348Y-17931675D01*
X8149348Y-17931675D02*
X8149348Y-17979294D01*
X8149348Y-17979294D02*
X8139824Y-17998341D01*
X8139824Y-17998341D02*
X8130300Y-18007865D01*
X8130300Y-18007865D02*
X8111253Y-18017389D01*
X8111253Y-18017389D02*
X8054110Y-18017389D01*
X8054110Y-18017389D02*
X8035062Y-18007865D01*
X8035062Y-18007865D02*
X8025538Y-17998341D01*
X8244586Y-18017389D02*
X8282681Y-18017389D01*
X8282681Y-18017389D02*
X8301729Y-18007865D01*
X8301729Y-18007865D02*
X8311253Y-17998341D01*
X8311253Y-17998341D02*
X8330300Y-17969770D01*
X8330300Y-17969770D02*
X8339824Y-17931675D01*
X8339824Y-17931675D02*
X8339824Y-17855484D01*
X8339824Y-17855484D02*
X8330300Y-17836436D01*
X8330300Y-17836436D02*
X8320777Y-17826913D01*
X8320777Y-17826913D02*
X8301729Y-17817389D01*
X8301729Y-17817389D02*
X8263634Y-17817389D01*
X8263634Y-17817389D02*
X8244586Y-17826913D01*
X8244586Y-17826913D02*
X8235062Y-17836436D01*
X8235062Y-17836436D02*
X8225538Y-17855484D01*
X8225538Y-17855484D02*
X8225538Y-17903103D01*
X8225538Y-17903103D02*
X8235062Y-17922151D01*
X8235062Y-17922151D02*
X8244586Y-17931675D01*
X8244586Y-17931675D02*
X8263634Y-17941198D01*
X8263634Y-17941198D02*
X8301729Y-17941198D01*
X8301729Y-17941198D02*
X8320777Y-17931675D01*
X8320777Y-17931675D02*
X8330300Y-17922151D01*
X8330300Y-17922151D02*
X8339824Y-17903103D01*
X8406491Y-17817389D02*
X8539824Y-17817389D01*
X8539824Y-17817389D02*
X8454110Y-18017389D01*
X8616015Y-18017389D02*
X8616015Y-17884055D01*
X8616015Y-17903103D02*
X8625539Y-17893579D01*
X8625539Y-17893579D02*
X8644586Y-17884055D01*
X8644586Y-17884055D02*
X8673158Y-17884055D01*
X8673158Y-17884055D02*
X8692205Y-17893579D01*
X8692205Y-17893579D02*
X8701729Y-17912627D01*
X8701729Y-17912627D02*
X8701729Y-18017389D01*
X8701729Y-17912627D02*
X8711253Y-17893579D01*
X8711253Y-17893579D02*
X8730300Y-17884055D01*
X8730300Y-17884055D02*
X8758872Y-17884055D01*
X8758872Y-17884055D02*
X8777920Y-17893579D01*
X8777920Y-17893579D02*
X8787443Y-17912627D01*
X8787443Y-17912627D02*
X8787443Y-18017389D01*
X8882681Y-18017389D02*
X8882681Y-17884055D01*
X8882681Y-17903103D02*
X8892205Y-17893579D01*
X8892205Y-17893579D02*
X8911253Y-17884055D01*
X8911253Y-17884055D02*
X8939824Y-17884055D01*
X8939824Y-17884055D02*
X8958872Y-17893579D01*
X8958872Y-17893579D02*
X8968396Y-17912627D01*
X8968396Y-17912627D02*
X8968396Y-18017389D01*
X8968396Y-17912627D02*
X8977920Y-17893579D01*
X8977920Y-17893579D02*
X8996967Y-17884055D01*
X8996967Y-17884055D02*
X9025539Y-17884055D01*
X9025539Y-17884055D02*
X9044586Y-17893579D01*
X9044586Y-17893579D02*
X9054110Y-17912627D01*
X9054110Y-17912627D02*
X9054110Y-18017389D01*
X9444586Y-17807865D02*
X9273158Y-18065008D01*
X9701729Y-17817389D02*
X9720777Y-17817389D01*
X9720777Y-17817389D02*
X9739824Y-17826913D01*
X9739824Y-17826913D02*
X9749348Y-17836436D01*
X9749348Y-17836436D02*
X9758872Y-17855484D01*
X9758872Y-17855484D02*
X9768396Y-17893579D01*
X9768396Y-17893579D02*
X9768396Y-17941198D01*
X9768396Y-17941198D02*
X9758872Y-17979294D01*
X9758872Y-17979294D02*
X9749348Y-17998341D01*
X9749348Y-17998341D02*
X9739824Y-18007865D01*
X9739824Y-18007865D02*
X9720777Y-18017389D01*
X9720777Y-18017389D02*
X9701729Y-18017389D01*
X9701729Y-18017389D02*
X9682682Y-18007865D01*
X9682682Y-18007865D02*
X9673158Y-17998341D01*
X9673158Y-17998341D02*
X9663634Y-17979294D01*
X9663634Y-17979294D02*
X9654110Y-17941198D01*
X9654110Y-17941198D02*
X9654110Y-17893579D01*
X9654110Y-17893579D02*
X9663634Y-17855484D01*
X9663634Y-17855484D02*
X9673158Y-17836436D01*
X9673158Y-17836436D02*
X9682682Y-17826913D01*
X9682682Y-17826913D02*
X9701729Y-17817389D01*
X9854110Y-17998341D02*
X9863634Y-18007865D01*
X9863634Y-18007865D02*
X9854110Y-18017389D01*
X9854110Y-18017389D02*
X9844586Y-18007865D01*
X9844586Y-18007865D02*
X9854110Y-17998341D01*
X9854110Y-17998341D02*
X9854110Y-18017389D01*
X9987443Y-17817389D02*
X10006491Y-17817389D01*
X10006491Y-17817389D02*
X10025539Y-17826913D01*
X10025539Y-17826913D02*
X10035063Y-17836436D01*
X10035063Y-17836436D02*
X10044586Y-17855484D01*
X10044586Y-17855484D02*
X10054110Y-17893579D01*
X10054110Y-17893579D02*
X10054110Y-17941198D01*
X10054110Y-17941198D02*
X10044586Y-17979294D01*
X10044586Y-17979294D02*
X10035063Y-17998341D01*
X10035063Y-17998341D02*
X10025539Y-18007865D01*
X10025539Y-18007865D02*
X10006491Y-18017389D01*
X10006491Y-18017389D02*
X9987443Y-18017389D01*
X9987443Y-18017389D02*
X9968396Y-18007865D01*
X9968396Y-18007865D02*
X9958872Y-17998341D01*
X9958872Y-17998341D02*
X9949348Y-17979294D01*
X9949348Y-17979294D02*
X9939824Y-17941198D01*
X9939824Y-17941198D02*
X9939824Y-17893579D01*
X9939824Y-17893579D02*
X9949348Y-17855484D01*
X9949348Y-17855484D02*
X9958872Y-17836436D01*
X9958872Y-17836436D02*
X9968396Y-17826913D01*
X9968396Y-17826913D02*
X9987443Y-17817389D01*
X10235063Y-17817389D02*
X10139824Y-17817389D01*
X10139824Y-17817389D02*
X10130301Y-17912627D01*
X10130301Y-17912627D02*
X10139824Y-17903103D01*
X10139824Y-17903103D02*
X10158872Y-17893579D01*
X10158872Y-17893579D02*
X10206491Y-17893579D01*
X10206491Y-17893579D02*
X10225539Y-17903103D01*
X10225539Y-17903103D02*
X10235063Y-17912627D01*
X10235063Y-17912627D02*
X10244586Y-17931675D01*
X10244586Y-17931675D02*
X10244586Y-17979294D01*
X10244586Y-17979294D02*
X10235063Y-17998341D01*
X10235063Y-17998341D02*
X10225539Y-18007865D01*
X10225539Y-18007865D02*
X10206491Y-18017389D01*
X10206491Y-18017389D02*
X10158872Y-18017389D01*
X10158872Y-18017389D02*
X10139824Y-18007865D01*
X10139824Y-18007865D02*
X10130301Y-17998341D01*
X10425539Y-17817389D02*
X10330301Y-17817389D01*
X10330301Y-17817389D02*
X10320777Y-17912627D01*
X10320777Y-17912627D02*
X10330301Y-17903103D01*
X10330301Y-17903103D02*
X10349348Y-17893579D01*
X10349348Y-17893579D02*
X10396967Y-17893579D01*
X10396967Y-17893579D02*
X10416015Y-17903103D01*
X10416015Y-17903103D02*
X10425539Y-17912627D01*
X10425539Y-17912627D02*
X10435063Y-17931675D01*
X10435063Y-17931675D02*
X10435063Y-17979294D01*
X10435063Y-17979294D02*
X10425539Y-17998341D01*
X10425539Y-17998341D02*
X10416015Y-18007865D01*
X10416015Y-18007865D02*
X10396967Y-18017389D01*
X10396967Y-18017389D02*
X10349348Y-18017389D01*
X10349348Y-18017389D02*
X10330301Y-18007865D01*
X10330301Y-18007865D02*
X10320777Y-17998341D01*
X10558872Y-17817389D02*
X10577920Y-17817389D01*
X10577920Y-17817389D02*
X10596967Y-17826913D01*
X10596967Y-17826913D02*
X10606491Y-17836436D01*
X10606491Y-17836436D02*
X10616015Y-17855484D01*
X10616015Y-17855484D02*
X10625539Y-17893579D01*
X10625539Y-17893579D02*
X10625539Y-17941198D01*
X10625539Y-17941198D02*
X10616015Y-17979294D01*
X10616015Y-17979294D02*
X10606491Y-17998341D01*
X10606491Y-17998341D02*
X10596967Y-18007865D01*
X10596967Y-18007865D02*
X10577920Y-18017389D01*
X10577920Y-18017389D02*
X10558872Y-18017389D01*
X10558872Y-18017389D02*
X10539824Y-18007865D01*
X10539824Y-18007865D02*
X10530301Y-17998341D01*
X10530301Y-17998341D02*
X10520777Y-17979294D01*
X10520777Y-17979294D02*
X10511253Y-17941198D01*
X10511253Y-17941198D02*
X10511253Y-17893579D01*
X10511253Y-17893579D02*
X10520777Y-17855484D01*
X10520777Y-17855484D02*
X10530301Y-17836436D01*
X10530301Y-17836436D02*
X10539824Y-17826913D01*
X10539824Y-17826913D02*
X10558872Y-17817389D01*
X10701729Y-17817389D02*
X10701729Y-17855484D01*
X10777920Y-17817389D02*
X10777920Y-17855484D01*
X11073158Y-18093579D02*
X11063634Y-18084055D01*
X11063634Y-18084055D02*
X11044586Y-18055484D01*
X11044586Y-18055484D02*
X11035063Y-18036436D01*
X11035063Y-18036436D02*
X11025539Y-18007865D01*
X11025539Y-18007865D02*
X11016015Y-17960246D01*
X11016015Y-17960246D02*
X11016015Y-17922151D01*
X11016015Y-17922151D02*
X11025539Y-17874532D01*
X11025539Y-17874532D02*
X11035063Y-17845960D01*
X11035063Y-17845960D02*
X11044586Y-17826913D01*
X11044586Y-17826913D02*
X11063634Y-17798341D01*
X11063634Y-17798341D02*
X11073158Y-17788817D01*
X11177920Y-17903103D02*
X11158872Y-17893579D01*
X11158872Y-17893579D02*
X11149348Y-17884055D01*
X11149348Y-17884055D02*
X11139825Y-17865008D01*
X11139825Y-17865008D02*
X11139825Y-17855484D01*
X11139825Y-17855484D02*
X11149348Y-17836436D01*
X11149348Y-17836436D02*
X11158872Y-17826913D01*
X11158872Y-17826913D02*
X11177920Y-17817389D01*
X11177920Y-17817389D02*
X11216015Y-17817389D01*
X11216015Y-17817389D02*
X11235063Y-17826913D01*
X11235063Y-17826913D02*
X11244586Y-17836436D01*
X11244586Y-17836436D02*
X11254110Y-17855484D01*
X11254110Y-17855484D02*
X11254110Y-17865008D01*
X11254110Y-17865008D02*
X11244586Y-17884055D01*
X11244586Y-17884055D02*
X11235063Y-17893579D01*
X11235063Y-17893579D02*
X11216015Y-17903103D01*
X11216015Y-17903103D02*
X11177920Y-17903103D01*
X11177920Y-17903103D02*
X11158872Y-17912627D01*
X11158872Y-17912627D02*
X11149348Y-17922151D01*
X11149348Y-17922151D02*
X11139825Y-17941198D01*
X11139825Y-17941198D02*
X11139825Y-17979294D01*
X11139825Y-17979294D02*
X11149348Y-17998341D01*
X11149348Y-17998341D02*
X11158872Y-18007865D01*
X11158872Y-18007865D02*
X11177920Y-18017389D01*
X11177920Y-18017389D02*
X11216015Y-18017389D01*
X11216015Y-18017389D02*
X11235063Y-18007865D01*
X11235063Y-18007865D02*
X11244586Y-17998341D01*
X11244586Y-17998341D02*
X11254110Y-17979294D01*
X11254110Y-17979294D02*
X11254110Y-17941198D01*
X11254110Y-17941198D02*
X11244586Y-17922151D01*
X11244586Y-17922151D02*
X11235063Y-17912627D01*
X11235063Y-17912627D02*
X11216015Y-17903103D01*
X11492205Y-18017389D02*
X11492205Y-17817389D01*
X11577920Y-18017389D02*
X11577920Y-17912627D01*
X11577920Y-17912627D02*
X11568396Y-17893579D01*
X11568396Y-17893579D02*
X11549348Y-17884055D01*
X11549348Y-17884055D02*
X11520777Y-17884055D01*
X11520777Y-17884055D02*
X11501729Y-17893579D01*
X11501729Y-17893579D02*
X11492205Y-17903103D01*
X11701729Y-18017389D02*
X11682682Y-18007865D01*
X11682682Y-18007865D02*
X11673158Y-17998341D01*
X11673158Y-17998341D02*
X11663634Y-17979294D01*
X11663634Y-17979294D02*
X11663634Y-17922151D01*
X11663634Y-17922151D02*
X11673158Y-17903103D01*
X11673158Y-17903103D02*
X11682682Y-17893579D01*
X11682682Y-17893579D02*
X11701729Y-17884055D01*
X11701729Y-17884055D02*
X11730301Y-17884055D01*
X11730301Y-17884055D02*
X11749348Y-17893579D01*
X11749348Y-17893579D02*
X11758872Y-17903103D01*
X11758872Y-17903103D02*
X11768396Y-17922151D01*
X11768396Y-17922151D02*
X11768396Y-17979294D01*
X11768396Y-17979294D02*
X11758872Y-17998341D01*
X11758872Y-17998341D02*
X11749348Y-18007865D01*
X11749348Y-18007865D02*
X11730301Y-18017389D01*
X11730301Y-18017389D02*
X11701729Y-18017389D01*
X11882682Y-18017389D02*
X11863634Y-18007865D01*
X11863634Y-18007865D02*
X11854110Y-17988817D01*
X11854110Y-17988817D02*
X11854110Y-17817389D01*
X12035063Y-18007865D02*
X12016015Y-18017389D01*
X12016015Y-18017389D02*
X11977920Y-18017389D01*
X11977920Y-18017389D02*
X11958872Y-18007865D01*
X11958872Y-18007865D02*
X11949348Y-17988817D01*
X11949348Y-17988817D02*
X11949348Y-17912627D01*
X11949348Y-17912627D02*
X11958872Y-17893579D01*
X11958872Y-17893579D02*
X11977920Y-17884055D01*
X11977920Y-17884055D02*
X12016015Y-17884055D01*
X12016015Y-17884055D02*
X12035063Y-17893579D01*
X12035063Y-17893579D02*
X12044586Y-17912627D01*
X12044586Y-17912627D02*
X12044586Y-17931675D01*
X12044586Y-17931675D02*
X11949348Y-17950722D01*
X12120777Y-18007865D02*
X12139825Y-18017389D01*
X12139825Y-18017389D02*
X12177920Y-18017389D01*
X12177920Y-18017389D02*
X12196967Y-18007865D01*
X12196967Y-18007865D02*
X12206491Y-17988817D01*
X12206491Y-17988817D02*
X12206491Y-17979294D01*
X12206491Y-17979294D02*
X12196967Y-17960246D01*
X12196967Y-17960246D02*
X12177920Y-17950722D01*
X12177920Y-17950722D02*
X12149348Y-17950722D01*
X12149348Y-17950722D02*
X12130301Y-17941198D01*
X12130301Y-17941198D02*
X12120777Y-17922151D01*
X12120777Y-17922151D02*
X12120777Y-17912627D01*
X12120777Y-17912627D02*
X12130301Y-17893579D01*
X12130301Y-17893579D02*
X12149348Y-17884055D01*
X12149348Y-17884055D02*
X12177920Y-17884055D01*
X12177920Y-17884055D02*
X12196967Y-17893579D01*
X12273158Y-18093579D02*
X12282682Y-18084055D01*
X12282682Y-18084055D02*
X12301729Y-18055484D01*
X12301729Y-18055484D02*
X12311253Y-18036436D01*
X12311253Y-18036436D02*
X12320777Y-18007865D01*
X12320777Y-18007865D02*
X12330301Y-17960246D01*
X12330301Y-17960246D02*
X12330301Y-17922151D01*
X12330301Y-17922151D02*
X12320777Y-17874532D01*
X12320777Y-17874532D02*
X12311253Y-17845960D01*
X12311253Y-17845960D02*
X12301729Y-17826913D01*
X12301729Y-17826913D02*
X12282682Y-17798341D01*
X12282682Y-17798341D02*
X12273158Y-17788817D01*
X7298095Y-18089905D02*
X7498095Y-18289905D01*
X7498095Y-18089905D02*
X7298095Y-18289905D01*
X7468806Y-18260616D02*
X7468806Y-18119194D01*
X7327384Y-18119194D01*
X7327384Y-18260616D01*
X7468806Y-18260616D01*
X7739824Y-18081389D02*
X7863634Y-18081389D01*
X7863634Y-18081389D02*
X7796967Y-18157579D01*
X7796967Y-18157579D02*
X7825538Y-18157579D01*
X7825538Y-18157579D02*
X7844586Y-18167103D01*
X7844586Y-18167103D02*
X7854110Y-18176627D01*
X7854110Y-18176627D02*
X7863634Y-18195675D01*
X7863634Y-18195675D02*
X7863634Y-18243294D01*
X7863634Y-18243294D02*
X7854110Y-18262341D01*
X7854110Y-18262341D02*
X7844586Y-18271865D01*
X7844586Y-18271865D02*
X7825538Y-18281389D01*
X7825538Y-18281389D02*
X7768396Y-18281389D01*
X7768396Y-18281389D02*
X7749348Y-18271865D01*
X7749348Y-18271865D02*
X7739824Y-18262341D01*
X7949348Y-18262341D02*
X7958872Y-18271865D01*
X7958872Y-18271865D02*
X7949348Y-18281389D01*
X7949348Y-18281389D02*
X7939824Y-18271865D01*
X7939824Y-18271865D02*
X7949348Y-18262341D01*
X7949348Y-18262341D02*
X7949348Y-18281389D01*
X8130300Y-18081389D02*
X8092205Y-18081389D01*
X8092205Y-18081389D02*
X8073157Y-18090913D01*
X8073157Y-18090913D02*
X8063634Y-18100436D01*
X8063634Y-18100436D02*
X8044586Y-18129008D01*
X8044586Y-18129008D02*
X8035062Y-18167103D01*
X8035062Y-18167103D02*
X8035062Y-18243294D01*
X8035062Y-18243294D02*
X8044586Y-18262341D01*
X8044586Y-18262341D02*
X8054110Y-18271865D01*
X8054110Y-18271865D02*
X8073157Y-18281389D01*
X8073157Y-18281389D02*
X8111253Y-18281389D01*
X8111253Y-18281389D02*
X8130300Y-18271865D01*
X8130300Y-18271865D02*
X8139824Y-18262341D01*
X8139824Y-18262341D02*
X8149348Y-18243294D01*
X8149348Y-18243294D02*
X8149348Y-18195675D01*
X8149348Y-18195675D02*
X8139824Y-18176627D01*
X8139824Y-18176627D02*
X8130300Y-18167103D01*
X8130300Y-18167103D02*
X8111253Y-18157579D01*
X8111253Y-18157579D02*
X8073157Y-18157579D01*
X8073157Y-18157579D02*
X8054110Y-18167103D01*
X8054110Y-18167103D02*
X8044586Y-18176627D01*
X8044586Y-18176627D02*
X8035062Y-18195675D01*
X8273157Y-18081389D02*
X8292205Y-18081389D01*
X8292205Y-18081389D02*
X8311253Y-18090913D01*
X8311253Y-18090913D02*
X8320777Y-18100436D01*
X8320777Y-18100436D02*
X8330300Y-18119484D01*
X8330300Y-18119484D02*
X8339824Y-18157579D01*
X8339824Y-18157579D02*
X8339824Y-18205198D01*
X8339824Y-18205198D02*
X8330300Y-18243294D01*
X8330300Y-18243294D02*
X8320777Y-18262341D01*
X8320777Y-18262341D02*
X8311253Y-18271865D01*
X8311253Y-18271865D02*
X8292205Y-18281389D01*
X8292205Y-18281389D02*
X8273157Y-18281389D01*
X8273157Y-18281389D02*
X8254110Y-18271865D01*
X8254110Y-18271865D02*
X8244586Y-18262341D01*
X8244586Y-18262341D02*
X8235062Y-18243294D01*
X8235062Y-18243294D02*
X8225538Y-18205198D01*
X8225538Y-18205198D02*
X8225538Y-18157579D01*
X8225538Y-18157579D02*
X8235062Y-18119484D01*
X8235062Y-18119484D02*
X8244586Y-18100436D01*
X8244586Y-18100436D02*
X8254110Y-18090913D01*
X8254110Y-18090913D02*
X8273157Y-18081389D01*
X8463634Y-18081389D02*
X8482681Y-18081389D01*
X8482681Y-18081389D02*
X8501729Y-18090913D01*
X8501729Y-18090913D02*
X8511253Y-18100436D01*
X8511253Y-18100436D02*
X8520777Y-18119484D01*
X8520777Y-18119484D02*
X8530300Y-18157579D01*
X8530300Y-18157579D02*
X8530300Y-18205198D01*
X8530300Y-18205198D02*
X8520777Y-18243294D01*
X8520777Y-18243294D02*
X8511253Y-18262341D01*
X8511253Y-18262341D02*
X8501729Y-18271865D01*
X8501729Y-18271865D02*
X8482681Y-18281389D01*
X8482681Y-18281389D02*
X8463634Y-18281389D01*
X8463634Y-18281389D02*
X8444586Y-18271865D01*
X8444586Y-18271865D02*
X8435062Y-18262341D01*
X8435062Y-18262341D02*
X8425539Y-18243294D01*
X8425539Y-18243294D02*
X8416015Y-18205198D01*
X8416015Y-18205198D02*
X8416015Y-18157579D01*
X8416015Y-18157579D02*
X8425539Y-18119484D01*
X8425539Y-18119484D02*
X8435062Y-18100436D01*
X8435062Y-18100436D02*
X8444586Y-18090913D01*
X8444586Y-18090913D02*
X8463634Y-18081389D01*
X8616015Y-18281389D02*
X8616015Y-18148055D01*
X8616015Y-18167103D02*
X8625539Y-18157579D01*
X8625539Y-18157579D02*
X8644586Y-18148055D01*
X8644586Y-18148055D02*
X8673158Y-18148055D01*
X8673158Y-18148055D02*
X8692205Y-18157579D01*
X8692205Y-18157579D02*
X8701729Y-18176627D01*
X8701729Y-18176627D02*
X8701729Y-18281389D01*
X8701729Y-18176627D02*
X8711253Y-18157579D01*
X8711253Y-18157579D02*
X8730300Y-18148055D01*
X8730300Y-18148055D02*
X8758872Y-18148055D01*
X8758872Y-18148055D02*
X8777920Y-18157579D01*
X8777920Y-18157579D02*
X8787443Y-18176627D01*
X8787443Y-18176627D02*
X8787443Y-18281389D01*
X8882681Y-18281389D02*
X8882681Y-18148055D01*
X8882681Y-18167103D02*
X8892205Y-18157579D01*
X8892205Y-18157579D02*
X8911253Y-18148055D01*
X8911253Y-18148055D02*
X8939824Y-18148055D01*
X8939824Y-18148055D02*
X8958872Y-18157579D01*
X8958872Y-18157579D02*
X8968396Y-18176627D01*
X8968396Y-18176627D02*
X8968396Y-18281389D01*
X8968396Y-18176627D02*
X8977920Y-18157579D01*
X8977920Y-18157579D02*
X8996967Y-18148055D01*
X8996967Y-18148055D02*
X9025539Y-18148055D01*
X9025539Y-18148055D02*
X9044586Y-18157579D01*
X9044586Y-18157579D02*
X9054110Y-18176627D01*
X9054110Y-18176627D02*
X9054110Y-18281389D01*
X9444586Y-18071865D02*
X9273158Y-18329008D01*
X9701729Y-18081389D02*
X9720777Y-18081389D01*
X9720777Y-18081389D02*
X9739824Y-18090913D01*
X9739824Y-18090913D02*
X9749348Y-18100436D01*
X9749348Y-18100436D02*
X9758872Y-18119484D01*
X9758872Y-18119484D02*
X9768396Y-18157579D01*
X9768396Y-18157579D02*
X9768396Y-18205198D01*
X9768396Y-18205198D02*
X9758872Y-18243294D01*
X9758872Y-18243294D02*
X9749348Y-18262341D01*
X9749348Y-18262341D02*
X9739824Y-18271865D01*
X9739824Y-18271865D02*
X9720777Y-18281389D01*
X9720777Y-18281389D02*
X9701729Y-18281389D01*
X9701729Y-18281389D02*
X9682682Y-18271865D01*
X9682682Y-18271865D02*
X9673158Y-18262341D01*
X9673158Y-18262341D02*
X9663634Y-18243294D01*
X9663634Y-18243294D02*
X9654110Y-18205198D01*
X9654110Y-18205198D02*
X9654110Y-18157579D01*
X9654110Y-18157579D02*
X9663634Y-18119484D01*
X9663634Y-18119484D02*
X9673158Y-18100436D01*
X9673158Y-18100436D02*
X9682682Y-18090913D01*
X9682682Y-18090913D02*
X9701729Y-18081389D01*
X9854110Y-18262341D02*
X9863634Y-18271865D01*
X9863634Y-18271865D02*
X9854110Y-18281389D01*
X9854110Y-18281389D02*
X9844586Y-18271865D01*
X9844586Y-18271865D02*
X9854110Y-18262341D01*
X9854110Y-18262341D02*
X9854110Y-18281389D01*
X10054110Y-18281389D02*
X9939824Y-18281389D01*
X9996967Y-18281389D02*
X9996967Y-18081389D01*
X9996967Y-18081389D02*
X9977920Y-18109960D01*
X9977920Y-18109960D02*
X9958872Y-18129008D01*
X9958872Y-18129008D02*
X9939824Y-18138532D01*
X10225539Y-18148055D02*
X10225539Y-18281389D01*
X10177920Y-18071865D02*
X10130301Y-18214722D01*
X10130301Y-18214722D02*
X10254110Y-18214722D01*
X10435063Y-18281389D02*
X10320777Y-18281389D01*
X10377920Y-18281389D02*
X10377920Y-18081389D01*
X10377920Y-18081389D02*
X10358872Y-18109960D01*
X10358872Y-18109960D02*
X10339824Y-18129008D01*
X10339824Y-18129008D02*
X10320777Y-18138532D01*
X10501729Y-18081389D02*
X10635063Y-18081389D01*
X10635063Y-18081389D02*
X10549348Y-18281389D01*
X10701729Y-18081389D02*
X10701729Y-18119484D01*
X10777920Y-18081389D02*
X10777920Y-18119484D01*
X11073158Y-18357579D02*
X11063634Y-18348055D01*
X11063634Y-18348055D02*
X11044586Y-18319484D01*
X11044586Y-18319484D02*
X11035063Y-18300436D01*
X11035063Y-18300436D02*
X11025539Y-18271865D01*
X11025539Y-18271865D02*
X11016015Y-18224246D01*
X11016015Y-18224246D02*
X11016015Y-18186151D01*
X11016015Y-18186151D02*
X11025539Y-18138532D01*
X11025539Y-18138532D02*
X11035063Y-18109960D01*
X11035063Y-18109960D02*
X11044586Y-18090913D01*
X11044586Y-18090913D02*
X11063634Y-18062341D01*
X11063634Y-18062341D02*
X11073158Y-18052817D01*
X11235063Y-18148055D02*
X11235063Y-18281389D01*
X11187443Y-18071865D02*
X11139825Y-18214722D01*
X11139825Y-18214722D02*
X11263634Y-18214722D01*
X11492205Y-18281389D02*
X11492205Y-18081389D01*
X11577920Y-18281389D02*
X11577920Y-18176627D01*
X11577920Y-18176627D02*
X11568396Y-18157579D01*
X11568396Y-18157579D02*
X11549348Y-18148055D01*
X11549348Y-18148055D02*
X11520777Y-18148055D01*
X11520777Y-18148055D02*
X11501729Y-18157579D01*
X11501729Y-18157579D02*
X11492205Y-18167103D01*
X11701729Y-18281389D02*
X11682682Y-18271865D01*
X11682682Y-18271865D02*
X11673158Y-18262341D01*
X11673158Y-18262341D02*
X11663634Y-18243294D01*
X11663634Y-18243294D02*
X11663634Y-18186151D01*
X11663634Y-18186151D02*
X11673158Y-18167103D01*
X11673158Y-18167103D02*
X11682682Y-18157579D01*
X11682682Y-18157579D02*
X11701729Y-18148055D01*
X11701729Y-18148055D02*
X11730301Y-18148055D01*
X11730301Y-18148055D02*
X11749348Y-18157579D01*
X11749348Y-18157579D02*
X11758872Y-18167103D01*
X11758872Y-18167103D02*
X11768396Y-18186151D01*
X11768396Y-18186151D02*
X11768396Y-18243294D01*
X11768396Y-18243294D02*
X11758872Y-18262341D01*
X11758872Y-18262341D02*
X11749348Y-18271865D01*
X11749348Y-18271865D02*
X11730301Y-18281389D01*
X11730301Y-18281389D02*
X11701729Y-18281389D01*
X11882682Y-18281389D02*
X11863634Y-18271865D01*
X11863634Y-18271865D02*
X11854110Y-18252817D01*
X11854110Y-18252817D02*
X11854110Y-18081389D01*
X12035063Y-18271865D02*
X12016015Y-18281389D01*
X12016015Y-18281389D02*
X11977920Y-18281389D01*
X11977920Y-18281389D02*
X11958872Y-18271865D01*
X11958872Y-18271865D02*
X11949348Y-18252817D01*
X11949348Y-18252817D02*
X11949348Y-18176627D01*
X11949348Y-18176627D02*
X11958872Y-18157579D01*
X11958872Y-18157579D02*
X11977920Y-18148055D01*
X11977920Y-18148055D02*
X12016015Y-18148055D01*
X12016015Y-18148055D02*
X12035063Y-18157579D01*
X12035063Y-18157579D02*
X12044586Y-18176627D01*
X12044586Y-18176627D02*
X12044586Y-18195675D01*
X12044586Y-18195675D02*
X11949348Y-18214722D01*
X12120777Y-18271865D02*
X12139825Y-18281389D01*
X12139825Y-18281389D02*
X12177920Y-18281389D01*
X12177920Y-18281389D02*
X12196967Y-18271865D01*
X12196967Y-18271865D02*
X12206491Y-18252817D01*
X12206491Y-18252817D02*
X12206491Y-18243294D01*
X12206491Y-18243294D02*
X12196967Y-18224246D01*
X12196967Y-18224246D02*
X12177920Y-18214722D01*
X12177920Y-18214722D02*
X12149348Y-18214722D01*
X12149348Y-18214722D02*
X12130301Y-18205198D01*
X12130301Y-18205198D02*
X12120777Y-18186151D01*
X12120777Y-18186151D02*
X12120777Y-18176627D01*
X12120777Y-18176627D02*
X12130301Y-18157579D01*
X12130301Y-18157579D02*
X12149348Y-18148055D01*
X12149348Y-18148055D02*
X12177920Y-18148055D01*
X12177920Y-18148055D02*
X12196967Y-18157579D01*
X12273158Y-18357579D02*
X12282682Y-18348055D01*
X12282682Y-18348055D02*
X12301729Y-18319484D01*
X12301729Y-18319484D02*
X12311253Y-18300436D01*
X12311253Y-18300436D02*
X12320777Y-18271865D01*
X12320777Y-18271865D02*
X12330301Y-18224246D01*
X12330301Y-18224246D02*
X12330301Y-18186151D01*
X12330301Y-18186151D02*
X12320777Y-18138532D01*
X12320777Y-18138532D02*
X12311253Y-18109960D01*
X12311253Y-18109960D02*
X12301729Y-18090913D01*
X12301729Y-18090913D02*
X12282682Y-18062341D01*
X12282682Y-18062341D02*
X12273158Y-18052817D01*
X7298095Y-18409905D02*
X7498095Y-18609905D01*
X7498095Y-18409905D02*
X7298095Y-18609905D01*
X7398095Y-18609905D02*
X7498095Y-18509905D01*
X7398095Y-18409905D01*
X7298095Y-18509905D01*
X7398095Y-18609905D01*
X7844586Y-18401389D02*
X7806491Y-18401389D01*
X7806491Y-18401389D02*
X7787443Y-18410913D01*
X7787443Y-18410913D02*
X7777919Y-18420436D01*
X7777919Y-18420436D02*
X7758872Y-18449008D01*
X7758872Y-18449008D02*
X7749348Y-18487103D01*
X7749348Y-18487103D02*
X7749348Y-18563294D01*
X7749348Y-18563294D02*
X7758872Y-18582341D01*
X7758872Y-18582341D02*
X7768396Y-18591865D01*
X7768396Y-18591865D02*
X7787443Y-18601389D01*
X7787443Y-18601389D02*
X7825538Y-18601389D01*
X7825538Y-18601389D02*
X7844586Y-18591865D01*
X7844586Y-18591865D02*
X7854110Y-18582341D01*
X7854110Y-18582341D02*
X7863634Y-18563294D01*
X7863634Y-18563294D02*
X7863634Y-18515675D01*
X7863634Y-18515675D02*
X7854110Y-18496627D01*
X7854110Y-18496627D02*
X7844586Y-18487103D01*
X7844586Y-18487103D02*
X7825538Y-18477579D01*
X7825538Y-18477579D02*
X7787443Y-18477579D01*
X7787443Y-18477579D02*
X7768396Y-18487103D01*
X7768396Y-18487103D02*
X7758872Y-18496627D01*
X7758872Y-18496627D02*
X7749348Y-18515675D01*
X7949348Y-18582341D02*
X7958872Y-18591865D01*
X7958872Y-18591865D02*
X7949348Y-18601389D01*
X7949348Y-18601389D02*
X7939824Y-18591865D01*
X7939824Y-18591865D02*
X7949348Y-18582341D01*
X7949348Y-18582341D02*
X7949348Y-18601389D01*
X8149348Y-18601389D02*
X8035062Y-18601389D01*
X8092205Y-18601389D02*
X8092205Y-18401389D01*
X8092205Y-18401389D02*
X8073157Y-18429960D01*
X8073157Y-18429960D02*
X8054110Y-18449008D01*
X8054110Y-18449008D02*
X8035062Y-18458532D01*
X8273157Y-18401389D02*
X8292205Y-18401389D01*
X8292205Y-18401389D02*
X8311253Y-18410913D01*
X8311253Y-18410913D02*
X8320777Y-18420436D01*
X8320777Y-18420436D02*
X8330300Y-18439484D01*
X8330300Y-18439484D02*
X8339824Y-18477579D01*
X8339824Y-18477579D02*
X8339824Y-18525198D01*
X8339824Y-18525198D02*
X8330300Y-18563294D01*
X8330300Y-18563294D02*
X8320777Y-18582341D01*
X8320777Y-18582341D02*
X8311253Y-18591865D01*
X8311253Y-18591865D02*
X8292205Y-18601389D01*
X8292205Y-18601389D02*
X8273157Y-18601389D01*
X8273157Y-18601389D02*
X8254110Y-18591865D01*
X8254110Y-18591865D02*
X8244586Y-18582341D01*
X8244586Y-18582341D02*
X8235062Y-18563294D01*
X8235062Y-18563294D02*
X8225538Y-18525198D01*
X8225538Y-18525198D02*
X8225538Y-18477579D01*
X8225538Y-18477579D02*
X8235062Y-18439484D01*
X8235062Y-18439484D02*
X8244586Y-18420436D01*
X8244586Y-18420436D02*
X8254110Y-18410913D01*
X8254110Y-18410913D02*
X8273157Y-18401389D01*
X8463634Y-18401389D02*
X8482681Y-18401389D01*
X8482681Y-18401389D02*
X8501729Y-18410913D01*
X8501729Y-18410913D02*
X8511253Y-18420436D01*
X8511253Y-18420436D02*
X8520777Y-18439484D01*
X8520777Y-18439484D02*
X8530300Y-18477579D01*
X8530300Y-18477579D02*
X8530300Y-18525198D01*
X8530300Y-18525198D02*
X8520777Y-18563294D01*
X8520777Y-18563294D02*
X8511253Y-18582341D01*
X8511253Y-18582341D02*
X8501729Y-18591865D01*
X8501729Y-18591865D02*
X8482681Y-18601389D01*
X8482681Y-18601389D02*
X8463634Y-18601389D01*
X8463634Y-18601389D02*
X8444586Y-18591865D01*
X8444586Y-18591865D02*
X8435062Y-18582341D01*
X8435062Y-18582341D02*
X8425539Y-18563294D01*
X8425539Y-18563294D02*
X8416015Y-18525198D01*
X8416015Y-18525198D02*
X8416015Y-18477579D01*
X8416015Y-18477579D02*
X8425539Y-18439484D01*
X8425539Y-18439484D02*
X8435062Y-18420436D01*
X8435062Y-18420436D02*
X8444586Y-18410913D01*
X8444586Y-18410913D02*
X8463634Y-18401389D01*
X8616015Y-18601389D02*
X8616015Y-18468055D01*
X8616015Y-18487103D02*
X8625539Y-18477579D01*
X8625539Y-18477579D02*
X8644586Y-18468055D01*
X8644586Y-18468055D02*
X8673158Y-18468055D01*
X8673158Y-18468055D02*
X8692205Y-18477579D01*
X8692205Y-18477579D02*
X8701729Y-18496627D01*
X8701729Y-18496627D02*
X8701729Y-18601389D01*
X8701729Y-18496627D02*
X8711253Y-18477579D01*
X8711253Y-18477579D02*
X8730300Y-18468055D01*
X8730300Y-18468055D02*
X8758872Y-18468055D01*
X8758872Y-18468055D02*
X8777920Y-18477579D01*
X8777920Y-18477579D02*
X8787443Y-18496627D01*
X8787443Y-18496627D02*
X8787443Y-18601389D01*
X8882681Y-18601389D02*
X8882681Y-18468055D01*
X8882681Y-18487103D02*
X8892205Y-18477579D01*
X8892205Y-18477579D02*
X8911253Y-18468055D01*
X8911253Y-18468055D02*
X8939824Y-18468055D01*
X8939824Y-18468055D02*
X8958872Y-18477579D01*
X8958872Y-18477579D02*
X8968396Y-18496627D01*
X8968396Y-18496627D02*
X8968396Y-18601389D01*
X8968396Y-18496627D02*
X8977920Y-18477579D01*
X8977920Y-18477579D02*
X8996967Y-18468055D01*
X8996967Y-18468055D02*
X9025539Y-18468055D01*
X9025539Y-18468055D02*
X9044586Y-18477579D01*
X9044586Y-18477579D02*
X9054110Y-18496627D01*
X9054110Y-18496627D02*
X9054110Y-18601389D01*
X9444586Y-18391865D02*
X9273158Y-18649008D01*
X9701729Y-18401389D02*
X9720777Y-18401389D01*
X9720777Y-18401389D02*
X9739824Y-18410913D01*
X9739824Y-18410913D02*
X9749348Y-18420436D01*
X9749348Y-18420436D02*
X9758872Y-18439484D01*
X9758872Y-18439484D02*
X9768396Y-18477579D01*
X9768396Y-18477579D02*
X9768396Y-18525198D01*
X9768396Y-18525198D02*
X9758872Y-18563294D01*
X9758872Y-18563294D02*
X9749348Y-18582341D01*
X9749348Y-18582341D02*
X9739824Y-18591865D01*
X9739824Y-18591865D02*
X9720777Y-18601389D01*
X9720777Y-18601389D02*
X9701729Y-18601389D01*
X9701729Y-18601389D02*
X9682682Y-18591865D01*
X9682682Y-18591865D02*
X9673158Y-18582341D01*
X9673158Y-18582341D02*
X9663634Y-18563294D01*
X9663634Y-18563294D02*
X9654110Y-18525198D01*
X9654110Y-18525198D02*
X9654110Y-18477579D01*
X9654110Y-18477579D02*
X9663634Y-18439484D01*
X9663634Y-18439484D02*
X9673158Y-18420436D01*
X9673158Y-18420436D02*
X9682682Y-18410913D01*
X9682682Y-18410913D02*
X9701729Y-18401389D01*
X9854110Y-18582341D02*
X9863634Y-18591865D01*
X9863634Y-18591865D02*
X9854110Y-18601389D01*
X9854110Y-18601389D02*
X9844586Y-18591865D01*
X9844586Y-18591865D02*
X9854110Y-18582341D01*
X9854110Y-18582341D02*
X9854110Y-18601389D01*
X9939824Y-18420436D02*
X9949348Y-18410913D01*
X9949348Y-18410913D02*
X9968396Y-18401389D01*
X9968396Y-18401389D02*
X10016015Y-18401389D01*
X10016015Y-18401389D02*
X10035063Y-18410913D01*
X10035063Y-18410913D02*
X10044586Y-18420436D01*
X10044586Y-18420436D02*
X10054110Y-18439484D01*
X10054110Y-18439484D02*
X10054110Y-18458532D01*
X10054110Y-18458532D02*
X10044586Y-18487103D01*
X10044586Y-18487103D02*
X9930301Y-18601389D01*
X9930301Y-18601389D02*
X10054110Y-18601389D01*
X10225539Y-18468055D02*
X10225539Y-18601389D01*
X10177920Y-18391865D02*
X10130301Y-18534722D01*
X10130301Y-18534722D02*
X10254110Y-18534722D01*
X10368396Y-18401389D02*
X10387444Y-18401389D01*
X10387444Y-18401389D02*
X10406491Y-18410913D01*
X10406491Y-18410913D02*
X10416015Y-18420436D01*
X10416015Y-18420436D02*
X10425539Y-18439484D01*
X10425539Y-18439484D02*
X10435063Y-18477579D01*
X10435063Y-18477579D02*
X10435063Y-18525198D01*
X10435063Y-18525198D02*
X10425539Y-18563294D01*
X10425539Y-18563294D02*
X10416015Y-18582341D01*
X10416015Y-18582341D02*
X10406491Y-18591865D01*
X10406491Y-18591865D02*
X10387444Y-18601389D01*
X10387444Y-18601389D02*
X10368396Y-18601389D01*
X10368396Y-18601389D02*
X10349348Y-18591865D01*
X10349348Y-18591865D02*
X10339824Y-18582341D01*
X10339824Y-18582341D02*
X10330301Y-18563294D01*
X10330301Y-18563294D02*
X10320777Y-18525198D01*
X10320777Y-18525198D02*
X10320777Y-18477579D01*
X10320777Y-18477579D02*
X10330301Y-18439484D01*
X10330301Y-18439484D02*
X10339824Y-18420436D01*
X10339824Y-18420436D02*
X10349348Y-18410913D01*
X10349348Y-18410913D02*
X10368396Y-18401389D01*
X10511253Y-18420436D02*
X10520777Y-18410913D01*
X10520777Y-18410913D02*
X10539824Y-18401389D01*
X10539824Y-18401389D02*
X10587444Y-18401389D01*
X10587444Y-18401389D02*
X10606491Y-18410913D01*
X10606491Y-18410913D02*
X10616015Y-18420436D01*
X10616015Y-18420436D02*
X10625539Y-18439484D01*
X10625539Y-18439484D02*
X10625539Y-18458532D01*
X10625539Y-18458532D02*
X10616015Y-18487103D01*
X10616015Y-18487103D02*
X10501729Y-18601389D01*
X10501729Y-18601389D02*
X10625539Y-18601389D01*
X10701729Y-18401389D02*
X10701729Y-18439484D01*
X10777920Y-18401389D02*
X10777920Y-18439484D01*
X11073158Y-18677579D02*
X11063634Y-18668055D01*
X11063634Y-18668055D02*
X11044586Y-18639484D01*
X11044586Y-18639484D02*
X11035063Y-18620436D01*
X11035063Y-18620436D02*
X11025539Y-18591865D01*
X11025539Y-18591865D02*
X11016015Y-18544246D01*
X11016015Y-18544246D02*
X11016015Y-18506151D01*
X11016015Y-18506151D02*
X11025539Y-18458532D01*
X11025539Y-18458532D02*
X11035063Y-18429960D01*
X11035063Y-18429960D02*
X11044586Y-18410913D01*
X11044586Y-18410913D02*
X11063634Y-18382341D01*
X11063634Y-18382341D02*
X11073158Y-18372817D01*
X11139825Y-18420436D02*
X11149348Y-18410913D01*
X11149348Y-18410913D02*
X11168396Y-18401389D01*
X11168396Y-18401389D02*
X11216015Y-18401389D01*
X11216015Y-18401389D02*
X11235063Y-18410913D01*
X11235063Y-18410913D02*
X11244586Y-18420436D01*
X11244586Y-18420436D02*
X11254110Y-18439484D01*
X11254110Y-18439484D02*
X11254110Y-18458532D01*
X11254110Y-18458532D02*
X11244586Y-18487103D01*
X11244586Y-18487103D02*
X11130301Y-18601389D01*
X11130301Y-18601389D02*
X11254110Y-18601389D01*
X11492205Y-18601389D02*
X11492205Y-18401389D01*
X11577920Y-18601389D02*
X11577920Y-18496627D01*
X11577920Y-18496627D02*
X11568396Y-18477579D01*
X11568396Y-18477579D02*
X11549348Y-18468055D01*
X11549348Y-18468055D02*
X11520777Y-18468055D01*
X11520777Y-18468055D02*
X11501729Y-18477579D01*
X11501729Y-18477579D02*
X11492205Y-18487103D01*
X11701729Y-18601389D02*
X11682682Y-18591865D01*
X11682682Y-18591865D02*
X11673158Y-18582341D01*
X11673158Y-18582341D02*
X11663634Y-18563294D01*
X11663634Y-18563294D02*
X11663634Y-18506151D01*
X11663634Y-18506151D02*
X11673158Y-18487103D01*
X11673158Y-18487103D02*
X11682682Y-18477579D01*
X11682682Y-18477579D02*
X11701729Y-18468055D01*
X11701729Y-18468055D02*
X11730301Y-18468055D01*
X11730301Y-18468055D02*
X11749348Y-18477579D01*
X11749348Y-18477579D02*
X11758872Y-18487103D01*
X11758872Y-18487103D02*
X11768396Y-18506151D01*
X11768396Y-18506151D02*
X11768396Y-18563294D01*
X11768396Y-18563294D02*
X11758872Y-18582341D01*
X11758872Y-18582341D02*
X11749348Y-18591865D01*
X11749348Y-18591865D02*
X11730301Y-18601389D01*
X11730301Y-18601389D02*
X11701729Y-18601389D01*
X11882682Y-18601389D02*
X11863634Y-18591865D01*
X11863634Y-18591865D02*
X11854110Y-18572817D01*
X11854110Y-18572817D02*
X11854110Y-18401389D01*
X12035063Y-18591865D02*
X12016015Y-18601389D01*
X12016015Y-18601389D02*
X11977920Y-18601389D01*
X11977920Y-18601389D02*
X11958872Y-18591865D01*
X11958872Y-18591865D02*
X11949348Y-18572817D01*
X11949348Y-18572817D02*
X11949348Y-18496627D01*
X11949348Y-18496627D02*
X11958872Y-18477579D01*
X11958872Y-18477579D02*
X11977920Y-18468055D01*
X11977920Y-18468055D02*
X12016015Y-18468055D01*
X12016015Y-18468055D02*
X12035063Y-18477579D01*
X12035063Y-18477579D02*
X12044586Y-18496627D01*
X12044586Y-18496627D02*
X12044586Y-18515675D01*
X12044586Y-18515675D02*
X11949348Y-18534722D01*
X12120777Y-18591865D02*
X12139825Y-18601389D01*
X12139825Y-18601389D02*
X12177920Y-18601389D01*
X12177920Y-18601389D02*
X12196967Y-18591865D01*
X12196967Y-18591865D02*
X12206491Y-18572817D01*
X12206491Y-18572817D02*
X12206491Y-18563294D01*
X12206491Y-18563294D02*
X12196967Y-18544246D01*
X12196967Y-18544246D02*
X12177920Y-18534722D01*
X12177920Y-18534722D02*
X12149348Y-18534722D01*
X12149348Y-18534722D02*
X12130301Y-18525198D01*
X12130301Y-18525198D02*
X12120777Y-18506151D01*
X12120777Y-18506151D02*
X12120777Y-18496627D01*
X12120777Y-18496627D02*
X12130301Y-18477579D01*
X12130301Y-18477579D02*
X12149348Y-18468055D01*
X12149348Y-18468055D02*
X12177920Y-18468055D01*
X12177920Y-18468055D02*
X12196967Y-18477579D01*
X12273158Y-18677579D02*
X12282682Y-18668055D01*
X12282682Y-18668055D02*
X12301729Y-18639484D01*
X12301729Y-18639484D02*
X12311253Y-18620436D01*
X12311253Y-18620436D02*
X12320777Y-18591865D01*
X12320777Y-18591865D02*
X12330301Y-18544246D01*
X12330301Y-18544246D02*
X12330301Y-18506151D01*
X12330301Y-18506151D02*
X12320777Y-18458532D01*
X12320777Y-18458532D02*
X12311253Y-18429960D01*
X12311253Y-18429960D02*
X12301729Y-18410913D01*
X12301729Y-18410913D02*
X12282682Y-18382341D01*
X12282682Y-18382341D02*
X12273158Y-18372817D01*
M02*
