G04 #@! TF.GenerationSoftware,KiCad,Pcbnew,9.0.5*
G04 #@! TF.CreationDate,2025-10-15T10:33:44-04:00*
G04 #@! TF.ProjectId,TEST_project,54455354-5f70-4726-9f6a-6563742e6b69,rev?*
G04 #@! TF.SameCoordinates,Original*
G04 #@! TF.FileFunction,Copper,L1,Top*
G04 #@! TF.FilePolarity,Positive*
%FSLAX46Y46*%
G04 Gerber Fmt 4.6, Leading zero omitted, Abs format (unit mm)*
G04 Created by KiCad (PCBNEW 9.0.5) date 2025-10-15 10:33:44*
%MOMM*%
%LPD*%
G01*
G04 APERTURE LIST*
G04 Aperture macros list*
%AMRoundRect*
0 Rectangle with rounded corners*
0 $1 Rounding radius*
0 $2 $3 $4 $5 $6 $7 $8 $9 X,Y pos of 4 corners*
0 Add a 4 corners polygon primitive as box body*
4,1,4,$2,$3,$4,$5,$6,$7,$8,$9,$2,$3,0*
0 Add four circle primitives for the rounded corners*
1,1,$1+$1,$2,$3*
1,1,$1+$1,$4,$5*
1,1,$1+$1,$6,$7*
1,1,$1+$1,$8,$9*
0 Add four rect primitives between the rounded corners*
20,1,$1+$1,$2,$3,$4,$5,0*
20,1,$1+$1,$4,$5,$6,$7,0*
20,1,$1+$1,$6,$7,$8,$9,0*
20,1,$1+$1,$8,$9,$2,$3,0*%
G04 Aperture macros list end*
G04 #@! TA.AperFunction,ComponentPad*
%ADD10C,1.600000*%
G04 #@! TD*
G04 #@! TA.AperFunction,ComponentPad*
%ADD11C,2.550000*%
G04 #@! TD*
G04 #@! TA.AperFunction,ComponentPad*
%ADD12R,1.700000X1.700000*%
G04 #@! TD*
G04 #@! TA.AperFunction,ComponentPad*
%ADD13C,1.700000*%
G04 #@! TD*
G04 #@! TA.AperFunction,ComponentPad*
%ADD14C,1.778000*%
G04 #@! TD*
G04 #@! TA.AperFunction,ComponentPad*
%ADD15C,2.286000*%
G04 #@! TD*
G04 #@! TA.AperFunction,ComponentPad*
%ADD16R,2.600000X1.500000*%
G04 #@! TD*
G04 #@! TA.AperFunction,ComponentPad*
%ADD17C,10.160000*%
G04 #@! TD*
G04 #@! TA.AperFunction,ComponentPad*
%ADD18RoundRect,0.250000X-0.550000X1.050000X-0.550000X-1.050000X0.550000X-1.050000X0.550000X1.050000X0*%
G04 #@! TD*
G04 #@! TA.AperFunction,ComponentPad*
%ADD19O,1.600000X2.600000*%
G04 #@! TD*
G04 #@! TA.AperFunction,ViaPad*
%ADD20C,4.200000*%
G04 #@! TD*
G04 #@! TA.AperFunction,ViaPad*
%ADD21C,0.600000*%
G04 #@! TD*
G04 #@! TA.AperFunction,ViaPad*
%ADD22C,1.200000*%
G04 #@! TD*
G04 #@! TA.AperFunction,Conductor*
%ADD23C,0.200000*%
G04 #@! TD*
G04 #@! TA.AperFunction,Conductor*
%ADD24C,0.600000*%
G04 #@! TD*
G04 #@! TA.AperFunction,Conductor*
%ADD25C,1.000000*%
G04 #@! TD*
G04 APERTURE END LIST*
D10*
X133500000Y-27410500D03*
X141000000Y-27410500D03*
D11*
X143680000Y-73114000D03*
X146728000Y-73114000D03*
X149776000Y-73114000D03*
X152824000Y-73114000D03*
X155872000Y-73114000D03*
X158920000Y-73114000D03*
X161968000Y-73114000D03*
X165016000Y-73114000D03*
D12*
X157375000Y-26789500D03*
D13*
X157375000Y-24249500D03*
X159915000Y-26789500D03*
X159915000Y-24249500D03*
X162455000Y-26789500D03*
X162455000Y-24249500D03*
X164995000Y-26789500D03*
X164995000Y-24249500D03*
D14*
X226825000Y-87300000D03*
X233175000Y-87300000D03*
X226825000Y-92380000D03*
X233175000Y-92380000D03*
X227460000Y-110160000D03*
X230000000Y-110160000D03*
X232540000Y-110160000D03*
D15*
X222380000Y-93332500D03*
X222380000Y-106667500D03*
X237620000Y-106667500D03*
X237620000Y-93332500D03*
D14*
X219840000Y-97460000D03*
X219840000Y-100000000D03*
X219840000Y-102540000D03*
X92825000Y-87300000D03*
X99175000Y-87300000D03*
X92825000Y-92380000D03*
X99175000Y-92380000D03*
X93460000Y-110160000D03*
X96000000Y-110160000D03*
X98540000Y-110160000D03*
D15*
X88380000Y-93332500D03*
X88380000Y-106667500D03*
X103620000Y-106667500D03*
X103620000Y-93332500D03*
D14*
X85840000Y-97460000D03*
X85840000Y-100000000D03*
X85840000Y-102540000D03*
D16*
X133500000Y-124500000D03*
X133600000Y-129200000D03*
D17*
X148000000Y-134000000D03*
X177970000Y-134000000D03*
D18*
X182050000Y-89666219D03*
D19*
X179510000Y-89666219D03*
X176970000Y-89666219D03*
X174430000Y-89666219D03*
X171890000Y-89666219D03*
X169350000Y-89666219D03*
X166810000Y-89666219D03*
X164270000Y-89666219D03*
X161730000Y-89666219D03*
X159190000Y-89666219D03*
X156650000Y-89666219D03*
X154110000Y-89666219D03*
X151570000Y-89666219D03*
X149030000Y-89666219D03*
X146490000Y-89666219D03*
X143950000Y-89666219D03*
X143950000Y-109386219D03*
X146490000Y-109386219D03*
X149030000Y-109386219D03*
X151570000Y-109386219D03*
X154110000Y-109386219D03*
X156650000Y-109386219D03*
X159190000Y-109386219D03*
X161730000Y-109386219D03*
X164270000Y-109386219D03*
X166810000Y-109386219D03*
X169350000Y-109386219D03*
X171890000Y-109386219D03*
D20*
X213000000Y-149000000D03*
X113000000Y-149000000D03*
X213000000Y-72000000D03*
X113000000Y-72000000D03*
D21*
X144000000Y-97000000D03*
X145000000Y-101000000D03*
X173249500Y-24249500D03*
X175000000Y-77000000D03*
X149000000Y-78000000D03*
D22*
X136000000Y-43000000D03*
D21*
X180000000Y-97000000D03*
X127000000Y-73114000D03*
X154000000Y-99000000D03*
X179000000Y-108000000D03*
X167000000Y-97000000D03*
D23*
X154000000Y-32000000D02*
X151000000Y-32000000D01*
X151000000Y-32000000D02*
X128000000Y-55000000D01*
X136000000Y-97000000D02*
X144000000Y-97000000D01*
X128000000Y-89000000D02*
X136000000Y-97000000D01*
X128000000Y-55000000D02*
X128000000Y-89000000D01*
X159915000Y-26789500D02*
X154704500Y-32000000D01*
X154704500Y-32000000D02*
X154000000Y-32000000D01*
X96000000Y-112000000D02*
X96000000Y-110160000D01*
X133000000Y-113000000D02*
X97000000Y-113000000D01*
X145000000Y-101000000D02*
X133000000Y-113000000D01*
X97000000Y-113000000D02*
X96000000Y-112000000D01*
X237000000Y-118000000D02*
X154803781Y-118000000D01*
X230125000Y-84000000D02*
X236000000Y-84000000D01*
X226825000Y-87300000D02*
X230125000Y-84000000D01*
X236000000Y-84000000D02*
X244000000Y-92000000D01*
X154803781Y-118000000D02*
X146490000Y-109686219D01*
X244000000Y-111000000D02*
X237000000Y-118000000D01*
X244000000Y-92000000D02*
X244000000Y-111000000D01*
X219840000Y-100000000D02*
X174903781Y-100000000D01*
X174903781Y-100000000D02*
X164270000Y-89366219D01*
X143950000Y-109686219D02*
X133636219Y-120000000D01*
X80000000Y-111000000D02*
X80000000Y-92000000D01*
X133636219Y-120000000D02*
X89000000Y-120000000D01*
X80000000Y-92000000D02*
X84700000Y-87300000D01*
X89000000Y-120000000D02*
X80000000Y-111000000D01*
X84700000Y-87300000D02*
X92825000Y-87300000D01*
X154110000Y-77448000D02*
X154110000Y-89366219D01*
X149776000Y-73114000D02*
X154110000Y-77448000D01*
X168000000Y-21000000D02*
X161000000Y-21000000D01*
X161000000Y-21000000D02*
X159915000Y-22085000D01*
X161730000Y-89366219D02*
X157096219Y-94000000D01*
X170000000Y-23000000D02*
X168000000Y-21000000D01*
X159915000Y-22085000D02*
X159915000Y-24249500D01*
X170000000Y-32000000D02*
X170000000Y-23000000D01*
X169000000Y-33000000D02*
X170000000Y-32000000D01*
X129000000Y-85000000D02*
X129000000Y-56000000D01*
X129000000Y-56000000D02*
X152000000Y-33000000D01*
X157096219Y-94000000D02*
X138000000Y-94000000D01*
X152000000Y-33000000D02*
X169000000Y-33000000D01*
X138000000Y-94000000D02*
X129000000Y-85000000D01*
X224000000Y-96000000D02*
X230000000Y-102000000D01*
X173443781Y-96000000D02*
X224000000Y-96000000D01*
X230000000Y-102000000D02*
X230000000Y-110160000D01*
X166810000Y-89366219D02*
X173443781Y-96000000D01*
X173249500Y-24249500D02*
X175000000Y-26000000D01*
X175000000Y-26000000D02*
X175000000Y-77000000D01*
X143950000Y-83050000D02*
X149000000Y-78000000D01*
X143950000Y-89366219D02*
X143950000Y-83050000D01*
X125886000Y-73114000D02*
X101540000Y-97460000D01*
D24*
X133500000Y-27410500D02*
X133500000Y-40500000D01*
D23*
X85840000Y-97460000D02*
X93460000Y-105080000D01*
X101540000Y-97460000D02*
X85840000Y-97460000D01*
X93460000Y-110160000D02*
X93460000Y-110000000D01*
X227460000Y-101460000D02*
X227460000Y-110160000D01*
X180460000Y-97460000D02*
X180000000Y-97000000D01*
D24*
X179510000Y-83510000D02*
X179510000Y-89366219D01*
D23*
X219840000Y-97460000D02*
X180460000Y-97460000D01*
X127000000Y-73114000D02*
X125886000Y-73114000D01*
D24*
X133500000Y-40500000D02*
X136000000Y-43000000D01*
X166000000Y-70000000D02*
X179510000Y-83510000D01*
X133500000Y-27410500D02*
X136661000Y-24249500D01*
X143680000Y-73114000D02*
X146794000Y-70000000D01*
X146794000Y-70000000D02*
X166000000Y-70000000D01*
D23*
X223460000Y-97460000D02*
X227460000Y-101460000D01*
D24*
X136661000Y-24249500D02*
X157375000Y-24249500D01*
D23*
X219840000Y-97460000D02*
X223460000Y-97460000D01*
X93460000Y-105080000D02*
X93460000Y-110160000D01*
X152824000Y-73114000D02*
X156650000Y-76940000D01*
X156650000Y-76940000D02*
X156650000Y-89366219D01*
X170000000Y-99000000D02*
X154000000Y-99000000D01*
X179000000Y-108000000D02*
X170000000Y-99000000D01*
X85840000Y-100000000D02*
X84000000Y-101840000D01*
X84000000Y-101840000D02*
X84000000Y-112000000D01*
X131000000Y-118000000D02*
X152000000Y-97000000D01*
X152000000Y-97000000D02*
X167000000Y-97000000D01*
X90000000Y-118000000D02*
X131000000Y-118000000D01*
X84000000Y-112000000D02*
X90000000Y-118000000D01*
D25*
X143200000Y-129200000D02*
X148000000Y-134000000D01*
X133600000Y-129200000D02*
X143200000Y-129200000D01*
G04 #@! TA.AperFunction,Conductor*
G36*
X187808363Y-19520185D02*
G01*
X187829005Y-19536819D01*
X194463181Y-26170995D01*
X194496666Y-26232318D01*
X194499500Y-26258676D01*
X194499500Y-49989002D01*
X194497089Y-50043844D01*
X194499500Y-50054735D01*
X194499500Y-50065892D01*
X194513709Y-50118921D01*
X194525573Y-50172514D01*
X194530719Y-50182408D01*
X194533608Y-50193188D01*
X194559685Y-50238354D01*
X194562304Y-50243129D01*
X194586385Y-50289422D01*
X194586387Y-50289424D01*
X194586388Y-50289426D01*
X194593922Y-50297653D01*
X194599500Y-50307314D01*
X194638321Y-50346135D01*
X194675391Y-50386614D01*
X194675395Y-50386618D01*
X194681617Y-50391842D01*
X194681563Y-50391905D01*
X194686190Y-50395620D01*
X194686241Y-50395554D01*
X194692682Y-50400496D01*
X194692686Y-50400500D01*
X194737890Y-50426598D01*
X194742545Y-50429424D01*
X250442158Y-85937928D01*
X250488105Y-85990563D01*
X250499500Y-86042487D01*
X250499500Y-133757788D01*
X250479815Y-133824827D01*
X250467072Y-133841397D01*
X245227022Y-139580500D01*
X234282098Y-151567798D01*
X229816118Y-156459109D01*
X229756379Y-156495344D01*
X229724546Y-156499500D01*
X96275454Y-156499500D01*
X96208415Y-156479815D01*
X96183882Y-156459109D01*
X89313212Y-148934089D01*
X89240043Y-148853952D01*
X110399500Y-148853952D01*
X110399500Y-149146047D01*
X110432199Y-149436271D01*
X110432202Y-149436285D01*
X110497196Y-149721044D01*
X110497197Y-149721046D01*
X110593665Y-149996738D01*
X110720393Y-150259890D01*
X110720395Y-150259893D01*
X110875792Y-150507206D01*
X111057902Y-150735565D01*
X111264435Y-150942098D01*
X111492794Y-151124208D01*
X111740107Y-151279605D01*
X112003263Y-151406335D01*
X112278955Y-151502803D01*
X112563714Y-151567798D01*
X112563723Y-151567799D01*
X112563728Y-151567800D01*
X112757210Y-151589599D01*
X112853953Y-151600499D01*
X112853956Y-151600500D01*
X112853959Y-151600500D01*
X113146044Y-151600500D01*
X113146045Y-151600499D01*
X113294371Y-151583787D01*
X113436271Y-151567800D01*
X113436274Y-151567799D01*
X113436286Y-151567798D01*
X113721045Y-151502803D01*
X113996737Y-151406335D01*
X114259893Y-151279605D01*
X114507206Y-151124208D01*
X114735565Y-150942098D01*
X114942098Y-150735565D01*
X115124208Y-150507206D01*
X115279605Y-150259893D01*
X115406335Y-149996737D01*
X115502803Y-149721045D01*
X115567798Y-149436286D01*
X115600500Y-149146041D01*
X115600500Y-148853959D01*
X115600499Y-148853952D01*
X210399500Y-148853952D01*
X210399500Y-149146047D01*
X210432199Y-149436271D01*
X210432202Y-149436285D01*
X210497196Y-149721044D01*
X210497197Y-149721046D01*
X210593665Y-149996738D01*
X210720393Y-150259890D01*
X210720395Y-150259893D01*
X210875792Y-150507206D01*
X211057902Y-150735565D01*
X211264435Y-150942098D01*
X211492794Y-151124208D01*
X211740107Y-151279605D01*
X212003263Y-151406335D01*
X212278955Y-151502803D01*
X212563714Y-151567798D01*
X212563723Y-151567799D01*
X212563728Y-151567800D01*
X212757210Y-151589599D01*
X212853953Y-151600499D01*
X212853956Y-151600500D01*
X212853959Y-151600500D01*
X213146044Y-151600500D01*
X213146045Y-151600499D01*
X213294371Y-151583787D01*
X213436271Y-151567800D01*
X213436274Y-151567799D01*
X213436286Y-151567798D01*
X213721045Y-151502803D01*
X213996737Y-151406335D01*
X214259893Y-151279605D01*
X214507206Y-151124208D01*
X214735565Y-150942098D01*
X214942098Y-150735565D01*
X215124208Y-150507206D01*
X215279605Y-150259893D01*
X215406335Y-149996737D01*
X215502803Y-149721045D01*
X215567798Y-149436286D01*
X215600500Y-149146041D01*
X215600500Y-148853959D01*
X215567798Y-148563714D01*
X215502803Y-148278955D01*
X215406335Y-148003263D01*
X215279605Y-147740107D01*
X215124208Y-147492794D01*
X214942098Y-147264435D01*
X214735565Y-147057902D01*
X214507206Y-146875792D01*
X214259893Y-146720395D01*
X214259890Y-146720393D01*
X213996738Y-146593665D01*
X213721046Y-146497197D01*
X213721044Y-146497196D01*
X213501280Y-146447036D01*
X213436286Y-146432202D01*
X213436283Y-146432201D01*
X213436271Y-146432199D01*
X213146047Y-146399500D01*
X213146041Y-146399500D01*
X212853959Y-146399500D01*
X212853952Y-146399500D01*
X212563728Y-146432199D01*
X212563714Y-146432202D01*
X212278955Y-146497196D01*
X212278953Y-146497197D01*
X212003261Y-146593665D01*
X211740109Y-146720393D01*
X211492795Y-146875791D01*
X211264435Y-147057901D01*
X211057901Y-147264435D01*
X210875791Y-147492795D01*
X210720393Y-147740109D01*
X210593665Y-148003261D01*
X210497197Y-148278953D01*
X210497196Y-148278955D01*
X210432202Y-148563714D01*
X210432199Y-148563728D01*
X210399500Y-148853952D01*
X115600499Y-148853952D01*
X115567798Y-148563714D01*
X115502803Y-148278955D01*
X115406335Y-148003263D01*
X115279605Y-147740107D01*
X115124208Y-147492794D01*
X114942098Y-147264435D01*
X114735565Y-147057902D01*
X114507206Y-146875792D01*
X114259893Y-146720395D01*
X114259890Y-146720393D01*
X113996738Y-146593665D01*
X113721046Y-146497197D01*
X113721044Y-146497196D01*
X113501280Y-146447036D01*
X113436286Y-146432202D01*
X113436283Y-146432201D01*
X113436271Y-146432199D01*
X113146047Y-146399500D01*
X113146041Y-146399500D01*
X112853959Y-146399500D01*
X112853952Y-146399500D01*
X112563728Y-146432199D01*
X112563714Y-146432202D01*
X112278955Y-146497196D01*
X112278953Y-146497197D01*
X112003261Y-146593665D01*
X111740109Y-146720393D01*
X111492795Y-146875791D01*
X111264435Y-147057901D01*
X111057901Y-147264435D01*
X110875791Y-147492795D01*
X110720393Y-147740109D01*
X110593665Y-148003261D01*
X110497197Y-148278953D01*
X110497196Y-148278955D01*
X110432202Y-148563714D01*
X110432199Y-148563728D01*
X110399500Y-148853952D01*
X89240043Y-148853952D01*
X75532928Y-133841397D01*
X75502262Y-133778617D01*
X75500500Y-133757788D01*
X75500500Y-128402135D01*
X131799500Y-128402135D01*
X131799500Y-129997870D01*
X131799501Y-129997876D01*
X131805908Y-130057483D01*
X131856202Y-130192328D01*
X131856206Y-130192335D01*
X131942452Y-130307544D01*
X131942455Y-130307547D01*
X132057664Y-130393793D01*
X132057671Y-130393797D01*
X132192517Y-130444091D01*
X132192516Y-130444091D01*
X132199444Y-130444835D01*
X132252127Y-130450500D01*
X134947872Y-130450499D01*
X135007483Y-130444091D01*
X135142331Y-130393796D01*
X135257546Y-130307546D01*
X135284227Y-130271903D01*
X135300485Y-130250188D01*
X135356419Y-130208318D01*
X135399751Y-130200500D01*
X142734218Y-130200500D01*
X142801257Y-130220185D01*
X142821899Y-130236819D01*
X143335127Y-130750047D01*
X143368612Y-130811370D01*
X143363628Y-130881062D01*
X143353173Y-130902518D01*
X143127289Y-131271125D01*
X143127286Y-131271131D01*
X142928197Y-131661867D01*
X142928191Y-131661880D01*
X142760380Y-132067008D01*
X142624878Y-132484046D01*
X142624871Y-132484069D01*
X142522503Y-132910460D01*
X142453905Y-133343574D01*
X142453905Y-133343575D01*
X142419500Y-133780736D01*
X142419500Y-134219263D01*
X142453905Y-134656424D01*
X142453905Y-134656425D01*
X142522503Y-135089539D01*
X142522504Y-135089542D01*
X142624874Y-135515942D01*
X142624878Y-135515953D01*
X142760380Y-135932991D01*
X142928110Y-136337923D01*
X142928197Y-136338133D01*
X143006280Y-136491380D01*
X143127286Y-136728868D01*
X143127289Y-136728873D01*
X143356397Y-137102742D01*
X143356405Y-137102753D01*
X143614151Y-137457512D01*
X143614161Y-137457526D01*
X143878621Y-137767167D01*
X143898951Y-137790970D01*
X144209030Y-138101049D01*
X144209036Y-138101054D01*
X144542473Y-138385838D01*
X144542480Y-138385843D01*
X144897248Y-138643596D01*
X144897252Y-138643598D01*
X144897257Y-138643602D01*
X145271126Y-138872710D01*
X145271131Y-138872713D01*
X145271136Y-138872715D01*
X145271145Y-138872721D01*
X145661867Y-139071803D01*
X146065873Y-139239149D01*
X146067008Y-139239619D01*
X146173050Y-139274073D01*
X146484058Y-139375126D01*
X146910458Y-139477496D01*
X147343576Y-139546095D01*
X147780742Y-139580500D01*
X147780750Y-139580500D01*
X148219250Y-139580500D01*
X148219258Y-139580500D01*
X148656424Y-139546095D01*
X149089542Y-139477496D01*
X149515942Y-139375126D01*
X149932997Y-139239617D01*
X150338133Y-139071803D01*
X150728855Y-138872721D01*
X151102752Y-138643596D01*
X151457520Y-138385843D01*
X151790970Y-138101049D01*
X152101049Y-137790970D01*
X152385843Y-137457520D01*
X152643596Y-137102752D01*
X152872721Y-136728855D01*
X153071803Y-136338133D01*
X153239617Y-135932997D01*
X153239676Y-135932817D01*
X153244252Y-135918729D01*
X153375126Y-135515942D01*
X153477496Y-135089542D01*
X153546095Y-134656424D01*
X153580500Y-134219258D01*
X153580500Y-133780755D01*
X172390000Y-133780755D01*
X172390000Y-134219244D01*
X172424402Y-134656355D01*
X172424404Y-134656374D01*
X172492995Y-135089438D01*
X172595353Y-135515794D01*
X172595360Y-135515817D01*
X172730850Y-135932817D01*
X172898646Y-136337910D01*
X172898652Y-136337923D01*
X173097723Y-136728623D01*
X173097726Y-136728629D01*
X173326810Y-137102458D01*
X173326824Y-137102480D01*
X173584554Y-137457213D01*
X173584566Y-137457228D01*
X173849279Y-137767167D01*
X175642818Y-135973627D01*
X175692208Y-136035560D01*
X175934440Y-136277792D01*
X175996371Y-136327180D01*
X174202831Y-138120719D01*
X174202831Y-138120720D01*
X174512771Y-138385433D01*
X174512786Y-138385445D01*
X174867519Y-138643175D01*
X174867541Y-138643189D01*
X175241370Y-138872273D01*
X175241376Y-138872276D01*
X175632076Y-139071347D01*
X175632089Y-139071353D01*
X176037182Y-139239149D01*
X176454182Y-139374639D01*
X176454205Y-139374646D01*
X176880561Y-139477004D01*
X177313625Y-139545595D01*
X177313644Y-139545597D01*
X177750755Y-139579999D01*
X177750769Y-139580000D01*
X178189231Y-139580000D01*
X178189244Y-139579999D01*
X178626355Y-139545597D01*
X178626374Y-139545595D01*
X179059438Y-139477004D01*
X179485794Y-139374646D01*
X179485817Y-139374639D01*
X179902817Y-139239149D01*
X180307910Y-139071353D01*
X180307923Y-139071347D01*
X180698623Y-138872276D01*
X180698629Y-138872273D01*
X181072458Y-138643189D01*
X181072480Y-138643175D01*
X181427213Y-138385445D01*
X181427215Y-138385443D01*
X181737167Y-138120719D01*
X179943628Y-136327180D01*
X180005560Y-136277792D01*
X180247792Y-136035560D01*
X180297180Y-135973628D01*
X182090719Y-137767167D01*
X182355443Y-137457215D01*
X182355445Y-137457213D01*
X182613175Y-137102480D01*
X182613189Y-137102458D01*
X182842273Y-136728629D01*
X182842276Y-136728623D01*
X183041347Y-136337923D01*
X183041353Y-136337910D01*
X183209149Y-135932817D01*
X183344639Y-135515817D01*
X183344646Y-135515794D01*
X183447004Y-135089438D01*
X183515595Y-134656374D01*
X183515597Y-134656355D01*
X183549999Y-134219244D01*
X183550000Y-134219231D01*
X183550000Y-133780768D01*
X183549999Y-133780755D01*
X183515597Y-133343644D01*
X183515595Y-133343625D01*
X183447004Y-132910561D01*
X183344646Y-132484205D01*
X183344639Y-132484182D01*
X183209149Y-132067182D01*
X183041353Y-131662089D01*
X183041347Y-131662076D01*
X182842276Y-131271376D01*
X182842273Y-131271370D01*
X182613189Y-130897541D01*
X182613175Y-130897519D01*
X182355445Y-130542786D01*
X182355433Y-130542771D01*
X182090719Y-130232831D01*
X180297180Y-132026370D01*
X180247792Y-131964440D01*
X180005560Y-131722208D01*
X179943627Y-131672818D01*
X181737167Y-129879279D01*
X181737167Y-129879278D01*
X181427228Y-129614566D01*
X181427213Y-129614554D01*
X181072480Y-129356824D01*
X181072458Y-129356810D01*
X180698629Y-129127726D01*
X180698623Y-129127723D01*
X180307923Y-128928652D01*
X180307910Y-128928646D01*
X179902817Y-128760850D01*
X179485817Y-128625360D01*
X179485794Y-128625353D01*
X179059438Y-128522995D01*
X178626374Y-128454404D01*
X178626355Y-128454402D01*
X178189244Y-128420000D01*
X177750755Y-128420000D01*
X177313644Y-128454402D01*
X177313625Y-128454404D01*
X176880561Y-128522995D01*
X176454205Y-128625353D01*
X176454182Y-128625360D01*
X176037182Y-128760850D01*
X175632089Y-128928646D01*
X175632076Y-128928652D01*
X175241376Y-129127723D01*
X175241370Y-129127726D01*
X174867541Y-129356810D01*
X174867519Y-129356824D01*
X174512786Y-129614554D01*
X174202831Y-129879279D01*
X175996371Y-131672819D01*
X175934440Y-131722208D01*
X175692208Y-131964440D01*
X175642819Y-132026371D01*
X173849279Y-130232831D01*
X173584554Y-130542786D01*
X173326824Y-130897519D01*
X173326810Y-130897541D01*
X173097726Y-131271370D01*
X173097723Y-131271376D01*
X172898652Y-131662076D01*
X172898646Y-131662089D01*
X172730850Y-132067182D01*
X172595360Y-132484182D01*
X172595353Y-132484205D01*
X172492995Y-132910561D01*
X172424404Y-133343625D01*
X172424402Y-133343644D01*
X172390000Y-133780755D01*
X153580500Y-133780755D01*
X153580500Y-133780742D01*
X153546095Y-133343576D01*
X153477496Y-132910458D01*
X153375126Y-132484058D01*
X153274073Y-132173050D01*
X153239619Y-132067008D01*
X153071895Y-131662089D01*
X153071803Y-131661867D01*
X152872721Y-131271145D01*
X152872715Y-131271136D01*
X152872713Y-131271131D01*
X152872710Y-131271126D01*
X152643602Y-130897257D01*
X152643598Y-130897252D01*
X152643596Y-130897248D01*
X152385843Y-130542480D01*
X152385838Y-130542473D01*
X152101054Y-130209036D01*
X152101049Y-130209030D01*
X151790970Y-129898951D01*
X151767936Y-129879278D01*
X151457526Y-129614161D01*
X151457512Y-129614151D01*
X151103330Y-129356824D01*
X151102752Y-129356404D01*
X151102749Y-129356402D01*
X151102742Y-129356397D01*
X150728873Y-129127289D01*
X150728868Y-129127286D01*
X150728858Y-129127281D01*
X150728855Y-129127279D01*
X150338133Y-128928197D01*
X150338119Y-128928191D01*
X149932991Y-128760380D01*
X149636256Y-128663966D01*
X149515942Y-128624874D01*
X149273044Y-128566559D01*
X149089539Y-128522503D01*
X148656425Y-128453905D01*
X148219263Y-128419500D01*
X148219258Y-128419500D01*
X147780742Y-128419500D01*
X147780736Y-128419500D01*
X147343575Y-128453905D01*
X147343574Y-128453905D01*
X146910460Y-128522503D01*
X146484069Y-128624871D01*
X146484063Y-128624872D01*
X146484058Y-128624874D01*
X146455523Y-128634145D01*
X146067008Y-128760380D01*
X145661880Y-128928191D01*
X145661867Y-128928197D01*
X145271131Y-129127286D01*
X145271125Y-129127289D01*
X144902518Y-129353173D01*
X144835072Y-129371418D01*
X144768470Y-129350302D01*
X144750047Y-129335127D01*
X143981479Y-128566559D01*
X143981459Y-128566537D01*
X143837785Y-128422863D01*
X143837781Y-128422860D01*
X143673920Y-128313371D01*
X143673911Y-128313366D01*
X143601315Y-128283296D01*
X143545165Y-128260038D01*
X143491836Y-128237949D01*
X143491832Y-128237948D01*
X143491828Y-128237946D01*
X143395188Y-128218724D01*
X143298544Y-128199500D01*
X143298541Y-128199500D01*
X135399751Y-128199500D01*
X135332712Y-128179815D01*
X135300485Y-128149812D01*
X135257548Y-128092457D01*
X135257546Y-128092454D01*
X135257542Y-128092451D01*
X135142335Y-128006206D01*
X135142328Y-128006202D01*
X135007482Y-127955908D01*
X135007483Y-127955908D01*
X134947883Y-127949501D01*
X134947881Y-127949500D01*
X134947873Y-127949500D01*
X134947864Y-127949500D01*
X132252129Y-127949500D01*
X132252123Y-127949501D01*
X132192516Y-127955908D01*
X132057671Y-128006202D01*
X132057664Y-128006206D01*
X131942455Y-128092452D01*
X131942452Y-128092455D01*
X131856206Y-128207664D01*
X131856202Y-128207671D01*
X131805908Y-128342517D01*
X131799501Y-128402116D01*
X131799500Y-128402135D01*
X75500500Y-128402135D01*
X75500500Y-123702135D01*
X131699500Y-123702135D01*
X131699500Y-125297870D01*
X131699501Y-125297876D01*
X131705908Y-125357483D01*
X131756202Y-125492328D01*
X131756206Y-125492335D01*
X131842452Y-125607544D01*
X131842455Y-125607547D01*
X131957664Y-125693793D01*
X131957671Y-125693797D01*
X132092517Y-125744091D01*
X132092516Y-125744091D01*
X132099444Y-125744835D01*
X132152127Y-125750500D01*
X134847872Y-125750499D01*
X134907483Y-125744091D01*
X135042331Y-125693796D01*
X135157546Y-125607546D01*
X135243796Y-125492331D01*
X135294091Y-125357483D01*
X135300500Y-125297873D01*
X135300499Y-123702128D01*
X135294091Y-123642517D01*
X135243796Y-123507669D01*
X135243795Y-123507668D01*
X135243793Y-123507664D01*
X135157547Y-123392455D01*
X135157544Y-123392452D01*
X135042335Y-123306206D01*
X135042328Y-123306202D01*
X134907482Y-123255908D01*
X134907483Y-123255908D01*
X134847883Y-123249501D01*
X134847881Y-123249500D01*
X134847873Y-123249500D01*
X134847864Y-123249500D01*
X132152129Y-123249500D01*
X132152123Y-123249501D01*
X132092516Y-123255908D01*
X131957671Y-123306202D01*
X131957664Y-123306206D01*
X131842455Y-123392452D01*
X131842452Y-123392455D01*
X131756206Y-123507664D01*
X131756202Y-123507671D01*
X131705908Y-123642517D01*
X131699501Y-123702116D01*
X131699501Y-123702123D01*
X131699500Y-123702135D01*
X75500500Y-123702135D01*
X75500500Y-111079054D01*
X79399498Y-111079054D01*
X79440423Y-111231785D01*
X79469358Y-111281900D01*
X79469359Y-111281904D01*
X79469360Y-111281904D01*
X79507755Y-111348408D01*
X79519479Y-111368714D01*
X79519481Y-111368717D01*
X79638349Y-111487585D01*
X79638355Y-111487590D01*
X88515139Y-120364374D01*
X88515149Y-120364385D01*
X88519479Y-120368715D01*
X88519480Y-120368716D01*
X88631284Y-120480520D01*
X88718095Y-120530639D01*
X88718097Y-120530641D01*
X88756151Y-120552611D01*
X88768215Y-120559577D01*
X88920943Y-120600500D01*
X89079057Y-120600500D01*
X133549550Y-120600500D01*
X133549566Y-120600501D01*
X133557162Y-120600501D01*
X133715273Y-120600501D01*
X133715276Y-120600501D01*
X133868004Y-120559577D01*
X133918123Y-120530639D01*
X134004935Y-120480520D01*
X134116739Y-120368716D01*
X134116739Y-120368714D01*
X134126947Y-120358507D01*
X134126949Y-120358504D01*
X143593799Y-110891653D01*
X143655120Y-110858170D01*
X143705667Y-110857719D01*
X143752995Y-110867133D01*
X143851456Y-110886719D01*
X143851459Y-110886719D01*
X144048543Y-110886719D01*
X144194332Y-110857719D01*
X144241835Y-110848270D01*
X144423914Y-110772851D01*
X144587782Y-110663358D01*
X144727139Y-110524001D01*
X144836632Y-110360133D01*
X144912051Y-110178054D01*
X144937396Y-110050638D01*
X144950500Y-109984762D01*
X145489499Y-109984762D01*
X145527947Y-110178048D01*
X145527950Y-110178058D01*
X145603364Y-110360126D01*
X145603371Y-110360139D01*
X145712860Y-110524000D01*
X145712863Y-110524004D01*
X145852214Y-110663355D01*
X145852218Y-110663358D01*
X146016079Y-110772847D01*
X146016092Y-110772854D01*
X146183327Y-110842124D01*
X146198165Y-110848270D01*
X146198169Y-110848270D01*
X146198170Y-110848271D01*
X146391456Y-110886719D01*
X146391459Y-110886719D01*
X146588542Y-110886719D01*
X146616556Y-110881146D01*
X146734330Y-110857719D01*
X146803919Y-110863946D01*
X146846201Y-110891655D01*
X154318920Y-118364374D01*
X154318930Y-118364385D01*
X154323260Y-118368715D01*
X154323261Y-118368716D01*
X154435065Y-118480520D01*
X154521876Y-118530639D01*
X154521878Y-118530641D01*
X154559932Y-118552611D01*
X154571996Y-118559577D01*
X154724724Y-118600501D01*
X154724727Y-118600501D01*
X154890434Y-118600501D01*
X154890450Y-118600500D01*
X236913331Y-118600500D01*
X236913347Y-118600501D01*
X236920943Y-118600501D01*
X237079054Y-118600501D01*
X237079057Y-118600501D01*
X237231785Y-118559577D01*
X237281904Y-118530639D01*
X237368716Y-118480520D01*
X237480520Y-118368716D01*
X237480520Y-118368714D01*
X237490728Y-118358507D01*
X237490730Y-118358504D01*
X244368713Y-111480521D01*
X244368716Y-111480520D01*
X244480520Y-111368716D01*
X244530639Y-111281904D01*
X244559577Y-111231785D01*
X244600501Y-111079057D01*
X244600501Y-110920943D01*
X244600501Y-110913348D01*
X244600500Y-110913330D01*
X244600500Y-91920945D01*
X244600500Y-91920943D01*
X244559577Y-91768216D01*
X244537488Y-91729956D01*
X244480524Y-91631290D01*
X244480521Y-91631286D01*
X244480520Y-91631284D01*
X244368716Y-91519480D01*
X244368715Y-91519479D01*
X244364385Y-91515149D01*
X244364374Y-91515139D01*
X236487590Y-83638355D01*
X236487588Y-83638352D01*
X236368717Y-83519481D01*
X236368716Y-83519480D01*
X236281904Y-83469360D01*
X236281904Y-83469359D01*
X236281900Y-83469358D01*
X236231785Y-83440423D01*
X236079057Y-83399499D01*
X235920943Y-83399499D01*
X235913347Y-83399499D01*
X235913331Y-83399500D01*
X230211670Y-83399500D01*
X230211654Y-83399499D01*
X230204058Y-83399499D01*
X230045943Y-83399499D01*
X229969579Y-83419961D01*
X229893214Y-83440423D01*
X229893209Y-83440426D01*
X229756290Y-83519475D01*
X229756282Y-83519481D01*
X227340472Y-85935290D01*
X227279149Y-85968775D01*
X227214473Y-85965540D01*
X227150376Y-85944714D01*
X226934361Y-85910500D01*
X226934356Y-85910500D01*
X226715644Y-85910500D01*
X226715639Y-85910500D01*
X226499623Y-85944714D01*
X226291619Y-86012297D01*
X226291616Y-86012298D01*
X226096739Y-86111595D01*
X225919806Y-86240142D01*
X225765142Y-86394806D01*
X225636595Y-86571739D01*
X225537298Y-86766616D01*
X225537297Y-86766619D01*
X225469714Y-86974623D01*
X225435500Y-87190638D01*
X225435500Y-87409361D01*
X225469714Y-87625376D01*
X225537297Y-87833380D01*
X225537298Y-87833383D01*
X225636595Y-88028260D01*
X225765142Y-88205193D01*
X225919806Y-88359857D01*
X226085374Y-88480147D01*
X226096743Y-88488407D01*
X226224132Y-88553315D01*
X226291616Y-88587701D01*
X226291619Y-88587702D01*
X226395621Y-88621493D01*
X226499625Y-88655286D01*
X226599672Y-88671132D01*
X226715639Y-88689500D01*
X226715644Y-88689500D01*
X226934361Y-88689500D01*
X227039082Y-88672912D01*
X227150375Y-88655286D01*
X227358383Y-88587701D01*
X227553257Y-88488407D01*
X227670348Y-88403336D01*
X227730193Y-88359857D01*
X227730195Y-88359854D01*
X227730199Y-88359852D01*
X227884852Y-88205199D01*
X227884854Y-88205195D01*
X227884857Y-88205193D01*
X227941229Y-88127601D01*
X228013407Y-88028257D01*
X228112701Y-87833383D01*
X228180286Y-87625375D01*
X228197912Y-87514082D01*
X228214500Y-87409361D01*
X228214500Y-87190638D01*
X231785500Y-87190638D01*
X231785500Y-87409361D01*
X231819714Y-87625376D01*
X231887297Y-87833380D01*
X231887298Y-87833383D01*
X231986595Y-88028260D01*
X232115142Y-88205193D01*
X232269806Y-88359857D01*
X232435374Y-88480147D01*
X232446743Y-88488407D01*
X232574132Y-88553315D01*
X232641616Y-88587701D01*
X232641619Y-88587702D01*
X232745621Y-88621493D01*
X232849625Y-88655286D01*
X232949672Y-88671132D01*
X233065639Y-88689500D01*
X233065644Y-88689500D01*
X233284361Y-88689500D01*
X233389082Y-88672912D01*
X233500375Y-88655286D01*
X233708383Y-88587701D01*
X233903257Y-88488407D01*
X234020348Y-88403336D01*
X234080193Y-88359857D01*
X234080195Y-88359854D01*
X234080199Y-88359852D01*
X234234852Y-88205199D01*
X234234854Y-88205195D01*
X234234857Y-88205193D01*
X234291229Y-88127601D01*
X234363407Y-88028257D01*
X234462701Y-87833383D01*
X234530286Y-87625375D01*
X234547912Y-87514082D01*
X234564500Y-87409361D01*
X234564500Y-87190638D01*
X234544595Y-87064971D01*
X234530286Y-86974625D01*
X234479877Y-86819480D01*
X234462702Y-86766619D01*
X234462701Y-86766616D01*
X234394005Y-86631795D01*
X234363407Y-86571743D01*
X234355147Y-86560374D01*
X234234857Y-86394806D01*
X234080193Y-86240142D01*
X233903260Y-86111595D01*
X233903259Y-86111594D01*
X233903257Y-86111593D01*
X233840825Y-86079782D01*
X233708383Y-86012298D01*
X233708380Y-86012297D01*
X233500376Y-85944714D01*
X233284361Y-85910500D01*
X233284356Y-85910500D01*
X233065644Y-85910500D01*
X233065639Y-85910500D01*
X232849623Y-85944714D01*
X232641619Y-86012297D01*
X232641616Y-86012298D01*
X232446739Y-86111595D01*
X232269806Y-86240142D01*
X232115142Y-86394806D01*
X231986595Y-86571739D01*
X231887298Y-86766616D01*
X231887297Y-86766619D01*
X231819714Y-86974623D01*
X231785500Y-87190638D01*
X228214500Y-87190638D01*
X228194595Y-87064971D01*
X228180286Y-86974625D01*
X228159459Y-86910524D01*
X228157464Y-86840682D01*
X228189707Y-86784527D01*
X230337417Y-84636819D01*
X230398740Y-84603334D01*
X230425098Y-84600500D01*
X235699903Y-84600500D01*
X235766942Y-84620185D01*
X235787584Y-84636819D01*
X243363181Y-92212416D01*
X243396666Y-92273739D01*
X243399500Y-92300097D01*
X243399500Y-110699903D01*
X243379815Y-110766942D01*
X243363181Y-110787584D01*
X236787584Y-117363181D01*
X236726261Y-117396666D01*
X236699903Y-117399500D01*
X155103878Y-117399500D01*
X155036839Y-117379815D01*
X155016197Y-117363181D01*
X148731514Y-111078498D01*
X148698029Y-111017175D01*
X148703013Y-110947483D01*
X148744885Y-110891550D01*
X148810349Y-110867133D01*
X148843385Y-110869199D01*
X148872131Y-110874917D01*
X148931457Y-110886719D01*
X148931459Y-110886719D01*
X149128543Y-110886719D01*
X149274332Y-110857719D01*
X149321835Y-110848270D01*
X149503914Y-110772851D01*
X149667782Y-110663358D01*
X149807139Y-110524001D01*
X149916632Y-110360133D01*
X149992051Y-110178054D01*
X150017396Y-110050638D01*
X150030500Y-109984762D01*
X150569499Y-109984762D01*
X150607947Y-110178048D01*
X150607950Y-110178058D01*
X150683364Y-110360126D01*
X150683371Y-110360139D01*
X150792860Y-110524000D01*
X150792863Y-110524004D01*
X150932214Y-110663355D01*
X150932218Y-110663358D01*
X151096079Y-110772847D01*
X151096092Y-110772854D01*
X151263327Y-110842124D01*
X151278165Y-110848270D01*
X151278169Y-110848270D01*
X151278170Y-110848271D01*
X151471456Y-110886719D01*
X151471459Y-110886719D01*
X151668543Y-110886719D01*
X151814332Y-110857719D01*
X151861835Y-110848270D01*
X152043914Y-110772851D01*
X152207782Y-110663358D01*
X152347139Y-110524001D01*
X152456632Y-110360133D01*
X152532051Y-110178054D01*
X152557396Y-110050638D01*
X152570500Y-109984762D01*
X153109499Y-109984762D01*
X153147947Y-110178048D01*
X153147950Y-110178058D01*
X153223364Y-110360126D01*
X153223371Y-110360139D01*
X153332860Y-110524000D01*
X153332863Y-110524004D01*
X153472214Y-110663355D01*
X153472218Y-110663358D01*
X153636079Y-110772847D01*
X153636092Y-110772854D01*
X153803327Y-110842124D01*
X153818165Y-110848270D01*
X153818169Y-110848270D01*
X153818170Y-110848271D01*
X154011456Y-110886719D01*
X154011459Y-110886719D01*
X154208543Y-110886719D01*
X154354332Y-110857719D01*
X154401835Y-110848270D01*
X154583914Y-110772851D01*
X154747782Y-110663358D01*
X154887139Y-110524001D01*
X154996632Y-110360133D01*
X155072051Y-110178054D01*
X155097396Y-110050638D01*
X155110500Y-109984762D01*
X155649499Y-109984762D01*
X155687947Y-110178048D01*
X155687950Y-110178058D01*
X155763364Y-110360126D01*
X155763371Y-110360139D01*
X155872860Y-110524000D01*
X155872863Y-110524004D01*
X156012214Y-110663355D01*
X156012218Y-110663358D01*
X156176079Y-110772847D01*
X156176092Y-110772854D01*
X156343327Y-110842124D01*
X156358165Y-110848270D01*
X156358169Y-110848270D01*
X156358170Y-110848271D01*
X156551456Y-110886719D01*
X156551459Y-110886719D01*
X156748543Y-110886719D01*
X156894332Y-110857719D01*
X156941835Y-110848270D01*
X157123914Y-110772851D01*
X157287782Y-110663358D01*
X157427139Y-110524001D01*
X157536632Y-110360133D01*
X157612051Y-110178054D01*
X157637396Y-110050638D01*
X157650500Y-109984762D01*
X158189499Y-109984762D01*
X158227947Y-110178048D01*
X158227950Y-110178058D01*
X158303364Y-110360126D01*
X158303371Y-110360139D01*
X158412860Y-110524000D01*
X158412863Y-110524004D01*
X158552214Y-110663355D01*
X158552218Y-110663358D01*
X158716079Y-110772847D01*
X158716092Y-110772854D01*
X158883327Y-110842124D01*
X158898165Y-110848270D01*
X158898169Y-110848270D01*
X158898170Y-110848271D01*
X159091456Y-110886719D01*
X159091459Y-110886719D01*
X159288543Y-110886719D01*
X159434332Y-110857719D01*
X159481835Y-110848270D01*
X159663914Y-110772851D01*
X159827782Y-110663358D01*
X159967139Y-110524001D01*
X160076632Y-110360133D01*
X160152051Y-110178054D01*
X160177396Y-110050638D01*
X160190500Y-109984762D01*
X160729499Y-109984762D01*
X160767947Y-110178048D01*
X160767950Y-110178058D01*
X160843364Y-110360126D01*
X160843371Y-110360139D01*
X160952860Y-110524000D01*
X160952863Y-110524004D01*
X161092214Y-110663355D01*
X161092218Y-110663358D01*
X161256079Y-110772847D01*
X161256092Y-110772854D01*
X161423327Y-110842124D01*
X161438165Y-110848270D01*
X161438169Y-110848270D01*
X161438170Y-110848271D01*
X161631456Y-110886719D01*
X161631459Y-110886719D01*
X161828543Y-110886719D01*
X161974332Y-110857719D01*
X162021835Y-110848270D01*
X162203914Y-110772851D01*
X162367782Y-110663358D01*
X162507139Y-110524001D01*
X162616632Y-110360133D01*
X162692051Y-110178054D01*
X162717396Y-110050638D01*
X162730500Y-109984762D01*
X163269499Y-109984762D01*
X163307947Y-110178048D01*
X163307950Y-110178058D01*
X163383364Y-110360126D01*
X163383371Y-110360139D01*
X163492860Y-110524000D01*
X163492863Y-110524004D01*
X163632214Y-110663355D01*
X163632218Y-110663358D01*
X163796079Y-110772847D01*
X163796092Y-110772854D01*
X163963327Y-110842124D01*
X163978165Y-110848270D01*
X163978169Y-110848270D01*
X163978170Y-110848271D01*
X164171456Y-110886719D01*
X164171459Y-110886719D01*
X164368543Y-110886719D01*
X164514332Y-110857719D01*
X164561835Y-110848270D01*
X164743914Y-110772851D01*
X164907782Y-110663358D01*
X165047139Y-110524001D01*
X165156632Y-110360133D01*
X165232051Y-110178054D01*
X165257396Y-110050638D01*
X165270500Y-109984762D01*
X165809499Y-109984762D01*
X165847947Y-110178048D01*
X165847950Y-110178058D01*
X165923364Y-110360126D01*
X165923371Y-110360139D01*
X166032860Y-110524000D01*
X166032863Y-110524004D01*
X166172214Y-110663355D01*
X166172218Y-110663358D01*
X166336079Y-110772847D01*
X166336092Y-110772854D01*
X166503327Y-110842124D01*
X166518165Y-110848270D01*
X166518169Y-110848270D01*
X166518170Y-110848271D01*
X166711456Y-110886719D01*
X166711459Y-110886719D01*
X166908543Y-110886719D01*
X167054332Y-110857719D01*
X167101835Y-110848270D01*
X167283914Y-110772851D01*
X167447782Y-110663358D01*
X167587139Y-110524001D01*
X167696632Y-110360133D01*
X167772051Y-110178054D01*
X167797396Y-110050638D01*
X167810500Y-109984762D01*
X168349499Y-109984762D01*
X168387947Y-110178048D01*
X168387950Y-110178058D01*
X168463364Y-110360126D01*
X168463371Y-110360139D01*
X168572860Y-110524000D01*
X168572863Y-110524004D01*
X168712214Y-110663355D01*
X168712218Y-110663358D01*
X168876079Y-110772847D01*
X168876092Y-110772854D01*
X169043327Y-110842124D01*
X169058165Y-110848270D01*
X169058169Y-110848270D01*
X169058170Y-110848271D01*
X169251456Y-110886719D01*
X169251459Y-110886719D01*
X169448543Y-110886719D01*
X169594332Y-110857719D01*
X169641835Y-110848270D01*
X169823914Y-110772851D01*
X169987782Y-110663358D01*
X170127139Y-110524001D01*
X170236632Y-110360133D01*
X170312051Y-110178054D01*
X170337396Y-110050638D01*
X170350500Y-109984762D01*
X170889499Y-109984762D01*
X170927947Y-110178048D01*
X170927950Y-110178058D01*
X171003364Y-110360126D01*
X171003371Y-110360139D01*
X171112860Y-110524000D01*
X171112863Y-110524004D01*
X171252214Y-110663355D01*
X171252218Y-110663358D01*
X171416079Y-110772847D01*
X171416092Y-110772854D01*
X171583327Y-110842124D01*
X171598165Y-110848270D01*
X171598169Y-110848270D01*
X171598170Y-110848271D01*
X171791456Y-110886719D01*
X171791459Y-110886719D01*
X171988543Y-110886719D01*
X172134332Y-110857719D01*
X172181835Y-110848270D01*
X172363914Y-110772851D01*
X172527782Y-110663358D01*
X172667139Y-110524001D01*
X172776632Y-110360133D01*
X172852051Y-110178054D01*
X172877396Y-110050638D01*
X172890500Y-109984762D01*
X172890500Y-108787675D01*
X172852052Y-108594389D01*
X172852051Y-108594388D01*
X172852051Y-108594384D01*
X172852049Y-108594379D01*
X172776635Y-108412311D01*
X172776628Y-108412298D01*
X172667139Y-108248437D01*
X172667136Y-108248433D01*
X172527785Y-108109082D01*
X172527781Y-108109079D01*
X172363920Y-107999590D01*
X172363907Y-107999583D01*
X172181839Y-107924169D01*
X172181829Y-107924166D01*
X171988543Y-107885719D01*
X171988541Y-107885719D01*
X171791459Y-107885719D01*
X171791457Y-107885719D01*
X171598170Y-107924166D01*
X171598160Y-107924169D01*
X171416092Y-107999583D01*
X171416079Y-107999590D01*
X171252218Y-108109079D01*
X171252214Y-108109082D01*
X171112863Y-108248433D01*
X171112860Y-108248437D01*
X171003371Y-108412298D01*
X171003364Y-108412311D01*
X170927950Y-108594379D01*
X170927947Y-108594389D01*
X170889500Y-108787675D01*
X170889500Y-108787678D01*
X170889500Y-109984760D01*
X170889500Y-109984762D01*
X170889499Y-109984762D01*
X170350500Y-109984762D01*
X170350500Y-108787675D01*
X170312052Y-108594389D01*
X170312051Y-108594388D01*
X170312051Y-108594384D01*
X170312049Y-108594379D01*
X170236635Y-108412311D01*
X170236628Y-108412298D01*
X170127139Y-108248437D01*
X170127136Y-108248433D01*
X169987785Y-108109082D01*
X169987781Y-108109079D01*
X169823920Y-107999590D01*
X169823907Y-107999583D01*
X169641839Y-107924169D01*
X169641829Y-107924166D01*
X169448543Y-107885719D01*
X169448541Y-107885719D01*
X169251459Y-107885719D01*
X169251457Y-107885719D01*
X169058170Y-107924166D01*
X169058160Y-107924169D01*
X168876092Y-107999583D01*
X168876079Y-107999590D01*
X168712218Y-108109079D01*
X168712214Y-108109082D01*
X168572863Y-108248433D01*
X168572860Y-108248437D01*
X168463371Y-108412298D01*
X168463364Y-108412311D01*
X168387950Y-108594379D01*
X168387947Y-108594389D01*
X168349500Y-108787675D01*
X168349500Y-108787678D01*
X168349500Y-109984760D01*
X168349500Y-109984762D01*
X168349499Y-109984762D01*
X167810500Y-109984762D01*
X167810500Y-108787675D01*
X167772052Y-108594389D01*
X167772051Y-108594388D01*
X167772051Y-108594384D01*
X167772049Y-108594379D01*
X167696635Y-108412311D01*
X167696628Y-108412298D01*
X167587139Y-108248437D01*
X167587136Y-108248433D01*
X167447785Y-108109082D01*
X167447781Y-108109079D01*
X167283920Y-107999590D01*
X167283907Y-107999583D01*
X167101839Y-107924169D01*
X167101829Y-107924166D01*
X166908543Y-107885719D01*
X166908541Y-107885719D01*
X166711459Y-107885719D01*
X166711457Y-107885719D01*
X166518170Y-107924166D01*
X166518160Y-107924169D01*
X166336092Y-107999583D01*
X166336079Y-107999590D01*
X166172218Y-108109079D01*
X166172214Y-108109082D01*
X166032863Y-108248433D01*
X166032860Y-108248437D01*
X165923371Y-108412298D01*
X165923364Y-108412311D01*
X165847950Y-108594379D01*
X165847947Y-108594389D01*
X165809500Y-108787675D01*
X165809500Y-108787678D01*
X165809500Y-109984760D01*
X165809500Y-109984762D01*
X165809499Y-109984762D01*
X165270500Y-109984762D01*
X165270500Y-108787675D01*
X165232052Y-108594389D01*
X165232051Y-108594388D01*
X165232051Y-108594384D01*
X165232049Y-108594379D01*
X165156635Y-108412311D01*
X165156628Y-108412298D01*
X165047139Y-108248437D01*
X165047136Y-108248433D01*
X164907785Y-108109082D01*
X164907781Y-108109079D01*
X164743920Y-107999590D01*
X164743907Y-107999583D01*
X164561839Y-107924169D01*
X164561829Y-107924166D01*
X164368543Y-107885719D01*
X164368541Y-107885719D01*
X164171459Y-107885719D01*
X164171457Y-107885719D01*
X163978170Y-107924166D01*
X163978160Y-107924169D01*
X163796092Y-107999583D01*
X163796079Y-107999590D01*
X163632218Y-108109079D01*
X163632214Y-108109082D01*
X163492863Y-108248433D01*
X163492860Y-108248437D01*
X163383371Y-108412298D01*
X163383364Y-108412311D01*
X163307950Y-108594379D01*
X163307947Y-108594389D01*
X163269500Y-108787675D01*
X163269500Y-108787678D01*
X163269500Y-109984760D01*
X163269500Y-109984762D01*
X163269499Y-109984762D01*
X162730500Y-109984762D01*
X162730500Y-108787675D01*
X162692052Y-108594389D01*
X162692051Y-108594388D01*
X162692051Y-108594384D01*
X162692049Y-108594379D01*
X162616635Y-108412311D01*
X162616628Y-108412298D01*
X162507139Y-108248437D01*
X162507136Y-108248433D01*
X162367785Y-108109082D01*
X162367781Y-108109079D01*
X162203920Y-107999590D01*
X162203907Y-107999583D01*
X162021839Y-107924169D01*
X162021829Y-107924166D01*
X161828543Y-107885719D01*
X161828541Y-107885719D01*
X161631459Y-107885719D01*
X161631457Y-107885719D01*
X161438170Y-107924166D01*
X161438160Y-107924169D01*
X161256092Y-107999583D01*
X161256079Y-107999590D01*
X161092218Y-108109079D01*
X161092214Y-108109082D01*
X160952863Y-108248433D01*
X160952860Y-108248437D01*
X160843371Y-108412298D01*
X160843364Y-108412311D01*
X160767950Y-108594379D01*
X160767947Y-108594389D01*
X160729500Y-108787675D01*
X160729500Y-108787678D01*
X160729500Y-109984760D01*
X160729500Y-109984762D01*
X160729499Y-109984762D01*
X160190500Y-109984762D01*
X160190500Y-108787675D01*
X160152052Y-108594389D01*
X160152051Y-108594388D01*
X160152051Y-108594384D01*
X160152049Y-108594379D01*
X160076635Y-108412311D01*
X160076628Y-108412298D01*
X159967139Y-108248437D01*
X159967136Y-108248433D01*
X159827785Y-108109082D01*
X159827781Y-108109079D01*
X159663920Y-107999590D01*
X159663907Y-107999583D01*
X159481839Y-107924169D01*
X159481829Y-107924166D01*
X159288543Y-107885719D01*
X159288541Y-107885719D01*
X159091459Y-107885719D01*
X159091457Y-107885719D01*
X158898170Y-107924166D01*
X158898160Y-107924169D01*
X158716092Y-107999583D01*
X158716079Y-107999590D01*
X158552218Y-108109079D01*
X158552214Y-108109082D01*
X158412863Y-108248433D01*
X158412860Y-108248437D01*
X158303371Y-108412298D01*
X158303364Y-108412311D01*
X158227950Y-108594379D01*
X158227947Y-108594389D01*
X158189500Y-108787675D01*
X158189500Y-108787678D01*
X158189500Y-109984760D01*
X158189500Y-109984762D01*
X158189499Y-109984762D01*
X157650500Y-109984762D01*
X157650500Y-108787675D01*
X157612052Y-108594389D01*
X157612051Y-108594388D01*
X157612051Y-108594384D01*
X157612049Y-108594379D01*
X157536635Y-108412311D01*
X157536628Y-108412298D01*
X157427139Y-108248437D01*
X157427136Y-108248433D01*
X157287785Y-108109082D01*
X157287781Y-108109079D01*
X157123920Y-107999590D01*
X157123907Y-107999583D01*
X156941839Y-107924169D01*
X156941829Y-107924166D01*
X156748543Y-107885719D01*
X156748541Y-107885719D01*
X156551459Y-107885719D01*
X156551457Y-107885719D01*
X156358170Y-107924166D01*
X156358160Y-107924169D01*
X156176092Y-107999583D01*
X156176079Y-107999590D01*
X156012218Y-108109079D01*
X156012214Y-108109082D01*
X155872863Y-108248433D01*
X155872860Y-108248437D01*
X155763371Y-108412298D01*
X155763364Y-108412311D01*
X155687950Y-108594379D01*
X155687947Y-108594389D01*
X155649500Y-108787675D01*
X155649500Y-108787678D01*
X155649500Y-109984760D01*
X155649500Y-109984762D01*
X155649499Y-109984762D01*
X155110500Y-109984762D01*
X155110500Y-108787675D01*
X155072052Y-108594389D01*
X155072051Y-108594388D01*
X155072051Y-108594384D01*
X155072049Y-108594379D01*
X154996635Y-108412311D01*
X154996628Y-108412298D01*
X154887139Y-108248437D01*
X154887136Y-108248433D01*
X154747785Y-108109082D01*
X154747781Y-108109079D01*
X154583920Y-107999590D01*
X154583907Y-107999583D01*
X154401839Y-107924169D01*
X154401829Y-107924166D01*
X154208543Y-107885719D01*
X154208541Y-107885719D01*
X154011459Y-107885719D01*
X154011457Y-107885719D01*
X153818170Y-107924166D01*
X153818160Y-107924169D01*
X153636092Y-107999583D01*
X153636079Y-107999590D01*
X153472218Y-108109079D01*
X153472214Y-108109082D01*
X153332863Y-108248433D01*
X153332860Y-108248437D01*
X153223371Y-108412298D01*
X153223364Y-108412311D01*
X153147950Y-108594379D01*
X153147947Y-108594389D01*
X153109500Y-108787675D01*
X153109500Y-108787678D01*
X153109500Y-109984760D01*
X153109500Y-109984762D01*
X153109499Y-109984762D01*
X152570500Y-109984762D01*
X152570500Y-108787675D01*
X152532052Y-108594389D01*
X152532051Y-108594388D01*
X152532051Y-108594384D01*
X152532049Y-108594379D01*
X152456635Y-108412311D01*
X152456628Y-108412298D01*
X152347139Y-108248437D01*
X152347136Y-108248433D01*
X152207785Y-108109082D01*
X152207781Y-108109079D01*
X152043920Y-107999590D01*
X152043907Y-107999583D01*
X151861839Y-107924169D01*
X151861829Y-107924166D01*
X151668543Y-107885719D01*
X151668541Y-107885719D01*
X151471459Y-107885719D01*
X151471457Y-107885719D01*
X151278170Y-107924166D01*
X151278160Y-107924169D01*
X151096092Y-107999583D01*
X151096079Y-107999590D01*
X150932218Y-108109079D01*
X150932214Y-108109082D01*
X150792863Y-108248433D01*
X150792860Y-108248437D01*
X150683371Y-108412298D01*
X150683364Y-108412311D01*
X150607950Y-108594379D01*
X150607947Y-108594389D01*
X150569500Y-108787675D01*
X150569500Y-108787678D01*
X150569500Y-109984760D01*
X150569500Y-109984762D01*
X150569499Y-109984762D01*
X150030500Y-109984762D01*
X150030500Y-108787675D01*
X149992052Y-108594389D01*
X149992051Y-108594388D01*
X149992051Y-108594384D01*
X149992049Y-108594379D01*
X149916635Y-108412311D01*
X149916628Y-108412298D01*
X149807139Y-108248437D01*
X149807136Y-108248433D01*
X149667785Y-108109082D01*
X149667781Y-108109079D01*
X149503920Y-107999590D01*
X149503907Y-107999583D01*
X149321839Y-107924169D01*
X149321829Y-107924166D01*
X149128543Y-107885719D01*
X149128541Y-107885719D01*
X148931459Y-107885719D01*
X148931457Y-107885719D01*
X148738170Y-107924166D01*
X148738160Y-107924169D01*
X148556092Y-107999583D01*
X148556079Y-107999590D01*
X148392218Y-108109079D01*
X148392214Y-108109082D01*
X148252863Y-108248433D01*
X148252860Y-108248437D01*
X148143371Y-108412298D01*
X148143364Y-108412311D01*
X148067950Y-108594379D01*
X148067947Y-108594389D01*
X148029500Y-108787675D01*
X148029500Y-109984764D01*
X148047018Y-110072832D01*
X148040791Y-110142423D01*
X147997928Y-110197601D01*
X147932038Y-110220845D01*
X147864041Y-110204777D01*
X147837720Y-110184704D01*
X147526819Y-109873803D01*
X147493334Y-109812480D01*
X147490500Y-109786122D01*
X147490500Y-108787675D01*
X147452052Y-108594389D01*
X147452051Y-108594388D01*
X147452051Y-108594384D01*
X147452049Y-108594379D01*
X147376635Y-108412311D01*
X147376628Y-108412298D01*
X147267139Y-108248437D01*
X147267136Y-108248433D01*
X147127785Y-108109082D01*
X147127781Y-108109079D01*
X146963920Y-107999590D01*
X146963907Y-107999583D01*
X146781839Y-107924169D01*
X146781829Y-107924166D01*
X146588543Y-107885719D01*
X146588541Y-107885719D01*
X146391459Y-107885719D01*
X146391457Y-107885719D01*
X146198170Y-107924166D01*
X146198160Y-107924169D01*
X146016092Y-107999583D01*
X146016079Y-107999590D01*
X145852218Y-108109079D01*
X145852214Y-108109082D01*
X145712863Y-108248433D01*
X145712860Y-108248437D01*
X145603371Y-108412298D01*
X145603364Y-108412311D01*
X145527950Y-108594379D01*
X145527947Y-108594389D01*
X145489500Y-108787675D01*
X145489500Y-108787678D01*
X145489500Y-109984760D01*
X145489500Y-109984762D01*
X145489499Y-109984762D01*
X144950500Y-109984762D01*
X144950500Y-108787675D01*
X144912052Y-108594389D01*
X144912051Y-108594388D01*
X144912051Y-108594384D01*
X144912049Y-108594379D01*
X144836635Y-108412311D01*
X144836628Y-108412298D01*
X144727139Y-108248437D01*
X144727136Y-108248433D01*
X144587785Y-108109082D01*
X144587781Y-108109079D01*
X144423920Y-107999590D01*
X144423907Y-107999583D01*
X144241839Y-107924169D01*
X144241829Y-107924166D01*
X144048543Y-107885719D01*
X144048541Y-107885719D01*
X143851459Y-107885719D01*
X143851457Y-107885719D01*
X143658170Y-107924166D01*
X143658160Y-107924169D01*
X143476092Y-107999583D01*
X143476079Y-107999590D01*
X143312218Y-108109079D01*
X143312214Y-108109082D01*
X143172863Y-108248433D01*
X143172860Y-108248437D01*
X143063371Y-108412298D01*
X143063364Y-108412311D01*
X142987950Y-108594379D01*
X142987947Y-108594389D01*
X142949500Y-108787675D01*
X142949500Y-109786122D01*
X142929815Y-109853161D01*
X142913181Y-109873803D01*
X133423803Y-119363181D01*
X133362480Y-119396666D01*
X133336122Y-119399500D01*
X89300097Y-119399500D01*
X89233058Y-119379815D01*
X89212416Y-119363181D01*
X81928289Y-112079054D01*
X83399498Y-112079054D01*
X83440423Y-112231785D01*
X83469358Y-112281900D01*
X83469359Y-112281904D01*
X83469360Y-112281904D01*
X83516284Y-112363181D01*
X83519479Y-112368714D01*
X83519481Y-112368717D01*
X83638349Y-112487585D01*
X83638355Y-112487590D01*
X89515139Y-118364374D01*
X89515149Y-118364385D01*
X89519479Y-118368715D01*
X89519480Y-118368716D01*
X89631284Y-118480520D01*
X89631286Y-118480521D01*
X89631290Y-118480524D01*
X89768209Y-118559573D01*
X89768216Y-118559577D01*
X89880019Y-118589534D01*
X89920942Y-118600500D01*
X89920943Y-118600500D01*
X130913331Y-118600500D01*
X130913347Y-118600501D01*
X130920943Y-118600501D01*
X131079054Y-118600501D01*
X131079057Y-118600501D01*
X131231785Y-118559577D01*
X131281904Y-118530639D01*
X131368716Y-118480520D01*
X131480520Y-118368716D01*
X131480520Y-118368714D01*
X131490728Y-118358507D01*
X131490729Y-118358504D01*
X150928082Y-98921153D01*
X153199500Y-98921153D01*
X153199500Y-99078846D01*
X153230261Y-99233489D01*
X153230264Y-99233501D01*
X153290602Y-99379172D01*
X153290609Y-99379185D01*
X153378210Y-99510288D01*
X153378213Y-99510292D01*
X153489707Y-99621786D01*
X153489711Y-99621789D01*
X153620814Y-99709390D01*
X153620827Y-99709397D01*
X153766498Y-99769735D01*
X153766503Y-99769737D01*
X153921153Y-99800499D01*
X153921156Y-99800500D01*
X153921158Y-99800500D01*
X154078844Y-99800500D01*
X154078845Y-99800499D01*
X154233497Y-99769737D01*
X154379179Y-99709394D01*
X154379185Y-99709390D01*
X154510875Y-99621398D01*
X154577553Y-99600520D01*
X154579766Y-99600500D01*
X169699903Y-99600500D01*
X169766942Y-99620185D01*
X169787584Y-99636819D01*
X178165425Y-108014660D01*
X178198910Y-108075983D01*
X178199361Y-108078149D01*
X178230261Y-108233491D01*
X178230264Y-108233501D01*
X178290602Y-108379172D01*
X178290609Y-108379185D01*
X178378210Y-108510288D01*
X178378213Y-108510292D01*
X178489707Y-108621786D01*
X178489711Y-108621789D01*
X178620814Y-108709390D01*
X178620827Y-108709397D01*
X178766498Y-108769735D01*
X178766503Y-108769737D01*
X178921153Y-108800499D01*
X178921156Y-108800500D01*
X178921158Y-108800500D01*
X179078844Y-108800500D01*
X179078845Y-108800499D01*
X179233497Y-108769737D01*
X179379179Y-108709394D01*
X179510289Y-108621789D01*
X179621789Y-108510289D01*
X179709394Y-108379179D01*
X179769737Y-108233497D01*
X179800500Y-108078842D01*
X179800500Y-107921158D01*
X179800500Y-107921155D01*
X179800499Y-107921153D01*
X179769738Y-107766510D01*
X179769737Y-107766503D01*
X179769735Y-107766498D01*
X179709397Y-107620827D01*
X179709390Y-107620814D01*
X179621789Y-107489711D01*
X179621786Y-107489707D01*
X179510292Y-107378213D01*
X179510288Y-107378210D01*
X179379185Y-107290609D01*
X179379172Y-107290602D01*
X179233501Y-107230264D01*
X179233491Y-107230261D01*
X179078149Y-107199361D01*
X179016238Y-107166976D01*
X179014660Y-107165425D01*
X178387428Y-106538193D01*
X220737000Y-106538193D01*
X220737000Y-106796806D01*
X220777456Y-107052233D01*
X220777456Y-107052234D01*
X220857374Y-107298195D01*
X220974783Y-107528622D01*
X221054963Y-107638981D01*
X221054964Y-107638982D01*
X221741837Y-106952109D01*
X221760997Y-106998364D01*
X221837439Y-107112768D01*
X221934732Y-107210061D01*
X222049136Y-107286503D01*
X222095390Y-107305661D01*
X221408516Y-107992534D01*
X221408517Y-107992536D01*
X221518877Y-108072716D01*
X221749304Y-108190125D01*
X221995266Y-108270043D01*
X222250694Y-108310500D01*
X222509306Y-108310500D01*
X222764733Y-108270043D01*
X222764734Y-108270043D01*
X223010695Y-108190125D01*
X223241119Y-108072718D01*
X223351481Y-107992534D01*
X223351482Y-107992534D01*
X222664609Y-107305662D01*
X222710864Y-107286503D01*
X222825268Y-107210061D01*
X222922561Y-107112768D01*
X222999003Y-106998364D01*
X223018161Y-106952109D01*
X223705034Y-107638982D01*
X223705034Y-107638981D01*
X223785218Y-107528619D01*
X223902625Y-107298195D01*
X223982543Y-107052234D01*
X223982543Y-107052233D01*
X224023000Y-106796806D01*
X224023000Y-106538193D01*
X223982543Y-106282766D01*
X223982543Y-106282765D01*
X223902625Y-106036804D01*
X223785216Y-105806377D01*
X223705036Y-105696017D01*
X223705034Y-105696016D01*
X223018161Y-106382889D01*
X222999003Y-106336636D01*
X222922561Y-106222232D01*
X222825268Y-106124939D01*
X222710864Y-106048497D01*
X222664608Y-106029337D01*
X223351482Y-105342464D01*
X223351481Y-105342463D01*
X223241122Y-105262283D01*
X223010695Y-105144874D01*
X222764733Y-105064956D01*
X222509306Y-105024500D01*
X222250694Y-105024500D01*
X221995266Y-105064956D01*
X221995265Y-105064956D01*
X221749304Y-105144874D01*
X221518884Y-105262279D01*
X221408517Y-105342464D01*
X221408517Y-105342465D01*
X222095390Y-106029337D01*
X222049136Y-106048497D01*
X221934732Y-106124939D01*
X221837439Y-106222232D01*
X221760997Y-106336636D01*
X221741837Y-106382890D01*
X221054965Y-105696017D01*
X221054964Y-105696017D01*
X220974779Y-105806384D01*
X220857374Y-106036804D01*
X220777456Y-106282765D01*
X220777456Y-106282766D01*
X220737000Y-106538193D01*
X178387428Y-106538193D01*
X170487590Y-98638355D01*
X170487588Y-98638352D01*
X170368717Y-98519481D01*
X170368716Y-98519480D01*
X170281904Y-98469360D01*
X170281904Y-98469359D01*
X170281900Y-98469358D01*
X170231785Y-98440423D01*
X170079057Y-98399499D01*
X169920943Y-98399499D01*
X169913347Y-98399499D01*
X169913331Y-98399500D01*
X154579766Y-98399500D01*
X154512727Y-98379815D01*
X154510875Y-98378602D01*
X154379185Y-98290609D01*
X154379172Y-98290602D01*
X154233501Y-98230264D01*
X154233489Y-98230261D01*
X154078845Y-98199500D01*
X154078842Y-98199500D01*
X153921158Y-98199500D01*
X153921155Y-98199500D01*
X153766510Y-98230261D01*
X153766498Y-98230264D01*
X153620827Y-98290602D01*
X153620814Y-98290609D01*
X153489711Y-98378210D01*
X153489707Y-98378213D01*
X153378213Y-98489707D01*
X153378210Y-98489711D01*
X153290609Y-98620814D01*
X153290602Y-98620827D01*
X153230264Y-98766498D01*
X153230261Y-98766510D01*
X153199500Y-98921153D01*
X150928082Y-98921153D01*
X152212416Y-97636819D01*
X152273739Y-97603334D01*
X152300097Y-97600500D01*
X166420234Y-97600500D01*
X166487273Y-97620185D01*
X166489125Y-97621398D01*
X166620814Y-97709390D01*
X166620827Y-97709397D01*
X166766498Y-97769735D01*
X166766503Y-97769737D01*
X166921153Y-97800499D01*
X166921156Y-97800500D01*
X166921158Y-97800500D01*
X167078844Y-97800500D01*
X167078845Y-97800499D01*
X167233497Y-97769737D01*
X167379179Y-97709394D01*
X167510289Y-97621789D01*
X167621789Y-97510289D01*
X167709394Y-97379179D01*
X167721214Y-97350644D01*
X167769735Y-97233501D01*
X167769737Y-97233497D01*
X167800500Y-97078842D01*
X167800500Y-96921158D01*
X167800500Y-96921155D01*
X167800499Y-96921153D01*
X167796376Y-96900424D01*
X167769737Y-96766503D01*
X167767214Y-96760411D01*
X167709397Y-96620827D01*
X167709390Y-96620814D01*
X167621789Y-96489711D01*
X167621786Y-96489707D01*
X167510292Y-96378213D01*
X167510288Y-96378210D01*
X167379185Y-96290609D01*
X167379172Y-96290602D01*
X167233501Y-96230264D01*
X167233489Y-96230261D01*
X167078845Y-96199500D01*
X167078842Y-96199500D01*
X166921158Y-96199500D01*
X166921155Y-96199500D01*
X166766510Y-96230261D01*
X166766498Y-96230264D01*
X166620827Y-96290602D01*
X166620814Y-96290609D01*
X166489125Y-96378602D01*
X166422447Y-96399480D01*
X166420234Y-96399500D01*
X152086670Y-96399500D01*
X152086654Y-96399499D01*
X152079058Y-96399499D01*
X151920943Y-96399499D01*
X151813587Y-96428265D01*
X151768210Y-96440424D01*
X151768209Y-96440425D01*
X151718096Y-96469359D01*
X151718095Y-96469360D01*
X151682853Y-96489707D01*
X151631285Y-96519479D01*
X151631284Y-96519480D01*
X151519480Y-96631284D01*
X151519478Y-96631286D01*
X141152401Y-106998364D01*
X130787584Y-117363181D01*
X130726261Y-117396666D01*
X130699903Y-117399500D01*
X90300097Y-117399500D01*
X90233058Y-117379815D01*
X90212416Y-117363181D01*
X84636819Y-111787584D01*
X84603334Y-111726261D01*
X84600500Y-111699903D01*
X84600500Y-106538193D01*
X86737000Y-106538193D01*
X86737000Y-106796806D01*
X86777456Y-107052233D01*
X86777456Y-107052234D01*
X86857374Y-107298195D01*
X86974783Y-107528622D01*
X87054963Y-107638981D01*
X87054964Y-107638982D01*
X87741837Y-106952109D01*
X87760997Y-106998364D01*
X87837439Y-107112768D01*
X87934732Y-107210061D01*
X88049136Y-107286503D01*
X88095390Y-107305661D01*
X87408516Y-107992534D01*
X87408517Y-107992536D01*
X87518877Y-108072716D01*
X87749304Y-108190125D01*
X87995266Y-108270043D01*
X88250694Y-108310500D01*
X88509306Y-108310500D01*
X88764733Y-108270043D01*
X88764734Y-108270043D01*
X89010695Y-108190125D01*
X89241119Y-108072718D01*
X89351481Y-107992534D01*
X89351482Y-107992534D01*
X88664609Y-107305662D01*
X88710864Y-107286503D01*
X88825268Y-107210061D01*
X88922561Y-107112768D01*
X88999003Y-106998364D01*
X89018161Y-106952109D01*
X89705034Y-107638982D01*
X89705034Y-107638981D01*
X89785218Y-107528619D01*
X89902625Y-107298195D01*
X89982543Y-107052234D01*
X89982543Y-107052233D01*
X90023000Y-106796806D01*
X90023000Y-106538193D01*
X89982543Y-106282766D01*
X89982543Y-106282765D01*
X89902625Y-106036804D01*
X89785216Y-105806377D01*
X89705036Y-105696017D01*
X89705034Y-105696016D01*
X89018161Y-106382889D01*
X88999003Y-106336636D01*
X88922561Y-106222232D01*
X88825268Y-106124939D01*
X88710864Y-106048497D01*
X88664608Y-106029337D01*
X89351482Y-105342464D01*
X89351481Y-105342463D01*
X89241122Y-105262283D01*
X89010695Y-105144874D01*
X88764733Y-105064956D01*
X88509306Y-105024500D01*
X88250694Y-105024500D01*
X87995266Y-105064956D01*
X87995265Y-105064956D01*
X87749304Y-105144874D01*
X87518884Y-105262279D01*
X87408517Y-105342464D01*
X87408517Y-105342465D01*
X88095390Y-106029337D01*
X88049136Y-106048497D01*
X87934732Y-106124939D01*
X87837439Y-106222232D01*
X87760997Y-106336636D01*
X87741837Y-106382890D01*
X87054965Y-105696017D01*
X87054964Y-105696017D01*
X86974779Y-105806384D01*
X86857374Y-106036804D01*
X86777456Y-106282765D01*
X86777456Y-106282766D01*
X86737000Y-106538193D01*
X84600500Y-106538193D01*
X84600500Y-103456201D01*
X84620185Y-103389162D01*
X84672989Y-103343407D01*
X84685196Y-103341249D01*
X85402352Y-102624093D01*
X85425792Y-102711571D01*
X85484311Y-102812930D01*
X85567070Y-102895689D01*
X85668429Y-102954208D01*
X85755905Y-102977647D01*
X85050360Y-103683191D01*
X85112008Y-103727980D01*
X85306808Y-103827237D01*
X85306811Y-103827238D01*
X85514740Y-103894797D01*
X85730684Y-103929000D01*
X85949316Y-103929000D01*
X86165259Y-103894797D01*
X86373188Y-103827238D01*
X86373191Y-103827237D01*
X86567995Y-103727978D01*
X86629638Y-103683191D01*
X86629639Y-103683191D01*
X85924094Y-102977647D01*
X86011571Y-102954208D01*
X86112930Y-102895689D01*
X86195689Y-102812930D01*
X86254208Y-102711571D01*
X86277647Y-102624095D01*
X86983191Y-103329639D01*
X86983191Y-103329638D01*
X87027978Y-103267995D01*
X87127237Y-103073191D01*
X87127238Y-103073188D01*
X87194797Y-102865259D01*
X87229000Y-102649316D01*
X87229000Y-102430683D01*
X87194797Y-102214740D01*
X87127238Y-102006811D01*
X87127237Y-102006808D01*
X87027980Y-101812008D01*
X86983191Y-101750360D01*
X86277647Y-102455904D01*
X86254208Y-102368429D01*
X86195689Y-102267070D01*
X86112930Y-102184311D01*
X86011571Y-102125792D01*
X85924093Y-102102352D01*
X86629638Y-101396807D01*
X86629638Y-101396806D01*
X86593606Y-101370628D01*
X86550939Y-101315299D01*
X86544959Y-101245685D01*
X86577565Y-101183890D01*
X86593599Y-101169994D01*
X86745199Y-101059852D01*
X86899852Y-100905199D01*
X86899854Y-100905195D01*
X86899857Y-100905193D01*
X86956229Y-100827601D01*
X87028407Y-100728257D01*
X87127701Y-100533383D01*
X87195286Y-100325375D01*
X87215223Y-100199500D01*
X87229500Y-100109361D01*
X87229500Y-99998097D01*
X87249185Y-99931058D01*
X87301989Y-99885303D01*
X87371147Y-99875359D01*
X87434703Y-99904384D01*
X87441181Y-99910416D01*
X92823181Y-105292416D01*
X92856666Y-105353739D01*
X92859500Y-105380097D01*
X92859500Y-108830509D01*
X92839815Y-108897548D01*
X92791796Y-108940993D01*
X92731741Y-108971593D01*
X92554806Y-109100142D01*
X92400142Y-109254806D01*
X92271595Y-109431739D01*
X92172298Y-109626616D01*
X92172297Y-109626619D01*
X92104714Y-109834623D01*
X92070500Y-110050638D01*
X92070500Y-110269361D01*
X92104714Y-110485376D01*
X92172297Y-110693380D01*
X92172298Y-110693383D01*
X92220297Y-110787584D01*
X92270809Y-110886719D01*
X92271595Y-110888260D01*
X92400142Y-111065193D01*
X92554806Y-111219857D01*
X92669508Y-111303191D01*
X92731743Y-111348407D01*
X92859132Y-111413315D01*
X92926616Y-111447701D01*
X92926619Y-111447702D01*
X93027625Y-111480520D01*
X93134625Y-111515286D01*
X93234672Y-111531132D01*
X93350639Y-111549500D01*
X93350644Y-111549500D01*
X93569361Y-111549500D01*
X93674082Y-111532912D01*
X93785375Y-111515286D01*
X93993383Y-111447701D01*
X94188257Y-111348407D01*
X94348775Y-111231785D01*
X94365193Y-111219857D01*
X94365195Y-111219854D01*
X94365199Y-111219852D01*
X94519852Y-111065199D01*
X94629683Y-110914028D01*
X94685011Y-110871364D01*
X94754624Y-110865385D01*
X94816420Y-110897990D01*
X94830313Y-110914023D01*
X94905257Y-111017175D01*
X94940148Y-111065199D01*
X95094806Y-111219857D01*
X95270691Y-111347643D01*
X95271743Y-111348407D01*
X95331794Y-111379004D01*
X95382591Y-111426978D01*
X95399500Y-111489489D01*
X95399500Y-111913330D01*
X95399499Y-111913348D01*
X95399499Y-112079054D01*
X95399498Y-112079054D01*
X95440423Y-112231785D01*
X95469358Y-112281900D01*
X95469359Y-112281904D01*
X95469360Y-112281904D01*
X95516284Y-112363181D01*
X95519479Y-112368714D01*
X95519481Y-112368717D01*
X95638349Y-112487585D01*
X95638354Y-112487589D01*
X96631284Y-113480520D01*
X96631286Y-113480521D01*
X96631290Y-113480524D01*
X96768209Y-113559573D01*
X96768216Y-113559577D01*
X96920943Y-113600501D01*
X96920945Y-113600501D01*
X97086654Y-113600501D01*
X97086670Y-113600500D01*
X132913331Y-113600500D01*
X132913347Y-113600501D01*
X132920943Y-113600501D01*
X133079054Y-113600501D01*
X133079057Y-113600501D01*
X133231785Y-113559577D01*
X133281904Y-113530639D01*
X133368716Y-113480520D01*
X133480520Y-113368716D01*
X133480520Y-113368714D01*
X133490728Y-113358507D01*
X133490729Y-113358504D01*
X145014664Y-101834571D01*
X145075985Y-101801088D01*
X145078152Y-101800637D01*
X145078841Y-101800500D01*
X145078842Y-101800500D01*
X145233497Y-101769737D01*
X145379179Y-101709394D01*
X145510289Y-101621789D01*
X145621789Y-101510289D01*
X145709394Y-101379179D01*
X145769737Y-101233497D01*
X145800500Y-101078842D01*
X145800500Y-100921158D01*
X145800500Y-100921155D01*
X145800499Y-100921153D01*
X145769737Y-100766503D01*
X145769735Y-100766498D01*
X145709397Y-100620827D01*
X145709390Y-100620814D01*
X145621789Y-100489711D01*
X145621786Y-100489707D01*
X145510292Y-100378213D01*
X145510288Y-100378210D01*
X145379185Y-100290609D01*
X145379172Y-100290602D01*
X145233501Y-100230264D01*
X145233489Y-100230261D01*
X145078845Y-100199500D01*
X145078842Y-100199500D01*
X144921158Y-100199500D01*
X144921155Y-100199500D01*
X144766510Y-100230261D01*
X144766498Y-100230264D01*
X144620827Y-100290602D01*
X144620814Y-100290609D01*
X144489711Y-100378210D01*
X144489707Y-100378213D01*
X144378213Y-100489707D01*
X144378210Y-100489711D01*
X144290609Y-100620814D01*
X144290602Y-100620827D01*
X144230264Y-100766498D01*
X144230261Y-100766508D01*
X144199362Y-100921848D01*
X144166977Y-100983759D01*
X144165426Y-100985337D01*
X132787584Y-112363181D01*
X132726261Y-112396666D01*
X132699903Y-112399500D01*
X97300098Y-112399500D01*
X97233059Y-112379815D01*
X97212417Y-112363181D01*
X96636819Y-111787583D01*
X96622115Y-111760655D01*
X96605523Y-111734837D01*
X96604631Y-111728636D01*
X96603334Y-111726260D01*
X96600500Y-111699902D01*
X96600500Y-111489489D01*
X96620185Y-111422450D01*
X96668205Y-111379004D01*
X96728257Y-111348407D01*
X96888775Y-111231785D01*
X96905193Y-111219857D01*
X96905195Y-111219854D01*
X96905199Y-111219852D01*
X97059852Y-111065199D01*
X97169991Y-110913603D01*
X97225320Y-110870939D01*
X97294933Y-110864960D01*
X97356729Y-110897565D01*
X97370628Y-110913606D01*
X97396806Y-110949638D01*
X97396807Y-110949638D01*
X98102352Y-110244093D01*
X98125792Y-110331571D01*
X98184311Y-110432930D01*
X98267070Y-110515689D01*
X98368429Y-110574208D01*
X98455905Y-110597647D01*
X97750360Y-111303191D01*
X97812008Y-111347980D01*
X98006808Y-111447237D01*
X98006811Y-111447238D01*
X98214740Y-111514797D01*
X98430684Y-111549000D01*
X98649316Y-111549000D01*
X98865259Y-111514797D01*
X99073188Y-111447238D01*
X99073191Y-111447237D01*
X99267995Y-111347978D01*
X99329638Y-111303191D01*
X99329639Y-111303191D01*
X98624094Y-110597647D01*
X98711571Y-110574208D01*
X98812930Y-110515689D01*
X98895689Y-110432930D01*
X98954208Y-110331571D01*
X98977647Y-110244095D01*
X99683191Y-110949639D01*
X99683191Y-110949638D01*
X99727978Y-110887995D01*
X99827237Y-110693191D01*
X99827238Y-110693188D01*
X99894797Y-110485259D01*
X99929000Y-110269316D01*
X99929000Y-110050683D01*
X99894797Y-109834740D01*
X99827238Y-109626811D01*
X99827237Y-109626808D01*
X99727980Y-109432008D01*
X99683191Y-109370360D01*
X98977647Y-110075904D01*
X98954208Y-109988429D01*
X98895689Y-109887070D01*
X98812930Y-109804311D01*
X98711571Y-109745792D01*
X98624092Y-109722352D01*
X99329638Y-109016807D01*
X99329638Y-109016806D01*
X99267995Y-108972021D01*
X99267993Y-108972020D01*
X99073191Y-108872762D01*
X99073188Y-108872761D01*
X98865259Y-108805202D01*
X98649316Y-108771000D01*
X98430684Y-108771000D01*
X98214740Y-108805202D01*
X98006811Y-108872761D01*
X98006808Y-108872762D01*
X97812001Y-108972023D01*
X97750360Y-109016806D01*
X97750360Y-109016807D01*
X98455905Y-109722352D01*
X98368429Y-109745792D01*
X98267070Y-109804311D01*
X98184311Y-109887070D01*
X98125792Y-109988429D01*
X98102352Y-110075905D01*
X97396807Y-109370360D01*
X97396805Y-109370360D01*
X97370626Y-109406394D01*
X97315297Y-109449060D01*
X97245683Y-109455039D01*
X97183888Y-109422434D01*
X97169995Y-109406401D01*
X97059852Y-109254801D01*
X96905199Y-109100148D01*
X96905193Y-109100142D01*
X96728260Y-108971595D01*
X96728259Y-108971594D01*
X96728257Y-108971593D01*
X96665825Y-108939782D01*
X96533383Y-108872298D01*
X96533380Y-108872297D01*
X96325376Y-108804714D01*
X96109361Y-108770500D01*
X96109356Y-108770500D01*
X95890644Y-108770500D01*
X95890639Y-108770500D01*
X95674623Y-108804714D01*
X95466619Y-108872297D01*
X95466616Y-108872298D01*
X95271739Y-108971595D01*
X95094806Y-109100142D01*
X94940142Y-109254806D01*
X94830318Y-109405969D01*
X94774989Y-109448635D01*
X94705375Y-109454614D01*
X94643580Y-109422009D01*
X94629682Y-109405969D01*
X94519857Y-109254806D01*
X94365193Y-109100142D01*
X94188258Y-108971593D01*
X94128204Y-108940993D01*
X94077408Y-108893018D01*
X94060500Y-108830509D01*
X94060500Y-106538193D01*
X101977000Y-106538193D01*
X101977000Y-106796806D01*
X102017456Y-107052233D01*
X102017456Y-107052234D01*
X102097374Y-107298195D01*
X102214783Y-107528622D01*
X102294963Y-107638981D01*
X102294964Y-107638982D01*
X102981837Y-106952109D01*
X103000997Y-106998364D01*
X103077439Y-107112768D01*
X103174732Y-107210061D01*
X103289136Y-107286503D01*
X103335390Y-107305661D01*
X102648516Y-107992534D01*
X102648517Y-107992536D01*
X102758877Y-108072716D01*
X102989304Y-108190125D01*
X103235266Y-108270043D01*
X103490694Y-108310500D01*
X103749306Y-108310500D01*
X104004733Y-108270043D01*
X104004734Y-108270043D01*
X104250695Y-108190125D01*
X104481119Y-108072718D01*
X104591481Y-107992534D01*
X104591482Y-107992534D01*
X103904609Y-107305662D01*
X103950864Y-107286503D01*
X104065268Y-107210061D01*
X104162561Y-107112768D01*
X104239003Y-106998364D01*
X104258161Y-106952109D01*
X104945034Y-107638982D01*
X104945034Y-107638981D01*
X105025218Y-107528619D01*
X105142625Y-107298195D01*
X105222543Y-107052234D01*
X105222543Y-107052233D01*
X105263000Y-106796806D01*
X105263000Y-106538193D01*
X105222543Y-106282766D01*
X105222543Y-106282765D01*
X105142625Y-106036804D01*
X105025216Y-105806377D01*
X104945036Y-105696017D01*
X104945034Y-105696016D01*
X104258161Y-106382889D01*
X104239003Y-106336636D01*
X104162561Y-106222232D01*
X104065268Y-106124939D01*
X103950864Y-106048497D01*
X103904608Y-106029337D01*
X104591482Y-105342464D01*
X104591481Y-105342463D01*
X104481122Y-105262283D01*
X104250695Y-105144874D01*
X104004733Y-105064956D01*
X103749306Y-105024500D01*
X103490694Y-105024500D01*
X103235266Y-105064956D01*
X103235265Y-105064956D01*
X102989304Y-105144874D01*
X102758884Y-105262279D01*
X102648517Y-105342464D01*
X102648517Y-105342465D01*
X103335390Y-106029337D01*
X103289136Y-106048497D01*
X103174732Y-106124939D01*
X103077439Y-106222232D01*
X103000997Y-106336636D01*
X102981837Y-106382890D01*
X102294965Y-105696017D01*
X102294964Y-105696017D01*
X102214779Y-105806384D01*
X102097374Y-106036804D01*
X102017456Y-106282765D01*
X102017456Y-106282766D01*
X101977000Y-106538193D01*
X94060500Y-106538193D01*
X94060500Y-105000945D01*
X94060500Y-105000943D01*
X94019577Y-104848216D01*
X94019573Y-104848209D01*
X93940524Y-104711290D01*
X93940521Y-104711286D01*
X93940520Y-104711284D01*
X93828716Y-104599480D01*
X93828715Y-104599479D01*
X93824385Y-104595149D01*
X93824374Y-104595139D01*
X87501416Y-98272181D01*
X87467931Y-98210858D01*
X87472915Y-98141166D01*
X87514787Y-98085233D01*
X87580251Y-98060816D01*
X87589097Y-98060500D01*
X101453331Y-98060500D01*
X101453347Y-98060501D01*
X101460943Y-98060501D01*
X101619054Y-98060501D01*
X101619057Y-98060501D01*
X101771785Y-98019577D01*
X101821904Y-97990639D01*
X101908716Y-97940520D01*
X102020520Y-97828716D01*
X102020520Y-97828714D01*
X102030728Y-97818507D01*
X102030729Y-97818504D01*
X126098416Y-73750819D01*
X126125343Y-73736115D01*
X126151162Y-73719523D01*
X126157362Y-73718631D01*
X126159739Y-73717334D01*
X126186097Y-73714500D01*
X126420234Y-73714500D01*
X126487273Y-73734185D01*
X126489125Y-73735398D01*
X126620814Y-73823390D01*
X126620827Y-73823397D01*
X126766498Y-73883735D01*
X126766503Y-73883737D01*
X126896982Y-73909691D01*
X126921153Y-73914499D01*
X126921156Y-73914500D01*
X126921158Y-73914500D01*
X127078844Y-73914500D01*
X127078845Y-73914499D01*
X127233497Y-73883737D01*
X127233509Y-73883731D01*
X127239324Y-73881969D01*
X127240158Y-73884720D01*
X127297359Y-73878497D01*
X127359878Y-73909691D01*
X127395608Y-73969734D01*
X127399500Y-74000555D01*
X127399500Y-88913330D01*
X127399499Y-88913348D01*
X127399499Y-89079054D01*
X127399498Y-89079054D01*
X127440423Y-89231785D01*
X127469358Y-89281900D01*
X127469359Y-89281904D01*
X127469360Y-89281904D01*
X127519479Y-89368714D01*
X127519481Y-89368717D01*
X127638349Y-89487585D01*
X127638355Y-89487590D01*
X135515139Y-97364374D01*
X135515149Y-97364385D01*
X135519479Y-97368715D01*
X135519480Y-97368716D01*
X135631284Y-97480520D01*
X135631286Y-97480521D01*
X135631290Y-97480524D01*
X135768209Y-97559573D01*
X135768216Y-97559577D01*
X135880019Y-97589534D01*
X135920942Y-97600500D01*
X135920943Y-97600500D01*
X143420234Y-97600500D01*
X143487273Y-97620185D01*
X143489125Y-97621398D01*
X143620814Y-97709390D01*
X143620827Y-97709397D01*
X143766498Y-97769735D01*
X143766503Y-97769737D01*
X143921153Y-97800499D01*
X143921156Y-97800500D01*
X143921158Y-97800500D01*
X144078844Y-97800500D01*
X144078845Y-97800499D01*
X144233497Y-97769737D01*
X144379179Y-97709394D01*
X144510289Y-97621789D01*
X144621789Y-97510289D01*
X144709394Y-97379179D01*
X144721214Y-97350644D01*
X144769735Y-97233501D01*
X144769737Y-97233497D01*
X144800500Y-97078842D01*
X144800500Y-96921158D01*
X144800500Y-96921155D01*
X144800499Y-96921153D01*
X144796376Y-96900424D01*
X144769737Y-96766503D01*
X144767214Y-96760411D01*
X144709397Y-96620827D01*
X144709390Y-96620814D01*
X144621789Y-96489711D01*
X144621786Y-96489707D01*
X144510292Y-96378213D01*
X144510288Y-96378210D01*
X144379185Y-96290609D01*
X144379172Y-96290602D01*
X144233501Y-96230264D01*
X144233489Y-96230261D01*
X144078845Y-96199500D01*
X144078842Y-96199500D01*
X143921158Y-96199500D01*
X143921155Y-96199500D01*
X143766510Y-96230261D01*
X143766498Y-96230264D01*
X143620827Y-96290602D01*
X143620814Y-96290609D01*
X143489125Y-96378602D01*
X143422447Y-96399480D01*
X143420234Y-96399500D01*
X136300097Y-96399500D01*
X136233058Y-96379815D01*
X136212416Y-96363181D01*
X128636819Y-88787584D01*
X128603334Y-88726261D01*
X128600500Y-88699903D01*
X128600500Y-85749097D01*
X128620185Y-85682058D01*
X128672989Y-85636303D01*
X128742147Y-85626359D01*
X128805703Y-85655384D01*
X128812181Y-85661416D01*
X137515139Y-94364374D01*
X137515149Y-94364385D01*
X137519479Y-94368715D01*
X137519480Y-94368716D01*
X137631284Y-94480520D01*
X137718095Y-94530639D01*
X137718097Y-94530641D01*
X137756151Y-94552611D01*
X137768215Y-94559577D01*
X137920943Y-94600500D01*
X138079057Y-94600500D01*
X157009550Y-94600500D01*
X157009566Y-94600501D01*
X157017162Y-94600501D01*
X157175273Y-94600501D01*
X157175276Y-94600501D01*
X157328004Y-94559577D01*
X157378123Y-94530639D01*
X157464935Y-94480520D01*
X157576739Y-94368716D01*
X157576739Y-94368714D01*
X157586947Y-94358507D01*
X157586948Y-94358504D01*
X160966237Y-90979216D01*
X161027558Y-90945733D01*
X161097250Y-90950717D01*
X161122807Y-90963797D01*
X161256079Y-91052847D01*
X161256092Y-91052854D01*
X161415814Y-91119012D01*
X161438165Y-91128270D01*
X161438169Y-91128270D01*
X161438170Y-91128271D01*
X161631456Y-91166719D01*
X161631459Y-91166719D01*
X161828543Y-91166719D01*
X161977228Y-91137143D01*
X162021835Y-91128270D01*
X162203914Y-91052851D01*
X162367782Y-90943358D01*
X162507139Y-90804001D01*
X162616632Y-90640133D01*
X162692051Y-90458054D01*
X162728034Y-90277157D01*
X162730500Y-90264762D01*
X163269499Y-90264762D01*
X163307947Y-90458048D01*
X163307950Y-90458058D01*
X163383364Y-90640126D01*
X163383371Y-90640139D01*
X163492860Y-90804000D01*
X163492863Y-90804004D01*
X163632214Y-90943355D01*
X163632218Y-90943358D01*
X163796079Y-91052847D01*
X163796092Y-91052854D01*
X163955814Y-91119012D01*
X163978165Y-91128270D01*
X163978169Y-91128270D01*
X163978170Y-91128271D01*
X164171456Y-91166719D01*
X164171459Y-91166719D01*
X164368543Y-91166719D01*
X164517228Y-91137143D01*
X164561835Y-91128270D01*
X164743914Y-91052851D01*
X164877193Y-90963796D01*
X164943869Y-90942919D01*
X165011249Y-90961403D01*
X165033764Y-90979218D01*
X174418920Y-100364374D01*
X174418930Y-100364385D01*
X174423260Y-100368715D01*
X174423261Y-100368716D01*
X174535065Y-100480520D01*
X174595607Y-100515473D01*
X174621876Y-100530639D01*
X174621878Y-100530641D01*
X174671994Y-100559576D01*
X174671996Y-100559577D01*
X174824723Y-100600500D01*
X174824724Y-100600500D01*
X218510510Y-100600500D01*
X218577549Y-100620185D01*
X218620995Y-100668205D01*
X218651595Y-100728260D01*
X218780142Y-100905193D01*
X218780148Y-100905199D01*
X218934801Y-101059852D01*
X219086395Y-101169991D01*
X219129060Y-101225319D01*
X219135039Y-101294932D01*
X219102434Y-101356728D01*
X219086394Y-101370626D01*
X219050360Y-101396805D01*
X219050360Y-101396807D01*
X219755905Y-102102352D01*
X219668429Y-102125792D01*
X219567070Y-102184311D01*
X219484311Y-102267070D01*
X219425792Y-102368429D01*
X219402352Y-102455905D01*
X218696807Y-101750360D01*
X218696806Y-101750360D01*
X218652023Y-101812001D01*
X218552762Y-102006808D01*
X218552761Y-102006811D01*
X218485202Y-102214740D01*
X218451000Y-102430683D01*
X218451000Y-102649316D01*
X218485202Y-102865259D01*
X218552761Y-103073188D01*
X218552762Y-103073191D01*
X218652020Y-103267993D01*
X218652021Y-103267995D01*
X218696806Y-103329638D01*
X218696807Y-103329638D01*
X219402352Y-102624093D01*
X219425792Y-102711571D01*
X219484311Y-102812930D01*
X219567070Y-102895689D01*
X219668429Y-102954208D01*
X219755905Y-102977647D01*
X219050360Y-103683191D01*
X219112008Y-103727980D01*
X219306808Y-103827237D01*
X219306811Y-103827238D01*
X219514740Y-103894797D01*
X219730684Y-103929000D01*
X219949316Y-103929000D01*
X220165259Y-103894797D01*
X220373188Y-103827238D01*
X220373191Y-103827237D01*
X220567995Y-103727978D01*
X220629638Y-103683191D01*
X220629639Y-103683191D01*
X219924094Y-102977647D01*
X220011571Y-102954208D01*
X220112930Y-102895689D01*
X220195689Y-102812930D01*
X220254208Y-102711571D01*
X220277647Y-102624095D01*
X220983191Y-103329639D01*
X220983191Y-103329638D01*
X221027978Y-103267995D01*
X221127237Y-103073191D01*
X221127238Y-103073188D01*
X221194797Y-102865259D01*
X221229000Y-102649316D01*
X221229000Y-102430683D01*
X221194797Y-102214740D01*
X221127238Y-102006811D01*
X221127237Y-102006808D01*
X221027980Y-101812008D01*
X220983191Y-101750360D01*
X220277647Y-102455904D01*
X220254208Y-102368429D01*
X220195689Y-102267070D01*
X220112930Y-102184311D01*
X220011571Y-102125792D01*
X219924092Y-102102352D01*
X220629638Y-101396807D01*
X220629638Y-101396806D01*
X220593606Y-101370628D01*
X220550939Y-101315299D01*
X220544959Y-101245685D01*
X220577565Y-101183890D01*
X220593599Y-101169994D01*
X220745199Y-101059852D01*
X220899852Y-100905199D01*
X220899854Y-100905195D01*
X220899857Y-100905193D01*
X220956229Y-100827601D01*
X221028407Y-100728257D01*
X221127701Y-100533383D01*
X221195286Y-100325375D01*
X221215223Y-100199500D01*
X221229500Y-100109361D01*
X221229500Y-99890638D01*
X221200793Y-99709397D01*
X221195286Y-99674625D01*
X221141891Y-99510289D01*
X221127702Y-99466619D01*
X221127701Y-99466616D01*
X221059005Y-99331795D01*
X221028407Y-99271743D01*
X221000614Y-99233489D01*
X220899857Y-99094806D01*
X220745199Y-98940148D01*
X220719054Y-98921153D01*
X220594028Y-98830316D01*
X220551364Y-98774989D01*
X220545385Y-98705376D01*
X220577990Y-98643580D01*
X220594023Y-98629686D01*
X220745199Y-98519852D01*
X220899852Y-98365199D01*
X220899854Y-98365195D01*
X220899857Y-98365193D01*
X220997888Y-98230263D01*
X221028407Y-98188257D01*
X221059005Y-98128204D01*
X221106980Y-98077409D01*
X221169490Y-98060500D01*
X223159903Y-98060500D01*
X223226942Y-98080185D01*
X223247584Y-98096819D01*
X226823181Y-101672416D01*
X226856666Y-101733739D01*
X226859500Y-101760097D01*
X226859500Y-108830509D01*
X226839815Y-108897548D01*
X226791796Y-108940993D01*
X226731741Y-108971593D01*
X226554806Y-109100142D01*
X226400142Y-109254806D01*
X226271595Y-109431739D01*
X226172298Y-109626616D01*
X226172297Y-109626619D01*
X226104714Y-109834623D01*
X226070500Y-110050638D01*
X226070500Y-110269361D01*
X226104714Y-110485376D01*
X226172297Y-110693380D01*
X226172298Y-110693383D01*
X226220297Y-110787584D01*
X226270809Y-110886719D01*
X226271595Y-110888260D01*
X226400142Y-111065193D01*
X226554806Y-111219857D01*
X226669508Y-111303191D01*
X226731743Y-111348407D01*
X226859132Y-111413315D01*
X226926616Y-111447701D01*
X226926619Y-111447702D01*
X227027625Y-111480520D01*
X227134625Y-111515286D01*
X227234672Y-111531132D01*
X227350639Y-111549500D01*
X227350644Y-111549500D01*
X227569361Y-111549500D01*
X227674082Y-111532912D01*
X227785375Y-111515286D01*
X227993383Y-111447701D01*
X228188257Y-111348407D01*
X228348775Y-111231785D01*
X228365193Y-111219857D01*
X228365195Y-111219854D01*
X228365199Y-111219852D01*
X228519852Y-111065199D01*
X228629683Y-110914028D01*
X228685011Y-110871364D01*
X228754624Y-110865385D01*
X228816420Y-110897990D01*
X228830313Y-110914023D01*
X228905257Y-111017175D01*
X228940148Y-111065199D01*
X229094806Y-111219857D01*
X229209508Y-111303191D01*
X229271743Y-111348407D01*
X229399132Y-111413315D01*
X229466616Y-111447701D01*
X229466619Y-111447702D01*
X229567625Y-111480520D01*
X229674625Y-111515286D01*
X229774672Y-111531132D01*
X229890639Y-111549500D01*
X229890644Y-111549500D01*
X230109361Y-111549500D01*
X230214082Y-111532912D01*
X230325375Y-111515286D01*
X230533383Y-111447701D01*
X230728257Y-111348407D01*
X230888775Y-111231785D01*
X230905193Y-111219857D01*
X230905195Y-111219854D01*
X230905199Y-111219852D01*
X231059852Y-111065199D01*
X231169991Y-110913603D01*
X231225320Y-110870939D01*
X231294933Y-110864960D01*
X231356729Y-110897565D01*
X231370628Y-110913606D01*
X231396806Y-110949638D01*
X231396807Y-110949638D01*
X232102352Y-110244093D01*
X232125792Y-110331571D01*
X232184311Y-110432930D01*
X232267070Y-110515689D01*
X232368429Y-110574208D01*
X232455905Y-110597647D01*
X231750360Y-111303191D01*
X231812008Y-111347980D01*
X232006808Y-111447237D01*
X232006811Y-111447238D01*
X232214740Y-111514797D01*
X232430684Y-111549000D01*
X232649316Y-111549000D01*
X232865259Y-111514797D01*
X233073188Y-111447238D01*
X233073191Y-111447237D01*
X233267995Y-111347978D01*
X233329638Y-111303191D01*
X233329639Y-111303191D01*
X232624094Y-110597647D01*
X232711571Y-110574208D01*
X232812930Y-110515689D01*
X232895689Y-110432930D01*
X232954208Y-110331571D01*
X232977647Y-110244094D01*
X233683191Y-110949639D01*
X233683191Y-110949638D01*
X233727978Y-110887995D01*
X233827237Y-110693191D01*
X233827238Y-110693188D01*
X233894797Y-110485259D01*
X233929000Y-110269316D01*
X233929000Y-110050683D01*
X233894797Y-109834740D01*
X233827238Y-109626811D01*
X233827237Y-109626808D01*
X233727980Y-109432008D01*
X233683191Y-109370360D01*
X232977647Y-110075904D01*
X232954208Y-109988429D01*
X232895689Y-109887070D01*
X232812930Y-109804311D01*
X232711571Y-109745792D01*
X232624092Y-109722352D01*
X233329638Y-109016807D01*
X233329638Y-109016806D01*
X233267995Y-108972021D01*
X233267993Y-108972020D01*
X233073191Y-108872762D01*
X233073188Y-108872761D01*
X232865259Y-108805202D01*
X232649316Y-108771000D01*
X232430684Y-108771000D01*
X232214740Y-108805202D01*
X232006811Y-108872761D01*
X232006808Y-108872762D01*
X231812001Y-108972023D01*
X231750360Y-109016806D01*
X231750360Y-109016807D01*
X232455905Y-109722352D01*
X232368429Y-109745792D01*
X232267070Y-109804311D01*
X232184311Y-109887070D01*
X232125792Y-109988429D01*
X232102352Y-110075905D01*
X231396807Y-109370360D01*
X231396805Y-109370360D01*
X231370626Y-109406394D01*
X231315297Y-109449060D01*
X231245683Y-109455039D01*
X231183888Y-109422434D01*
X231169995Y-109406401D01*
X231059852Y-109254801D01*
X230905199Y-109100148D01*
X230905193Y-109100142D01*
X230728258Y-108971593D01*
X230668204Y-108940993D01*
X230617408Y-108893018D01*
X230600500Y-108830509D01*
X230600500Y-106538193D01*
X235977000Y-106538193D01*
X235977000Y-106796806D01*
X236017456Y-107052233D01*
X236017456Y-107052234D01*
X236097374Y-107298195D01*
X236214783Y-107528622D01*
X236294963Y-107638981D01*
X236294964Y-107638982D01*
X236981837Y-106952109D01*
X237000997Y-106998364D01*
X237077439Y-107112768D01*
X237174732Y-107210061D01*
X237289136Y-107286503D01*
X237335390Y-107305661D01*
X236648516Y-107992534D01*
X236648517Y-107992536D01*
X236758877Y-108072716D01*
X236989304Y-108190125D01*
X237235266Y-108270043D01*
X237490694Y-108310500D01*
X237749306Y-108310500D01*
X238004733Y-108270043D01*
X238004734Y-108270043D01*
X238250695Y-108190125D01*
X238481119Y-108072718D01*
X238591481Y-107992534D01*
X238591482Y-107992534D01*
X237904609Y-107305662D01*
X237950864Y-107286503D01*
X238065268Y-107210061D01*
X238162561Y-107112768D01*
X238239003Y-106998364D01*
X238258161Y-106952109D01*
X238945034Y-107638982D01*
X238945034Y-107638981D01*
X239025218Y-107528619D01*
X239142625Y-107298195D01*
X239222543Y-107052234D01*
X239222543Y-107052233D01*
X239263000Y-106796806D01*
X239263000Y-106538193D01*
X239222543Y-106282766D01*
X239222543Y-106282765D01*
X239142625Y-106036804D01*
X239025216Y-105806377D01*
X238945036Y-105696017D01*
X238945034Y-105696016D01*
X238258161Y-106382889D01*
X238239003Y-106336636D01*
X238162561Y-106222232D01*
X238065268Y-106124939D01*
X237950864Y-106048497D01*
X237904608Y-106029337D01*
X238591482Y-105342464D01*
X238591481Y-105342463D01*
X238481122Y-105262283D01*
X238250695Y-105144874D01*
X238004733Y-105064956D01*
X237749306Y-105024500D01*
X237490694Y-105024500D01*
X237235266Y-105064956D01*
X237235265Y-105064956D01*
X236989304Y-105144874D01*
X236758884Y-105262279D01*
X236648517Y-105342464D01*
X236648517Y-105342465D01*
X237335390Y-106029337D01*
X237289136Y-106048497D01*
X237174732Y-106124939D01*
X237077439Y-106222232D01*
X237000997Y-106336636D01*
X236981837Y-106382890D01*
X236294965Y-105696017D01*
X236294964Y-105696017D01*
X236214779Y-105806384D01*
X236097374Y-106036804D01*
X236017456Y-106282765D01*
X236017456Y-106282766D01*
X235977000Y-106538193D01*
X230600500Y-106538193D01*
X230600500Y-101920945D01*
X230600500Y-101920943D01*
X230559577Y-101768216D01*
X230525618Y-101709397D01*
X230480524Y-101631290D01*
X230480521Y-101631286D01*
X230480520Y-101631284D01*
X230368716Y-101519480D01*
X230368715Y-101519479D01*
X230364385Y-101515149D01*
X230364374Y-101515139D01*
X224487590Y-95638355D01*
X224487588Y-95638352D01*
X224368717Y-95519481D01*
X224368716Y-95519480D01*
X224281904Y-95469360D01*
X224281904Y-95469359D01*
X224281900Y-95469358D01*
X224231785Y-95440423D01*
X224079057Y-95399499D01*
X223920943Y-95399499D01*
X223913347Y-95399499D01*
X223913331Y-95399500D01*
X173743878Y-95399500D01*
X173676839Y-95379815D01*
X173656197Y-95363181D01*
X171496209Y-93203193D01*
X220737000Y-93203193D01*
X220737000Y-93461806D01*
X220777456Y-93717233D01*
X220777456Y-93717234D01*
X220857374Y-93963195D01*
X220974783Y-94193622D01*
X221054963Y-94303981D01*
X221054964Y-94303982D01*
X221741837Y-93617109D01*
X221760997Y-93663364D01*
X221837439Y-93777768D01*
X221934732Y-93875061D01*
X222049136Y-93951503D01*
X222095390Y-93970661D01*
X221408516Y-94657534D01*
X221408517Y-94657536D01*
X221518877Y-94737716D01*
X221749304Y-94855125D01*
X221995266Y-94935043D01*
X222250694Y-94975500D01*
X222509306Y-94975500D01*
X222764733Y-94935043D01*
X222764734Y-94935043D01*
X223010695Y-94855125D01*
X223241119Y-94737718D01*
X223351481Y-94657534D01*
X223351482Y-94657534D01*
X222664609Y-93970662D01*
X222710864Y-93951503D01*
X222825268Y-93875061D01*
X222922561Y-93777768D01*
X222999003Y-93663364D01*
X223018161Y-93617109D01*
X223705034Y-94303982D01*
X223705034Y-94303981D01*
X223785218Y-94193619D01*
X223902625Y-93963195D01*
X223982543Y-93717234D01*
X223982543Y-93717233D01*
X224022999Y-93461809D01*
X224023000Y-93461802D01*
X224023000Y-93203193D01*
X223982543Y-92947766D01*
X223982543Y-92947765D01*
X223902625Y-92701804D01*
X223785216Y-92471377D01*
X223705036Y-92361017D01*
X223705034Y-92361016D01*
X223018161Y-93047889D01*
X222999003Y-93001636D01*
X222922561Y-92887232D01*
X222825268Y-92789939D01*
X222710864Y-92713497D01*
X222664608Y-92694337D01*
X223088263Y-92270683D01*
X225436000Y-92270683D01*
X225436000Y-92489316D01*
X225470202Y-92705259D01*
X225537761Y-92913188D01*
X225537762Y-92913191D01*
X225637020Y-93107993D01*
X225637021Y-93107995D01*
X225681806Y-93169638D01*
X225681807Y-93169638D01*
X226382861Y-92468584D01*
X226405667Y-92553694D01*
X226464910Y-92656306D01*
X226548694Y-92740090D01*
X226651306Y-92799333D01*
X226736414Y-92822137D01*
X226035360Y-93523191D01*
X226097008Y-93567980D01*
X226291808Y-93667237D01*
X226291811Y-93667238D01*
X226499740Y-93734797D01*
X226715684Y-93769000D01*
X226934316Y-93769000D01*
X227150259Y-93734797D01*
X227358188Y-93667238D01*
X227358191Y-93667237D01*
X227552995Y-93567978D01*
X227614638Y-93523191D01*
X227614639Y-93523191D01*
X226913585Y-92822138D01*
X226998694Y-92799333D01*
X227101306Y-92740090D01*
X227185090Y-92656306D01*
X227244333Y-92553694D01*
X227267138Y-92468585D01*
X227968191Y-93169639D01*
X227968191Y-93169638D01*
X228012978Y-93107995D01*
X228112237Y-92913191D01*
X228112238Y-92913188D01*
X228179797Y-92705259D01*
X228214000Y-92489316D01*
X228214000Y-92270683D01*
X228213993Y-92270638D01*
X231785500Y-92270638D01*
X231785500Y-92489361D01*
X231819714Y-92705376D01*
X231887297Y-92913380D01*
X231887298Y-92913383D01*
X231920705Y-92978946D01*
X231986458Y-93107993D01*
X231986595Y-93108260D01*
X232115142Y-93285193D01*
X232269806Y-93439857D01*
X232384508Y-93523191D01*
X232446743Y-93568407D01*
X232574132Y-93633315D01*
X232641616Y-93667701D01*
X232641619Y-93667702D01*
X232698099Y-93686053D01*
X232849625Y-93735286D01*
X232949672Y-93751132D01*
X233065639Y-93769500D01*
X233065644Y-93769500D01*
X233284361Y-93769500D01*
X233389082Y-93752912D01*
X233500375Y-93735286D01*
X233708383Y-93667701D01*
X233903257Y-93568407D01*
X234049982Y-93461806D01*
X234080193Y-93439857D01*
X234080195Y-93439854D01*
X234080199Y-93439852D01*
X234234852Y-93285199D01*
X234250469Y-93263704D01*
X234294433Y-93203193D01*
X235977000Y-93203193D01*
X235977000Y-93461806D01*
X236017456Y-93717233D01*
X236017456Y-93717234D01*
X236097374Y-93963195D01*
X236214783Y-94193622D01*
X236294963Y-94303981D01*
X236294964Y-94303982D01*
X236981837Y-93617109D01*
X237000997Y-93663364D01*
X237077439Y-93777768D01*
X237174732Y-93875061D01*
X237289136Y-93951503D01*
X237335390Y-93970661D01*
X236648516Y-94657534D01*
X236648517Y-94657536D01*
X236758877Y-94737716D01*
X236989304Y-94855125D01*
X237235266Y-94935043D01*
X237490694Y-94975500D01*
X237749306Y-94975500D01*
X238004733Y-94935043D01*
X238004734Y-94935043D01*
X238250695Y-94855125D01*
X238481119Y-94737718D01*
X238591481Y-94657534D01*
X238591482Y-94657534D01*
X237904609Y-93970662D01*
X237950864Y-93951503D01*
X238065268Y-93875061D01*
X238162561Y-93777768D01*
X238239003Y-93663364D01*
X238258161Y-93617109D01*
X238945034Y-94303982D01*
X238945034Y-94303981D01*
X239025218Y-94193619D01*
X239142625Y-93963195D01*
X239222543Y-93717234D01*
X239222543Y-93717233D01*
X239263000Y-93461806D01*
X239263000Y-93203193D01*
X239222543Y-92947766D01*
X239222543Y-92947765D01*
X239142625Y-92701804D01*
X239025216Y-92471377D01*
X238945036Y-92361017D01*
X238945034Y-92361016D01*
X238258161Y-93047889D01*
X238239003Y-93001636D01*
X238162561Y-92887232D01*
X238065268Y-92789939D01*
X237950864Y-92713497D01*
X237904608Y-92694337D01*
X238591482Y-92007464D01*
X238591481Y-92007463D01*
X238481122Y-91927283D01*
X238250695Y-91809874D01*
X238004733Y-91729956D01*
X237749306Y-91689500D01*
X237490694Y-91689500D01*
X237235266Y-91729956D01*
X237235265Y-91729956D01*
X236989304Y-91809874D01*
X236758884Y-91927279D01*
X236648517Y-92007464D01*
X236648517Y-92007465D01*
X237335390Y-92694337D01*
X237289136Y-92713497D01*
X237174732Y-92789939D01*
X237077439Y-92887232D01*
X237000997Y-93001636D01*
X236981837Y-93047890D01*
X236294965Y-92361017D01*
X236294964Y-92361017D01*
X236214779Y-92471384D01*
X236097374Y-92701804D01*
X236017456Y-92947765D01*
X236017456Y-92947766D01*
X235977000Y-93203193D01*
X234294433Y-93203193D01*
X234350927Y-93125436D01*
X234363405Y-93108260D01*
X234363542Y-93107993D01*
X234462701Y-92913383D01*
X234530286Y-92705375D01*
X234554310Y-92553694D01*
X234564500Y-92489361D01*
X234564500Y-92270638D01*
X234533374Y-92074122D01*
X234533374Y-92074121D01*
X234530286Y-92054624D01*
X234462702Y-91846619D01*
X234462701Y-91846616D01*
X234422750Y-91768209D01*
X234363407Y-91651743D01*
X234348544Y-91631286D01*
X234234857Y-91474806D01*
X234080193Y-91320142D01*
X233903260Y-91191595D01*
X233903259Y-91191594D01*
X233903257Y-91191593D01*
X233778980Y-91128270D01*
X233708383Y-91092298D01*
X233708380Y-91092297D01*
X233500376Y-91024714D01*
X233284361Y-90990500D01*
X233284356Y-90990500D01*
X233065644Y-90990500D01*
X233065639Y-90990500D01*
X232849623Y-91024714D01*
X232641619Y-91092297D01*
X232641616Y-91092298D01*
X232446739Y-91191595D01*
X232269806Y-91320142D01*
X232115142Y-91474806D01*
X231986595Y-91651739D01*
X231887298Y-91846616D01*
X231887297Y-91846619D01*
X231819714Y-92054623D01*
X231785500Y-92270638D01*
X228213993Y-92270638D01*
X228179797Y-92054740D01*
X228112238Y-91846811D01*
X228112237Y-91846808D01*
X228012980Y-91652008D01*
X227968191Y-91590360D01*
X227267137Y-92291414D01*
X227244333Y-92206306D01*
X227185090Y-92103694D01*
X227101306Y-92019910D01*
X226998694Y-91960667D01*
X226913583Y-91937861D01*
X227614638Y-91236807D01*
X227614638Y-91236806D01*
X227552995Y-91192021D01*
X227552993Y-91192020D01*
X227358191Y-91092762D01*
X227358188Y-91092761D01*
X227150259Y-91025202D01*
X226934316Y-90991000D01*
X226715684Y-90991000D01*
X226499740Y-91025202D01*
X226291811Y-91092761D01*
X226291808Y-91092762D01*
X226097001Y-91192023D01*
X226035360Y-91236806D01*
X226035360Y-91236807D01*
X226736414Y-91937861D01*
X226651306Y-91960667D01*
X226548694Y-92019910D01*
X226464910Y-92103694D01*
X226405667Y-92206306D01*
X226382861Y-92291414D01*
X225681807Y-91590360D01*
X225681806Y-91590360D01*
X225637023Y-91652001D01*
X225537762Y-91846808D01*
X225537761Y-91846811D01*
X225470202Y-92054740D01*
X225436000Y-92270683D01*
X223088263Y-92270683D01*
X223351482Y-92007464D01*
X223351481Y-92007463D01*
X223241122Y-91927283D01*
X223010695Y-91809874D01*
X222764733Y-91729956D01*
X222509306Y-91689500D01*
X222250694Y-91689500D01*
X221995266Y-91729956D01*
X221995265Y-91729956D01*
X221749304Y-91809874D01*
X221518884Y-91927279D01*
X221408517Y-92007464D01*
X221408517Y-92007465D01*
X222095390Y-92694337D01*
X222049136Y-92713497D01*
X221934732Y-92789939D01*
X221837439Y-92887232D01*
X221760997Y-93001636D01*
X221741837Y-93047890D01*
X221054965Y-92361017D01*
X221054964Y-92361017D01*
X220974779Y-92471384D01*
X220857374Y-92701804D01*
X220777456Y-92947765D01*
X220777456Y-92947766D01*
X220737000Y-93203193D01*
X171496209Y-93203193D01*
X169617107Y-91324091D01*
X169583622Y-91262768D01*
X169588606Y-91193076D01*
X169630478Y-91137143D01*
X169657333Y-91121850D01*
X169823914Y-91052851D01*
X169987782Y-90943358D01*
X170127139Y-90804001D01*
X170236632Y-90640133D01*
X170312051Y-90458054D01*
X170348034Y-90277157D01*
X170350500Y-90264762D01*
X170889499Y-90264762D01*
X170927947Y-90458048D01*
X170927950Y-90458058D01*
X171003364Y-90640126D01*
X171003371Y-90640139D01*
X171112860Y-90804000D01*
X171112863Y-90804004D01*
X171252214Y-90943355D01*
X171252218Y-90943358D01*
X171416079Y-91052847D01*
X171416092Y-91052854D01*
X171575814Y-91119012D01*
X171598165Y-91128270D01*
X171598169Y-91128270D01*
X171598170Y-91128271D01*
X171791456Y-91166719D01*
X171791459Y-91166719D01*
X171988543Y-91166719D01*
X172137228Y-91137143D01*
X172181835Y-91128270D01*
X172363914Y-91052851D01*
X172527782Y-90943358D01*
X172667139Y-90804001D01*
X172776632Y-90640133D01*
X172852051Y-90458054D01*
X172888034Y-90277156D01*
X172920419Y-90215246D01*
X172981134Y-90180672D01*
X173050904Y-90184411D01*
X173107576Y-90225278D01*
X173132124Y-90281950D01*
X173162009Y-90470636D01*
X173225244Y-90665250D01*
X173318140Y-90847568D01*
X173438417Y-91013113D01*
X173438417Y-91013114D01*
X173583104Y-91157801D01*
X173748650Y-91278078D01*
X173930968Y-91370973D01*
X174125578Y-91434207D01*
X174180000Y-91442826D01*
X174180000Y-89799231D01*
X174237007Y-89832144D01*
X174364174Y-89866219D01*
X174495826Y-89866219D01*
X174622993Y-89832144D01*
X174680000Y-89799231D01*
X174680000Y-91442825D01*
X174734421Y-91434207D01*
X174929031Y-91370973D01*
X175111349Y-91278078D01*
X175276894Y-91157801D01*
X175276895Y-91157801D01*
X175421582Y-91013114D01*
X175421582Y-91013113D01*
X175541859Y-90847568D01*
X175634755Y-90665250D01*
X175697990Y-90470636D01*
X175727875Y-90281950D01*
X175757804Y-90218815D01*
X175817116Y-90181884D01*
X175886978Y-90182882D01*
X175945211Y-90221492D01*
X175971965Y-90277156D01*
X176007947Y-90458048D01*
X176007950Y-90458058D01*
X176083364Y-90640126D01*
X176083371Y-90640139D01*
X176192860Y-90804000D01*
X176192863Y-90804004D01*
X176332214Y-90943355D01*
X176332218Y-90943358D01*
X176496079Y-91052847D01*
X176496092Y-91052854D01*
X176655814Y-91119012D01*
X176678165Y-91128270D01*
X176678169Y-91128270D01*
X176678170Y-91128271D01*
X176871456Y-91166719D01*
X176871459Y-91166719D01*
X177068543Y-91166719D01*
X177217228Y-91137143D01*
X177261835Y-91128270D01*
X177443914Y-91052851D01*
X177607782Y-90943358D01*
X177747139Y-90804001D01*
X177856632Y-90640133D01*
X177932051Y-90458054D01*
X177968034Y-90277157D01*
X177970500Y-90264762D01*
X177970500Y-89067675D01*
X177932052Y-88874389D01*
X177932051Y-88874388D01*
X177932051Y-88874384D01*
X177870697Y-88726261D01*
X177856635Y-88692311D01*
X177856628Y-88692298D01*
X177747139Y-88528437D01*
X177747136Y-88528433D01*
X177607785Y-88389082D01*
X177607781Y-88389079D01*
X177443920Y-88279590D01*
X177443907Y-88279583D01*
X177261839Y-88204169D01*
X177261829Y-88204166D01*
X177068543Y-88165719D01*
X177068541Y-88165719D01*
X176871459Y-88165719D01*
X176871457Y-88165719D01*
X176678170Y-88204166D01*
X176678160Y-88204169D01*
X176496092Y-88279583D01*
X176496079Y-88279590D01*
X176332218Y-88389079D01*
X176332214Y-88389082D01*
X176192863Y-88528433D01*
X176192860Y-88528437D01*
X176083371Y-88692298D01*
X176083364Y-88692311D01*
X176007950Y-88874379D01*
X176007947Y-88874389D01*
X175971965Y-89055281D01*
X175939580Y-89117192D01*
X175878864Y-89151766D01*
X175809094Y-89148025D01*
X175752423Y-89107159D01*
X175727875Y-89050487D01*
X175697990Y-88861801D01*
X175634755Y-88667187D01*
X175541859Y-88484869D01*
X175421582Y-88319324D01*
X175421582Y-88319323D01*
X175276895Y-88174636D01*
X175111349Y-88054359D01*
X174929029Y-87961463D01*
X174734413Y-87898228D01*
X174680000Y-87889609D01*
X174680000Y-88933207D01*
X174622993Y-88900294D01*
X174495826Y-88866219D01*
X174364174Y-88866219D01*
X174237007Y-88900294D01*
X174180000Y-88933207D01*
X174180000Y-87889609D01*
X174125586Y-87898228D01*
X173930970Y-87961463D01*
X173748650Y-88054359D01*
X173583105Y-88174636D01*
X173583104Y-88174636D01*
X173438417Y-88319323D01*
X173438417Y-88319324D01*
X173318140Y-88484869D01*
X173225244Y-88667187D01*
X173162010Y-88861800D01*
X173132124Y-89050488D01*
X173102194Y-89113622D01*
X173042883Y-89150553D01*
X172973020Y-89149555D01*
X172914788Y-89110945D01*
X172888034Y-89055280D01*
X172861311Y-88920939D01*
X172852051Y-88874384D01*
X172790697Y-88726261D01*
X172776635Y-88692311D01*
X172776628Y-88692298D01*
X172667139Y-88528437D01*
X172667136Y-88528433D01*
X172527785Y-88389082D01*
X172527781Y-88389079D01*
X172363920Y-88279590D01*
X172363907Y-88279583D01*
X172181839Y-88204169D01*
X172181829Y-88204166D01*
X171988543Y-88165719D01*
X171988541Y-88165719D01*
X171791459Y-88165719D01*
X171791457Y-88165719D01*
X171598170Y-88204166D01*
X171598160Y-88204169D01*
X171416092Y-88279583D01*
X171416079Y-88279590D01*
X171252218Y-88389079D01*
X171252214Y-88389082D01*
X171112863Y-88528433D01*
X171112860Y-88528437D01*
X171003371Y-88692298D01*
X171003364Y-88692311D01*
X170927950Y-88874379D01*
X170927947Y-88874389D01*
X170889500Y-89067675D01*
X170889500Y-89067678D01*
X170889500Y-90264760D01*
X170889500Y-90264762D01*
X170889499Y-90264762D01*
X170350500Y-90264762D01*
X170350500Y-89067675D01*
X170312052Y-88874389D01*
X170312051Y-88874388D01*
X170312051Y-88874384D01*
X170250697Y-88726261D01*
X170236635Y-88692311D01*
X170236628Y-88692298D01*
X170127139Y-88528437D01*
X170127136Y-88528433D01*
X169987785Y-88389082D01*
X169987781Y-88389079D01*
X169823920Y-88279590D01*
X169823907Y-88279583D01*
X169641839Y-88204169D01*
X169641829Y-88204166D01*
X169448543Y-88165719D01*
X169448541Y-88165719D01*
X169251459Y-88165719D01*
X169251457Y-88165719D01*
X169058170Y-88204166D01*
X169058160Y-88204169D01*
X168876092Y-88279583D01*
X168876079Y-88279590D01*
X168712218Y-88389079D01*
X168712214Y-88389082D01*
X168572863Y-88528433D01*
X168572860Y-88528437D01*
X168463371Y-88692298D01*
X168463364Y-88692311D01*
X168387950Y-88874379D01*
X168387947Y-88874389D01*
X168349500Y-89067675D01*
X168349500Y-89757122D01*
X168329815Y-89824161D01*
X168277011Y-89869916D01*
X168207853Y-89879860D01*
X168144297Y-89850835D01*
X168137819Y-89844803D01*
X167846819Y-89553803D01*
X167813334Y-89492480D01*
X167810500Y-89466122D01*
X167810500Y-89067675D01*
X167772052Y-88874389D01*
X167772051Y-88874388D01*
X167772051Y-88874384D01*
X167710697Y-88726261D01*
X167696635Y-88692311D01*
X167696628Y-88692298D01*
X167587139Y-88528437D01*
X167587136Y-88528433D01*
X167447785Y-88389082D01*
X167447781Y-88389079D01*
X167283920Y-88279590D01*
X167283907Y-88279583D01*
X167101839Y-88204169D01*
X167101829Y-88204166D01*
X166908543Y-88165719D01*
X166908541Y-88165719D01*
X166711459Y-88165719D01*
X166711457Y-88165719D01*
X166518170Y-88204166D01*
X166518160Y-88204169D01*
X166336092Y-88279583D01*
X166336079Y-88279590D01*
X166172218Y-88389079D01*
X166172214Y-88389082D01*
X166032863Y-88528433D01*
X166032860Y-88528437D01*
X165923371Y-88692298D01*
X165923364Y-88692311D01*
X165847950Y-88874379D01*
X165847947Y-88874389D01*
X165809500Y-89067675D01*
X165809500Y-89757122D01*
X165789815Y-89824161D01*
X165737011Y-89869916D01*
X165667853Y-89879860D01*
X165604297Y-89850835D01*
X165597819Y-89844803D01*
X165306819Y-89553803D01*
X165273334Y-89492480D01*
X165270500Y-89466122D01*
X165270500Y-89067675D01*
X165232052Y-88874389D01*
X165232051Y-88874388D01*
X165232051Y-88874384D01*
X165170697Y-88726261D01*
X165156635Y-88692311D01*
X165156628Y-88692298D01*
X165047139Y-88528437D01*
X165047136Y-88528433D01*
X164907785Y-88389082D01*
X164907781Y-88389079D01*
X164743920Y-88279590D01*
X164743907Y-88279583D01*
X164561839Y-88204169D01*
X164561829Y-88204166D01*
X164368543Y-88165719D01*
X164368541Y-88165719D01*
X164171459Y-88165719D01*
X164171457Y-88165719D01*
X163978170Y-88204166D01*
X163978160Y-88204169D01*
X163796092Y-88279583D01*
X163796079Y-88279590D01*
X163632218Y-88389079D01*
X163632214Y-88389082D01*
X163492863Y-88528433D01*
X163492860Y-88528437D01*
X163383371Y-88692298D01*
X163383364Y-88692311D01*
X163307950Y-88874379D01*
X163307947Y-88874389D01*
X163269500Y-89067675D01*
X163269500Y-89067678D01*
X163269500Y-90264760D01*
X163269500Y-90264762D01*
X163269499Y-90264762D01*
X162730500Y-90264762D01*
X162730500Y-89067675D01*
X162692052Y-88874389D01*
X162692051Y-88874388D01*
X162692051Y-88874384D01*
X162630697Y-88726261D01*
X162616635Y-88692311D01*
X162616628Y-88692298D01*
X162507139Y-88528437D01*
X162507136Y-88528433D01*
X162367785Y-88389082D01*
X162367781Y-88389079D01*
X162203920Y-88279590D01*
X162203907Y-88279583D01*
X162021839Y-88204169D01*
X162021829Y-88204166D01*
X161828543Y-88165719D01*
X161828541Y-88165719D01*
X161631459Y-88165719D01*
X161631457Y-88165719D01*
X161438170Y-88204166D01*
X161438160Y-88204169D01*
X161256092Y-88279583D01*
X161256079Y-88279590D01*
X161092218Y-88389079D01*
X161092214Y-88389082D01*
X160952863Y-88528433D01*
X160952860Y-88528437D01*
X160843371Y-88692298D01*
X160843364Y-88692311D01*
X160767950Y-88874379D01*
X160767947Y-88874389D01*
X160729500Y-89067675D01*
X160729500Y-89466122D01*
X160709815Y-89533161D01*
X160693181Y-89553803D01*
X160402181Y-89844803D01*
X160340858Y-89878288D01*
X160271166Y-89873304D01*
X160215233Y-89831432D01*
X160190816Y-89765968D01*
X160190500Y-89757122D01*
X160190500Y-89067675D01*
X160152052Y-88874389D01*
X160152051Y-88874388D01*
X160152051Y-88874384D01*
X160090697Y-88726261D01*
X160076635Y-88692311D01*
X160076628Y-88692298D01*
X159967139Y-88528437D01*
X159967136Y-88528433D01*
X159827785Y-88389082D01*
X159827781Y-88389079D01*
X159663920Y-88279590D01*
X159663907Y-88279583D01*
X159481839Y-88204169D01*
X159481829Y-88204166D01*
X159288543Y-88165719D01*
X159288541Y-88165719D01*
X159091459Y-88165719D01*
X159091457Y-88165719D01*
X158898170Y-88204166D01*
X158898160Y-88204169D01*
X158716092Y-88279583D01*
X158716079Y-88279590D01*
X158552218Y-88389079D01*
X158552214Y-88389082D01*
X158412863Y-88528433D01*
X158412860Y-88528437D01*
X158303371Y-88692298D01*
X158303364Y-88692311D01*
X158227950Y-88874379D01*
X158227947Y-88874389D01*
X158189500Y-89067675D01*
X158189500Y-89067678D01*
X158189500Y-90264760D01*
X158189500Y-90264762D01*
X158189499Y-90264762D01*
X158227947Y-90458048D01*
X158227950Y-90458058D01*
X158303364Y-90640126D01*
X158303371Y-90640139D01*
X158412860Y-90804000D01*
X158412863Y-90804004D01*
X158552214Y-90943355D01*
X158552218Y-90943358D01*
X158716079Y-91052847D01*
X158716083Y-91052849D01*
X158716086Y-91052851D01*
X158882667Y-91121850D01*
X158937066Y-91165688D01*
X158959132Y-91231982D01*
X158941853Y-91299681D01*
X158922892Y-91324090D01*
X156883803Y-93363181D01*
X156822480Y-93396666D01*
X156796122Y-93399500D01*
X138300097Y-93399500D01*
X138233058Y-93379815D01*
X138212416Y-93363181D01*
X135113997Y-90264762D01*
X142949499Y-90264762D01*
X142987947Y-90458048D01*
X142987950Y-90458058D01*
X143063364Y-90640126D01*
X143063371Y-90640139D01*
X143172860Y-90804000D01*
X143172863Y-90804004D01*
X143312214Y-90943355D01*
X143312218Y-90943358D01*
X143476079Y-91052847D01*
X143476092Y-91052854D01*
X143635814Y-91119012D01*
X143658165Y-91128270D01*
X143658169Y-91128270D01*
X143658170Y-91128271D01*
X143851456Y-91166719D01*
X143851459Y-91166719D01*
X144048543Y-91166719D01*
X144197228Y-91137143D01*
X144241835Y-91128270D01*
X144423914Y-91052851D01*
X144587782Y-90943358D01*
X144727139Y-90804001D01*
X144836632Y-90640133D01*
X144912051Y-90458054D01*
X144948034Y-90277157D01*
X144950500Y-90264762D01*
X145489499Y-90264762D01*
X145527947Y-90458048D01*
X145527950Y-90458058D01*
X145603364Y-90640126D01*
X145603371Y-90640139D01*
X145712860Y-90804000D01*
X145712863Y-90804004D01*
X145852214Y-90943355D01*
X145852218Y-90943358D01*
X146016079Y-91052847D01*
X146016092Y-91052854D01*
X146175814Y-91119012D01*
X146198165Y-91128270D01*
X146198169Y-91128270D01*
X146198170Y-91128271D01*
X146391456Y-91166719D01*
X146391459Y-91166719D01*
X146588543Y-91166719D01*
X146737228Y-91137143D01*
X146781835Y-91128270D01*
X146963914Y-91052851D01*
X147127782Y-90943358D01*
X147267139Y-90804001D01*
X147376632Y-90640133D01*
X147452051Y-90458054D01*
X147488034Y-90277157D01*
X147490500Y-90264762D01*
X148029499Y-90264762D01*
X148067947Y-90458048D01*
X148067950Y-90458058D01*
X148143364Y-90640126D01*
X148143371Y-90640139D01*
X148252860Y-90804000D01*
X148252863Y-90804004D01*
X148392214Y-90943355D01*
X148392218Y-90943358D01*
X148556079Y-91052847D01*
X148556092Y-91052854D01*
X148715814Y-91119012D01*
X148738165Y-91128270D01*
X148738169Y-91128270D01*
X148738170Y-91128271D01*
X148931456Y-91166719D01*
X148931459Y-91166719D01*
X149128543Y-91166719D01*
X149277228Y-91137143D01*
X149321835Y-91128270D01*
X149503914Y-91052851D01*
X149667782Y-90943358D01*
X149807139Y-90804001D01*
X149916632Y-90640133D01*
X149992051Y-90458054D01*
X150028034Y-90277157D01*
X150030500Y-90264762D01*
X150569499Y-90264762D01*
X150607947Y-90458048D01*
X150607950Y-90458058D01*
X150683364Y-90640126D01*
X150683371Y-90640139D01*
X150792860Y-90804000D01*
X150792863Y-90804004D01*
X150932214Y-90943355D01*
X150932218Y-90943358D01*
X151096079Y-91052847D01*
X151096092Y-91052854D01*
X151255814Y-91119012D01*
X151278165Y-91128270D01*
X151278169Y-91128270D01*
X151278170Y-91128271D01*
X151471456Y-91166719D01*
X151471459Y-91166719D01*
X151668543Y-91166719D01*
X151817228Y-91137143D01*
X151861835Y-91128270D01*
X152043914Y-91052851D01*
X152207782Y-90943358D01*
X152347139Y-90804001D01*
X152456632Y-90640133D01*
X152532051Y-90458054D01*
X152568034Y-90277157D01*
X152570500Y-90264762D01*
X152570500Y-89067675D01*
X152532052Y-88874389D01*
X152532051Y-88874388D01*
X152532051Y-88874384D01*
X152470697Y-88726261D01*
X152456635Y-88692311D01*
X152456628Y-88692298D01*
X152347139Y-88528437D01*
X152347136Y-88528433D01*
X152207785Y-88389082D01*
X152207781Y-88389079D01*
X152043920Y-88279590D01*
X152043907Y-88279583D01*
X151861839Y-88204169D01*
X151861829Y-88204166D01*
X151668543Y-88165719D01*
X151668541Y-88165719D01*
X151471459Y-88165719D01*
X151471457Y-88165719D01*
X151278170Y-88204166D01*
X151278160Y-88204169D01*
X151096092Y-88279583D01*
X151096079Y-88279590D01*
X150932218Y-88389079D01*
X150932214Y-88389082D01*
X150792863Y-88528433D01*
X150792860Y-88528437D01*
X150683371Y-88692298D01*
X150683364Y-88692311D01*
X150607950Y-88874379D01*
X150607947Y-88874389D01*
X150569500Y-89067675D01*
X150569500Y-89067678D01*
X150569500Y-90264760D01*
X150569500Y-90264762D01*
X150569499Y-90264762D01*
X150030500Y-90264762D01*
X150030500Y-89067675D01*
X149992052Y-88874389D01*
X149992051Y-88874388D01*
X149992051Y-88874384D01*
X149930697Y-88726261D01*
X149916635Y-88692311D01*
X149916628Y-88692298D01*
X149807139Y-88528437D01*
X149807136Y-88528433D01*
X149667785Y-88389082D01*
X149667781Y-88389079D01*
X149503920Y-88279590D01*
X149503907Y-88279583D01*
X149321839Y-88204169D01*
X149321829Y-88204166D01*
X149128543Y-88165719D01*
X149128541Y-88165719D01*
X148931459Y-88165719D01*
X148931457Y-88165719D01*
X148738170Y-88204166D01*
X148738160Y-88204169D01*
X148556092Y-88279583D01*
X148556079Y-88279590D01*
X148392218Y-88389079D01*
X148392214Y-88389082D01*
X148252863Y-88528433D01*
X148252860Y-88528437D01*
X148143371Y-88692298D01*
X148143364Y-88692311D01*
X148067950Y-88874379D01*
X148067947Y-88874389D01*
X148029500Y-89067675D01*
X148029500Y-89067678D01*
X148029500Y-90264760D01*
X148029500Y-90264762D01*
X148029499Y-90264762D01*
X147490500Y-90264762D01*
X147490500Y-89067675D01*
X147452052Y-88874389D01*
X147452051Y-88874388D01*
X147452051Y-88874384D01*
X147390697Y-88726261D01*
X147376635Y-88692311D01*
X147376628Y-88692298D01*
X147267139Y-88528437D01*
X147267136Y-88528433D01*
X147127785Y-88389082D01*
X147127781Y-88389079D01*
X146963920Y-88279590D01*
X146963907Y-88279583D01*
X146781839Y-88204169D01*
X146781829Y-88204166D01*
X146588543Y-88165719D01*
X146588541Y-88165719D01*
X146391459Y-88165719D01*
X146391457Y-88165719D01*
X146198170Y-88204166D01*
X146198160Y-88204169D01*
X146016092Y-88279583D01*
X146016079Y-88279590D01*
X145852218Y-88389079D01*
X145852214Y-88389082D01*
X145712863Y-88528433D01*
X145712860Y-88528437D01*
X145603371Y-88692298D01*
X145603364Y-88692311D01*
X145527950Y-88874379D01*
X145527947Y-88874389D01*
X145489500Y-89067675D01*
X145489500Y-89067678D01*
X145489500Y-90264760D01*
X145489500Y-90264762D01*
X145489499Y-90264762D01*
X144950500Y-90264762D01*
X144950500Y-89067675D01*
X144912052Y-88874389D01*
X144912051Y-88874388D01*
X144912051Y-88874384D01*
X144850697Y-88726261D01*
X144836635Y-88692311D01*
X144836628Y-88692298D01*
X144727139Y-88528437D01*
X144727136Y-88528433D01*
X144586819Y-88388116D01*
X144553334Y-88326793D01*
X144550500Y-88300435D01*
X144550500Y-83350097D01*
X144570185Y-83283058D01*
X144586819Y-83262416D01*
X145279757Y-82569478D01*
X149014662Y-78834572D01*
X149075983Y-78801089D01*
X149078150Y-78800638D01*
X149136085Y-78789113D01*
X149233497Y-78769737D01*
X149379179Y-78709394D01*
X149510289Y-78621789D01*
X149621789Y-78510289D01*
X149709394Y-78379179D01*
X149769737Y-78233497D01*
X149800500Y-78078842D01*
X149800500Y-77921158D01*
X149800500Y-77921155D01*
X149800499Y-77921153D01*
X149787895Y-77857791D01*
X149769737Y-77766503D01*
X149746080Y-77709390D01*
X149709397Y-77620827D01*
X149709390Y-77620814D01*
X149621789Y-77489711D01*
X149621786Y-77489707D01*
X149510292Y-77378213D01*
X149510288Y-77378210D01*
X149379185Y-77290609D01*
X149379172Y-77290602D01*
X149233501Y-77230264D01*
X149233489Y-77230261D01*
X149078845Y-77199500D01*
X149078842Y-77199500D01*
X148921158Y-77199500D01*
X148921155Y-77199500D01*
X148766510Y-77230261D01*
X148766498Y-77230264D01*
X148620827Y-77290602D01*
X148620814Y-77290609D01*
X148489711Y-77378210D01*
X148489707Y-77378213D01*
X148378213Y-77489707D01*
X148378210Y-77489711D01*
X148290609Y-77620814D01*
X148290602Y-77620827D01*
X148230264Y-77766498D01*
X148230261Y-77766508D01*
X148199361Y-77921850D01*
X148166976Y-77983761D01*
X148165425Y-77985339D01*
X143469482Y-82681281D01*
X143469480Y-82681283D01*
X143460075Y-82697573D01*
X143453190Y-82709500D01*
X143390423Y-82818215D01*
X143349499Y-82970943D01*
X143349499Y-82970945D01*
X143349499Y-83139046D01*
X143349500Y-83139059D01*
X143349500Y-88300435D01*
X143329815Y-88367474D01*
X143313181Y-88388116D01*
X143172863Y-88528433D01*
X143172860Y-88528437D01*
X143063371Y-88692298D01*
X143063364Y-88692311D01*
X142987950Y-88874379D01*
X142987947Y-88874389D01*
X142949500Y-89067675D01*
X142949500Y-89067678D01*
X142949500Y-90264760D01*
X142949500Y-90264762D01*
X142949499Y-90264762D01*
X135113997Y-90264762D01*
X129636819Y-84787584D01*
X129603334Y-84726261D01*
X129600500Y-84699903D01*
X129600500Y-72997634D01*
X141904500Y-72997634D01*
X141904500Y-73230365D01*
X141904501Y-73230382D01*
X141934878Y-73461122D01*
X141995120Y-73685947D01*
X142084180Y-73900960D01*
X142084188Y-73900976D01*
X142200553Y-74102524D01*
X142200564Y-74102540D01*
X142342242Y-74287179D01*
X142342248Y-74287186D01*
X142506813Y-74451751D01*
X142506820Y-74451757D01*
X142573345Y-74502803D01*
X142691468Y-74593442D01*
X142691475Y-74593446D01*
X142893023Y-74709811D01*
X142893039Y-74709819D01*
X143108052Y-74798879D01*
X143108054Y-74798879D01*
X143108060Y-74798882D01*
X143332874Y-74859121D01*
X143563628Y-74889500D01*
X143563635Y-74889500D01*
X143796365Y-74889500D01*
X143796372Y-74889500D01*
X144027126Y-74859121D01*
X144251940Y-74798882D01*
X144379897Y-74745881D01*
X144466960Y-74709819D01*
X144466963Y-74709817D01*
X144466969Y-74709815D01*
X144668532Y-74593442D01*
X144853181Y-74451756D01*
X144853186Y-74451751D01*
X144907125Y-74397813D01*
X145017751Y-74287186D01*
X145017756Y-74287181D01*
X145105939Y-74172257D01*
X145162366Y-74131055D01*
X145232112Y-74126900D01*
X145293033Y-74161112D01*
X145302691Y-74172257D01*
X145308551Y-74179894D01*
X146328000Y-73160445D01*
X146328000Y-73166661D01*
X146355259Y-73268394D01*
X146407920Y-73359606D01*
X146482394Y-73434080D01*
X146573606Y-73486741D01*
X146675339Y-73514000D01*
X146681553Y-73514000D01*
X145662104Y-74533446D01*
X145662104Y-74533447D01*
X145739752Y-74593029D01*
X145941249Y-74709363D01*
X145941259Y-74709367D01*
X146156220Y-74798407D01*
X146380975Y-74858630D01*
X146611659Y-74889000D01*
X146844341Y-74889000D01*
X147075024Y-74858630D01*
X147299779Y-74798407D01*
X147514740Y-74709367D01*
X147514750Y-74709363D01*
X147716255Y-74593024D01*
X147793894Y-74533447D01*
X147793894Y-74533446D01*
X146774447Y-73514000D01*
X146780661Y-73514000D01*
X146882394Y-73486741D01*
X146973606Y-73434080D01*
X147048080Y-73359606D01*
X147100741Y-73268394D01*
X147128000Y-73166661D01*
X147128000Y-73160448D01*
X148147446Y-74179894D01*
X148153308Y-74172256D01*
X148209736Y-74131054D01*
X148279483Y-74126899D01*
X148340403Y-74161112D01*
X148350060Y-74172257D01*
X148438242Y-74287179D01*
X148438248Y-74287186D01*
X148602813Y-74451751D01*
X148602820Y-74451757D01*
X148669345Y-74502803D01*
X148787468Y-74593442D01*
X148787475Y-74593446D01*
X148989023Y-74709811D01*
X148989039Y-74709819D01*
X149204052Y-74798879D01*
X149204054Y-74798879D01*
X149204060Y-74798882D01*
X149428874Y-74859121D01*
X149659628Y-74889500D01*
X149659635Y-74889500D01*
X149892365Y-74889500D01*
X149892372Y-74889500D01*
X150123126Y-74859121D01*
X150347940Y-74798882D01*
X150457864Y-74753349D01*
X150527330Y-74745881D01*
X150589809Y-74777156D01*
X150592995Y-74780230D01*
X153473181Y-77660416D01*
X153506666Y-77721739D01*
X153509500Y-77748097D01*
X153509500Y-88300435D01*
X153489815Y-88367474D01*
X153473181Y-88388116D01*
X153332863Y-88528433D01*
X153332860Y-88528437D01*
X153223371Y-88692298D01*
X153223364Y-88692311D01*
X153147950Y-88874379D01*
X153147947Y-88874389D01*
X153109500Y-89067675D01*
X153109500Y-89067678D01*
X153109500Y-90264760D01*
X153109500Y-90264762D01*
X153109499Y-90264762D01*
X153147947Y-90458048D01*
X153147950Y-90458058D01*
X153223364Y-90640126D01*
X153223371Y-90640139D01*
X153332860Y-90804000D01*
X153332863Y-90804004D01*
X153472214Y-90943355D01*
X153472218Y-90943358D01*
X153636079Y-91052847D01*
X153636092Y-91052854D01*
X153795814Y-91119012D01*
X153818165Y-91128270D01*
X153818169Y-91128270D01*
X153818170Y-91128271D01*
X154011456Y-91166719D01*
X154011459Y-91166719D01*
X154208543Y-91166719D01*
X154357228Y-91137143D01*
X154401835Y-91128270D01*
X154583914Y-91052851D01*
X154747782Y-90943358D01*
X154887139Y-90804001D01*
X154996632Y-90640133D01*
X155072051Y-90458054D01*
X155108034Y-90277157D01*
X155110500Y-90264762D01*
X155110500Y-89067675D01*
X155072052Y-88874389D01*
X155072051Y-88874388D01*
X155072051Y-88874384D01*
X155010697Y-88726261D01*
X154996635Y-88692311D01*
X154996628Y-88692298D01*
X154887139Y-88528437D01*
X154887136Y-88528433D01*
X154746819Y-88388116D01*
X154713334Y-88326793D01*
X154710500Y-88300435D01*
X154710500Y-77537060D01*
X154710501Y-77537047D01*
X154710501Y-77368944D01*
X154675976Y-77240097D01*
X154669577Y-77216216D01*
X154653711Y-77188735D01*
X154590524Y-77079290D01*
X154590518Y-77079282D01*
X152612173Y-75100937D01*
X152578688Y-75039614D01*
X152583672Y-74969922D01*
X152625544Y-74913989D01*
X152691008Y-74889572D01*
X152703569Y-74889535D01*
X152703569Y-74889500D01*
X152940365Y-74889500D01*
X152940372Y-74889500D01*
X153171126Y-74859121D01*
X153395940Y-74798882D01*
X153505864Y-74753349D01*
X153575330Y-74745881D01*
X153637809Y-74777156D01*
X153640995Y-74780230D01*
X156013181Y-77152416D01*
X156046666Y-77213739D01*
X156049500Y-77240097D01*
X156049500Y-88300435D01*
X156029815Y-88367474D01*
X156013181Y-88388116D01*
X155872863Y-88528433D01*
X155872860Y-88528437D01*
X155763371Y-88692298D01*
X155763364Y-88692311D01*
X155687950Y-88874379D01*
X155687947Y-88874389D01*
X155649500Y-89067675D01*
X155649500Y-89067678D01*
X155649500Y-90264760D01*
X155649500Y-90264762D01*
X155649499Y-90264762D01*
X155687947Y-90458048D01*
X155687950Y-90458058D01*
X155763364Y-90640126D01*
X155763371Y-90640139D01*
X155872860Y-90804000D01*
X155872863Y-90804004D01*
X156012214Y-90943355D01*
X156012218Y-90943358D01*
X156176079Y-91052847D01*
X156176092Y-91052854D01*
X156335814Y-91119012D01*
X156358165Y-91128270D01*
X156358169Y-91128270D01*
X156358170Y-91128271D01*
X156551456Y-91166719D01*
X156551459Y-91166719D01*
X156748543Y-91166719D01*
X156897228Y-91137143D01*
X156941835Y-91128270D01*
X157123914Y-91052851D01*
X157287782Y-90943358D01*
X157427139Y-90804001D01*
X157536632Y-90640133D01*
X157612051Y-90458054D01*
X157648034Y-90277157D01*
X157650500Y-90264762D01*
X157650500Y-89067675D01*
X157612052Y-88874389D01*
X157612051Y-88874388D01*
X157612051Y-88874384D01*
X157550697Y-88726261D01*
X157536635Y-88692311D01*
X157536628Y-88692298D01*
X157427139Y-88528437D01*
X157427136Y-88528433D01*
X157286819Y-88388116D01*
X157253334Y-88326793D01*
X157250500Y-88300435D01*
X157250500Y-76860945D01*
X157250499Y-76860938D01*
X157246898Y-76847500D01*
X157209577Y-76708215D01*
X157159120Y-76620821D01*
X157130520Y-76571284D01*
X157018716Y-76459480D01*
X157018715Y-76459479D01*
X157014385Y-76455149D01*
X157014374Y-76455139D01*
X155660172Y-75100937D01*
X155626687Y-75039614D01*
X155631671Y-74969922D01*
X155673543Y-74913989D01*
X155739007Y-74889572D01*
X155751569Y-74889534D01*
X155751569Y-74889500D01*
X155988365Y-74889500D01*
X155988372Y-74889500D01*
X156219126Y-74859121D01*
X156443940Y-74798882D01*
X156571897Y-74745881D01*
X156658960Y-74709819D01*
X156658963Y-74709817D01*
X156658969Y-74709815D01*
X156860532Y-74593442D01*
X157045181Y-74451756D01*
X157209756Y-74287181D01*
X157297624Y-74172668D01*
X157354052Y-74131466D01*
X157423798Y-74127311D01*
X157484718Y-74161523D01*
X157494376Y-74172669D01*
X157582242Y-74287179D01*
X157582248Y-74287186D01*
X157746813Y-74451751D01*
X157746820Y-74451757D01*
X157813345Y-74502803D01*
X157931468Y-74593442D01*
X157931475Y-74593446D01*
X158133023Y-74709811D01*
X158133039Y-74709819D01*
X158348052Y-74798879D01*
X158348054Y-74798879D01*
X158348060Y-74798882D01*
X158572874Y-74859121D01*
X158803628Y-74889500D01*
X158803635Y-74889500D01*
X159036365Y-74889500D01*
X159036372Y-74889500D01*
X159267126Y-74859121D01*
X159491940Y-74798882D01*
X159619897Y-74745881D01*
X159706960Y-74709819D01*
X159706963Y-74709817D01*
X159706969Y-74709815D01*
X159908532Y-74593442D01*
X160093181Y-74451756D01*
X160257756Y-74287181D01*
X160345624Y-74172668D01*
X160402052Y-74131466D01*
X160471798Y-74127311D01*
X160532718Y-74161523D01*
X160542376Y-74172669D01*
X160630242Y-74287179D01*
X160630248Y-74287186D01*
X160794813Y-74451751D01*
X160794820Y-74451757D01*
X160861345Y-74502803D01*
X160979468Y-74593442D01*
X160979475Y-74593446D01*
X161181023Y-74709811D01*
X161181039Y-74709819D01*
X161396052Y-74798879D01*
X161396054Y-74798879D01*
X161396060Y-74798882D01*
X161620874Y-74859121D01*
X161851628Y-74889500D01*
X161851635Y-74889500D01*
X162084365Y-74889500D01*
X162084372Y-74889500D01*
X162315126Y-74859121D01*
X162539940Y-74798882D01*
X162667897Y-74745881D01*
X162754960Y-74709819D01*
X162754963Y-74709817D01*
X162754969Y-74709815D01*
X162956532Y-74593442D01*
X163141181Y-74451756D01*
X163305756Y-74287181D01*
X163393624Y-74172668D01*
X163450052Y-74131466D01*
X163519798Y-74127311D01*
X163580718Y-74161523D01*
X163590376Y-74172669D01*
X163678242Y-74287179D01*
X163678248Y-74287186D01*
X163842813Y-74451751D01*
X163842820Y-74451757D01*
X163909345Y-74502803D01*
X164027468Y-74593442D01*
X164027475Y-74593446D01*
X164229023Y-74709811D01*
X164229039Y-74709819D01*
X164444052Y-74798879D01*
X164444054Y-74798879D01*
X164444060Y-74798882D01*
X164668874Y-74859121D01*
X164899628Y-74889500D01*
X164899635Y-74889500D01*
X165132365Y-74889500D01*
X165132372Y-74889500D01*
X165363126Y-74859121D01*
X165587940Y-74798882D01*
X165715897Y-74745881D01*
X165802960Y-74709819D01*
X165802963Y-74709817D01*
X165802969Y-74709815D01*
X166004532Y-74593442D01*
X166189181Y-74451756D01*
X166353756Y-74287181D01*
X166495442Y-74102532D01*
X166611815Y-73900969D01*
X166618546Y-73884720D01*
X166700879Y-73685947D01*
X166700878Y-73685947D01*
X166700882Y-73685940D01*
X166761121Y-73461126D01*
X166791500Y-73230372D01*
X166791500Y-72997628D01*
X166761121Y-72766874D01*
X166700882Y-72542060D01*
X166693594Y-72524464D01*
X166611819Y-72327039D01*
X166611811Y-72327023D01*
X166495446Y-72125475D01*
X166495442Y-72125468D01*
X166353756Y-71940819D01*
X166353751Y-71940813D01*
X166189186Y-71776248D01*
X166189179Y-71776242D01*
X166004540Y-71634564D01*
X166004538Y-71634562D01*
X166004532Y-71634558D01*
X166004527Y-71634555D01*
X166004524Y-71634553D01*
X165802976Y-71518188D01*
X165802960Y-71518180D01*
X165587947Y-71429120D01*
X165572847Y-71425074D01*
X165363126Y-71368879D01*
X165363125Y-71368878D01*
X165363122Y-71368878D01*
X165132382Y-71338501D01*
X165132377Y-71338500D01*
X165132372Y-71338500D01*
X164899628Y-71338500D01*
X164899622Y-71338500D01*
X164899617Y-71338501D01*
X164668877Y-71368878D01*
X164444052Y-71429120D01*
X164229039Y-71518180D01*
X164229023Y-71518188D01*
X164027475Y-71634553D01*
X164027459Y-71634564D01*
X163842820Y-71776242D01*
X163842813Y-71776248D01*
X163678248Y-71940813D01*
X163678242Y-71940820D01*
X163590376Y-72055330D01*
X163533948Y-72096533D01*
X163464202Y-72100688D01*
X163403282Y-72066476D01*
X163393624Y-72055330D01*
X163305757Y-71940820D01*
X163305751Y-71940813D01*
X163141186Y-71776248D01*
X163141179Y-71776242D01*
X162956540Y-71634564D01*
X162956538Y-71634562D01*
X162956532Y-71634558D01*
X162956527Y-71634555D01*
X162956524Y-71634553D01*
X162754976Y-71518188D01*
X162754960Y-71518180D01*
X162539947Y-71429120D01*
X162524847Y-71425074D01*
X162315126Y-71368879D01*
X162315125Y-71368878D01*
X162315122Y-71368878D01*
X162084382Y-71338501D01*
X162084377Y-71338500D01*
X162084372Y-71338500D01*
X161851628Y-71338500D01*
X161851622Y-71338500D01*
X161851617Y-71338501D01*
X161620877Y-71368878D01*
X161396052Y-71429120D01*
X161181039Y-71518180D01*
X161181023Y-71518188D01*
X160979475Y-71634553D01*
X160979459Y-71634564D01*
X160794820Y-71776242D01*
X160794813Y-71776248D01*
X160630248Y-71940813D01*
X160630242Y-71940820D01*
X160542376Y-72055330D01*
X160485948Y-72096533D01*
X160416202Y-72100688D01*
X160355282Y-72066476D01*
X160345624Y-72055330D01*
X160257757Y-71940820D01*
X160257751Y-71940813D01*
X160093186Y-71776248D01*
X160093179Y-71776242D01*
X159908540Y-71634564D01*
X159908538Y-71634562D01*
X159908532Y-71634558D01*
X159908527Y-71634555D01*
X159908524Y-71634553D01*
X159706976Y-71518188D01*
X159706960Y-71518180D01*
X159491947Y-71429120D01*
X159476847Y-71425074D01*
X159267126Y-71368879D01*
X159267125Y-71368878D01*
X159267122Y-71368878D01*
X159036382Y-71338501D01*
X159036377Y-71338500D01*
X159036372Y-71338500D01*
X158803628Y-71338500D01*
X158803622Y-71338500D01*
X158803617Y-71338501D01*
X158572877Y-71368878D01*
X158348052Y-71429120D01*
X158133039Y-71518180D01*
X158133023Y-71518188D01*
X157931475Y-71634553D01*
X157931459Y-71634564D01*
X157746820Y-71776242D01*
X157746813Y-71776248D01*
X157582248Y-71940813D01*
X157582242Y-71940820D01*
X157494376Y-72055330D01*
X157437948Y-72096533D01*
X157368202Y-72100688D01*
X157307282Y-72066476D01*
X157297624Y-72055330D01*
X157209757Y-71940820D01*
X157209751Y-71940813D01*
X157045186Y-71776248D01*
X157045179Y-71776242D01*
X156860540Y-71634564D01*
X156860538Y-71634562D01*
X156860532Y-71634558D01*
X156860527Y-71634555D01*
X156860524Y-71634553D01*
X156658976Y-71518188D01*
X156658960Y-71518180D01*
X156443947Y-71429120D01*
X156428847Y-71425074D01*
X156219126Y-71368879D01*
X156219125Y-71368878D01*
X156219122Y-71368878D01*
X155988382Y-71338501D01*
X155988377Y-71338500D01*
X155988372Y-71338500D01*
X155755628Y-71338500D01*
X155755622Y-71338500D01*
X155755617Y-71338501D01*
X155524877Y-71368878D01*
X155300052Y-71429120D01*
X155085039Y-71518180D01*
X155085023Y-71518188D01*
X154883475Y-71634553D01*
X154883459Y-71634564D01*
X154698820Y-71776242D01*
X154698813Y-71776248D01*
X154534248Y-71940813D01*
X154534242Y-71940820D01*
X154446376Y-72055330D01*
X154389948Y-72096533D01*
X154320202Y-72100688D01*
X154259282Y-72066476D01*
X154249624Y-72055330D01*
X154161757Y-71940820D01*
X154161751Y-71940813D01*
X153997186Y-71776248D01*
X153997179Y-71776242D01*
X153812540Y-71634564D01*
X153812538Y-71634562D01*
X153812532Y-71634558D01*
X153812527Y-71634555D01*
X153812524Y-71634553D01*
X153610976Y-71518188D01*
X153610960Y-71518180D01*
X153395947Y-71429120D01*
X153380847Y-71425074D01*
X153171126Y-71368879D01*
X153171125Y-71368878D01*
X153171122Y-71368878D01*
X152940382Y-71338501D01*
X152940377Y-71338500D01*
X152940372Y-71338500D01*
X152707628Y-71338500D01*
X152707622Y-71338500D01*
X152707617Y-71338501D01*
X152476877Y-71368878D01*
X152252052Y-71429120D01*
X152037039Y-71518180D01*
X152037023Y-71518188D01*
X151835475Y-71634553D01*
X151835459Y-71634564D01*
X151650820Y-71776242D01*
X151650813Y-71776248D01*
X151486248Y-71940813D01*
X151486242Y-71940820D01*
X151398376Y-72055330D01*
X151341948Y-72096533D01*
X151272202Y-72100688D01*
X151211282Y-72066476D01*
X151201624Y-72055330D01*
X151113757Y-71940820D01*
X151113751Y-71940813D01*
X150949186Y-71776248D01*
X150949179Y-71776242D01*
X150764540Y-71634564D01*
X150764538Y-71634562D01*
X150764532Y-71634558D01*
X150764527Y-71634555D01*
X150764524Y-71634553D01*
X150562976Y-71518188D01*
X150562960Y-71518180D01*
X150347947Y-71429120D01*
X150332847Y-71425074D01*
X150123126Y-71368879D01*
X150123125Y-71368878D01*
X150123122Y-71368878D01*
X149892382Y-71338501D01*
X149892377Y-71338500D01*
X149892372Y-71338500D01*
X149659628Y-71338500D01*
X149659622Y-71338500D01*
X149659617Y-71338501D01*
X149428877Y-71368878D01*
X149204052Y-71429120D01*
X148989039Y-71518180D01*
X148989023Y-71518188D01*
X148787475Y-71634553D01*
X148787459Y-71634564D01*
X148602820Y-71776242D01*
X148602813Y-71776248D01*
X148438248Y-71940813D01*
X148350060Y-72055742D01*
X148293632Y-72096944D01*
X148223885Y-72101099D01*
X148162965Y-72066886D01*
X148153308Y-72055742D01*
X148147447Y-72048104D01*
X148147446Y-72048104D01*
X147128000Y-73067551D01*
X147128000Y-73061339D01*
X147100741Y-72959606D01*
X147048080Y-72868394D01*
X146973606Y-72793920D01*
X146882394Y-72741259D01*
X146780661Y-72714000D01*
X146774446Y-72714000D01*
X147793894Y-71694551D01*
X147716248Y-71634970D01*
X147514750Y-71518636D01*
X147514740Y-71518632D01*
X147299779Y-71429592D01*
X147075024Y-71369369D01*
X146866301Y-71341891D01*
X146802404Y-71313625D01*
X146763933Y-71255300D01*
X146763102Y-71185436D01*
X146794801Y-71131276D01*
X147089261Y-70836816D01*
X147150582Y-70803334D01*
X147176940Y-70800500D01*
X165617060Y-70800500D01*
X165684099Y-70820185D01*
X165704741Y-70836819D01*
X178673181Y-83805259D01*
X178706666Y-83866582D01*
X178709500Y-83892940D01*
X178709500Y-88525784D01*
X178689815Y-88592823D01*
X178688602Y-88594675D01*
X178623366Y-88692307D01*
X178547950Y-88874379D01*
X178547947Y-88874389D01*
X178509500Y-89067675D01*
X178509500Y-89067678D01*
X178509500Y-90264760D01*
X178509500Y-90264762D01*
X178509499Y-90264762D01*
X178547947Y-90458048D01*
X178547950Y-90458058D01*
X178623364Y-90640126D01*
X178623371Y-90640139D01*
X178732860Y-90804000D01*
X178732863Y-90804004D01*
X178872214Y-90943355D01*
X178872218Y-90943358D01*
X179036079Y-91052847D01*
X179036092Y-91052854D01*
X179195814Y-91119012D01*
X179218165Y-91128270D01*
X179218169Y-91128270D01*
X179218170Y-91128271D01*
X179411456Y-91166719D01*
X179411459Y-91166719D01*
X179608543Y-91166719D01*
X179757228Y-91137143D01*
X179801835Y-91128270D01*
X179983914Y-91052851D01*
X180147782Y-90943358D01*
X180287139Y-90804001D01*
X180396632Y-90640133D01*
X180472051Y-90458054D01*
X180508034Y-90277157D01*
X180510500Y-90264762D01*
X180510500Y-89067675D01*
X180472052Y-88874389D01*
X180472051Y-88874388D01*
X180472051Y-88874384D01*
X180399779Y-88699903D01*
X180396633Y-88692307D01*
X180394757Y-88689500D01*
X180331396Y-88594673D01*
X180321150Y-88561949D01*
X181049500Y-88561949D01*
X181049500Y-90770488D01*
X181052353Y-90800918D01*
X181052353Y-90800920D01*
X181086428Y-90898297D01*
X181097207Y-90929101D01*
X181177850Y-91038369D01*
X181287118Y-91119012D01*
X181313576Y-91128270D01*
X181415299Y-91163865D01*
X181445730Y-91166719D01*
X181445734Y-91166719D01*
X182654270Y-91166719D01*
X182684699Y-91163865D01*
X182812882Y-91119012D01*
X182922150Y-91038369D01*
X183002793Y-90929101D01*
X183031323Y-90847568D01*
X183047646Y-90800920D01*
X183047646Y-90800918D01*
X183050500Y-90770488D01*
X183050500Y-88561949D01*
X183047646Y-88531519D01*
X183047646Y-88531517D01*
X183002793Y-88403338D01*
X183002792Y-88403336D01*
X182970703Y-88359857D01*
X182922150Y-88294069D01*
X182812882Y-88213426D01*
X182812880Y-88213425D01*
X182684700Y-88168572D01*
X182654270Y-88165719D01*
X182654266Y-88165719D01*
X181445734Y-88165719D01*
X181445730Y-88165719D01*
X181415300Y-88168572D01*
X181415298Y-88168572D01*
X181287119Y-88213425D01*
X181287117Y-88213426D01*
X181177850Y-88294069D01*
X181097207Y-88403336D01*
X181097206Y-88403338D01*
X181052353Y-88531517D01*
X181052353Y-88531519D01*
X181049500Y-88561949D01*
X180321150Y-88561949D01*
X180310520Y-88527996D01*
X180310500Y-88525784D01*
X180310500Y-83431155D01*
X180310499Y-83431153D01*
X180279738Y-83276510D01*
X180279737Y-83276503D01*
X180273902Y-83262416D01*
X180219397Y-83130827D01*
X180219390Y-83130814D01*
X180131790Y-82999712D01*
X180103021Y-82970943D01*
X180020289Y-82888211D01*
X175120884Y-77988806D01*
X175087399Y-77927483D01*
X175092383Y-77857791D01*
X175134255Y-77801858D01*
X175184370Y-77779508D01*
X175233497Y-77769737D01*
X175379179Y-77709394D01*
X175510289Y-77621789D01*
X175621789Y-77510289D01*
X175709394Y-77379179D01*
X175713634Y-77368944D01*
X175723067Y-77346166D01*
X175769737Y-77233497D01*
X175800500Y-77078842D01*
X175800500Y-76921158D01*
X175800500Y-76921155D01*
X175800499Y-76921153D01*
X175788521Y-76860938D01*
X175769737Y-76766503D01*
X175745593Y-76708213D01*
X175709397Y-76620827D01*
X175709390Y-76620814D01*
X175621398Y-76489125D01*
X175600520Y-76422447D01*
X175600500Y-76420234D01*
X175600500Y-71853952D01*
X210399500Y-71853952D01*
X210399500Y-72146047D01*
X210432199Y-72436271D01*
X210432202Y-72436285D01*
X210497196Y-72721044D01*
X210497197Y-72721046D01*
X210593665Y-72996738D01*
X210720393Y-73259890D01*
X210768466Y-73336398D01*
X210875792Y-73507206D01*
X211011652Y-73677569D01*
X211044397Y-73718631D01*
X211057902Y-73735565D01*
X211264435Y-73942098D01*
X211492794Y-74124208D01*
X211740107Y-74279605D01*
X212003263Y-74406335D01*
X212278955Y-74502803D01*
X212563714Y-74567798D01*
X212563723Y-74567799D01*
X212563728Y-74567800D01*
X212757210Y-74589599D01*
X212853953Y-74600499D01*
X212853956Y-74600500D01*
X212853959Y-74600500D01*
X213146044Y-74600500D01*
X213146045Y-74600499D01*
X213294371Y-74583787D01*
X213436271Y-74567800D01*
X213436274Y-74567799D01*
X213436286Y-74567798D01*
X213721045Y-74502803D01*
X213996737Y-74406335D01*
X214259893Y-74279605D01*
X214507206Y-74124208D01*
X214735565Y-73942098D01*
X214942098Y-73735565D01*
X215124208Y-73507206D01*
X215279605Y-73259893D01*
X215406335Y-72996737D01*
X215502803Y-72721045D01*
X215567798Y-72436286D01*
X215571368Y-72404606D01*
X215591328Y-72227444D01*
X215600500Y-72146041D01*
X215600500Y-71853959D01*
X215588327Y-71745920D01*
X215567800Y-71563728D01*
X215567799Y-71563723D01*
X215567798Y-71563714D01*
X215502803Y-71278955D01*
X215406335Y-71003263D01*
X215279605Y-70740107D01*
X215124208Y-70492794D01*
X214942098Y-70264435D01*
X214735565Y-70057902D01*
X214507206Y-69875792D01*
X214259893Y-69720395D01*
X214259890Y-69720393D01*
X213996738Y-69593665D01*
X213721046Y-69497197D01*
X213721044Y-69497196D01*
X213501280Y-69447036D01*
X213436286Y-69432202D01*
X213436283Y-69432201D01*
X213436271Y-69432199D01*
X213146047Y-69399500D01*
X213146041Y-69399500D01*
X212853959Y-69399500D01*
X212853952Y-69399500D01*
X212563728Y-69432199D01*
X212563714Y-69432202D01*
X212278955Y-69497196D01*
X212278953Y-69497197D01*
X212003261Y-69593665D01*
X211740109Y-69720393D01*
X211492795Y-69875791D01*
X211264435Y-70057901D01*
X211057901Y-70264435D01*
X210875791Y-70492795D01*
X210720393Y-70740109D01*
X210593665Y-71003261D01*
X210497197Y-71278953D01*
X210497196Y-71278955D01*
X210432202Y-71563714D01*
X210432199Y-71563728D01*
X210399500Y-71853952D01*
X175600500Y-71853952D01*
X175600500Y-65377971D01*
X187949500Y-65377971D01*
X187949500Y-65622024D01*
X187987678Y-65863070D01*
X188063097Y-66095185D01*
X188173896Y-66312640D01*
X188317339Y-66510074D01*
X188317343Y-66510079D01*
X188489918Y-66682654D01*
X188489923Y-66682658D01*
X188662136Y-66807777D01*
X188687361Y-66826104D01*
X188904815Y-66936902D01*
X189136924Y-67012319D01*
X189377973Y-67050498D01*
X189377974Y-67050498D01*
X189622026Y-67050498D01*
X189622027Y-67050498D01*
X189863076Y-67012319D01*
X190095185Y-66936902D01*
X190312639Y-66826104D01*
X190510083Y-66682653D01*
X190682655Y-66510081D01*
X190826106Y-66312637D01*
X190936904Y-66095183D01*
X191012321Y-65863074D01*
X191050500Y-65622025D01*
X191050500Y-65377971D01*
X191012321Y-65136922D01*
X190936904Y-64904813D01*
X190826106Y-64687359D01*
X190807779Y-64662134D01*
X190682660Y-64489921D01*
X190682656Y-64489916D01*
X190510081Y-64317341D01*
X190510076Y-64317337D01*
X190312642Y-64173894D01*
X190312641Y-64173893D01*
X190312639Y-64173892D01*
X190095185Y-64063094D01*
X189863076Y-63987677D01*
X189863074Y-63987676D01*
X189863072Y-63987676D01*
X189694769Y-63961019D01*
X189622027Y-63949498D01*
X189377973Y-63949498D01*
X189322093Y-63958348D01*
X189136927Y-63987676D01*
X188904812Y-64063095D01*
X188687357Y-64173894D01*
X188489923Y-64317337D01*
X188489918Y-64317341D01*
X188317343Y-64489916D01*
X188317339Y-64489921D01*
X188173896Y-64687355D01*
X188063097Y-64904810D01*
X187987678Y-65136925D01*
X187949500Y-65377971D01*
X175600500Y-65377971D01*
X175600500Y-35377971D01*
X187949500Y-35377971D01*
X187949500Y-35622024D01*
X187987678Y-35863070D01*
X188063097Y-36095185D01*
X188173896Y-36312640D01*
X188317339Y-36510074D01*
X188317343Y-36510079D01*
X188489918Y-36682654D01*
X188489923Y-36682658D01*
X188662136Y-36807777D01*
X188687361Y-36826104D01*
X188904815Y-36936902D01*
X189136924Y-37012319D01*
X189377973Y-37050498D01*
X189377974Y-37050498D01*
X189622026Y-37050498D01*
X189622027Y-37050498D01*
X189863076Y-37012319D01*
X190095185Y-36936902D01*
X190312639Y-36826104D01*
X190510083Y-36682653D01*
X190682655Y-36510081D01*
X190826106Y-36312637D01*
X190936904Y-36095183D01*
X191012321Y-35863074D01*
X191050500Y-35622025D01*
X191050500Y-35377971D01*
X191012321Y-35136922D01*
X190936904Y-34904813D01*
X190826106Y-34687359D01*
X190807779Y-34662134D01*
X190682660Y-34489921D01*
X190682656Y-34489916D01*
X190510081Y-34317341D01*
X190510076Y-34317337D01*
X190312642Y-34173894D01*
X190312641Y-34173893D01*
X190312639Y-34173892D01*
X190095185Y-34063094D01*
X189863076Y-33987677D01*
X189863074Y-33987676D01*
X189863072Y-33987676D01*
X189694769Y-33961019D01*
X189622027Y-33949498D01*
X189377973Y-33949498D01*
X189322093Y-33958348D01*
X189136927Y-33987676D01*
X188904812Y-34063095D01*
X188687357Y-34173894D01*
X188489923Y-34317337D01*
X188489918Y-34317341D01*
X188317343Y-34489916D01*
X188317339Y-34489921D01*
X188173896Y-34687355D01*
X188063097Y-34904810D01*
X187987678Y-35136925D01*
X187949500Y-35377971D01*
X175600500Y-35377971D01*
X175600500Y-26089059D01*
X175600501Y-26089046D01*
X175600501Y-25920945D01*
X175600501Y-25920943D01*
X175559577Y-25768215D01*
X175515970Y-25692686D01*
X175489053Y-25646065D01*
X175480522Y-25631287D01*
X175480521Y-25631286D01*
X175480520Y-25631284D01*
X175368716Y-25519480D01*
X175368715Y-25519479D01*
X175364385Y-25515149D01*
X175364374Y-25515139D01*
X174084074Y-24234839D01*
X174050589Y-24173516D01*
X174050138Y-24171349D01*
X174019238Y-24016010D01*
X174019237Y-24016003D01*
X173984963Y-23933257D01*
X173958897Y-23870327D01*
X173958890Y-23870314D01*
X173871289Y-23739211D01*
X173871286Y-23739207D01*
X173759792Y-23627713D01*
X173759788Y-23627710D01*
X173628685Y-23540109D01*
X173628672Y-23540102D01*
X173483001Y-23479764D01*
X173482989Y-23479761D01*
X173328345Y-23449000D01*
X173328342Y-23449000D01*
X173170658Y-23449000D01*
X173170655Y-23449000D01*
X173016010Y-23479761D01*
X173015998Y-23479764D01*
X172870327Y-23540102D01*
X172870314Y-23540109D01*
X172739211Y-23627710D01*
X172739207Y-23627713D01*
X172627713Y-23739207D01*
X172627710Y-23739211D01*
X172540109Y-23870314D01*
X172540102Y-23870327D01*
X172479764Y-24015998D01*
X172479761Y-24016010D01*
X172449000Y-24170653D01*
X172449000Y-24328346D01*
X172479761Y-24482989D01*
X172479764Y-24483001D01*
X172540102Y-24628672D01*
X172540109Y-24628685D01*
X172627710Y-24759788D01*
X172627713Y-24759792D01*
X172739207Y-24871286D01*
X172739211Y-24871289D01*
X172870314Y-24958890D01*
X172870327Y-24958897D01*
X173015998Y-25019235D01*
X173016003Y-25019237D01*
X173080647Y-25032095D01*
X173171349Y-25050138D01*
X173233260Y-25082523D01*
X173234839Y-25084074D01*
X174363181Y-26212416D01*
X174396666Y-26273739D01*
X174399500Y-26300097D01*
X174399500Y-76420234D01*
X174379815Y-76487273D01*
X174378602Y-76489125D01*
X174290609Y-76620814D01*
X174290602Y-76620827D01*
X174230264Y-76766498D01*
X174230261Y-76766508D01*
X174220491Y-76815626D01*
X174188106Y-76877537D01*
X174127389Y-76912111D01*
X174057620Y-76908370D01*
X174011193Y-76879115D01*
X166510292Y-69378213D01*
X166510288Y-69378210D01*
X166379185Y-69290609D01*
X166379172Y-69290602D01*
X166233501Y-69230264D01*
X166233489Y-69230261D01*
X166078845Y-69199500D01*
X166078842Y-69199500D01*
X146872842Y-69199500D01*
X146715158Y-69199500D01*
X146715155Y-69199500D01*
X146560510Y-69230261D01*
X146560498Y-69230264D01*
X146414827Y-69290602D01*
X146414814Y-69290609D01*
X146283711Y-69378210D01*
X146283707Y-69378213D01*
X144287470Y-71374450D01*
X144226147Y-71407935D01*
X144167696Y-71406544D01*
X144027124Y-71368878D01*
X143796382Y-71338501D01*
X143796377Y-71338500D01*
X143796372Y-71338500D01*
X143563628Y-71338500D01*
X143563622Y-71338500D01*
X143563617Y-71338501D01*
X143332877Y-71368878D01*
X143108052Y-71429120D01*
X142893039Y-71518180D01*
X142893023Y-71518188D01*
X142691475Y-71634553D01*
X142691459Y-71634564D01*
X142506820Y-71776242D01*
X142506813Y-71776248D01*
X142342248Y-71940813D01*
X142342242Y-71940820D01*
X142200564Y-72125459D01*
X142200553Y-72125475D01*
X142084188Y-72327023D01*
X142084180Y-72327039D01*
X141995120Y-72542052D01*
X141934878Y-72766877D01*
X141904501Y-72997617D01*
X141904500Y-72997634D01*
X129600500Y-72997634D01*
X129600500Y-65377971D01*
X134949500Y-65377971D01*
X134949500Y-65622024D01*
X134987678Y-65863070D01*
X135063097Y-66095185D01*
X135173896Y-66312640D01*
X135317339Y-66510074D01*
X135317343Y-66510079D01*
X135489918Y-66682654D01*
X135489923Y-66682658D01*
X135662136Y-66807777D01*
X135687361Y-66826104D01*
X135904815Y-66936902D01*
X136136924Y-67012319D01*
X136377973Y-67050498D01*
X136377974Y-67050498D01*
X136622026Y-67050498D01*
X136622027Y-67050498D01*
X136863076Y-67012319D01*
X137095185Y-66936902D01*
X137312639Y-66826104D01*
X137510083Y-66682653D01*
X137682655Y-66510081D01*
X137826106Y-66312637D01*
X137936904Y-66095183D01*
X138012321Y-65863074D01*
X138050500Y-65622025D01*
X138050500Y-65377971D01*
X138012321Y-65136922D01*
X137936904Y-64904813D01*
X137826106Y-64687359D01*
X137807779Y-64662134D01*
X137682660Y-64489921D01*
X137682656Y-64489916D01*
X137510081Y-64317341D01*
X137510076Y-64317337D01*
X137312642Y-64173894D01*
X137312641Y-64173893D01*
X137312639Y-64173892D01*
X137095185Y-64063094D01*
X136863076Y-63987677D01*
X136863074Y-63987676D01*
X136863072Y-63987676D01*
X136694769Y-63961019D01*
X136622027Y-63949498D01*
X136377973Y-63949498D01*
X136322093Y-63958348D01*
X136136927Y-63987676D01*
X135904812Y-64063095D01*
X135687357Y-64173894D01*
X135489923Y-64317337D01*
X135489918Y-64317341D01*
X135317343Y-64489916D01*
X135317339Y-64489921D01*
X135173896Y-64687355D01*
X135063097Y-64904810D01*
X134987678Y-65136925D01*
X134949500Y-65377971D01*
X129600500Y-65377971D01*
X129600500Y-56300097D01*
X129620185Y-56233058D01*
X129636819Y-56212416D01*
X152212416Y-33636819D01*
X152273739Y-33603334D01*
X152300097Y-33600500D01*
X168913331Y-33600500D01*
X168913347Y-33600501D01*
X168920943Y-33600501D01*
X169079054Y-33600501D01*
X169079057Y-33600501D01*
X169231785Y-33559577D01*
X169281904Y-33530639D01*
X169368716Y-33480520D01*
X169480520Y-33368716D01*
X169480520Y-33368714D01*
X169490728Y-33358507D01*
X169490729Y-33358504D01*
X170480520Y-32368716D01*
X170559577Y-32231784D01*
X170600501Y-32079057D01*
X170600501Y-31920942D01*
X170600501Y-31913347D01*
X170600500Y-31913329D01*
X170600500Y-22920945D01*
X170600500Y-22920943D01*
X170559577Y-22768216D01*
X170559577Y-22768215D01*
X170511822Y-22685501D01*
X170480520Y-22631284D01*
X170368716Y-22519480D01*
X170368715Y-22519479D01*
X170364385Y-22515149D01*
X170364374Y-22515139D01*
X168487590Y-20638355D01*
X168487588Y-20638352D01*
X168368717Y-20519481D01*
X168368716Y-20519480D01*
X168281904Y-20469360D01*
X168281904Y-20469359D01*
X168281900Y-20469358D01*
X168231785Y-20440423D01*
X168079057Y-20399499D01*
X167920943Y-20399499D01*
X167913347Y-20399499D01*
X167913331Y-20399500D01*
X161086670Y-20399500D01*
X161086654Y-20399499D01*
X161079058Y-20399499D01*
X160920943Y-20399499D01*
X160844579Y-20419961D01*
X160768214Y-20440423D01*
X160768209Y-20440426D01*
X160631290Y-20519475D01*
X160631282Y-20519481D01*
X159434481Y-21716282D01*
X159434479Y-21716285D01*
X159384361Y-21803094D01*
X159384359Y-21803096D01*
X159355425Y-21853209D01*
X159355424Y-21853210D01*
X159355423Y-21853215D01*
X159314499Y-22005943D01*
X159314499Y-22005945D01*
X159314499Y-22174046D01*
X159314500Y-22174059D01*
X159314500Y-22963781D01*
X159294815Y-23030820D01*
X159246795Y-23074265D01*
X159207185Y-23094447D01*
X159207184Y-23094448D01*
X159035213Y-23219390D01*
X158884890Y-23369713D01*
X158759949Y-23541682D01*
X158755484Y-23550446D01*
X158707509Y-23601242D01*
X158639688Y-23618036D01*
X158573553Y-23595498D01*
X158534516Y-23550446D01*
X158530050Y-23541682D01*
X158405109Y-23369713D01*
X158254786Y-23219390D01*
X158082820Y-23094451D01*
X157893414Y-22997944D01*
X157893413Y-22997943D01*
X157893412Y-22997943D01*
X157691243Y-22932254D01*
X157691241Y-22932253D01*
X157691240Y-22932253D01*
X157529957Y-22906708D01*
X157481287Y-22899000D01*
X157268713Y-22899000D01*
X157220042Y-22906708D01*
X157058760Y-22932253D01*
X156856585Y-22997944D01*
X156667179Y-23094451D01*
X156495213Y-23219390D01*
X156344898Y-23369705D01*
X156344898Y-23369706D01*
X156344896Y-23369708D01*
X156324422Y-23397886D01*
X156269094Y-23440551D01*
X156224106Y-23449000D01*
X136582155Y-23449000D01*
X136427510Y-23479761D01*
X136427498Y-23479764D01*
X136281827Y-23540102D01*
X136281814Y-23540109D01*
X136150711Y-23627710D01*
X136150707Y-23627713D01*
X133704022Y-26074398D01*
X133642699Y-26107883D01*
X133606619Y-26110335D01*
X133602359Y-26110000D01*
X133602352Y-26110000D01*
X133397648Y-26110000D01*
X133373329Y-26113851D01*
X133195465Y-26142022D01*
X133000776Y-26205281D01*
X132818386Y-26298215D01*
X132652786Y-26418528D01*
X132508028Y-26563286D01*
X132387715Y-26728886D01*
X132294781Y-26911276D01*
X132231522Y-27105965D01*
X132199500Y-27308148D01*
X132199500Y-27512851D01*
X132231522Y-27715034D01*
X132294781Y-27909723D01*
X132339092Y-27996687D01*
X132387585Y-28091859D01*
X132387715Y-28092113D01*
X132508028Y-28257713D01*
X132652779Y-28402464D01*
X132656038Y-28405248D01*
X132694227Y-28463758D01*
X132699500Y-28499533D01*
X132699500Y-40578846D01*
X132730261Y-40733489D01*
X132730264Y-40733501D01*
X132790602Y-40879172D01*
X132790609Y-40879185D01*
X132878210Y-41010288D01*
X132878213Y-41010292D01*
X134863181Y-42995259D01*
X134896666Y-43056582D01*
X134899500Y-43082940D01*
X134899500Y-43086611D01*
X134926598Y-43257701D01*
X134980127Y-43422445D01*
X135058768Y-43576788D01*
X135160586Y-43716928D01*
X135283072Y-43839414D01*
X135423212Y-43941232D01*
X135577555Y-44019873D01*
X135742299Y-44073402D01*
X135913389Y-44100500D01*
X135913390Y-44100500D01*
X136086610Y-44100500D01*
X136086611Y-44100500D01*
X136257701Y-44073402D01*
X136422445Y-44019873D01*
X136576788Y-43941232D01*
X136716928Y-43839414D01*
X136839414Y-43716928D01*
X136941232Y-43576788D01*
X137019873Y-43422445D01*
X137073402Y-43257701D01*
X137100500Y-43086611D01*
X137100500Y-42913389D01*
X137073402Y-42742299D01*
X137019873Y-42577555D01*
X136941232Y-42423212D01*
X136839414Y-42283072D01*
X136716928Y-42160586D01*
X136576788Y-42058768D01*
X136422445Y-41980127D01*
X136257701Y-41926598D01*
X136257699Y-41926597D01*
X136257698Y-41926597D01*
X136126271Y-41905781D01*
X136086611Y-41899500D01*
X136086610Y-41899500D01*
X136082940Y-41899500D01*
X136015901Y-41879815D01*
X135995259Y-41863181D01*
X134336819Y-40204741D01*
X134303334Y-40143418D01*
X134300500Y-40117060D01*
X134300500Y-35377971D01*
X134949500Y-35377971D01*
X134949500Y-35622024D01*
X134987678Y-35863070D01*
X135063097Y-36095185D01*
X135173896Y-36312640D01*
X135317339Y-36510074D01*
X135317343Y-36510079D01*
X135489918Y-36682654D01*
X135489923Y-36682658D01*
X135662136Y-36807777D01*
X135687361Y-36826104D01*
X135904815Y-36936902D01*
X136136924Y-37012319D01*
X136377973Y-37050498D01*
X136377974Y-37050498D01*
X136622026Y-37050498D01*
X136622027Y-37050498D01*
X136863076Y-37012319D01*
X137095185Y-36936902D01*
X137312639Y-36826104D01*
X137510083Y-36682653D01*
X137682655Y-36510081D01*
X137826106Y-36312637D01*
X137936904Y-36095183D01*
X138012321Y-35863074D01*
X138050500Y-35622025D01*
X138050500Y-35377971D01*
X138012321Y-35136922D01*
X137936904Y-34904813D01*
X137826106Y-34687359D01*
X137807779Y-34662134D01*
X137682660Y-34489921D01*
X137682656Y-34489916D01*
X137510081Y-34317341D01*
X137510076Y-34317337D01*
X137312642Y-34173894D01*
X137312641Y-34173893D01*
X137312639Y-34173892D01*
X137095185Y-34063094D01*
X136863076Y-33987677D01*
X136863074Y-33987676D01*
X136863072Y-33987676D01*
X136694769Y-33961019D01*
X136622027Y-33949498D01*
X136377973Y-33949498D01*
X136322093Y-33958348D01*
X136136927Y-33987676D01*
X135904812Y-34063095D01*
X135687357Y-34173894D01*
X135489923Y-34317337D01*
X135489918Y-34317341D01*
X135317343Y-34489916D01*
X135317339Y-34489921D01*
X135173896Y-34687355D01*
X135063097Y-34904810D01*
X134987678Y-35136925D01*
X134949500Y-35377971D01*
X134300500Y-35377971D01*
X134300500Y-28499533D01*
X134309294Y-28469582D01*
X134316198Y-28439146D01*
X134319368Y-28435275D01*
X134320185Y-28432494D01*
X134337598Y-28411080D01*
X134343943Y-28404846D01*
X134347219Y-28402466D01*
X134491966Y-28257719D01*
X134491968Y-28257715D01*
X134491971Y-28257713D01*
X134577857Y-28139499D01*
X134612287Y-28092110D01*
X134705220Y-27909719D01*
X134768477Y-27715034D01*
X134800500Y-27512852D01*
X134800500Y-27308182D01*
X139700000Y-27308182D01*
X139700000Y-27512817D01*
X139732009Y-27714917D01*
X139795244Y-27909531D01*
X139888141Y-28091850D01*
X139888147Y-28091859D01*
X139920523Y-28136421D01*
X139920524Y-28136422D01*
X140600000Y-27456946D01*
X140600000Y-27463161D01*
X140627259Y-27564894D01*
X140679920Y-27656106D01*
X140754394Y-27730580D01*
X140845606Y-27783241D01*
X140947339Y-27810500D01*
X140953553Y-27810500D01*
X140274076Y-28489974D01*
X140318650Y-28522359D01*
X140500968Y-28615255D01*
X140695582Y-28678490D01*
X140897683Y-28710500D01*
X141102317Y-28710500D01*
X141304417Y-28678490D01*
X141499031Y-28615255D01*
X141681349Y-28522359D01*
X141725921Y-28489974D01*
X141046447Y-27810500D01*
X141052661Y-27810500D01*
X141154394Y-27783241D01*
X141245606Y-27730580D01*
X141320080Y-27656106D01*
X141372741Y-27564894D01*
X141400000Y-27463161D01*
X141400000Y-27456948D01*
X142079474Y-28136422D01*
X142079474Y-28136421D01*
X142111859Y-28091849D01*
X142204755Y-27909531D01*
X142267990Y-27714917D01*
X142300000Y-27512817D01*
X142300000Y-27308182D01*
X142267989Y-27106081D01*
X142267989Y-27106078D01*
X142242118Y-27026456D01*
X142204755Y-26911468D01*
X142111859Y-26729150D01*
X142079474Y-26684577D01*
X142079474Y-26684576D01*
X141400000Y-27364051D01*
X141400000Y-27357839D01*
X141372741Y-27256106D01*
X141320080Y-27164894D01*
X141245606Y-27090420D01*
X141154394Y-27037759D01*
X141052661Y-27010500D01*
X141046446Y-27010500D01*
X141725922Y-26331024D01*
X141725921Y-26331023D01*
X141681359Y-26298647D01*
X141681350Y-26298641D01*
X141499031Y-26205744D01*
X141304417Y-26142509D01*
X141102317Y-26110500D01*
X140897683Y-26110500D01*
X140695582Y-26142509D01*
X140500968Y-26205744D01*
X140318644Y-26298643D01*
X140274077Y-26331023D01*
X140274077Y-26331024D01*
X140953554Y-27010500D01*
X140947339Y-27010500D01*
X140845606Y-27037759D01*
X140754394Y-27090420D01*
X140679920Y-27164894D01*
X140627259Y-27256106D01*
X140600000Y-27357839D01*
X140600000Y-27364053D01*
X139920524Y-26684577D01*
X139920523Y-26684577D01*
X139888143Y-26729144D01*
X139795244Y-26911468D01*
X139732009Y-27106082D01*
X139700000Y-27308182D01*
X134800500Y-27308182D01*
X134800500Y-27308148D01*
X134800495Y-27308117D01*
X134800161Y-27303861D01*
X134807575Y-27268600D01*
X134814519Y-27235524D01*
X134814536Y-27235501D01*
X134814539Y-27235487D01*
X134814569Y-27235456D01*
X134836097Y-27206479D01*
X136956259Y-25086319D01*
X137017582Y-25052834D01*
X137043940Y-25050000D01*
X156224106Y-25050000D01*
X156255396Y-25059187D01*
X156287032Y-25067153D01*
X156289186Y-25069109D01*
X156291145Y-25069685D01*
X156314585Y-25089209D01*
X156319876Y-25094855D01*
X156344896Y-25129292D01*
X156460244Y-25244640D01*
X156461616Y-25246104D01*
X156476485Y-25275569D01*
X156492303Y-25304537D01*
X156492154Y-25306618D01*
X156493094Y-25308481D01*
X156489673Y-25341298D01*
X156487319Y-25374229D01*
X156486068Y-25375899D01*
X156485852Y-25377974D01*
X156465232Y-25403731D01*
X156445447Y-25430162D01*
X156443010Y-25431492D01*
X156442188Y-25432520D01*
X156439428Y-25433448D01*
X156414471Y-25447077D01*
X156282912Y-25496146D01*
X156282906Y-25496149D01*
X156167812Y-25582309D01*
X156167809Y-25582312D01*
X156081649Y-25697406D01*
X156081645Y-25697413D01*
X156031403Y-25832120D01*
X156031401Y-25832127D01*
X156025000Y-25891655D01*
X156025000Y-26539500D01*
X156941988Y-26539500D01*
X156909075Y-26596507D01*
X156875000Y-26723674D01*
X156875000Y-26855326D01*
X156909075Y-26982493D01*
X156941988Y-27039500D01*
X156025000Y-27039500D01*
X156025000Y-27687344D01*
X156031401Y-27746872D01*
X156031403Y-27746879D01*
X156081645Y-27881586D01*
X156081649Y-27881593D01*
X156167809Y-27996687D01*
X156167812Y-27996690D01*
X156282906Y-28082850D01*
X156282913Y-28082854D01*
X156417620Y-28133096D01*
X156417627Y-28133098D01*
X156477155Y-28139499D01*
X156477172Y-28139500D01*
X157125000Y-28139500D01*
X157125000Y-27222512D01*
X157182007Y-27255425D01*
X157309174Y-27289500D01*
X157440826Y-27289500D01*
X157567993Y-27255425D01*
X157625000Y-27222512D01*
X157625000Y-28178902D01*
X157605315Y-28245941D01*
X157588681Y-28266583D01*
X154492084Y-31363181D01*
X154430761Y-31396666D01*
X154404403Y-31399500D01*
X151086669Y-31399500D01*
X151086653Y-31399499D01*
X151079057Y-31399499D01*
X150920943Y-31399499D01*
X150813587Y-31428265D01*
X150768210Y-31440424D01*
X150768209Y-31440425D01*
X150718096Y-31469359D01*
X150718095Y-31469360D01*
X150674689Y-31494420D01*
X150631285Y-31519479D01*
X150631282Y-31519481D01*
X127519481Y-54631282D01*
X127519479Y-54631285D01*
X127469361Y-54718094D01*
X127469359Y-54718096D01*
X127440425Y-54768209D01*
X127440424Y-54768210D01*
X127440423Y-54768215D01*
X127399499Y-54920943D01*
X127399499Y-54920945D01*
X127399499Y-55089046D01*
X127399500Y-55089059D01*
X127399500Y-72227444D01*
X127379815Y-72294483D01*
X127327011Y-72340238D01*
X127257853Y-72350182D01*
X127239575Y-72345202D01*
X127239324Y-72346031D01*
X127233500Y-72344264D01*
X127233497Y-72344263D01*
X127233492Y-72344262D01*
X127233489Y-72344261D01*
X127078845Y-72313500D01*
X127078842Y-72313500D01*
X126921158Y-72313500D01*
X126921155Y-72313500D01*
X126766510Y-72344261D01*
X126766498Y-72344264D01*
X126620827Y-72404602D01*
X126620814Y-72404609D01*
X126489125Y-72492602D01*
X126422447Y-72513480D01*
X126420234Y-72513500D01*
X125806940Y-72513500D01*
X125766019Y-72524464D01*
X125766019Y-72524465D01*
X125728751Y-72534451D01*
X125654214Y-72554423D01*
X125654209Y-72554426D01*
X125517290Y-72633475D01*
X125517282Y-72633481D01*
X125405478Y-72745286D01*
X105360833Y-92789930D01*
X105299510Y-92823415D01*
X105229818Y-92818431D01*
X105173885Y-92776559D01*
X105155221Y-92740567D01*
X105142628Y-92701809D01*
X105142627Y-92701806D01*
X105025216Y-92471377D01*
X104945036Y-92361017D01*
X104945034Y-92361016D01*
X104258162Y-93047890D01*
X104239003Y-93001636D01*
X104162561Y-92887232D01*
X104065268Y-92789939D01*
X103950864Y-92713497D01*
X103904608Y-92694337D01*
X104591482Y-92007464D01*
X104591481Y-92007463D01*
X104481122Y-91927283D01*
X104250695Y-91809874D01*
X104004733Y-91729956D01*
X103749306Y-91689500D01*
X103490694Y-91689500D01*
X103235266Y-91729956D01*
X103235265Y-91729956D01*
X102989304Y-91809874D01*
X102758884Y-91927279D01*
X102648517Y-92007464D01*
X102648517Y-92007465D01*
X103335390Y-92694337D01*
X103289136Y-92713497D01*
X103174732Y-92789939D01*
X103077439Y-92887232D01*
X103000997Y-93001636D01*
X102981837Y-93047890D01*
X102294965Y-92361017D01*
X102294964Y-92361017D01*
X102214779Y-92471384D01*
X102097374Y-92701804D01*
X102017456Y-92947765D01*
X102017456Y-92947766D01*
X101977000Y-93203193D01*
X101977000Y-93461806D01*
X102017456Y-93717233D01*
X102017456Y-93717234D01*
X102097374Y-93963195D01*
X102214783Y-94193622D01*
X102294963Y-94303981D01*
X102294964Y-94303982D01*
X102981837Y-93617109D01*
X103000997Y-93663364D01*
X103077439Y-93777768D01*
X103174732Y-93875061D01*
X103289136Y-93951503D01*
X103335390Y-93970662D01*
X102648516Y-94657534D01*
X102648517Y-94657536D01*
X102758877Y-94737716D01*
X102989306Y-94855127D01*
X102989309Y-94855128D01*
X103028067Y-94867721D01*
X103085742Y-94907158D01*
X103112941Y-94971516D01*
X103101027Y-95040363D01*
X103077430Y-95073333D01*
X101327584Y-96823181D01*
X101266261Y-96856666D01*
X101239903Y-96859500D01*
X87169490Y-96859500D01*
X87102451Y-96839815D01*
X87059005Y-96791795D01*
X87058363Y-96790535D01*
X87028407Y-96731743D01*
X87014156Y-96712128D01*
X86899857Y-96554806D01*
X86745193Y-96400142D01*
X86568260Y-96271595D01*
X86568259Y-96271594D01*
X86568257Y-96271593D01*
X86487139Y-96230261D01*
X86373383Y-96172298D01*
X86373380Y-96172297D01*
X86165376Y-96104714D01*
X85949361Y-96070500D01*
X85949356Y-96070500D01*
X85730644Y-96070500D01*
X85730639Y-96070500D01*
X85514623Y-96104714D01*
X85306619Y-96172297D01*
X85306616Y-96172298D01*
X85111739Y-96271595D01*
X84934806Y-96400142D01*
X84780142Y-96554806D01*
X84651595Y-96731739D01*
X84552298Y-96926616D01*
X84552297Y-96926619D01*
X84484714Y-97134623D01*
X84450500Y-97350638D01*
X84450500Y-97569361D01*
X84484714Y-97785376D01*
X84552297Y-97993380D01*
X84552298Y-97993383D01*
X84651595Y-98188260D01*
X84780142Y-98365193D01*
X84934806Y-98519857D01*
X85085969Y-98629682D01*
X85128635Y-98685011D01*
X85134614Y-98754625D01*
X85102009Y-98816420D01*
X85085969Y-98830318D01*
X84934806Y-98940142D01*
X84780142Y-99094806D01*
X84651595Y-99271739D01*
X84552298Y-99466616D01*
X84552297Y-99466619D01*
X84484714Y-99674623D01*
X84450500Y-99890638D01*
X84450500Y-100109361D01*
X84484714Y-100325378D01*
X84505540Y-100389475D01*
X84507535Y-100459316D01*
X84475290Y-100515473D01*
X83631286Y-101359478D01*
X83519481Y-101471282D01*
X83519479Y-101471285D01*
X83480353Y-101539055D01*
X83480352Y-101539057D01*
X83440423Y-101608214D01*
X83434241Y-101631286D01*
X83399499Y-101760943D01*
X83399499Y-101919057D01*
X83399499Y-101919059D01*
X83399500Y-101929053D01*
X83399500Y-111913330D01*
X83399499Y-111913348D01*
X83399499Y-112079054D01*
X83399498Y-112079054D01*
X81928289Y-112079054D01*
X80636819Y-110787584D01*
X80603334Y-110726261D01*
X80600500Y-110699903D01*
X80600500Y-93203193D01*
X86737000Y-93203193D01*
X86737000Y-93461806D01*
X86777456Y-93717233D01*
X86777456Y-93717234D01*
X86857374Y-93963195D01*
X86974783Y-94193622D01*
X87054963Y-94303981D01*
X87054964Y-94303982D01*
X87741837Y-93617109D01*
X87760997Y-93663364D01*
X87837439Y-93777768D01*
X87934732Y-93875061D01*
X88049136Y-93951503D01*
X88095390Y-93970661D01*
X87408516Y-94657534D01*
X87408517Y-94657536D01*
X87518877Y-94737716D01*
X87749304Y-94855125D01*
X87995266Y-94935043D01*
X88250694Y-94975500D01*
X88509306Y-94975500D01*
X88764733Y-94935043D01*
X88764734Y-94935043D01*
X89010695Y-94855125D01*
X89241119Y-94737718D01*
X89351481Y-94657534D01*
X89351482Y-94657534D01*
X88664609Y-93970662D01*
X88710864Y-93951503D01*
X88825268Y-93875061D01*
X88922561Y-93777768D01*
X88999003Y-93663364D01*
X89018161Y-93617109D01*
X89705034Y-94303982D01*
X89705034Y-94303981D01*
X89785218Y-94193619D01*
X89902625Y-93963195D01*
X89982543Y-93717234D01*
X89982543Y-93717233D01*
X90022999Y-93461809D01*
X90023000Y-93461802D01*
X90023000Y-93203193D01*
X89982543Y-92947766D01*
X89982543Y-92947765D01*
X89902625Y-92701804D01*
X89785216Y-92471377D01*
X89705036Y-92361017D01*
X89705034Y-92361016D01*
X89018161Y-93047889D01*
X88999003Y-93001636D01*
X88922561Y-92887232D01*
X88825268Y-92789939D01*
X88710864Y-92713497D01*
X88664608Y-92694337D01*
X89088263Y-92270683D01*
X91436000Y-92270683D01*
X91436000Y-92489316D01*
X91470202Y-92705259D01*
X91537761Y-92913188D01*
X91537762Y-92913191D01*
X91637020Y-93107993D01*
X91637021Y-93107995D01*
X91681806Y-93169638D01*
X91681807Y-93169638D01*
X92382861Y-92468584D01*
X92405667Y-92553694D01*
X92464910Y-92656306D01*
X92548694Y-92740090D01*
X92651306Y-92799333D01*
X92736414Y-92822137D01*
X92035360Y-93523191D01*
X92097008Y-93567980D01*
X92291808Y-93667237D01*
X92291811Y-93667238D01*
X92499740Y-93734797D01*
X92715684Y-93769000D01*
X92934316Y-93769000D01*
X93150259Y-93734797D01*
X93358188Y-93667238D01*
X93358191Y-93667237D01*
X93552995Y-93567978D01*
X93614638Y-93523191D01*
X93614639Y-93523191D01*
X92913585Y-92822138D01*
X92998694Y-92799333D01*
X93101306Y-92740090D01*
X93185090Y-92656306D01*
X93244333Y-92553694D01*
X93267138Y-92468585D01*
X93968191Y-93169639D01*
X93968191Y-93169638D01*
X94012978Y-93107995D01*
X94112237Y-92913191D01*
X94112238Y-92913188D01*
X94179797Y-92705259D01*
X94214000Y-92489316D01*
X94214000Y-92270683D01*
X94213993Y-92270638D01*
X97785500Y-92270638D01*
X97785500Y-92489361D01*
X97819714Y-92705376D01*
X97887297Y-92913380D01*
X97887298Y-92913383D01*
X97920705Y-92978946D01*
X97986458Y-93107993D01*
X97986595Y-93108260D01*
X98115142Y-93285193D01*
X98269806Y-93439857D01*
X98384508Y-93523191D01*
X98446743Y-93568407D01*
X98574132Y-93633315D01*
X98641616Y-93667701D01*
X98641619Y-93667702D01*
X98698099Y-93686053D01*
X98849625Y-93735286D01*
X98949672Y-93751132D01*
X99065639Y-93769500D01*
X99065644Y-93769500D01*
X99284361Y-93769500D01*
X99389082Y-93752912D01*
X99500375Y-93735286D01*
X99708383Y-93667701D01*
X99903257Y-93568407D01*
X100049982Y-93461806D01*
X100080193Y-93439857D01*
X100080195Y-93439854D01*
X100080199Y-93439852D01*
X100234852Y-93285199D01*
X100250469Y-93263704D01*
X100350927Y-93125436D01*
X100363405Y-93108260D01*
X100363542Y-93107993D01*
X100462701Y-92913383D01*
X100530286Y-92705375D01*
X100554310Y-92553694D01*
X100564500Y-92489361D01*
X100564500Y-92270638D01*
X100533374Y-92074122D01*
X100533374Y-92074121D01*
X100530286Y-92054624D01*
X100462702Y-91846619D01*
X100462701Y-91846616D01*
X100422750Y-91768209D01*
X100363407Y-91651743D01*
X100348544Y-91631286D01*
X100234857Y-91474806D01*
X100080193Y-91320142D01*
X99903260Y-91191595D01*
X99903259Y-91191594D01*
X99903257Y-91191593D01*
X99778980Y-91128270D01*
X99708383Y-91092298D01*
X99708380Y-91092297D01*
X99500376Y-91024714D01*
X99284361Y-90990500D01*
X99284356Y-90990500D01*
X99065644Y-90990500D01*
X99065639Y-90990500D01*
X98849623Y-91024714D01*
X98641619Y-91092297D01*
X98641616Y-91092298D01*
X98446739Y-91191595D01*
X98269806Y-91320142D01*
X98115142Y-91474806D01*
X97986595Y-91651739D01*
X97887298Y-91846616D01*
X97887297Y-91846619D01*
X97819714Y-92054623D01*
X97785500Y-92270638D01*
X94213993Y-92270638D01*
X94179797Y-92054740D01*
X94112238Y-91846811D01*
X94112237Y-91846808D01*
X94012980Y-91652008D01*
X93968191Y-91590360D01*
X93267137Y-92291414D01*
X93244333Y-92206306D01*
X93185090Y-92103694D01*
X93101306Y-92019910D01*
X92998694Y-91960667D01*
X92913583Y-91937861D01*
X93614638Y-91236807D01*
X93614638Y-91236806D01*
X93552995Y-91192021D01*
X93552993Y-91192020D01*
X93358191Y-91092762D01*
X93358188Y-91092761D01*
X93150259Y-91025202D01*
X92934316Y-90991000D01*
X92715684Y-90991000D01*
X92499740Y-91025202D01*
X92291811Y-91092761D01*
X92291808Y-91092762D01*
X92097001Y-91192023D01*
X92035360Y-91236806D01*
X92035360Y-91236807D01*
X92736414Y-91937861D01*
X92651306Y-91960667D01*
X92548694Y-92019910D01*
X92464910Y-92103694D01*
X92405667Y-92206306D01*
X92382861Y-92291414D01*
X91681807Y-91590360D01*
X91681806Y-91590360D01*
X91637023Y-91652001D01*
X91537762Y-91846808D01*
X91537761Y-91846811D01*
X91470202Y-92054740D01*
X91436000Y-92270683D01*
X89088263Y-92270683D01*
X89351482Y-92007464D01*
X89351481Y-92007463D01*
X89241122Y-91927283D01*
X89010695Y-91809874D01*
X88764733Y-91729956D01*
X88509306Y-91689500D01*
X88250694Y-91689500D01*
X87995266Y-91729956D01*
X87995265Y-91729956D01*
X87749304Y-91809874D01*
X87518884Y-91927279D01*
X87408517Y-92007464D01*
X87408517Y-92007465D01*
X88095390Y-92694337D01*
X88049136Y-92713497D01*
X87934732Y-92789939D01*
X87837439Y-92887232D01*
X87760997Y-93001636D01*
X87741837Y-93047890D01*
X87054965Y-92361017D01*
X87054964Y-92361017D01*
X86974779Y-92471384D01*
X86857374Y-92701804D01*
X86777456Y-92947765D01*
X86777456Y-92947766D01*
X86737000Y-93203193D01*
X80600500Y-93203193D01*
X80600500Y-92300097D01*
X80620185Y-92233058D01*
X80636819Y-92212416D01*
X81652850Y-91196385D01*
X82792752Y-90056484D01*
X84912417Y-87936819D01*
X84973740Y-87903334D01*
X85000098Y-87900500D01*
X91495510Y-87900500D01*
X91562549Y-87920185D01*
X91605995Y-87968205D01*
X91636595Y-88028260D01*
X91765142Y-88205193D01*
X91919806Y-88359857D01*
X92085374Y-88480147D01*
X92096743Y-88488407D01*
X92224132Y-88553315D01*
X92291616Y-88587701D01*
X92291619Y-88587702D01*
X92395621Y-88621493D01*
X92499625Y-88655286D01*
X92599672Y-88671132D01*
X92715639Y-88689500D01*
X92715644Y-88689500D01*
X92934361Y-88689500D01*
X93039082Y-88672912D01*
X93150375Y-88655286D01*
X93358383Y-88587701D01*
X93553257Y-88488407D01*
X93670348Y-88403336D01*
X93730193Y-88359857D01*
X93730195Y-88359854D01*
X93730199Y-88359852D01*
X93884852Y-88205199D01*
X93884854Y-88205195D01*
X93884857Y-88205193D01*
X93941229Y-88127601D01*
X94013407Y-88028257D01*
X94112701Y-87833383D01*
X94180286Y-87625375D01*
X94197912Y-87514082D01*
X94214500Y-87409361D01*
X94214500Y-87190638D01*
X97785500Y-87190638D01*
X97785500Y-87409361D01*
X97819714Y-87625376D01*
X97887297Y-87833380D01*
X97887298Y-87833383D01*
X97986595Y-88028260D01*
X98115142Y-88205193D01*
X98269806Y-88359857D01*
X98435374Y-88480147D01*
X98446743Y-88488407D01*
X98574132Y-88553315D01*
X98641616Y-88587701D01*
X98641619Y-88587702D01*
X98745621Y-88621493D01*
X98849625Y-88655286D01*
X98949672Y-88671132D01*
X99065639Y-88689500D01*
X99065644Y-88689500D01*
X99284361Y-88689500D01*
X99389082Y-88672912D01*
X99500375Y-88655286D01*
X99708383Y-88587701D01*
X99903257Y-88488407D01*
X100020348Y-88403336D01*
X100080193Y-88359857D01*
X100080195Y-88359854D01*
X100080199Y-88359852D01*
X100234852Y-88205199D01*
X100234854Y-88205195D01*
X100234857Y-88205193D01*
X100291229Y-88127601D01*
X100363407Y-88028257D01*
X100462701Y-87833383D01*
X100530286Y-87625375D01*
X100547912Y-87514082D01*
X100564500Y-87409361D01*
X100564500Y-87190638D01*
X100544595Y-87064971D01*
X100530286Y-86974625D01*
X100479877Y-86819480D01*
X100462702Y-86766619D01*
X100462701Y-86766616D01*
X100394005Y-86631795D01*
X100363407Y-86571743D01*
X100355147Y-86560374D01*
X100234857Y-86394806D01*
X100080193Y-86240142D01*
X99903260Y-86111595D01*
X99903259Y-86111594D01*
X99903257Y-86111593D01*
X99840825Y-86079782D01*
X99708383Y-86012298D01*
X99708380Y-86012297D01*
X99500376Y-85944714D01*
X99284361Y-85910500D01*
X99284356Y-85910500D01*
X99065644Y-85910500D01*
X99065639Y-85910500D01*
X98849623Y-85944714D01*
X98641619Y-86012297D01*
X98641616Y-86012298D01*
X98446739Y-86111595D01*
X98269806Y-86240142D01*
X98115142Y-86394806D01*
X97986595Y-86571739D01*
X97887298Y-86766616D01*
X97887297Y-86766619D01*
X97819714Y-86974623D01*
X97785500Y-87190638D01*
X94214500Y-87190638D01*
X94194595Y-87064971D01*
X94180286Y-86974625D01*
X94129877Y-86819480D01*
X94112702Y-86766619D01*
X94112701Y-86766616D01*
X94044005Y-86631795D01*
X94013407Y-86571743D01*
X94005147Y-86560374D01*
X93884857Y-86394806D01*
X93730193Y-86240142D01*
X93553260Y-86111595D01*
X93553259Y-86111594D01*
X93553257Y-86111593D01*
X93490825Y-86079782D01*
X93358383Y-86012298D01*
X93358380Y-86012297D01*
X93150376Y-85944714D01*
X92934361Y-85910500D01*
X92934356Y-85910500D01*
X92715644Y-85910500D01*
X92715639Y-85910500D01*
X92499623Y-85944714D01*
X92291619Y-86012297D01*
X92291616Y-86012298D01*
X92096739Y-86111595D01*
X91919806Y-86240142D01*
X91765142Y-86394806D01*
X91636595Y-86571739D01*
X91605995Y-86631795D01*
X91558020Y-86682591D01*
X91495510Y-86699500D01*
X84786670Y-86699500D01*
X84786654Y-86699499D01*
X84779058Y-86699499D01*
X84620943Y-86699499D01*
X84544579Y-86719961D01*
X84468214Y-86740423D01*
X84468209Y-86740426D01*
X84331290Y-86819475D01*
X84331282Y-86819481D01*
X79519481Y-91631282D01*
X79519479Y-91631285D01*
X79469361Y-91718094D01*
X79469359Y-91718096D01*
X79440425Y-91768209D01*
X79440424Y-91768210D01*
X79429260Y-91809874D01*
X79399499Y-91920943D01*
X79399499Y-92079057D01*
X79399499Y-92079059D01*
X79399500Y-92089053D01*
X79399500Y-110913330D01*
X79399499Y-110913348D01*
X79399499Y-111079054D01*
X79399498Y-111079054D01*
X75500500Y-111079054D01*
X75500500Y-86042487D01*
X75520185Y-85975448D01*
X75557840Y-85937929D01*
X97650354Y-71853952D01*
X110399500Y-71853952D01*
X110399500Y-72146047D01*
X110432199Y-72436271D01*
X110432202Y-72436285D01*
X110497196Y-72721044D01*
X110497197Y-72721046D01*
X110593665Y-72996738D01*
X110720393Y-73259890D01*
X110768466Y-73336398D01*
X110875792Y-73507206D01*
X111011652Y-73677569D01*
X111044397Y-73718631D01*
X111057902Y-73735565D01*
X111264435Y-73942098D01*
X111492794Y-74124208D01*
X111740107Y-74279605D01*
X112003263Y-74406335D01*
X112278955Y-74502803D01*
X112563714Y-74567798D01*
X112563723Y-74567799D01*
X112563728Y-74567800D01*
X112757210Y-74589599D01*
X112853953Y-74600499D01*
X112853956Y-74600500D01*
X112853959Y-74600500D01*
X113146044Y-74600500D01*
X113146045Y-74600499D01*
X113294371Y-74583787D01*
X113436271Y-74567800D01*
X113436274Y-74567799D01*
X113436286Y-74567798D01*
X113721045Y-74502803D01*
X113996737Y-74406335D01*
X114259893Y-74279605D01*
X114507206Y-74124208D01*
X114735565Y-73942098D01*
X114942098Y-73735565D01*
X115124208Y-73507206D01*
X115279605Y-73259893D01*
X115406335Y-72996737D01*
X115502803Y-72721045D01*
X115567798Y-72436286D01*
X115571368Y-72404606D01*
X115591328Y-72227444D01*
X115600500Y-72146041D01*
X115600500Y-71853959D01*
X115588327Y-71745920D01*
X115567800Y-71563728D01*
X115567799Y-71563723D01*
X115567798Y-71563714D01*
X115502803Y-71278955D01*
X115406335Y-71003263D01*
X115279605Y-70740107D01*
X115124208Y-70492794D01*
X114942098Y-70264435D01*
X114735565Y-70057902D01*
X114507206Y-69875792D01*
X114259893Y-69720395D01*
X114259890Y-69720393D01*
X113996738Y-69593665D01*
X113721046Y-69497197D01*
X113721044Y-69497196D01*
X113501280Y-69447036D01*
X113436286Y-69432202D01*
X113436283Y-69432201D01*
X113436271Y-69432199D01*
X113146047Y-69399500D01*
X113146041Y-69399500D01*
X112853959Y-69399500D01*
X112853952Y-69399500D01*
X112563728Y-69432199D01*
X112563714Y-69432202D01*
X112278955Y-69497196D01*
X112278953Y-69497197D01*
X112003261Y-69593665D01*
X111740109Y-69720393D01*
X111492795Y-69875791D01*
X111264435Y-70057901D01*
X111057901Y-70264435D01*
X110875791Y-70492795D01*
X110720393Y-70740109D01*
X110593665Y-71003261D01*
X110497197Y-71278953D01*
X110497196Y-71278955D01*
X110432202Y-71563714D01*
X110432199Y-71563728D01*
X110399500Y-71853952D01*
X97650354Y-71853952D01*
X131259774Y-50427947D01*
X131307314Y-50400500D01*
X131315202Y-50392611D01*
X131324609Y-50386615D01*
X131361684Y-50346129D01*
X131400500Y-50307314D01*
X131406077Y-50297653D01*
X131413612Y-50289426D01*
X131438944Y-50240726D01*
X131466392Y-50193186D01*
X131469279Y-50182409D01*
X131474427Y-50172514D01*
X131485710Y-50121538D01*
X131486994Y-50116293D01*
X131486995Y-50116290D01*
X131500500Y-50065892D01*
X131500500Y-50054735D01*
X131502911Y-50043844D01*
X131500500Y-49989002D01*
X131500500Y-26258676D01*
X131520185Y-26191637D01*
X131536819Y-26170995D01*
X138170995Y-19536819D01*
X138232318Y-19503334D01*
X138258676Y-19500500D01*
X187741324Y-19500500D01*
X187808363Y-19520185D01*
G37*
G04 #@! TD.AperFunction*
M02*
